<svg version="1.1" xmlns="http://www.w3.org/2000/svg" viewBox="0 0 210.9913213725988 20.00045433329501" width="210.9913213725988" height="20.00045433329501">
  <!-- svg-source:excalidraw -->
  
  <defs>
    <style class="style-fonts">
      
    </style>
    
  </defs>
  <g stroke-linecap="round"><g transform="translate(10 10.00045433329501) rotate(0 95.4956606862994 -0.000227166647505328)"><path d="M0 0 C31.83 0, 159.16 0, 190.99 0 M0 0 C31.83 0, 159.16 0, 190.99 0" stroke="#1e1e1e" stroke-width="2" fill="none"></path></g><g transform="translate(10 10.00045433329501) rotate(0 95.4956606862994 -0.000227166647505328)"><path d="M167.5 8.55 C176.5 5.27, 185.51 2, 190.99 0 M167.5 8.55 C175.12 5.78, 182.74 3, 190.99 0" stroke="#1e1e1e" stroke-width="2" fill="none"></path></g><g transform="translate(10 10.00045433329501) rotate(0 95.4956606862994 -0.000227166647505328)"><path d="M167.5 -8.55 C176.5 -5.27, 185.51 -2, 190.99 0 M167.5 -8.55 C175.12 -5.78, 182.74 -3.01, 190.99 0" stroke="#1e1e1e" stroke-width="2" fill="none"></path></g></g><mask></mask></svg>