<svg version="1.1" xmlns="http://www.w3.org/2000/svg" viewBox="0 0 86.17857359899023 116.672445664663" width="86.17857359899023" height="116.672445664663">
  <!-- svg-source:excalidraw -->
  
  <defs>
    <style class="style-fonts">
      
    </style>
    
  </defs>
  <rect x="0" y="0" width="86.17857359899023" height="116.672445664663" fill="#ffffff"></rect><g stroke-linecap="round"><g transform="translate(73.15453902110067 75.62685645789023) rotate(0 -30.33244694572568 -17.341844511324574)" fill-rule="evenodd"><path d="M0 0 C-0.2 1.82, -0.21 7.34, -1.22 10.91 C-2.22 14.49, -3.64 18.59, -6.03 21.45 C-8.41 24.31, -11.62 26.5, -15.53 28.06 C-19.44 29.62, -24.69 30.5, -29.47 30.82 C-34.26 31.13, -39.87 31.1, -44.23 29.96 C-48.59 28.82, -52.8 27.49, -55.64 23.99 C-58.47 20.5, -60.36 18.41, -61.25 8.97 C-62.13 -0.47, -62.19 -22.15, -60.95 -32.66 C-59.71 -43.17, -55.28 -50.05, -53.82 -54.09 C-52.35 -58.13, -52.46 -56.39, -52.17 -56.9 C-51.87 -57.41, -51.85 -56.7, -52.07 -57.16 C-52.29 -57.63, -53.14 -58.84, -53.49 -59.67 C-53.83 -60.51, -54.16 -61.38, -54.13 -62.16 C-54.1 -62.94, -53.75 -63.79, -53.31 -64.35 C-52.87 -64.9, -52.1 -65.3, -51.48 -65.49 C-50.86 -65.68, -50.17 -65.66, -49.61 -65.5 C-49.04 -65.34, -48.61 -65.02, -48.08 -64.54 C-47.56 -64.07, -46.95 -63.17, -46.43 -62.65 C-45.91 -62.13, -45.42 -61.51, -44.97 -61.4 C-44.52 -61.3, -46.44 -61.52, -43.74 -62.04 C-41.05 -62.55, -33.44 -64.4, -28.79 -64.51 C-24.13 -64.62, -18.88 -63.31, -15.8 -62.69 C-12.73 -62.07, -11.34 -61.12, -10.32 -60.79 C-9.3 -60.46, -10.1 -60.36, -9.69 -60.72 C-9.28 -61.07, -8.41 -62.35, -7.84 -62.92 C-7.28 -63.49, -6.82 -63.86, -6.29 -64.14 C-5.76 -64.43, -5.26 -64.66, -4.65 -64.65 C-4.05 -64.63, -3.17 -64.4, -2.66 -64.04 C-2.15 -63.69, -1.75 -63.16, -1.61 -62.5 C-1.47 -61.85, -1.42 -61.14, -1.82 -60.11 C-2.22 -59.08, -3.75 -57.09, -4.04 -56.34 C-4.32 -55.59, -3.96 -56.59, -3.55 -55.59 C-3.14 -54.6, -2.27 -54.21, -1.58 -50.36 C-0.89 -46.5, 0.32 -40.85, 0.58 -32.46 C0.84 -24.06, 0.1 -5.41, 0 0" stroke="none" stroke-width="0" fill="#ffc9c9" fill-rule="evenodd"></path><path d="M0 0 C-0.2 1.82, -0.21 7.34, -1.22 10.91 C-2.22 14.49, -3.64 18.59, -6.03 21.45 C-8.41 24.31, -11.62 26.5, -15.53 28.06 C-19.44 29.62, -24.69 30.5, -29.47 30.82 C-34.26 31.13, -39.87 31.1, -44.23 29.96 C-48.59 28.82, -52.8 27.49, -55.64 23.99 C-58.47 20.5, -60.36 18.41, -61.25 8.97 C-62.13 -0.47, -62.19 -22.15, -60.95 -32.66 C-59.71 -43.17, -55.28 -50.05, -53.82 -54.09 C-52.35 -58.13, -52.46 -56.39, -52.17 -56.9 C-51.87 -57.41, -51.85 -56.7, -52.07 -57.16 C-52.29 -57.63, -53.14 -58.84, -53.49 -59.67 C-53.83 -60.51, -54.16 -61.38, -54.13 -62.16 C-54.1 -62.94, -53.75 -63.79, -53.31 -64.35 C-52.87 -64.9, -52.1 -65.3, -51.48 -65.49 C-50.86 -65.68, -50.17 -65.66, -49.61 -65.5 C-49.04 -65.34, -48.61 -65.02, -48.08 -64.54 C-47.56 -64.07, -46.95 -63.17, -46.43 -62.65 C-45.91 -62.13, -45.42 -61.51, -44.97 -61.4 C-44.52 -61.3, -46.44 -61.52, -43.74 -62.04 C-41.05 -62.55, -33.44 -64.4, -28.79 -64.51 C-24.13 -64.62, -18.88 -63.31, -15.8 -62.69 C-12.73 -62.07, -11.34 -61.12, -10.32 -60.79 C-9.3 -60.46, -10.1 -60.36, -9.69 -60.72 C-9.28 -61.07, -8.41 -62.35, -7.84 -62.92 C-7.28 -63.49, -6.82 -63.86, -6.29 -64.14 C-5.76 -64.43, -5.26 -64.66, -4.65 -64.65 C-4.05 -64.63, -3.17 -64.4, -2.66 -64.04 C-2.15 -63.69, -1.75 -63.16, -1.61 -62.5 C-1.47 -61.85, -1.42 -61.14, -1.82 -60.11 C-2.22 -59.08, -3.75 -57.09, -4.04 -56.34 C-4.32 -55.59, -3.96 -56.59, -3.55 -55.59 C-3.14 -54.6, -2.27 -54.21, -1.58 -50.36 C-0.89 -46.5, 0.32 -40.85, 0.58 -32.46 C0.84 -24.06, 0.1 -5.41, 0 0 M0 0 C-0.2 1.82, -0.21 7.34, -1.22 10.91 C-2.22 14.49, -3.64 18.59, -6.03 21.45 C-8.41 24.31, -11.62 26.5, -15.53 28.06 C-19.44 29.62, -24.69 30.5, -29.47 30.82 C-34.26 31.13, -39.87 31.1, -44.23 29.96 C-48.59 28.82, -52.8 27.49, -55.64 23.99 C-58.47 20.5, -60.36 18.41, -61.25 8.97 C-62.13 -0.47, -62.19 -22.15, -60.95 -32.66 C-59.71 -43.17, -55.28 -50.05, -53.82 -54.09 C-52.35 -58.13, -52.46 -56.39, -52.17 -56.9 C-51.87 -57.41, -51.85 -56.7, -52.07 -57.16 C-52.29 -57.63, -53.14 -58.84, -53.49 -59.67 C-53.83 -60.51, -54.16 -61.38, -54.13 -62.16 C-54.1 -62.94, -53.75 -63.79, -53.31 -64.35 C-52.87 -64.9, -52.1 -65.3, -51.48 -65.49 C-50.86 -65.68, -50.17 -65.66, -49.61 -65.5 C-49.04 -65.34, -48.61 -65.02, -48.08 -64.54 C-47.56 -64.07, -46.95 -63.17, -46.43 -62.65 C-45.91 -62.13, -45.42 -61.51, -44.97 -61.4 C-44.52 -61.3, -46.44 -61.52, -43.74 -62.04 C-41.05 -62.55, -33.44 -64.4, -28.79 -64.51 C-24.13 -64.62, -18.88 -63.31, -15.8 -62.69 C-12.73 -62.07, -11.34 -61.12, -10.32 -60.79 C-9.3 -60.46, -10.1 -60.36, -9.69 -60.72 C-9.28 -61.07, -8.41 -62.35, -7.84 -62.92 C-7.28 -63.49, -6.82 -63.86, -6.29 -64.14 C-5.76 -64.43, -5.26 -64.66, -4.65 -64.65 C-4.05 -64.63, -3.17 -64.4, -2.66 -64.04 C-2.15 -63.69, -1.75 -63.16, -1.61 -62.5 C-1.47 -61.85, -1.42 -61.14, -1.82 -60.11 C-2.22 -59.08, -3.75 -57.09, -4.04 -56.34 C-4.32 -55.59, -3.96 -56.59, -3.55 -55.59 C-3.14 -54.6, -2.27 -54.21, -1.58 -50.36 C-0.89 -46.5, 0.32 -40.85, 0.58 -32.46 C0.84 -24.06, 0.1 -5.41, 0 0" stroke="#000000" stroke-width="1" fill="none"></path></g></g><mask></mask><g stroke-linecap="round"><g transform="translate(73.15453902110067 75.68401642576956) rotate(0 -30.33244694572568 -16.91431974687501)" fill-rule="evenodd"><path d="M0 0 C-0.2 1.82, -0.21 7.34, -1.22 10.91 C-2.22 14.49, -3.64 18.59, -6.03 21.45 C-8.41 24.31, -11.62 26.5, -15.53 28.06 C-19.44 29.62, -24.69 30.5, -29.47 30.82 C-34.26 31.13, -39.87 31.1, -44.23 29.96 C-48.59 28.82, -52.8 27.49, -55.64 23.99 C-58.47 20.5, -60.36 18.41, -61.25 8.97 C-62.13 -0.47, -62.19 -22.15, -60.95 -32.66 C-59.71 -43.17, -56.64 -49.22, -53.82 -54.09 C-51 -58.97, -48.21 -60.17, -44.04 -61.9 C-39.87 -63.64, -33.49 -64.37, -28.79 -64.51 C-24.08 -64.64, -18.88 -63.31, -15.8 -62.69 C-12.73 -62.07, -11.34 -61.12, -10.32 -60.79 C-9.3 -60.46, -10.1 -60.36, -9.69 -60.72 C-9.28 -61.07, -8.41 -62.35, -7.84 -62.92 C-7.28 -63.49, -6.82 -63.86, -6.29 -64.14 C-5.76 -64.43, -5.26 -64.66, -4.65 -64.65 C-4.05 -64.63, -3.17 -64.4, -2.66 -64.04 C-2.15 -63.69, -1.75 -63.16, -1.61 -62.5 C-1.47 -61.85, -1.42 -61.14, -1.82 -60.11 C-2.22 -59.08, -3.75 -57.09, -4.04 -56.34 C-4.32 -55.59, -3.96 -56.59, -3.55 -55.59 C-3.14 -54.6, -2.27 -54.21, -1.58 -50.36 C-0.89 -46.5, 0.32 -40.85, 0.58 -32.46 C0.84 -24.06, 0.1 -5.41, 0 0" stroke="none" stroke-width="0" fill="#ffc9c9" fill-rule="evenodd"></path><path d="M0 0 C-0.2 1.82, -0.21 7.34, -1.22 10.91 C-2.22 14.49, -3.64 18.59, -6.03 21.45 C-8.41 24.31, -11.62 26.5, -15.53 28.06 C-19.44 29.62, -24.69 30.5, -29.47 30.82 C-34.26 31.13, -39.87 31.1, -44.23 29.96 C-48.59 28.82, -52.8 27.49, -55.64 23.99 C-58.47 20.5, -60.36 18.41, -61.25 8.97 C-62.13 -0.47, -62.19 -22.15, -60.95 -32.66 C-59.71 -43.17, -56.64 -49.22, -53.82 -54.09 C-51 -58.97, -48.21 -60.17, -44.04 -61.9 C-39.87 -63.64, -33.49 -64.37, -28.79 -64.51 C-24.08 -64.64, -18.88 -63.31, -15.8 -62.69 C-12.73 -62.07, -11.34 -61.12, -10.32 -60.79 C-9.3 -60.46, -10.1 -60.36, -9.69 -60.72 C-9.28 -61.07, -8.41 -62.35, -7.84 -62.92 C-7.28 -63.49, -6.82 -63.86, -6.29 -64.14 C-5.76 -64.43, -5.26 -64.66, -4.65 -64.65 C-4.05 -64.63, -3.17 -64.4, -2.66 -64.04 C-2.15 -63.69, -1.75 -63.16, -1.61 -62.5 C-1.47 -61.85, -1.42 -61.14, -1.82 -60.11 C-2.22 -59.08, -3.75 -57.09, -4.04 -56.34 C-4.32 -55.59, -3.96 -56.59, -3.55 -55.59 C-3.14 -54.6, -2.27 -54.21, -1.58 -50.36 C-0.89 -46.5, 0.32 -40.85, 0.58 -32.46 C0.84 -24.06, 0.1 -5.41, 0 0 M0 0 C-0.2 1.82, -0.21 7.34, -1.22 10.91 C-2.22 14.49, -3.64 18.59, -6.03 21.45 C-8.41 24.31, -11.62 26.5, -15.53 28.06 C-19.44 29.62, -24.69 30.5, -29.47 30.82 C-34.26 31.13, -39.87 31.1, -44.23 29.96 C-48.59 28.82, -52.8 27.49, -55.64 23.99 C-58.47 20.5, -60.36 18.41, -61.25 8.97 C-62.13 -0.47, -62.19 -22.15, -60.95 -32.66 C-59.71 -43.17, -56.64 -49.22, -53.82 -54.09 C-51 -58.97, -48.21 -60.17, -44.04 -61.9 C-39.87 -63.64, -33.49 -64.37, -28.79 -64.51 C-24.08 -64.64, -18.88 -63.31, -15.8 -62.69 C-12.73 -62.07, -11.34 -61.12, -10.32 -60.79 C-9.3 -60.46, -10.1 -60.36, -9.69 -60.72 C-9.28 -61.07, -8.41 -62.35, -7.84 -62.92 C-7.28 -63.49, -6.82 -63.86, -6.29 -64.14 C-5.76 -64.43, -5.26 -64.66, -4.65 -64.65 C-4.05 -64.63, -3.17 -64.4, -2.66 -64.04 C-2.15 -63.69, -1.75 -63.16, -1.61 -62.5 C-1.47 -61.85, -1.42 -61.14, -1.82 -60.11 C-2.22 -59.08, -3.75 -57.09, -4.04 -56.34 C-4.32 -55.59, -3.96 -56.59, -3.55 -55.59 C-3.14 -54.6, -2.27 -54.21, -1.58 -50.36 C-0.89 -46.5, 0.32 -40.85, 0.58 -32.46 C0.84 -24.06, 0.1 -5.41, 0 0" stroke="#000000" stroke-width="1" fill="none"></path></g></g><mask></mask><g stroke-linecap="round"><g transform="translate(61.14269511765906 14.230503987832009) rotate(0 4.3893835556588385 3.0202180428845296)"><path d="M0 0 C0.7 0.38, 2.91 1.42, 4.23 2.26 C5.54 3.09, 7.13 4.36, 7.89 4.99 C8.65 5.62, 8.63 5.87, 8.78 6.04 M0 0 C0.7 0.38, 2.91 1.42, 4.23 2.26 C5.54 3.09, 7.13 4.36, 7.89 4.99 C8.65 5.62, 8.63 5.87, 8.78 6.04" stroke="#000000" stroke-width="1" fill="none"></path></g></g><mask></mask><g stroke-linecap="round"><g transform="translate(66.36797624068055 16.96911576479434) rotate(0 0.6743903104007245 -1.7166298810199976)" fill-rule="evenodd"><path d="M0 0 C0.12 -0.27, 0.51 -1.02, 0.74 -1.59 C0.96 -2.17, 1.25 -3.13, 1.35 -3.43" stroke="none" stroke-width="0" fill="#ffc9c9" fill-rule="evenodd"></path><path d="M0 0 C0.12 -0.27, 0.51 -1.02, 0.74 -1.59 C0.96 -2.17, 1.25 -3.13, 1.35 -3.43 M0 0 C0.12 -0.27, 0.51 -1.02, 0.74 -1.59 C0.96 -2.17, 1.25 -3.13, 1.35 -3.43" stroke="#000000" stroke-width="1" fill="none"></path></g></g><mask></mask><g stroke-linecap="round"><g transform="translate(69.51300726362115 15.261703593360181) rotate(0 -1.5815143561268599 0.7785916830163018)" fill-rule="evenodd"><path d="M0 0 C-0.26 0.06, -1.03 0.13, -1.56 0.39 C-2.08 0.65, -2.9 1.36, -3.16 1.56" stroke="none" stroke-width="0" fill="#ffc9c9" fill-rule="evenodd"></path><path d="M0 0 C-0.26 0.06, -1.03 0.13, -1.56 0.39 C-2.08 0.65, -2.9 1.36, -3.16 1.56 M0 0 C-0.26 0.06, -1.03 0.13, -1.56 0.39 C-2.08 0.65, -2.9 1.36, -3.16 1.56" stroke="#000000" stroke-width="1" fill="none"></path></g></g><mask></mask><g stroke-opacity="0.5" fill-opacity="0.5" stroke-linecap="round" transform="translate(19.94832257842438 68.09145552279725) rotate(0 21.587545572086782 17.55025845882234)"><path d="M30.99 2.03 C35.24 3.48, 40.2 7.36, 42.04 10.84 C43.88 14.32, 43.59 19.3, 42.01 22.94 C40.43 26.58, 36.59 30.54, 32.58 32.68 C28.57 34.83, 22.32 36.25, 17.96 35.81 C13.59 35.37, 9.29 32.99, 6.38 30.05 C3.47 27.11, 0.89 21.96, 0.49 18.16 C0.08 14.36, 1.07 10.14, 3.94 7.24 C6.82 4.35, 12.75 1.45, 17.71 0.78 C22.68 0.11, 31.14 2.87, 33.73 3.21 C36.32 3.55, 33.49 2.62, 33.26 2.82 M26.95 -0.11 C31.27 0.57, 35.79 4.85, 38.51 8.25 C41.22 11.64, 43.61 16.87, 43.26 20.25 C42.9 23.62, 39.44 25.8, 36.37 28.51 C33.29 31.21, 29.4 35.72, 24.79 36.47 C20.19 37.22, 12.79 35.29, 8.74 33.03 C4.68 30.78, 1.76 26.71, 0.46 22.94 C-0.85 19.16, -1.29 13.85, 0.89 10.37 C3.08 6.9, 9.12 3.65, 13.54 2.1 C17.97 0.54, 25.39 1.35, 27.45 1.04 C29.51 0.73, 26.11 -0.15, 25.9 0.26" stroke="none" stroke-width="0" fill="#ffc9c9"></path><path d="M12.71 2.2 C16.71 0.51, 24.07 -0.86, 28.39 0.17 C32.72 1.21, 36.31 5.12, 38.67 8.42 C41.02 11.72, 42.82 16.37, 42.53 19.97 C42.24 23.57, 40.17 27.52, 36.92 30 C33.67 32.48, 27.8 34.7, 23.02 34.85 C18.24 35, 11.95 33.03, 8.25 30.9 C4.55 28.78, 1.84 25.64, 0.81 22.11 C-0.21 18.58, -0.03 13.37, 2.12 9.73 C4.27 6.09, 11.59 1.62, 13.73 0.26 C15.86 -1.1, 14.72 1.12, 14.91 1.57 M21.66 0.9 C25.65 0.76, 31.25 2, 34.7 4.23 C38.16 6.46, 41.67 10.31, 42.41 14.27 C43.14 18.22, 41.52 24.65, 39.1 27.98 C36.68 31.31, 31.94 33.29, 27.88 34.24 C23.82 35.2, 18.75 35.31, 14.74 33.71 C10.72 32.11, 6.11 27.91, 3.8 24.67 C1.49 21.43, 0.05 17.71, 0.86 14.28 C1.67 10.84, 5.28 6.68, 8.67 4.07 C12.06 1.47, 19.1 -0.95, 21.2 -1.36 C23.29 -1.77, 20.9 0.92, 21.24 1.63" stroke="#000000" stroke-width="1" fill="none"></path></g><g stroke-linecap="round"><g transform="translate(22.185749022006803 16.680967353711736) rotate(294.1768782491122 0.367849260218577 -1.7302804248918449)" fill-rule="evenodd"><path d="M0 0 C0.12 -0.27, 0.62 -1.02, 0.74 -1.59 C0.85 -2.17, 0.7 -3.15, 0.69 -3.46" stroke="none" stroke-width="0" fill="#ffc9c9" fill-rule="evenodd"></path><path d="M0 0 C0.12 -0.27, 0.62 -1.02, 0.74 -1.59 C0.85 -2.17, 0.7 -3.15, 0.69 -3.46 M0 0 C0.12 -0.27, 0.62 -1.02, 0.74 -1.59 C0.85 -2.17, 0.7 -3.15, 0.69 -3.46" stroke="#000000" stroke-width="1" fill="none"></path></g></g><mask></mask><g stroke-linecap="round"><g transform="translate(24.571122744663455 13.303821998844938) rotate(294.1768782491122 -1.223307003437867 1.0995487725948223)" fill-rule="evenodd"><path d="M0 0 C-0.14 0.17, -0.43 0.66, -0.84 1.03 C-1.25 1.4, -2.18 2, -2.45 2.2" stroke="none" stroke-width="0" fill="#ffc9c9" fill-rule="evenodd"></path><path d="M0 0 C-0.14 0.17, -0.43 0.66, -0.84 1.03 C-1.25 1.4, -2.18 2, -2.45 2.2 M0 0 C-0.14 0.17, -0.43 0.66, -0.84 1.03 C-1.25 1.4, -2.18 2, -2.45 2.2" stroke="#000000" stroke-width="1" fill="none"></path></g></g><mask></mask><g stroke-linecap="round" transform="translate(50.25280051051021 21.03505205865511) rotate(0 12.885944411733163 13.012899529090149)"><path d="M12.53 0.16 C15.1 0.04, 18.5 1.62, 20.73 3.43 C22.96 5.24, 25.33 8.36, 25.93 11.02 C26.53 13.68, 25.79 17, 24.31 19.4 C22.84 21.8, 19.65 24.41, 17.09 25.42 C14.52 26.43, 11.4 26.37, 8.92 25.45 C6.45 24.53, 3.72 22.4, 2.23 19.91 C0.73 17.42, -0.49 13.28, -0.04 10.5 C0.4 7.72, 2.61 5.03, 4.9 3.25 C7.2 1.47, 12.14 0.3, 13.72 -0.19 C15.3 -0.68, 14.48 0.11, 14.39 0.32 M14.53 -0.51 C17.22 -0.26, 21.3 2.87, 23.12 5.16 C24.94 7.45, 25.5 10.51, 25.44 13.23 C25.38 15.95, 24.52 19.39, 22.76 21.49 C21 23.59, 17.45 25.29, 14.88 25.81 C12.31 26.33, 9.62 25.91, 7.33 24.61 C5.04 23.3, 2.31 20.65, 1.12 17.97 C-0.06 15.29, -0.62 11.09, 0.21 8.51 C1.05 5.93, 3.61 3.91, 6.11 2.5 C8.6 1.09, 13.61 0.51, 15.18 0.05 C16.74 -0.42, 15.48 -0.62, 15.51 -0.29" stroke="none" stroke-width="0" fill="#ffffff"></path><path d="M10.82 0.32 C13.52 -0.29, 17.56 0.38, 19.96 1.81 C22.36 3.23, 24.45 6.25, 25.23 8.86 C26 11.48, 25.65 14.86, 24.62 17.51 C23.59 20.16, 21.48 23.37, 19.07 24.75 C16.66 26.13, 12.9 26.46, 10.14 25.78 C7.37 25.09, 4.22 22.81, 2.47 20.65 C0.72 18.49, -0.49 15.54, -0.37 12.84 C-0.24 10.14, 1.19 6.51, 3.24 4.45 C5.3 2.4, 10.38 1.22, 11.97 0.5 C13.56 -0.21, 12.71 0.08, 12.77 0.16 M12.21 0.69 C14.81 0.54, 18.37 1.35, 20.67 2.97 C22.96 4.6, 25.32 7.85, 25.99 10.46 C26.66 13.08, 26.07 16.21, 24.69 18.67 C23.3 21.13, 20.31 24.1, 17.7 25.22 C15.08 26.34, 11.69 26.43, 8.98 25.39 C6.27 24.35, 2.96 21.3, 1.43 19 C-0.1 16.69, -0.81 14.12, -0.2 11.57 C0.41 9.03, 2.89 5.76, 5.11 3.73 C7.33 1.71, 11.75 0.1, 13.14 -0.59 C14.53 -1.27, 13.5 -0.63, 13.43 -0.39" stroke="#000000" stroke-width="1" fill="none"></path></g><g stroke-linecap="round" transform="translate(11.277579481917428 21.134665199099715) rotate(0 12.885944411733163 13.012899529090149)"><path d="M12.77 0.43 C15.5 0.35, 19.56 1.8, 21.74 3.55 C23.92 5.31, 25.54 8.23, 25.85 10.96 C26.17 13.69, 25.04 17.53, 23.64 19.96 C22.23 22.38, 19.91 24.6, 17.42 25.52 C14.93 26.44, 11.37 26.57, 8.69 25.47 C6.02 24.38, 2.72 21.43, 1.37 18.96 C0.02 16.49, -0.02 13.36, 0.6 10.64 C1.21 7.93, 2.85 4.44, 5.06 2.67 C7.28 0.9, 12.44 0.45, 13.9 0.02 C15.37 -0.4, 13.84 -0.12, 13.83 0.1 M16.32 1.06 C18.91 1.68, 21.3 3.51, 22.84 5.67 C24.38 7.83, 25.76 11.31, 25.58 14.01 C25.41 16.72, 23.55 19.9, 21.8 21.91 C20.06 23.93, 17.73 25.74, 15.11 26.11 C12.5 26.49, 8.63 25.78, 6.13 24.18 C3.62 22.58, 0.96 19.12, 0.1 16.51 C-0.77 13.91, -0.29 11.08, 0.92 8.55 C2.13 6.02, 4.76 2.81, 7.35 1.32 C9.94 -0.17, 14.96 -0.35, 16.47 -0.37 C17.98 -0.39, 16.55 0.73, 16.41 1.17" stroke="none" stroke-width="0" fill="#ffffff"></path><path d="M14.78 -0.06 C17.46 0.07, 20.65 2.06, 22.45 4.07 C24.24 6.09, 25.4 9.19, 25.54 12.03 C25.67 14.88, 24.91 18.87, 23.26 21.15 C21.61 23.44, 18.39 25.23, 15.64 25.74 C12.88 26.24, 9.21 25.43, 6.71 24.19 C4.2 22.95, 1.66 20.79, 0.63 18.3 C-0.4 15.82, -0.36 11.91, 0.53 9.28 C1.41 6.65, 3.58 4.08, 5.94 2.53 C8.3 0.99, 13.13 0.44, 14.68 0.03 C16.23 -0.38, 15.26 -0.13, 15.24 0.08 M11.34 0.1 C14.1 -0.44, 18.26 0.74, 20.68 2.21 C23.1 3.67, 25.18 6.18, 25.87 8.9 C26.56 11.61, 26.01 15.84, 24.82 18.5 C23.63 21.16, 21.32 23.8, 18.72 24.87 C16.12 25.94, 12 25.53, 9.22 24.92 C6.43 24.3, 3.42 23.23, 2 21.16 C0.58 19.09, 0.33 15.49, 0.69 12.51 C1.05 9.53, 2.21 5.45, 4.17 3.27 C6.12 1.08, 11.16 -0.03, 12.43 -0.6 C13.69 -1.17, 11.84 -0.52, 11.75 -0.13" stroke="#000000" stroke-width="1" fill="none"></path></g><g stroke-linecap="round"><g stroke-opacity="0.1" fill-opacity="0.1" transform="translate(68.76726355615051 45.6487913270918) rotate(0 -9.104515003028837 -11.175166261843664)" fill-rule="evenodd"><path d="M0 0 C-0.4 0.05, -1.59 0.28, -2.39 0.28 C-3.19 0.28, -3.87 0.19, -4.79 0.01 C-5.7 -0.16, -6.88 -0.38, -7.87 -0.75 C-8.87 -1.11, -9.91 -1.52, -10.77 -2.17 C-11.64 -2.83, -12.3 -3.6, -13.05 -4.65 C-13.8 -5.7, -14.94 -6.98, -15.28 -8.49 C-15.63 -10.01, -15.51 -11.97, -15.13 -13.74 C-14.74 -15.51, -14.13 -17.57, -12.97 -19.11 C-11.81 -20.65, -9.65 -22.1, -8.17 -22.99 C-6.68 -23.87, -3.55 -24.38, -4.05 -24.42 C-4.56 -24.47, -9.3 -24.07, -11.19 -23.26 C-13.08 -22.46, -14.35 -20.73, -15.38 -19.58 C-16.42 -18.44, -16.89 -17.65, -17.41 -16.41 C-17.93 -15.17, -18.27 -13.62, -18.51 -12.16 C-18.74 -10.71, -18.91 -8.96, -18.82 -7.67 C-18.74 -6.39, -18.38 -5.37, -17.99 -4.45 C-17.61 -3.54, -17.21 -2.95, -16.53 -2.2 C-15.84 -1.45, -14.98 -0.61, -13.89 0.04 C-12.79 0.69, -11.42 1.34, -9.95 1.68 C-8.49 2.02, -6.84 2.35, -5.08 2.07 C-3.32 1.8, -0.34 0.39, 0.61 0.06" stroke="none" stroke-width="0" fill="#000000" fill-rule="evenodd"></path><path d="M0 0 C-0.4 0.05, -1.59 0.28, -2.39 0.28 C-3.19 0.28, -3.87 0.19, -4.79 0.01 C-5.7 -0.16, -6.88 -0.38, -7.87 -0.75 C-8.87 -1.11, -9.91 -1.52, -10.77 -2.17 C-11.64 -2.83, -12.3 -3.6, -13.05 -4.65 C-13.8 -5.7, -14.94 -6.98, -15.28 -8.49 C-15.63 -10.01, -15.51 -11.97, -15.13 -13.74 C-14.74 -15.51, -14.13 -17.57, -12.97 -19.11 C-11.81 -20.65, -9.65 -22.1, -8.17 -22.99 C-6.68 -23.87, -3.55 -24.38, -4.05 -24.42 C-4.56 -24.47, -9.3 -24.07, -11.19 -23.26 C-13.08 -22.46, -14.35 -20.73, -15.38 -19.58 C-16.42 -18.44, -16.89 -17.65, -17.41 -16.41 C-17.93 -15.17, -18.27 -13.62, -18.51 -12.16 C-18.74 -10.71, -18.91 -8.96, -18.82 -7.67 C-18.74 -6.39, -18.38 -5.37, -17.99 -4.45 C-17.61 -3.54, -17.21 -2.95, -16.53 -2.2 C-15.84 -1.45, -14.98 -0.61, -13.89 0.04 C-12.79 0.69, -11.42 1.34, -9.95 1.68 C-8.49 2.02, -6.84 2.35, -5.08 2.07 C-3.32 1.8, -0.34 0.39, 0.61 0.06 M0 0 C-0.4 0.05, -1.59 0.28, -2.39 0.28 C-3.19 0.28, -3.87 0.19, -4.79 0.01 C-5.7 -0.16, -6.88 -0.38, -7.87 -0.75 C-8.87 -1.11, -9.91 -1.52, -10.77 -2.17 C-11.64 -2.83, -12.3 -3.6, -13.05 -4.65 C-13.8 -5.7, -14.94 -6.98, -15.28 -8.49 C-15.63 -10.01, -15.51 -11.97, -15.13 -13.74 C-14.74 -15.51, -14.13 -17.57, -12.97 -19.11 C-11.81 -20.65, -9.65 -22.1, -8.17 -22.99 C-6.68 -23.87, -3.55 -24.38, -4.05 -24.42 C-4.56 -24.47, -9.3 -24.07, -11.19 -23.26 C-13.08 -22.46, -14.35 -20.73, -15.38 -19.58 C-16.42 -18.44, -16.89 -17.65, -17.41 -16.41 C-17.93 -15.17, -18.27 -13.62, -18.51 -12.16 C-18.74 -10.71, -18.91 -8.96, -18.82 -7.67 C-18.74 -6.39, -18.38 -5.37, -17.99 -4.45 C-17.61 -3.54, -17.21 -2.95, -16.53 -2.2 C-15.84 -1.45, -14.98 -0.61, -13.89 0.04 C-12.79 0.69, -11.42 1.34, -9.95 1.68 C-8.49 2.02, -6.84 2.35, -5.08 2.07 C-3.32 1.8, -0.34 0.39, 0.61 0.06" stroke="#000000" stroke-width="1" fill="none"></path></g></g><mask></mask><g stroke-linecap="round"><g stroke-opacity="0.1" fill-opacity="0.1" transform="translate(25.563257425825782 46.810564243827145) rotate(0 -6.48973187353414 -12.707815102746473)" fill-rule="evenodd"><path d="M0 0 C-0.9 -0.53, -3.83 -1.81, -5.43 -3.18 C-7.03 -4.55, -8.75 -6.27, -9.6 -8.21 C-10.45 -10.16, -10.71 -12.86, -10.5 -14.86 C-10.3 -16.86, -9.51 -18.69, -8.35 -20.23 C-7.19 -21.77, -5.03 -23.21, -3.54 -24.1 C-2.06 -24.99, 1.08 -25.49, 0.57 -25.54 C0.07 -25.59, -4.68 -25.19, -6.57 -24.38 C-8.46 -23.57, -9.72 -21.84, -10.76 -20.7 C-11.8 -19.55, -12.32 -18.75, -12.79 -17.52 C-13.26 -16.3, -13.53 -14.84, -13.55 -13.33 C-13.57 -11.83, -13.34 -10.01, -12.92 -8.51 C-12.49 -7.01, -11.82 -5.42, -11.01 -4.32 C-10.21 -3.22, -9.38 -2.65, -8.09 -1.91 C-6.8 -1.17, -4.62 -0.19, -3.27 0.12 C-1.92 0.44, -0.54 0.02, 0 0" stroke="none" stroke-width="0" fill="#000000" fill-rule="evenodd"></path><path d="M0 0 C-0.9 -0.53, -3.83 -1.81, -5.43 -3.18 C-7.03 -4.55, -8.75 -6.27, -9.6 -8.21 C-10.45 -10.16, -10.71 -12.86, -10.5 -14.86 C-10.3 -16.86, -9.51 -18.69, -8.35 -20.23 C-7.19 -21.77, -5.03 -23.21, -3.54 -24.1 C-2.06 -24.99, 1.08 -25.49, 0.57 -25.54 C0.07 -25.59, -4.68 -25.19, -6.57 -24.38 C-8.46 -23.57, -9.72 -21.84, -10.76 -20.7 C-11.8 -19.55, -12.32 -18.75, -12.79 -17.52 C-13.26 -16.3, -13.53 -14.84, -13.55 -13.33 C-13.57 -11.83, -13.34 -10.01, -12.92 -8.51 C-12.49 -7.01, -11.82 -5.42, -11.01 -4.32 C-10.21 -3.22, -9.38 -2.65, -8.09 -1.91 C-6.8 -1.17, -4.62 -0.19, -3.27 0.12 C-1.92 0.44, -0.54 0.02, 0 0 M0 0 C-0.9 -0.53, -3.83 -1.81, -5.43 -3.18 C-7.03 -4.55, -8.75 -6.27, -9.6 -8.21 C-10.45 -10.16, -10.71 -12.86, -10.5 -14.86 C-10.3 -16.86, -9.51 -18.69, -8.35 -20.23 C-7.19 -21.77, -5.03 -23.21, -3.54 -24.1 C-2.06 -24.99, 1.08 -25.49, 0.57 -25.54 C0.07 -25.59, -4.68 -25.19, -6.57 -24.38 C-8.46 -23.57, -9.72 -21.84, -10.76 -20.7 C-11.8 -19.55, -12.32 -18.75, -12.79 -17.52 C-13.26 -16.3, -13.53 -14.84, -13.55 -13.33 C-13.57 -11.83, -13.34 -10.01, -12.92 -8.51 C-12.49 -7.01, -11.82 -5.42, -11.01 -4.32 C-10.21 -3.22, -9.38 -2.65, -8.09 -1.91 C-6.8 -1.17, -4.62 -0.19, -3.27 0.12 C-1.92 0.44, -0.54 0.02, 0 0" stroke="#000000" stroke-width="1" fill="none"></path></g></g><mask></mask><g stroke-linecap="round" transform="translate(11.377192622361974 21.03505205865511) rotate(0 12.885944411733163 13.012899529090149)"><path d="M12.29 0.28 C14.92 0.03, 18.38 1.07, 20.52 2.63 C22.67 4.19, 24.58 6.9, 25.16 9.66 C25.74 12.41, 25.22 16.58, 24.01 19.15 C22.8 21.73, 20.38 23.98, 17.9 25.11 C15.43 26.24, 11.82 26.79, 9.17 25.94 C6.53 25.09, 3.5 22.5, 2.03 20.03 C0.57 17.56, 0.06 13.89, 0.39 11.11 C0.73 8.33, 2.03 5.26, 4.04 3.35 C6.06 1.45, 10.89 0.23, 12.48 -0.33 C14.08 -0.88, 13.58 -0.3, 13.62 0.02 M12.64 0.05 C15.22 -0.08, 19.05 1.24, 21.13 2.83 C23.2 4.42, 24.63 6.78, 25.09 9.6 C25.56 12.42, 25.03 17.06, 23.91 19.74 C22.79 22.41, 20.81 24.79, 18.38 25.64 C15.96 26.49, 11.98 25.87, 9.36 24.81 C6.75 23.75, 4.23 21.61, 2.69 19.27 C1.16 16.94, -0.12 13.37, 0.14 10.78 C0.41 8.19, 2.23 5.54, 4.27 3.73 C6.31 1.92, 11.03 0.54, 12.4 -0.11 C13.76 -0.76, 12.43 -0.3, 12.48 -0.16" stroke="#000000" stroke-width="1" fill="none"></path></g><g stroke-linecap="round" transform="translate(50.40668477552384 20.872238684944847) rotate(0 12.885944411733163 13.012899529090149)"><path d="M10.49 0.24 C12.97 -0.5, 16.64 -0.1, 18.99 1.32 C21.34 2.74, 23.6 6.06, 24.6 8.76 C25.59 11.46, 25.83 14.87, 24.97 17.53 C24.1 20.19, 21.8 23.35, 19.41 24.72 C17.03 26.08, 13.33 26.34, 10.66 25.74 C7.98 25.13, 5.14 23.22, 3.36 21.08 C1.58 18.94, 0.07 15.7, -0.03 12.92 C-0.12 10.13, 0.88 6.55, 2.78 4.38 C4.69 2.21, 9.96 0.53, 11.39 -0.09 C12.82 -0.71, 11.41 0.34, 11.35 0.66 M10.28 0.43 C12.69 -0.46, 15.96 -0.63, 18.31 0.72 C20.66 2.07, 23.11 5.76, 24.37 8.53 C25.63 11.3, 26.53 14.88, 25.87 17.35 C25.2 19.81, 22.67 22, 20.37 23.32 C18.08 24.64, 14.89 25.59, 12.08 25.28 C9.27 24.97, 5.52 23.33, 3.51 21.47 C1.51 19.61, 0.21 16.83, 0.05 14.11 C-0.11 11.38, 0.89 7.46, 2.56 5.1 C4.22 2.73, 8.73 0.76, 10.01 -0.09 C11.29 -0.93, 10.1 -0.36, 10.24 0.01" stroke="#000000" stroke-width="1" fill="none"></path></g><g stroke-linecap="round" transform="translate(20.898976589881897 31.192212275942353) rotate(0 2.6025799058180326 2.4756247884610474)"><path d="M3.09 0.22 C3.55 0.17, 3.86 0.13, 4.25 0.48 C4.64 0.82, 5.31 1.77, 5.42 2.31 C5.54 2.85, 5.25 3.3, 4.93 3.72 C4.61 4.14, 4.11 4.71, 3.52 4.85 C2.93 5, 1.91 4.81, 1.4 4.6 C0.9 4.39, 0.64 4.08, 0.47 3.6 C0.3 3.12, 0.33 2.22, 0.38 1.74 C0.43 1.26, 0.31 1.03, 0.77 0.72 C1.23 0.41, 2.75 -0.02, 3.14 -0.14 C3.52 -0.26, 3.1 -0.04, 3.07 -0.02 M2.79 0.16 C3.19 0.08, 3.59 0, 3.98 0.38 C4.36 0.76, 4.92 1.92, 5.1 2.47 C5.28 3.02, 5.26 3.35, 5.06 3.66 C4.87 3.97, 4.42 4.09, 3.94 4.34 C3.45 4.6, 2.74 5.22, 2.16 5.19 C1.58 5.15, 0.87 4.65, 0.47 4.14 C0.07 3.64, -0.33 2.73, -0.22 2.17 C-0.1 1.6, 0.62 1.06, 1.13 0.74 C1.65 0.43, 2.65 0.4, 2.86 0.27 C3.07 0.13, 2.42 -0.07, 2.39 -0.07" stroke="none" stroke-width="0" fill="#000000"></path><path d="M2.64 -0.25 C3.14 -0.21, 3.77 0.47, 4.19 0.9 C4.61 1.33, 5.07 1.8, 5.16 2.35 C5.25 2.9, 5.07 3.8, 4.75 4.21 C4.43 4.61, 3.74 4.75, 3.24 4.8 C2.73 4.84, 2.21 4.72, 1.71 4.49 C1.2 4.25, 0.52 3.89, 0.23 3.41 C-0.06 2.93, -0.23 2.14, -0.03 1.62 C0.16 1.1, 0.93 0.52, 1.41 0.29 C1.9 0.05, 2.65 0.21, 2.89 0.21 C3.13 0.22, 2.91 0.29, 2.85 0.31 M2.37 -0.45 C2.82 -0.42, 3.51 0.53, 4.05 1.02 C4.59 1.5, 5.42 2.06, 5.6 2.45 C5.78 2.84, 5.41 3.02, 5.14 3.34 C4.86 3.66, 4.52 4.18, 3.95 4.37 C3.38 4.57, 2.3 4.57, 1.7 4.5 C1.1 4.42, 0.63 4.37, 0.35 3.94 C0.08 3.52, -0.07 2.56, 0.03 1.95 C0.14 1.33, 0.53 0.67, 0.99 0.28 C1.45 -0.11, 2.44 -0.41, 2.78 -0.39 C3.13 -0.37, 3.03 0.27, 3.06 0.41" stroke="#000000" stroke-width="1" fill="none"></path></g><g stroke-linecap="round" transform="translate(23.741532851003058 31.619806019632307) rotate(0 0.5078204694279123 0.6347755867848832)"><path d="M1.02 0.63 C1.02 0.67, 1.01 0.71, 1.01 0.75 C1 0.78, 1 0.82, 0.99 0.85 C0.97 0.89, 0.96 0.92, 0.95 0.95 C0.93 0.98, 0.92 1.01, 0.9 1.04 C0.88 1.07, 0.86 1.1, 0.83 1.12 C0.81 1.14, 0.79 1.17, 0.76 1.18 C0.74 1.2, 0.71 1.22, 0.68 1.23 C0.65 1.24, 0.62 1.25, 0.6 1.26 C0.57 1.27, 0.54 1.27, 0.51 1.27 C0.48 1.27, 0.45 1.27, 0.42 1.26 C0.39 1.25, 0.36 1.24, 0.33 1.23 C0.31 1.22, 0.28 1.2, 0.25 1.18 C0.23 1.17, 0.2 1.14, 0.18 1.12 C0.16 1.1, 0.14 1.07, 0.12 1.04 C0.1 1.01, 0.08 0.98, 0.07 0.95 C0.05 0.92, 0.04 0.89, 0.03 0.85 C0.02 0.82, 0.01 0.78, 0.01 0.75 C0 0.71, 0 0.67, 0 0.63 C0 0.6, 0 0.56, 0.01 0.52 C0.01 0.49, 0.02 0.45, 0.03 0.42 C0.04 0.38, 0.05 0.35, 0.07 0.32 C0.08 0.29, 0.1 0.25, 0.12 0.23 C0.14 0.2, 0.16 0.17, 0.18 0.15 C0.2 0.12, 0.23 0.1, 0.25 0.09 C0.28 0.07, 0.31 0.05, 0.33 0.04 C0.36 0.03, 0.39 0.02, 0.42 0.01 C0.45 0, 0.48 0, 0.51 0 C0.54 0, 0.57 0, 0.6 0.01 C0.62 0.02, 0.65 0.03, 0.68 0.04 C0.71 0.05, 0.74 0.07, 0.76 0.09 C0.79 0.1, 0.81 0.12, 0.83 0.15 C0.86 0.17, 0.88 0.2, 0.9 0.23 C0.92 0.25, 0.93 0.29, 0.95 0.32 C0.96 0.35, 0.97 0.38, 0.99 0.42 C1 0.45, 1 0.49, 1.01 0.52 C1.01 0.56, 1.01 0.62, 1.02 0.63 C1.02 0.65, 1.02 0.62, 1.02 0.63" stroke="none" stroke-width="0" fill="#ffffff"></path><path d="M1.02 0.63 C1.02 0.67, 1.01 0.71, 1.01 0.75 C1 0.78, 1 0.82, 0.99 0.85 C0.97 0.89, 0.96 0.92, 0.95 0.95 C0.93 0.98, 0.92 1.01, 0.9 1.04 C0.88 1.07, 0.86 1.1, 0.83 1.12 C0.81 1.14, 0.79 1.17, 0.76 1.18 C0.74 1.2, 0.71 1.22, 0.68 1.23 C0.65 1.24, 0.62 1.25, 0.6 1.26 C0.57 1.27, 0.54 1.27, 0.51 1.27 C0.48 1.27, 0.45 1.27, 0.42 1.26 C0.39 1.25, 0.36 1.24, 0.33 1.23 C0.31 1.22, 0.28 1.2, 0.25 1.18 C0.23 1.17, 0.2 1.14, 0.18 1.12 C0.16 1.1, 0.14 1.07, 0.12 1.04 C0.1 1.01, 0.08 0.98, 0.07 0.95 C0.05 0.92, 0.04 0.89, 0.03 0.85 C0.02 0.82, 0.01 0.78, 0.01 0.75 C0 0.71, 0 0.67, 0 0.63 C0 0.6, 0 0.56, 0.01 0.52 C0.01 0.49, 0.02 0.45, 0.03 0.42 C0.04 0.38, 0.05 0.35, 0.07 0.32 C0.08 0.29, 0.1 0.25, 0.12 0.23 C0.14 0.2, 0.16 0.17, 0.18 0.15 C0.2 0.12, 0.23 0.1, 0.25 0.09 C0.28 0.07, 0.31 0.05, 0.33 0.04 C0.36 0.03, 0.39 0.02, 0.42 0.01 C0.45 0, 0.48 0, 0.51 0 C0.54 0, 0.57 0, 0.6 0.01 C0.62 0.02, 0.65 0.03, 0.68 0.04 C0.71 0.05, 0.74 0.07, 0.76 0.09 C0.79 0.1, 0.81 0.12, 0.83 0.15 C0.86 0.17, 0.88 0.2, 0.9 0.23 C0.92 0.25, 0.93 0.29, 0.95 0.32 C0.96 0.35, 0.97 0.38, 0.99 0.42 C1 0.45, 1 0.49, 1.01 0.52 C1.01 0.56, 1.01 0.62, 1.02 0.63 C1.02 0.65, 1.02 0.62, 1.02 0.63" stroke="#ffffff" stroke-width="1" fill="none"></path></g><g stroke-linecap="round" transform="translate(61.48630760663673 31.725907588485512) rotate(0 2.6025799058180326 2.4756247884610474)"><path d="M3.12 0.12 C3.7 0.16, 4.27 0.26, 4.65 0.63 C5.03 1, 5.41 1.79, 5.39 2.32 C5.38 2.84, 4.88 3.37, 4.55 3.8 C4.23 4.23, 3.89 4.79, 3.42 4.91 C2.96 5.04, 2.33 4.75, 1.75 4.55 C1.17 4.35, 0.15 4.2, -0.07 3.71 C-0.29 3.23, 0.19 2.2, 0.43 1.63 C0.67 1.07, 0.93 0.65, 1.38 0.34 C1.83 0.03, 2.83 -0.21, 3.11 -0.2 C3.39 -0.2, 3.07 0.27, 3.05 0.37 M2.68 0.41 C3.3 0.43, 4.1 0.38, 4.6 0.6 C5.09 0.82, 5.54 1.11, 5.65 1.71 C5.76 2.31, 5.61 3.62, 5.25 4.22 C4.89 4.82, 4.14 5.18, 3.49 5.29 C2.84 5.4, 1.83 5.15, 1.32 4.89 C0.82 4.64, 0.64 4.22, 0.47 3.77 C0.3 3.32, 0.25 2.75, 0.31 2.18 C0.36 1.61, 0.4 0.74, 0.8 0.37 C1.21 0.01, 2.46 0.07, 2.76 -0.01 C3.06 -0.09, 2.6 -0.1, 2.6 -0.12" stroke="none" stroke-width="0" fill="#000000"></path><path d="M2.23 0.11 C2.79 0.04, 3.55 0.44, 4.01 0.7 C4.48 0.96, 4.84 1.25, 5.04 1.66 C5.24 2.08, 5.42 2.71, 5.21 3.19 C5 3.67, 4.33 4.31, 3.78 4.56 C3.23 4.81, 2.4 4.8, 1.91 4.67 C1.42 4.55, 1.16 4.17, 0.84 3.82 C0.53 3.47, 0.06 3.03, 0.02 2.57 C-0.01 2.1, 0.31 1.45, 0.64 1.05 C0.97 0.64, 1.71 0.26, 2 0.12 C2.29 -0.02, 2.31 0.21, 2.37 0.21 M2.64 0.41 C3.25 0.17, 3.76 -0.17, 4.25 -0.03 C4.73 0.11, 5.42 0.73, 5.55 1.25 C5.68 1.76, 5.32 2.47, 5.04 3.08 C4.76 3.69, 4.36 4.6, 3.87 4.89 C3.38 5.19, 2.62 5.02, 2.08 4.83 C1.54 4.63, 0.93 4.2, 0.61 3.74 C0.29 3.27, 0.08 2.45, 0.16 2.03 C0.24 1.61, 0.68 1.5, 1.08 1.21 C1.48 0.91, 2.36 0.49, 2.54 0.26 C2.72 0.03, 2.17 -0.26, 2.15 -0.19" stroke="#000000" stroke-width="1" fill="none"></path></g><g stroke-linecap="round" transform="translate(64.32886386775994 32.24977340306205) rotate(0 0.5078204694279123 0.6347755867848832)"><path d="M1.02 0.63 C1.02 0.67, 1.01 0.71, 1.01 0.75 C1 0.78, 1 0.82, 0.99 0.85 C0.97 0.89, 0.96 0.92, 0.95 0.95 C0.93 0.98, 0.92 1.01, 0.9 1.04 C0.88 1.07, 0.86 1.1, 0.83 1.12 C0.81 1.14, 0.79 1.17, 0.76 1.18 C0.74 1.2, 0.71 1.22, 0.68 1.23 C0.65 1.24, 0.62 1.25, 0.6 1.26 C0.57 1.27, 0.54 1.27, 0.51 1.27 C0.48 1.27, 0.45 1.27, 0.42 1.26 C0.39 1.25, 0.36 1.24, 0.33 1.23 C0.31 1.22, 0.28 1.2, 0.25 1.18 C0.23 1.17, 0.2 1.14, 0.18 1.12 C0.16 1.1, 0.14 1.07, 0.12 1.04 C0.1 1.01, 0.08 0.98, 0.07 0.95 C0.05 0.92, 0.04 0.89, 0.03 0.85 C0.02 0.82, 0.01 0.78, 0.01 0.75 C0 0.71, 0 0.67, 0 0.63 C0 0.6, 0 0.56, 0.01 0.52 C0.01 0.49, 0.02 0.45, 0.03 0.42 C0.04 0.38, 0.05 0.35, 0.07 0.32 C0.08 0.29, 0.1 0.25, 0.12 0.23 C0.14 0.2, 0.16 0.17, 0.18 0.15 C0.2 0.12, 0.23 0.1, 0.25 0.09 C0.28 0.07, 0.31 0.05, 0.33 0.04 C0.36 0.03, 0.39 0.02, 0.42 0.01 C0.45 0, 0.48 0, 0.51 0 C0.54 0, 0.57 0, 0.6 0.01 C0.62 0.02, 0.65 0.03, 0.68 0.04 C0.71 0.05, 0.74 0.07, 0.76 0.09 C0.79 0.1, 0.81 0.12, 0.83 0.15 C0.86 0.17, 0.88 0.2, 0.9 0.23 C0.92 0.25, 0.93 0.29, 0.95 0.32 C0.96 0.35, 0.97 0.38, 0.99 0.42 C1 0.45, 1 0.49, 1.01 0.52 C1.01 0.56, 1.01 0.62, 1.02 0.63 C1.02 0.65, 1.02 0.62, 1.02 0.63" stroke="none" stroke-width="0" fill="#ffffff"></path><path d="M1.02 0.63 C1.02 0.67, 1.01 0.71, 1.01 0.75 C1 0.78, 1 0.82, 0.99 0.85 C0.97 0.89, 0.96 0.92, 0.95 0.95 C0.93 0.98, 0.92 1.01, 0.9 1.04 C0.88 1.07, 0.86 1.1, 0.83 1.12 C0.81 1.14, 0.79 1.17, 0.76 1.18 C0.74 1.2, 0.71 1.22, 0.68 1.23 C0.65 1.24, 0.62 1.25, 0.6 1.26 C0.57 1.27, 0.54 1.27, 0.51 1.27 C0.48 1.27, 0.45 1.27, 0.42 1.26 C0.39 1.25, 0.36 1.24, 0.33 1.23 C0.31 1.22, 0.28 1.2, 0.25 1.18 C0.23 1.17, 0.2 1.14, 0.18 1.12 C0.16 1.1, 0.14 1.07, 0.12 1.04 C0.1 1.01, 0.08 0.98, 0.07 0.95 C0.05 0.92, 0.04 0.89, 0.03 0.85 C0.02 0.82, 0.01 0.78, 0.01 0.75 C0 0.71, 0 0.67, 0 0.63 C0 0.6, 0 0.56, 0.01 0.52 C0.01 0.49, 0.02 0.45, 0.03 0.42 C0.04 0.38, 0.05 0.35, 0.07 0.32 C0.08 0.29, 0.1 0.25, 0.12 0.23 C0.14 0.2, 0.16 0.17, 0.18 0.15 C0.2 0.12, 0.23 0.1, 0.25 0.09 C0.28 0.07, 0.31 0.05, 0.33 0.04 C0.36 0.03, 0.39 0.02, 0.42 0.01 C0.45 0, 0.48 0, 0.51 0 C0.54 0, 0.57 0, 0.6 0.01 C0.62 0.02, 0.65 0.03, 0.68 0.04 C0.71 0.05, 0.74 0.07, 0.76 0.09 C0.79 0.1, 0.81 0.12, 0.83 0.15 C0.86 0.17, 0.88 0.2, 0.9 0.23 C0.92 0.25, 0.93 0.29, 0.95 0.32 C0.96 0.35, 0.97 0.38, 0.99 0.42 C1 0.45, 1 0.49, 1.01 0.52 C1.01 0.56, 1.01 0.62, 1.02 0.63 C1.02 0.65, 1.02 0.62, 1.02 0.63" stroke="#ffffff" stroke-width="1" fill="none"></path></g><g stroke-linecap="round"><g transform="translate(37.85060169259049 49.637363504944375) rotate(0 5.051460860572945 -1.3409540416004688)" fill-rule="evenodd"><path d="M0 0 C0.03 -0.27, -0.13 -1.04, 0.18 -1.64 C0.49 -2.23, 1.09 -3.16, 1.85 -3.56 C2.62 -3.96, 3.89 -4, 4.79 -4.04 C5.69 -4.07, 6.48 -4.05, 7.26 -3.77 C8.04 -3.48, 9 -2.88, 9.47 -2.31 C9.95 -1.75, 10.16 -0.96, 10.1 -0.39 C10.05 0.19, 9.99 0.94, 9.15 1.12 C8.31 1.29, 6.22 0.63, 5.08 0.67 C3.94 0.71, 3.03 1.3, 2.3 1.35 C1.56 1.4, 1.03 1.17, 0.65 0.97 C0.27 0.76, 0.13 0.26, 0.03 0.12" stroke="none" stroke-width="0" fill="#ccbdac" fill-rule="evenodd"></path><path d="M0 0 C0.03 -0.27, -0.13 -1.04, 0.18 -1.64 C0.49 -2.23, 1.09 -3.16, 1.85 -3.56 C2.62 -3.96, 3.89 -4, 4.79 -4.04 C5.69 -4.07, 6.48 -4.05, 7.26 -3.77 C8.04 -3.48, 9 -2.88, 9.47 -2.31 C9.95 -1.75, 10.16 -0.96, 10.1 -0.39 C10.05 0.19, 9.99 0.94, 9.15 1.12 C8.31 1.29, 6.22 0.63, 5.08 0.67 C3.94 0.71, 3.03 1.3, 2.3 1.35 C1.56 1.4, 1.03 1.17, 0.65 0.97 C0.27 0.76, 0.13 0.26, 0.03 0.12 M0 0 C0.03 -0.27, -0.13 -1.04, 0.18 -1.64 C0.49 -2.23, 1.09 -3.16, 1.85 -3.56 C2.62 -3.96, 3.89 -4, 4.79 -4.04 C5.69 -4.07, 6.48 -4.05, 7.26 -3.77 C8.04 -3.48, 9 -2.88, 9.47 -2.31 C9.95 -1.75, 10.16 -0.96, 10.1 -0.39 C10.05 0.19, 9.99 0.94, 9.15 1.12 C8.31 1.29, 6.22 0.63, 5.08 0.67 C3.94 0.71, 3.03 1.3, 2.3 1.35 C1.56 1.4, 1.03 1.17, 0.65 0.97 C0.27 0.76, 0.13 0.26, 0.03 0.12" stroke="#000000" stroke-width="1" fill="none"></path></g></g><mask></mask><g stroke-linecap="round"><g transform="translate(41.90791533794493 50.497386583839244) rotate(0 -1.2585953865884107 -1.948771807521723)" fill-rule="evenodd"><path d="M0 0 C-0.07 -0.01, -0.06 0.02, -0.41 -0.08 C-0.77 -0.18, -1.8 -0.34, -2.14 -0.62 C-2.47 -0.9, -2.56 -1.44, -2.43 -1.76 C-2.29 -2.09, -1.93 -2.39, -1.32 -2.58 C-0.71 -2.77, 1.07 -2.61, 1.22 -2.91 C1.38 -3.21, 0.17 -4.18, -0.38 -4.39 C-0.93 -4.59, -1.63 -4.3, -2.08 -4.12 C-2.53 -3.94, -2.83 -3.54, -3.08 -3.28 C-3.32 -3.02, -3.45 -2.84, -3.56 -2.56 C-3.67 -2.28, -3.74 -1.94, -3.74 -1.6 C-3.75 -1.26, -3.72 -0.8, -3.59 -0.5 C-3.47 -0.2, -3.21 0.03, -2.99 0.2 C-2.77 0.36, -2.6 0.48, -2.26 0.49 C-1.91 0.5, -1.3 0.33, -0.93 0.25 C-0.55 0.17, -0.15 0.04, 0 0" stroke="none" stroke-width="0" fill="#958b7f" fill-rule="evenodd"></path><path d="M0 0 C-0.07 -0.01, -0.06 0.02, -0.41 -0.08 C-0.77 -0.18, -1.8 -0.34, -2.14 -0.62 C-2.47 -0.9, -2.56 -1.44, -2.43 -1.76 C-2.29 -2.09, -1.93 -2.39, -1.32 -2.58 C-0.71 -2.77, 1.07 -2.61, 1.22 -2.91 C1.38 -3.21, 0.17 -4.18, -0.38 -4.39 C-0.93 -4.59, -1.63 -4.3, -2.08 -4.12 C-2.53 -3.94, -2.83 -3.54, -3.08 -3.28 C-3.32 -3.02, -3.45 -2.84, -3.56 -2.56 C-3.67 -2.28, -3.74 -1.94, -3.74 -1.6 C-3.75 -1.26, -3.72 -0.8, -3.59 -0.5 C-3.47 -0.2, -3.21 0.03, -2.99 0.2 C-2.77 0.36, -2.6 0.48, -2.26 0.49 C-1.91 0.5, -1.3 0.33, -0.93 0.25 C-0.55 0.17, -0.15 0.04, 0 0 M0 0 C-0.07 -0.01, -0.06 0.02, -0.41 -0.08 C-0.77 -0.18, -1.8 -0.34, -2.14 -0.62 C-2.47 -0.9, -2.56 -1.44, -2.43 -1.76 C-2.29 -2.09, -1.93 -2.39, -1.32 -2.58 C-0.71 -2.77, 1.07 -2.61, 1.22 -2.91 C1.38 -3.21, 0.17 -4.18, -0.38 -4.39 C-0.93 -4.59, -1.63 -4.3, -2.08 -4.12 C-2.53 -3.94, -2.83 -3.54, -3.08 -3.28 C-3.32 -3.02, -3.45 -2.84, -3.56 -2.56 C-3.67 -2.28, -3.74 -1.94, -3.74 -1.6 C-3.75 -1.26, -3.72 -0.8, -3.59 -0.5 C-3.47 -0.2, -3.21 0.03, -2.99 0.2 C-2.77 0.36, -2.6 0.48, -2.26 0.49 C-1.91 0.5, -1.3 0.33, -0.93 0.25 C-0.55 0.17, -0.15 0.04, 0 0" stroke="#958b7f" stroke-width="1" fill="none"></path></g></g><mask></mask><g stroke-linecap="round"><g transform="translate(37.80511762928893 49.63591832843045) rotate(0 5.071872827949363 -1.3545620198514143)"><path d="M0 0 C0.04 -0.28, -0.1 -1.06, 0.22 -1.65 C0.53 -2.25, 1.13 -3.17, 1.9 -3.57 C2.66 -3.97, 3.93 -4.01, 4.83 -4.05 C5.73 -4.08, 6.52 -4.07, 7.3 -3.78 C8.08 -3.49, 9.04 -2.89, 9.51 -2.33 C9.99 -1.76, 10.2 -0.97, 10.14 -0.4 C10.09 0.17, 10.03 0.93, 9.19 1.11 C8.36 1.28, 6.26 0.61, 5.12 0.65 C3.98 0.69, 3.08 1.29, 2.34 1.34 C1.6 1.39, 1.08 1.18, 0.69 0.95 C0.3 0.73, 0.12 0.16, 0 0 M0 0 C0.04 -0.28, -0.1 -1.06, 0.22 -1.65 C0.53 -2.25, 1.13 -3.17, 1.9 -3.57 C2.66 -3.97, 3.93 -4.01, 4.83 -4.05 C5.73 -4.08, 6.52 -4.07, 7.3 -3.78 C8.08 -3.49, 9.04 -2.89, 9.51 -2.33 C9.99 -1.76, 10.2 -0.97, 10.14 -0.4 C10.09 0.17, 10.03 0.93, 9.19 1.11 C8.36 1.28, 6.26 0.61, 5.12 0.65 C3.98 0.69, 3.08 1.29, 2.34 1.34 C1.6 1.39, 1.08 1.18, 0.69 0.95 C0.3 0.73, 0.12 0.16, 0 0" stroke="#000000" stroke-width="1" fill="none"></path></g></g><mask></mask><g stroke-linecap="round"><g transform="translate(39.35047111232353 45.10573675978563) rotate(0 3.4266423019094816 0.26375628715604194)" fill-rule="evenodd"><path d="M0 0 C0.01 -0.17, -0.13 -0.7, 0.08 -0.99 C0.3 -1.28, 0.73 -1.59, 1.29 -1.76 C1.85 -1.94, 2.78 -2.03, 3.43 -2.05 C4.09 -2.07, 4.66 -2.06, 5.23 -1.89 C5.8 -1.72, 6.62 -1.51, 6.85 -1.03 C7.08 -0.54, 7.13 0.41, 6.62 1.01 C6.11 1.61, 4.68 2.45, 3.82 2.58 C2.96 2.7, 2.02 2.04, 1.45 1.74 C0.88 1.43, 0.62 1.04, 0.38 0.75 C0.14 0.46, 0.06 0.13, 0 0" stroke="none" stroke-width="0" fill="#595755" fill-rule="evenodd"></path><path d="M0 0 C0.01 -0.17, -0.13 -0.7, 0.08 -0.99 C0.3 -1.28, 0.73 -1.59, 1.29 -1.76 C1.85 -1.94, 2.78 -2.03, 3.43 -2.05 C4.09 -2.07, 4.66 -2.06, 5.23 -1.89 C5.8 -1.72, 6.62 -1.51, 6.85 -1.03 C7.08 -0.54, 7.13 0.41, 6.62 1.01 C6.11 1.61, 4.68 2.45, 3.82 2.58 C2.96 2.7, 2.02 2.04, 1.45 1.74 C0.88 1.43, 0.62 1.04, 0.38 0.75 C0.14 0.46, 0.06 0.13, 0 0 M0 0 C0.01 -0.17, -0.13 -0.7, 0.08 -0.99 C0.3 -1.28, 0.73 -1.59, 1.29 -1.76 C1.85 -1.94, 2.78 -2.03, 3.43 -2.05 C4.09 -2.07, 4.66 -2.06, 5.23 -1.89 C5.8 -1.72, 6.62 -1.51, 6.85 -1.03 C7.08 -0.54, 7.13 0.41, 6.62 1.01 C6.11 1.61, 4.68 2.45, 3.82 2.58 C2.96 2.7, 2.02 2.04, 1.45 1.74 C0.88 1.43, 0.62 1.04, 0.38 0.75 C0.14 0.46, 0.06 0.13, 0 0" stroke="#000000" stroke-width="1" fill="none"></path></g></g><mask></mask><g stroke-linecap="round"><g transform="translate(43.72150416456401 47.41957488819165) rotate(0 -2.1448816354053406 -2.0392750476686388)" fill-rule="evenodd"><path d="M0 0 C-0.16 -0.05, -0.64 -0.13, -0.99 -0.29 C-1.34 -0.44, -1.8 -0.66, -2.12 -0.92 C-2.44 -1.18, -2.79 -1.54, -2.92 -1.87 C-3.05 -2.19, -3.04 -2.57, -2.89 -2.88 C-2.74 -3.19, -2.34 -3.49, -2.02 -3.72 C-1.69 -3.96, -0.84 -4.24, -0.93 -4.3 C-1.02 -4.37, -2.09 -4.21, -2.54 -4.11 C-2.99 -4.02, -3.36 -3.93, -3.63 -3.75 C-3.89 -3.56, -4 -3.3, -4.11 -3.02 C-4.22 -2.74, -4.34 -2.35, -4.29 -2.07 C-4.24 -1.78, -3.98 -1.54, -3.79 -1.33 C-3.61 -1.12, -3.4 -0.98, -3.19 -0.83 C-2.99 -0.67, -2.83 -0.52, -2.59 -0.38 C-2.34 -0.23, -2.03 -0.06, -1.73 0.04 C-1.43 0.14, -0.96 0.19, -0.8 0.23" stroke="none" stroke-width="0" fill="#454342" fill-rule="evenodd"></path><path d="M0 0 C-0.16 -0.05, -0.64 -0.13, -0.99 -0.29 C-1.34 -0.44, -1.8 -0.66, -2.12 -0.92 C-2.44 -1.18, -2.79 -1.54, -2.92 -1.87 C-3.05 -2.19, -3.04 -2.57, -2.89 -2.88 C-2.74 -3.19, -2.34 -3.49, -2.02 -3.72 C-1.69 -3.96, -0.84 -4.24, -0.93 -4.3 C-1.02 -4.37, -2.09 -4.21, -2.54 -4.11 C-2.99 -4.02, -3.36 -3.93, -3.63 -3.75 C-3.89 -3.56, -4 -3.3, -4.11 -3.02 C-4.22 -2.74, -4.34 -2.35, -4.29 -2.07 C-4.24 -1.78, -3.98 -1.54, -3.79 -1.33 C-3.61 -1.12, -3.4 -0.98, -3.19 -0.83 C-2.99 -0.67, -2.83 -0.52, -2.59 -0.38 C-2.34 -0.23, -2.03 -0.06, -1.73 0.04 C-1.43 0.14, -0.96 0.19, -0.8 0.23 M0 0 C-0.16 -0.05, -0.64 -0.13, -0.99 -0.29 C-1.34 -0.44, -1.8 -0.66, -2.12 -0.92 C-2.44 -1.18, -2.79 -1.54, -2.92 -1.87 C-3.05 -2.19, -3.04 -2.57, -2.89 -2.88 C-2.74 -3.19, -2.34 -3.49, -2.02 -3.72 C-1.69 -3.96, -0.84 -4.24, -0.93 -4.3 C-1.02 -4.37, -2.09 -4.21, -2.54 -4.11 C-2.99 -4.02, -3.36 -3.93, -3.63 -3.75 C-3.89 -3.56, -4 -3.3, -4.11 -3.02 C-4.22 -2.74, -4.34 -2.35, -4.29 -2.07 C-4.24 -1.78, -3.98 -1.54, -3.79 -1.33 C-3.61 -1.12, -3.4 -0.98, -3.19 -0.83 C-2.99 -0.67, -2.83 -0.52, -2.59 -0.38 C-2.34 -0.23, -2.03 -0.06, -1.73 0.04 C-1.43 0.14, -0.96 0.19, -0.8 0.23" stroke="#454342" stroke-width="1" fill="none"></path></g></g><mask></mask><g stroke-linecap="round"><g transform="translate(39.3400780861067 45.09907967464986) rotate(0 3.4266423019094816 0.26375628715604194)"><path d="M0 0 C0.01 -0.17, -0.13 -0.7, 0.08 -0.99 C0.3 -1.28, 0.73 -1.59, 1.29 -1.76 C1.85 -1.94, 2.78 -2.03, 3.43 -2.05 C4.09 -2.07, 4.66 -2.06, 5.23 -1.89 C5.8 -1.72, 6.62 -1.51, 6.85 -1.03 C7.08 -0.54, 7.13 0.41, 6.62 1.01 C6.11 1.61, 4.68 2.45, 3.82 2.58 C2.96 2.7, 2.02 2.04, 1.45 1.74 C0.88 1.43, 0.62 1.04, 0.38 0.75 C0.14 0.46, 0.06 0.13, 0 0 M0 0 C0.01 -0.17, -0.13 -0.7, 0.08 -0.99 C0.3 -1.28, 0.73 -1.59, 1.29 -1.76 C1.85 -1.94, 2.78 -2.03, 3.43 -2.05 C4.09 -2.07, 4.66 -2.06, 5.23 -1.89 C5.8 -1.72, 6.62 -1.51, 6.85 -1.03 C7.08 -0.54, 7.13 0.41, 6.62 1.01 C6.11 1.61, 4.68 2.45, 3.82 2.58 C2.96 2.7, 2.02 2.04, 1.45 1.74 C0.88 1.43, 0.62 1.04, 0.38 0.75 C0.14 0.46, 0.06 0.13, 0 0" stroke="#000000" stroke-width="1" fill="none"></path></g></g><mask></mask><g stroke-linecap="round"><g transform="translate(44.74434836097515 44.016779006103576) rotate(0 0.35631786421026845 0.6102935979416486)" fill-rule="evenodd"><path d="M0 0 C0.1 0.08, 0.49 0.31, 0.61 0.51 C0.73 0.71, 0.7 1.1, 0.71 1.22" stroke="none" stroke-width="0" fill="#454342" fill-rule="evenodd"></path><path d="M0 0 C0.1 0.08, 0.49 0.31, 0.61 0.51 C0.73 0.71, 0.7 1.1, 0.71 1.22 M0 0 C0.1 0.08, 0.49 0.31, 0.61 0.51 C0.73 0.71, 0.7 1.1, 0.71 1.22" stroke="#000000" stroke-width="1" fill="none"></path></g></g><mask></mask><g stroke-linecap="round"><g transform="translate(40.9982246668655 50.838702826620334) rotate(0 0.021338980038365207 0.9389151216875291)"><path d="M0 0 C0.01 0.31, 0.04 1.56, 0.04 1.88 M0 0 C0.01 0.31, 0.04 1.56, 0.04 1.88" stroke="#000000" stroke-width="1" fill="none"></path></g></g><mask></mask><g stroke-linecap="round"><g transform="translate(40.975023111450014 52.45301500802864) rotate(0 2.360751157303099 -0.3339733791066948)" fill-rule="evenodd"><path d="M0 0 C0.06 0.19, 0.1 0.91, 0.36 1.16 C0.62 1.41, 1.09 1.44, 1.56 1.5 C2.03 1.57, 2.73 1.6, 3.18 1.54 C3.64 1.49, 4.04 1.44, 4.29 1.16 C4.54 0.88, 4.62 0.33, 4.69 -0.14 C4.77 -0.61, 4.92 -1.37, 4.74 -1.67 C4.56 -1.98, 4.05 -1.9, 3.6 -1.99 C3.16 -2.08, 2.68 -2.28, 2.07 -2.21 C1.47 -2.14, 0.33 -1.94, -0.02 -1.57 C-0.36 -1.2, 0 -0.26, 0 0" stroke="none" stroke-width="0" fill="#ffffff" fill-rule="evenodd"></path><path d="M0 0 C0.06 0.19, 0.1 0.91, 0.36 1.16 C0.62 1.41, 1.09 1.44, 1.56 1.5 C2.03 1.57, 2.73 1.6, 3.18 1.54 C3.64 1.49, 4.04 1.44, 4.29 1.16 C4.54 0.88, 4.62 0.33, 4.69 -0.14 C4.77 -0.61, 4.92 -1.37, 4.74 -1.67 C4.56 -1.98, 4.05 -1.9, 3.6 -1.99 C3.16 -2.08, 2.68 -2.28, 2.07 -2.21 C1.47 -2.14, 0.33 -1.94, -0.02 -1.57 C-0.36 -1.2, 0 -0.26, 0 0 M0 0 C0.06 0.19, 0.1 0.91, 0.36 1.16 C0.62 1.41, 1.09 1.44, 1.56 1.5 C2.03 1.57, 2.73 1.6, 3.18 1.54 C3.64 1.49, 4.04 1.44, 4.29 1.16 C4.54 0.88, 4.62 0.33, 4.69 -0.14 C4.77 -0.61, 4.92 -1.37, 4.74 -1.67 C4.56 -1.98, 4.05 -1.9, 3.6 -1.99 C3.16 -2.08, 2.68 -2.28, 2.07 -2.21 C1.47 -2.14, 0.33 -1.94, -0.02 -1.57 C-0.36 -1.2, 0 -0.26, 0 0" stroke="#000000" stroke-width="1" fill="none"></path></g></g><mask></mask><g stroke-linecap="round"><g transform="translate(43.26015655092965 50.58263506616075) rotate(0 0.049170094963898237 1.6004235028764526)" fill-rule="evenodd"><path d="M0 0 C0.02 0.24, 0.08 0.89, 0.1 1.42 C0.11 1.95, 0.09 2.9, 0.09 3.2" stroke="none" stroke-width="0" fill="#ffffff" fill-rule="evenodd"></path><path d="M0 0 C0.02 0.24, 0.08 0.89, 0.1 1.42 C0.11 1.95, 0.09 2.9, 0.09 3.2 M0 0 C0.02 0.24, 0.08 0.89, 0.1 1.42 C0.11 1.95, 0.09 2.9, 0.09 3.2" stroke="#000000" stroke-width="1" fill="none"></path></g></g><mask></mask><g stroke-linecap="round"><g transform="translate(59.99531377665443 102.23588682921778) rotate(13.687095229378706 2.17956261376591 -0.3910768421891504)" fill-rule="evenodd"><path d="M0 0 C0.15 0.19, 0.39 0.73, 0.89 1.17 C1.38 1.61, 2.28 2.53, 2.97 2.64 C3.66 2.75, 4.65 2.28, 5.03 1.84 C5.41 1.4, 5.61 0.79, 5.26 0.01 C4.92 -0.77, 3.62 -2.28, 2.97 -2.85 C2.32 -3.42, 1.87 -3.4, 1.37 -3.42 C0.88 -3.44, 0.38 -3.24, 0 -2.97 C-0.38 -2.69, -0.9 -2.28, -0.9 -1.78 C-0.9 -1.29, -0.15 -0.3, 0 0" stroke="none" stroke-width="0" fill="#ffffff" fill-rule="evenodd"></path><path d="M0 0 C0.15 0.19, 0.39 0.73, 0.89 1.17 C1.38 1.61, 2.28 2.53, 2.97 2.64 C3.66 2.75, 4.65 2.28, 5.03 1.84 C5.41 1.4, 5.61 0.79, 5.26 0.01 C4.92 -0.77, 3.62 -2.28, 2.97 -2.85 C2.32 -3.42, 1.87 -3.4, 1.37 -3.42 C0.88 -3.44, 0.38 -3.24, 0 -2.97 C-0.38 -2.69, -0.9 -2.28, -0.9 -1.78 C-0.9 -1.29, -0.15 -0.3, 0 0 M0 0 C0.15 0.19, 0.39 0.73, 0.89 1.17 C1.38 1.61, 2.28 2.53, 2.97 2.64 C3.66 2.75, 4.65 2.28, 5.03 1.84 C5.41 1.4, 5.61 0.79, 5.26 0.01 C4.92 -0.77, 3.62 -2.28, 2.97 -2.85 C2.32 -3.42, 1.87 -3.4, 1.37 -3.42 C0.88 -3.44, 0.38 -3.24, 0 -2.97 C-0.38 -2.69, -0.9 -2.28, -0.9 -1.78 C-0.9 -1.29, -0.15 -0.3, 0 0" stroke="#000000" stroke-width="1" fill="none"></path></g></g><mask></mask><g stroke-linecap="round"><g transform="translate(17.20155725873917 101.93161757824728) rotate(72.62981121584629 2.189475983157763 -0.5371783960633536)" fill-rule="evenodd"><path d="M0 0 C0.2 0.23, 0.73 0.96, 1.22 1.4 C1.72 1.84, 2.39 2.58, 2.97 2.64 C3.56 2.7, 4.4 2.23, 4.74 1.76 C5.09 1.29, 5.33 0.58, 5.04 -0.19 C4.74 -0.96, 3.58 -2.26, 2.97 -2.85 C2.37 -3.44, 1.9 -3.7, 1.4 -3.72 C0.91 -3.74, 0.34 -3.32, 0 -2.97 C-0.35 -2.61, -0.66 -2.06, -0.66 -1.57 C-0.66 -1.07, -0.11 -0.26, 0 0" stroke="none" stroke-width="0" fill="#ffffff" fill-rule="evenodd"></path><path d="M0 0 C0.2 0.23, 0.73 0.96, 1.22 1.4 C1.72 1.84, 2.39 2.58, 2.97 2.64 C3.56 2.7, 4.4 2.23, 4.74 1.76 C5.09 1.29, 5.33 0.58, 5.04 -0.19 C4.74 -0.96, 3.58 -2.26, 2.97 -2.85 C2.37 -3.44, 1.9 -3.7, 1.4 -3.72 C0.91 -3.74, 0.34 -3.32, 0 -2.97 C-0.35 -2.61, -0.66 -2.06, -0.66 -1.57 C-0.66 -1.07, -0.11 -0.26, 0 0 M0 0 C0.2 0.23, 0.73 0.96, 1.22 1.4 C1.72 1.84, 2.39 2.58, 2.97 2.64 C3.56 2.7, 4.4 2.23, 4.74 1.76 C5.09 1.29, 5.33 0.58, 5.04 -0.19 C4.74 -0.96, 3.58 -2.26, 2.97 -2.85 C2.37 -3.44, 1.9 -3.7, 1.4 -3.72 C0.91 -3.74, 0.34 -3.32, 0 -2.97 C-0.35 -2.61, -0.66 -2.06, -0.66 -1.57 C-0.66 -1.07, -0.11 -0.26, 0 0" stroke="#000000" stroke-width="1" fill="none"></path></g></g><mask></mask><g stroke-linecap="round"><g transform="translate(11.619934402900128 59.08519638103522) rotate(155.1023009552614 1.83740465943103 -0.0765452128986368)" fill-rule="evenodd"><path d="M0 0 C0.19 0.25, 0.67 0.99, 1.15 1.53 C1.64 2.07, 2.33 3.12, 2.9 3.22 C3.48 3.32, 4.5 2.63, 4.61 2.13 C4.73 1.62, 3.99 0.82, 3.61 0.17 C3.23 -0.49, 2.8 -1.21, 2.35 -1.8 C1.91 -2.39, 1.41 -3.19, 0.94 -3.37 C0.48 -3.55, -0.12 -3.09, -0.43 -2.88 C-0.74 -2.66, -0.89 -2.35, -0.94 -2.07 C-0.99 -1.8, -0.9 -1.59, -0.75 -1.24 C-0.59 -0.9, -0.12 -0.21, 0 0" stroke="none" stroke-width="0" fill="#ffffff" fill-rule="evenodd"></path><path d="M0 0 C0.19 0.25, 0.67 0.99, 1.15 1.53 C1.64 2.07, 2.33 3.12, 2.9 3.22 C3.48 3.32, 4.5 2.63, 4.61 2.13 C4.73 1.62, 3.99 0.82, 3.61 0.17 C3.23 -0.49, 2.8 -1.21, 2.35 -1.8 C1.91 -2.39, 1.41 -3.19, 0.94 -3.37 C0.48 -3.55, -0.12 -3.09, -0.43 -2.88 C-0.74 -2.66, -0.89 -2.35, -0.94 -2.07 C-0.99 -1.8, -0.9 -1.59, -0.75 -1.24 C-0.59 -0.9, -0.12 -0.21, 0 0 M0 0 C0.19 0.25, 0.67 0.99, 1.15 1.53 C1.64 2.07, 2.33 3.12, 2.9 3.22 C3.48 3.32, 4.5 2.63, 4.61 2.13 C4.73 1.62, 3.99 0.82, 3.61 0.17 C3.23 -0.49, 2.8 -1.21, 2.35 -1.8 C1.91 -2.39, 1.41 -3.19, 0.94 -3.37 C0.48 -3.55, -0.12 -3.09, -0.43 -2.88 C-0.74 -2.66, -0.89 -2.35, -0.94 -2.07 C-0.99 -1.8, -0.9 -1.59, -0.75 -1.24 C-0.59 -0.9, -0.12 -0.21, 0 0" stroke="#000000" stroke-width="1" fill="none"></path></g></g><mask></mask><g stroke-linecap="round"><g transform="translate(70.69261458657405 59.45420866368684) rotate(271.45101079152755 1.83740465943103 -0.0765452128986368)" fill-rule="evenodd"><path d="M0 0 C0.19 0.25, 0.67 0.99, 1.15 1.53 C1.64 2.07, 2.33 3.12, 2.9 3.22 C3.48 3.32, 4.5 2.63, 4.61 2.13 C4.73 1.62, 3.99 0.82, 3.61 0.17 C3.23 -0.49, 2.8 -1.21, 2.35 -1.8 C1.91 -2.39, 1.41 -3.19, 0.94 -3.37 C0.48 -3.55, -0.12 -3.09, -0.43 -2.88 C-0.74 -2.66, -0.89 -2.35, -0.94 -2.07 C-0.99 -1.8, -0.9 -1.59, -0.75 -1.24 C-0.59 -0.9, -0.12 -0.21, 0 0" stroke="none" stroke-width="0" fill="#ffffff" fill-rule="evenodd"></path><path d="M0 0 C0.19 0.25, 0.67 0.99, 1.15 1.53 C1.64 2.07, 2.33 3.12, 2.9 3.22 C3.48 3.32, 4.5 2.63, 4.61 2.13 C4.73 1.62, 3.99 0.82, 3.61 0.17 C3.23 -0.49, 2.8 -1.21, 2.35 -1.8 C1.91 -2.39, 1.41 -3.19, 0.94 -3.37 C0.48 -3.55, -0.12 -3.09, -0.43 -2.88 C-0.74 -2.66, -0.89 -2.35, -0.94 -2.07 C-0.99 -1.8, -0.9 -1.59, -0.75 -1.24 C-0.59 -0.9, -0.12 -0.21, 0 0 M0 0 C0.19 0.25, 0.67 0.99, 1.15 1.53 C1.64 2.07, 2.33 3.12, 2.9 3.22 C3.48 3.32, 4.5 2.63, 4.61 2.13 C4.73 1.62, 3.99 0.82, 3.61 0.17 C3.23 -0.49, 2.8 -1.21, 2.35 -1.8 C1.91 -2.39, 1.41 -3.19, 0.94 -3.37 C0.48 -3.55, -0.12 -3.09, -0.43 -2.88 C-0.74 -2.66, -0.89 -2.35, -0.94 -2.07 C-0.99 -1.8, -0.9 -1.59, -0.75 -1.24 C-0.59 -0.9, -0.12 -0.21, 0 0" stroke="#000000" stroke-width="1" fill="none"></path></g></g><mask></mask><g stroke-linecap="round" transform="translate(49.043680874439644 64.9098744945409) rotate(16.687830541157332 7.445202325701331 7.32702451100765)"><path d="M7.79 0.51 C9.38 0.52, 11.96 1.38, 13.22 2.39 C14.47 3.4, 15.26 5.01, 15.32 6.59 C15.38 8.17, 14.58 10.5, 13.59 11.85 C12.6 13.2, 10.92 14.38, 9.39 14.68 C7.86 14.98, 5.9 14.39, 4.42 13.66 C2.94 12.93, 1.2 11.72, 0.51 10.3 C-0.18 8.87, -0.15 6.64, 0.28 5.14 C0.72 3.63, 1.8 2.04, 3.14 1.25 C4.47 0.47, 7.24 0.59, 8.3 0.45 C9.35 0.3, 9.46 0.31, 9.45 0.37 M8.87 -0.18 C10.4 -0.17, 11.64 0.36, 12.66 1.56 C13.68 2.76, 14.96 5.35, 15.01 7 C15.06 8.64, 13.82 10.24, 12.96 11.44 C12.1 12.65, 11.44 13.9, 9.85 14.23 C8.26 14.56, 5.02 14.05, 3.41 13.43 C1.79 12.81, 0.77 11.85, 0.15 10.53 C-0.48 9.2, -0.85 6.98, -0.33 5.48 C0.19 3.98, 1.84 2.32, 3.26 1.52 C4.68 0.72, 7.29 0.86, 8.19 0.69 C9.09 0.51, 8.78 0.51, 8.67 0.49" stroke="none" stroke-width="0" fill="#cde9e9"></path><path d="M8.09 0.09 C9.62 0.14, 11.54 1.31, 12.71 2.47 C13.89 3.64, 15.05 5.53, 15.13 7.1 C15.22 8.68, 14.29 10.66, 13.21 11.91 C12.13 13.17, 10.28 14.28, 8.66 14.66 C7.05 15.04, 4.82 14.92, 3.52 14.21 C2.23 13.49, 1.38 11.9, 0.89 10.36 C0.41 8.82, 0.22 6.47, 0.61 4.96 C1.01 3.45, 1.79 2.06, 3.27 1.29 C4.74 0.52, 8.33 0.45, 9.46 0.36 C10.59 0.28, 10.18 0.76, 10.05 0.79 M8.44 0.54 C9.91 0.59, 12.13 1.08, 13.15 2.29 C14.18 3.5, 14.56 6.05, 14.57 7.79 C14.59 9.53, 14.25 11.7, 13.22 12.72 C12.19 13.73, 9.9 13.61, 8.41 13.89 C6.91 14.17, 5.64 14.99, 4.26 14.4 C2.88 13.8, 0.78 11.87, 0.12 10.33 C-0.55 8.78, -0.24 6.7, 0.28 5.15 C0.8 3.59, 1.69 1.82, 3.21 1.01 C4.73 0.21, 8.43 0.38, 9.39 0.3 C10.35 0.21, 9.17 0.46, 8.97 0.5" stroke="#343a40" stroke-width="1" fill="none"></path></g><g stroke-linecap="round"><g transform="translate(55.19257117952503 76.80385668479019) rotate(13.170412991716741 1.1809408284304368 -4.25417233588054)" fill-rule="evenodd"><path d="M0.92 -0.63 C0.11 -1.51, -3.79 -2.81, -4.33 -4.01 C-4.86 -5.21, -2.97 -7.27, -2.32 -7.84 C-1.67 -8.42, -0.95 -7.7, -0.43 -7.48 C0.09 -7.26, 0.33 -6.56, 0.81 -6.5 C1.29 -6.44, 1.58 -7.01, 2.44 -7.1 C3.29 -7.19, 5.48 -7.23, 5.94 -7.02 C6.39 -6.82, 5.81 -7.16, 5.2 -5.87 C4.59 -4.59, 3.21 -0.43, 2.28 0.71 C1.35 1.85, 0.02 0.97, -0.38 0.96" stroke="none" stroke-width="0" fill="#ffcaca" fill-rule="evenodd"></path><path d="M0.21 -0.28 C-0.36 -1.21, -2.6 -3.88, -3.1 -5.3 C-3.59 -6.71, -3.29 -8.29, -2.75 -8.75 C-2.21 -9.22, -0.45 -8.57, 0.15 -8.1 C0.74 -7.63, 0.32 -5.93, 0.8 -5.94 C1.29 -5.95, 2.2 -7.72, 3.05 -8.15 C3.9 -8.59, 5.4 -9.18, 5.91 -8.56 C6.42 -7.93, 6.84 -5.74, 6.11 -4.4 C5.37 -3.05, 2.49 -1.18, 1.5 -0.47 C0.51 0.24, 0.38 -0.29, 0.19 -0.16 M-0.12 0.35 C-0.73 -0.57, -2.72 -3.53, -3.2 -5 C-3.67 -6.47, -3.54 -7.85, -2.97 -8.48 C-2.4 -9.1, -0.33 -9.2, 0.22 -8.76 C0.78 -8.33, -0.18 -6.07, 0.37 -5.86 C0.91 -5.64, 2.52 -7.13, 3.48 -7.49 C4.45 -7.85, 5.74 -8.54, 6.16 -8.02 C6.57 -7.5, 6.8 -5.57, 5.96 -4.36 C5.12 -3.16, 2.06 -1.45, 1.13 -0.79 C0.2 -0.13, 0.49 -0.46, 0.39 -0.39" stroke="#343a40" stroke-width="1" fill="none"></path></g></g><mask></mask><g stroke-linecap="round" transform="translate(57.427033630072344 66.30983339469677) rotate(16.687830541157332 0.6725856098210841 0.7337297561684863)"><path d="M1.07 -0.16 C1.18 -0.14, 1.21 0.2, 1.27 0.38 C1.34 0.55, 1.45 0.77, 1.46 0.88 C1.48 0.99, 1.5 0.94, 1.37 1.04 C1.25 1.14, 0.89 1.42, 0.72 1.47 C0.55 1.51, 0.47 1.36, 0.34 1.28 C0.21 1.21, 0.02 1.1, -0.07 1.01 C-0.16 0.92, -0.32 0.87, -0.2 0.73 C-0.09 0.58, 0.48 0.27, 0.61 0.15 C0.74 0.02, 0.53 0.04, 0.59 0 C0.64 -0.04, 0.93 -0.15, 0.94 -0.09 M0.73 0.09 C0.83 0.13, 0.58 -0.06, 0.75 0 C0.93 0.05, 1.76 0.3, 1.76 0.43 C1.77 0.55, 0.97 0.57, 0.78 0.76 C0.59 0.95, 0.74 1.45, 0.62 1.58 C0.49 1.72, 0.15 1.62, 0.06 1.58 C-0.04 1.54, 0.09 1.41, 0.07 1.33 C0.05 1.24, -0.12 1.23, -0.04 1.07 C0.03 0.92, 0.45 0.59, 0.49 0.4 C0.53 0.2, 0.25 0.01, 0.2 -0.12 C0.14 -0.25, 0.04 -0.42, 0.15 -0.39" stroke="none" stroke-width="0" fill="#868e96"></path><path d="M0.84 -0.01 C1 -0.01, 1.01 0.08, 1.06 0.2 C1.11 0.32, 1.15 0.52, 1.14 0.71 C1.13 0.91, 0.99 1.24, 0.99 1.39 C0.99 1.55, 1.21 1.65, 1.14 1.64 C1.08 1.64, 0.8 1.45, 0.6 1.38 C0.39 1.31, -0.04 1.34, -0.09 1.23 C-0.15 1.12, 0.16 0.87, 0.27 0.73 C0.37 0.59, 0.51 0.55, 0.55 0.39 C0.6 0.23, 0.47 -0.17, 0.53 -0.21 C0.6 -0.26, 0.87 0.1, 0.93 0.12 M0.53 0.31 C0.67 0.43, 1.1 0.68, 1.2 0.67 C1.3 0.66, 1.06 0.08, 1.13 0.24 C1.19 0.4, 1.67 1.39, 1.58 1.64 C1.5 1.9, 0.84 1.78, 0.62 1.78 C0.4 1.77, 0.42 1.74, 0.27 1.62 C0.12 1.5, -0.31 1.22, -0.28 1.06 C-0.25 0.9, 0.33 0.79, 0.45 0.66 C0.58 0.53, 0.46 0.44, 0.46 0.29 C0.45 0.15, 0.39 -0.23, 0.42 -0.21 C0.46 -0.19, 0.58 0.39, 0.67 0.42" stroke="#343a40" stroke-width="1" fill="none"></path></g></svg>