<svg version="1.1" xmlns="http://www.w3.org/2000/svg" viewBox="0 0 86.17857359898903 116.67244566466297" width="86.17857359898903" height="116.67244566466297">
  <!-- svg-source:excalidraw -->
  
  <defs>
    <style class="style-fonts">
      
    </style>
    
  </defs>
  <rect x="0" y="0" width="86.17857359898903" height="116.67244566466297" fill="#ffffff"></rect><g stroke-linecap="round"><g transform="translate(73.15453902110175 75.62685645789026) rotate(0 -30.33244694572562 -17.34184451132458)" fill-rule="evenodd"><path d="M0 0 C-0.2 1.82, -0.21 7.34, -1.22 10.91 C-2.22 14.49, -3.64 18.59, -6.03 21.45 C-8.41 24.31, -11.62 26.5, -15.53 28.06 C-19.44 29.62, -24.69 30.5, -29.47 30.82 C-34.26 31.13, -39.87 31.1, -44.23 29.96 C-48.59 28.82, -52.8 27.49, -55.64 23.99 C-58.47 20.5, -60.36 18.41, -61.25 8.97 C-62.13 -0.47, -62.19 -22.15, -60.95 -32.66 C-59.71 -43.17, -55.28 -50.05, -53.82 -54.09 C-52.35 -58.13, -52.46 -56.39, -52.17 -56.9 C-51.87 -57.41, -51.85 -56.7, -52.07 -57.16 C-52.29 -57.63, -53.14 -58.84, -53.49 -59.67 C-53.83 -60.51, -54.16 -61.38, -54.13 -62.16 C-54.1 -62.94, -53.75 -63.79, -53.31 -64.35 C-52.87 -64.9, -52.1 -65.3, -51.48 -65.49 C-50.86 -65.68, -50.17 -65.66, -49.61 -65.5 C-49.04 -65.34, -48.61 -65.02, -48.08 -64.54 C-47.56 -64.07, -46.95 -63.17, -46.43 -62.65 C-45.91 -62.13, -45.42 -61.51, -44.97 -61.4 C-44.52 -61.3, -46.44 -61.52, -43.74 -62.04 C-41.05 -62.55, -33.44 -64.4, -28.79 -64.51 C-24.13 -64.62, -18.88 -63.31, -15.8 -62.69 C-12.73 -62.07, -11.34 -61.12, -10.32 -60.79 C-9.3 -60.46, -10.1 -60.36, -9.69 -60.72 C-9.28 -61.07, -8.41 -62.35, -7.84 -62.92 C-7.28 -63.49, -6.82 -63.86, -6.29 -64.14 C-5.76 -64.43, -5.26 -64.66, -4.65 -64.65 C-4.05 -64.63, -3.17 -64.4, -2.66 -64.04 C-2.15 -63.69, -1.75 -63.16, -1.61 -62.5 C-1.47 -61.85, -1.42 -61.14, -1.82 -60.11 C-2.22 -59.08, -3.75 -57.09, -4.04 -56.34 C-4.32 -55.59, -3.96 -56.59, -3.55 -55.59 C-3.14 -54.6, -2.27 -54.21, -1.58 -50.36 C-0.89 -46.5, 0.32 -40.85, 0.58 -32.46 C0.84 -24.06, 0.1 -5.41, 0 0" stroke="none" stroke-width="0" fill="#a5d8ff" fill-rule="evenodd"></path><path d="M0 0 C-0.2 1.82, -0.21 7.34, -1.22 10.91 C-2.22 14.49, -3.64 18.59, -6.03 21.45 C-8.41 24.31, -11.62 26.5, -15.53 28.06 C-19.44 29.62, -24.69 30.5, -29.47 30.82 C-34.26 31.13, -39.87 31.1, -44.23 29.96 C-48.59 28.82, -52.8 27.49, -55.64 23.99 C-58.47 20.5, -60.36 18.41, -61.25 8.97 C-62.13 -0.47, -62.19 -22.15, -60.95 -32.66 C-59.71 -43.17, -55.28 -50.05, -53.82 -54.09 C-52.35 -58.13, -52.46 -56.39, -52.17 -56.9 C-51.87 -57.41, -51.85 -56.7, -52.07 -57.16 C-52.29 -57.63, -53.14 -58.84, -53.49 -59.67 C-53.83 -60.51, -54.16 -61.38, -54.13 -62.16 C-54.1 -62.94, -53.75 -63.79, -53.31 -64.35 C-52.87 -64.9, -52.1 -65.3, -51.48 -65.49 C-50.86 -65.68, -50.17 -65.66, -49.61 -65.5 C-49.04 -65.34, -48.61 -65.02, -48.08 -64.54 C-47.56 -64.07, -46.95 -63.17, -46.43 -62.65 C-45.91 -62.13, -45.42 -61.51, -44.97 -61.4 C-44.52 -61.3, -46.44 -61.52, -43.74 -62.04 C-41.05 -62.55, -33.44 -64.4, -28.79 -64.51 C-24.13 -64.62, -18.88 -63.31, -15.8 -62.69 C-12.73 -62.07, -11.34 -61.12, -10.32 -60.79 C-9.3 -60.46, -10.1 -60.36, -9.69 -60.72 C-9.28 -61.07, -8.41 -62.35, -7.84 -62.92 C-7.28 -63.49, -6.82 -63.86, -6.29 -64.14 C-5.76 -64.43, -5.26 -64.66, -4.65 -64.65 C-4.05 -64.63, -3.17 -64.4, -2.66 -64.04 C-2.15 -63.69, -1.75 -63.16, -1.61 -62.5 C-1.47 -61.85, -1.42 -61.14, -1.82 -60.11 C-2.22 -59.08, -3.75 -57.09, -4.04 -56.34 C-4.32 -55.59, -3.96 -56.59, -3.55 -55.59 C-3.14 -54.6, -2.27 -54.21, -1.58 -50.36 C-0.89 -46.5, 0.32 -40.85, 0.58 -32.46 C0.84 -24.06, 0.1 -5.41, 0 0 M0 0 C-0.2 1.82, -0.21 7.34, -1.22 10.91 C-2.22 14.49, -3.64 18.59, -6.03 21.45 C-8.41 24.31, -11.62 26.5, -15.53 28.06 C-19.44 29.62, -24.69 30.5, -29.47 30.82 C-34.26 31.13, -39.87 31.1, -44.23 29.96 C-48.59 28.82, -52.8 27.49, -55.64 23.99 C-58.47 20.5, -60.36 18.41, -61.25 8.97 C-62.13 -0.47, -62.19 -22.15, -60.95 -32.66 C-59.71 -43.17, -55.28 -50.05, -53.82 -54.09 C-52.35 -58.13, -52.46 -56.39, -52.17 -56.9 C-51.87 -57.41, -51.85 -56.7, -52.07 -57.16 C-52.29 -57.63, -53.14 -58.84, -53.49 -59.67 C-53.83 -60.51, -54.16 -61.38, -54.13 -62.16 C-54.1 -62.94, -53.75 -63.79, -53.31 -64.35 C-52.87 -64.9, -52.1 -65.3, -51.48 -65.49 C-50.86 -65.68, -50.17 -65.66, -49.61 -65.5 C-49.04 -65.34, -48.61 -65.02, -48.08 -64.54 C-47.56 -64.07, -46.95 -63.17, -46.43 -62.65 C-45.91 -62.13, -45.42 -61.51, -44.97 -61.4 C-44.52 -61.3, -46.44 -61.52, -43.74 -62.04 C-41.05 -62.55, -33.44 -64.4, -28.79 -64.51 C-24.13 -64.62, -18.88 -63.31, -15.8 -62.69 C-12.73 -62.07, -11.34 -61.12, -10.32 -60.79 C-9.3 -60.46, -10.1 -60.36, -9.69 -60.72 C-9.28 -61.07, -8.41 -62.35, -7.84 -62.92 C-7.28 -63.49, -6.82 -63.86, -6.29 -64.14 C-5.76 -64.43, -5.26 -64.66, -4.65 -64.65 C-4.05 -64.63, -3.17 -64.4, -2.66 -64.04 C-2.15 -63.69, -1.75 -63.16, -1.61 -62.5 C-1.47 -61.85, -1.42 -61.14, -1.82 -60.11 C-2.22 -59.08, -3.75 -57.09, -4.04 -56.34 C-4.32 -55.59, -3.96 -56.59, -3.55 -55.59 C-3.14 -54.6, -2.27 -54.21, -1.58 -50.36 C-0.89 -46.5, 0.32 -40.85, 0.58 -32.46 C0.84 -24.06, 0.1 -5.41, 0 0" stroke="#000000" stroke-width="1" fill="none"></path></g></g><mask></mask><g stroke-linecap="round"><g transform="translate(73.15453902110175 75.68401642576953) rotate(0 -30.33244694572562 -16.91431974687498)" fill-rule="evenodd"><path d="M0 0 C-0.2 1.82, -0.21 7.34, -1.22 10.91 C-2.22 14.49, -3.64 18.59, -6.03 21.45 C-8.41 24.31, -11.62 26.5, -15.53 28.06 C-19.44 29.62, -24.69 30.5, -29.47 30.82 C-34.26 31.13, -39.87 31.1, -44.23 29.96 C-48.59 28.82, -52.8 27.49, -55.64 23.99 C-58.47 20.5, -60.36 18.41, -61.25 8.97 C-62.13 -0.47, -62.19 -22.15, -60.95 -32.66 C-59.71 -43.17, -56.64 -49.22, -53.82 -54.09 C-51 -58.97, -48.21 -60.17, -44.04 -61.9 C-39.87 -63.64, -33.49 -64.37, -28.79 -64.51 C-24.08 -64.64, -18.88 -63.31, -15.8 -62.69 C-12.73 -62.07, -11.34 -61.12, -10.32 -60.79 C-9.3 -60.46, -10.1 -60.36, -9.69 -60.72 C-9.28 -61.07, -8.41 -62.35, -7.84 -62.92 C-7.28 -63.49, -6.82 -63.86, -6.29 -64.14 C-5.76 -64.43, -5.26 -64.66, -4.65 -64.65 C-4.05 -64.63, -3.17 -64.4, -2.66 -64.04 C-2.15 -63.69, -1.75 -63.16, -1.61 -62.5 C-1.47 -61.85, -1.42 -61.14, -1.82 -60.11 C-2.22 -59.08, -3.75 -57.09, -4.04 -56.34 C-4.32 -55.59, -3.96 -56.59, -3.55 -55.59 C-3.14 -54.6, -2.27 -54.21, -1.58 -50.36 C-0.89 -46.5, 0.32 -40.85, 0.58 -32.46 C0.84 -24.06, 0.1 -5.41, 0 0" stroke="none" stroke-width="0" fill="#a5d8ff" fill-rule="evenodd"></path><path d="M0 0 C-0.2 1.82, -0.21 7.34, -1.22 10.91 C-2.22 14.49, -3.64 18.59, -6.03 21.45 C-8.41 24.31, -11.62 26.5, -15.53 28.06 C-19.44 29.62, -24.69 30.5, -29.47 30.82 C-34.26 31.13, -39.87 31.1, -44.23 29.96 C-48.59 28.82, -52.8 27.49, -55.64 23.99 C-58.47 20.5, -60.36 18.41, -61.25 8.97 C-62.13 -0.47, -62.19 -22.15, -60.95 -32.66 C-59.71 -43.17, -56.64 -49.22, -53.82 -54.09 C-51 -58.97, -48.21 -60.17, -44.04 -61.9 C-39.87 -63.64, -33.49 -64.37, -28.79 -64.51 C-24.08 -64.64, -18.88 -63.31, -15.8 -62.69 C-12.73 -62.07, -11.34 -61.12, -10.32 -60.79 C-9.3 -60.46, -10.1 -60.36, -9.69 -60.72 C-9.28 -61.07, -8.41 -62.35, -7.84 -62.92 C-7.28 -63.49, -6.82 -63.86, -6.29 -64.14 C-5.76 -64.43, -5.26 -64.66, -4.65 -64.65 C-4.05 -64.63, -3.17 -64.4, -2.66 -64.04 C-2.15 -63.69, -1.75 -63.16, -1.61 -62.5 C-1.47 -61.85, -1.42 -61.14, -1.82 -60.11 C-2.22 -59.08, -3.75 -57.09, -4.04 -56.34 C-4.32 -55.59, -3.96 -56.59, -3.55 -55.59 C-3.14 -54.6, -2.27 -54.21, -1.58 -50.36 C-0.89 -46.5, 0.32 -40.85, 0.58 -32.46 C0.84 -24.06, 0.1 -5.41, 0 0 M0 0 C-0.2 1.82, -0.21 7.34, -1.22 10.91 C-2.22 14.49, -3.64 18.59, -6.03 21.45 C-8.41 24.31, -11.62 26.5, -15.53 28.06 C-19.44 29.62, -24.69 30.5, -29.47 30.82 C-34.26 31.13, -39.87 31.1, -44.23 29.96 C-48.59 28.82, -52.8 27.49, -55.64 23.99 C-58.47 20.5, -60.36 18.41, -61.25 8.97 C-62.13 -0.47, -62.19 -22.15, -60.95 -32.66 C-59.71 -43.17, -56.64 -49.22, -53.82 -54.09 C-51 -58.97, -48.21 -60.17, -44.04 -61.9 C-39.87 -63.64, -33.49 -64.37, -28.79 -64.51 C-24.08 -64.64, -18.88 -63.31, -15.8 -62.69 C-12.73 -62.07, -11.34 -61.12, -10.32 -60.79 C-9.3 -60.46, -10.1 -60.36, -9.69 -60.72 C-9.28 -61.07, -8.41 -62.35, -7.84 -62.92 C-7.28 -63.49, -6.82 -63.86, -6.29 -64.14 C-5.76 -64.43, -5.26 -64.66, -4.65 -64.65 C-4.05 -64.63, -3.17 -64.4, -2.66 -64.04 C-2.15 -63.69, -1.75 -63.16, -1.61 -62.5 C-1.47 -61.85, -1.42 -61.14, -1.82 -60.11 C-2.22 -59.08, -3.75 -57.09, -4.04 -56.34 C-4.32 -55.59, -3.96 -56.59, -3.55 -55.59 C-3.14 -54.6, -2.27 -54.21, -1.58 -50.36 C-0.89 -46.5, 0.32 -40.85, 0.58 -32.46 C0.84 -24.06, 0.1 -5.41, 0 0" stroke="#000000" stroke-width="1" fill="none"></path></g></g><mask></mask><g stroke-linecap="round"><g transform="translate(61.14269511765906 14.230503987832094) rotate(0 4.389383555658867 3.020218042884551)"><path d="M0 0 C0.7 0.38, 2.91 1.42, 4.23 2.26 C5.54 3.09, 7.13 4.36, 7.89 4.99 C8.65 5.62, 8.63 5.87, 8.78 6.04 M0 0 C0.7 0.38, 2.91 1.42, 4.23 2.26 C5.54 3.09, 7.13 4.36, 7.89 4.99 C8.65 5.62, 8.63 5.87, 8.78 6.04" stroke="#000000" stroke-width="1" fill="none"></path></g></g><mask></mask><g stroke-linecap="round"><g transform="translate(66.36797624068004 16.96911576479431) rotate(0 0.6743903104007245 -1.716629881020026)" fill-rule="evenodd"><path d="M0 0 C0.12 -0.27, 0.51 -1.02, 0.74 -1.59 C0.96 -2.17, 1.25 -3.13, 1.35 -3.43" stroke="none" stroke-width="0" fill="#a5d8ff" fill-rule="evenodd"></path><path d="M0 0 C0.12 -0.27, 0.51 -1.02, 0.74 -1.59 C0.96 -2.17, 1.25 -3.13, 1.35 -3.43 M0 0 C0.12 -0.27, 0.51 -1.02, 0.74 -1.59 C0.96 -2.17, 1.25 -3.13, 1.35 -3.43" stroke="#000000" stroke-width="1" fill="none"></path></g></g><mask></mask><g stroke-linecap="round"><g transform="translate(69.51300726362012 15.261703593360266) rotate(0 -1.5815143561268314 0.778591683016316)" fill-rule="evenodd"><path d="M0 0 C-0.26 0.06, -1.03 0.13, -1.56 0.39 C-2.08 0.65, -2.9 1.36, -3.16 1.56" stroke="none" stroke-width="0" fill="#a5d8ff" fill-rule="evenodd"></path><path d="M0 0 C-0.26 0.06, -1.03 0.13, -1.56 0.39 C-2.08 0.65, -2.9 1.36, -3.16 1.56 M0 0 C-0.26 0.06, -1.03 0.13, -1.56 0.39 C-2.08 0.65, -2.9 1.36, -3.16 1.56" stroke="#000000" stroke-width="1" fill="none"></path></g></g><mask></mask><g stroke-opacity="0.5" fill-opacity="0.5" stroke-linecap="round" transform="translate(19.948322578423358 68.09145552279733) rotate(0 21.587545572086754 17.550258458822327)"><path d="M17.86 0.01 C22.13 -0.61, 27.6 0.97, 31.67 2.86 C35.73 4.75, 40.7 7.94, 42.26 11.35 C43.81 14.77, 42.75 19.63, 40.98 23.35 C39.22 27.08, 35.49 31.7, 31.68 33.69 C27.86 35.68, 22.49 36.29, 18.1 35.28 C13.71 34.28, 8.34 30.56, 5.34 27.65 C2.35 24.75, 0.09 21.52, 0.12 17.83 C0.14 14.14, 2.41 8.32, 5.5 5.5 C8.58 2.67, 16.02 1.9, 18.6 0.89 C21.19 -0.13, 20.93 -0.8, 20.99 -0.61 M23.36 0.34 C27.77 0.57, 35.01 3.49, 38.45 6.24 C41.9 8.99, 44.13 13.29, 44.03 16.85 C43.93 20.42, 40.77 24.55, 37.84 27.64 C34.91 30.74, 30.58 34.34, 26.44 35.42 C22.3 36.5, 17.18 35.96, 12.99 34.13 C8.79 32.3, 3.07 28.01, 1.28 24.46 C-0.5 20.91, 1.05 16.46, 2.29 12.81 C3.53 9.15, 4.83 4.73, 8.72 2.55 C12.6 0.36, 23.08 -0.19, 25.61 -0.31 C28.14 -0.43, 24.16 1.47, 23.91 1.85" stroke="none" stroke-width="0" fill="#a5d8ff"></path><path d="M31.08 1.59 C35.08 3.19, 39.31 7.6, 41.13 11.33 C42.95 15.05, 43.22 20.42, 41.99 23.95 C40.75 27.49, 37.57 30.59, 33.72 32.51 C29.87 34.43, 23.49 36, 18.88 35.45 C14.26 34.91, 9.16 32.26, 6.04 29.24 C2.91 26.23, 0.29 20.98, 0.12 17.38 C-0.04 13.78, 2.06 10.52, 5.05 7.66 C8.04 4.81, 13.22 1.09, 18.04 0.25 C22.86 -0.6, 31.02 1.75, 33.98 2.59 C36.93 3.42, 35.99 4.87, 35.77 5.24 M15.2 0.44 C19.48 -0.87, 28.06 -0.77, 32.46 1.05 C36.86 2.87, 40.04 7.73, 41.61 11.36 C43.18 14.99, 43 19.24, 41.89 22.82 C40.79 26.4, 38.64 30.86, 34.97 32.84 C31.31 34.82, 24.57 35.03, 19.91 34.69 C15.25 34.36, 10.26 33.64, 7.01 30.83 C3.77 28.01, 0.76 21.55, 0.43 17.8 C0.1 14.06, 2.3 11.11, 5.03 8.36 C7.76 5.61, 14.99 2.49, 16.81 1.3 C18.63 0.12, 16.13 1.33, 15.96 1.26" stroke="#000000" stroke-width="1" fill="none"></path></g><g stroke-linecap="round"><g transform="translate(22.18574902200578 16.68096735371182) rotate(294.1768782491122 0.367849260218577 -1.7302804248918164)" fill-rule="evenodd"><path d="M0 0 C0.12 -0.27, 0.62 -1.02, 0.74 -1.59 C0.85 -2.17, 0.7 -3.15, 0.69 -3.46" stroke="none" stroke-width="0" fill="#a5d8ff" fill-rule="evenodd"></path><path d="M0 0 C0.12 -0.27, 0.62 -1.02, 0.74 -1.59 C0.85 -2.17, 0.7 -3.15, 0.69 -3.46 M0 0 C0.12 -0.27, 0.62 -1.02, 0.74 -1.59 C0.85 -2.17, 0.7 -3.15, 0.69 -3.46" stroke="#000000" stroke-width="1" fill="none"></path></g></g><mask></mask><g stroke-linecap="round"><g transform="translate(24.5711227446634 13.30382199884491) rotate(294.1768782491122 -1.223307003437867 1.099548772594801)" fill-rule="evenodd"><path d="M0 0 C-0.14 0.17, -0.43 0.66, -0.84 1.03 C-1.25 1.4, -2.18 2, -2.45 2.2" stroke="none" stroke-width="0" fill="#a5d8ff" fill-rule="evenodd"></path><path d="M0 0 C-0.14 0.17, -0.43 0.66, -0.84 1.03 C-1.25 1.4, -2.18 2, -2.45 2.2 M0 0 C-0.14 0.17, -0.43 0.66, -0.84 1.03 C-1.25 1.4, -2.18 2, -2.45 2.2" stroke="#000000" stroke-width="1" fill="none"></path></g></g><mask></mask><g stroke-linecap="round" transform="translate(50.25280051050913 21.035052058655197) rotate(0 12.885944411733192 13.012899529090134)"><path d="M13.72 -0.16 C16.29 0.03, 19.8 2.23, 21.85 4.29 C23.9 6.36, 25.72 9.6, 26.01 12.23 C26.31 14.86, 25.26 17.79, 23.63 20.07 C21.99 22.34, 18.87 25.14, 16.18 25.87 C13.49 26.61, 10.04 25.65, 7.47 24.47 C4.9 23.29, 1.91 21.38, 0.76 18.82 C-0.38 16.25, -0.14 11.8, 0.61 9.06 C1.35 6.32, 2.94 3.83, 5.25 2.39 C7.56 0.94, 12.89 0.78, 14.47 0.38 C16.05 -0.01, 14.77 -0.19, 14.73 0.03 M13.65 -0.23 C16.21 -0.09, 20.01 2.13, 22.13 4.24 C24.26 6.36, 26.22 9.73, 26.4 12.46 C26.58 15.2, 24.81 18.4, 23.21 20.63 C21.61 22.87, 19.53 25.19, 16.79 25.86 C14.05 26.53, 9.24 25.94, 6.74 24.66 C4.24 23.39, 2.87 20.61, 1.79 18.21 C0.71 15.8, -0.38 12.89, 0.25 10.24 C0.88 7.59, 3.19 3.95, 5.57 2.33 C7.94 0.72, 13.16 0.79, 14.5 0.57 C15.85 0.35, 13.67 0.77, 13.65 1.01" stroke="none" stroke-width="0" fill="#ffffff"></path><path d="M14.29 0.07 C16.95 0.08, 20.16 2.06, 22.1 4.01 C24.05 5.97, 25.73 9.11, 25.97 11.78 C26.21 14.45, 25.12 17.66, 23.54 20.03 C21.97 22.41, 19.12 25.24, 16.53 26.03 C13.93 26.82, 10.49 26.05, 7.97 24.78 C5.45 23.5, 2.62 20.82, 1.41 18.39 C0.21 15.95, 0.05 12.81, 0.74 10.18 C1.43 7.54, 3.33 4.19, 5.54 2.56 C7.75 0.92, 12.47 0.8, 14.01 0.37 C15.54 -0.06, 14.75 -0.27, 14.76 -0.02 M11.11 0.31 C13.78 -0.19, 18.18 1.02, 20.58 2.48 C22.98 3.94, 24.73 6.38, 25.51 9.07 C26.28 11.77, 26.32 16.15, 25.22 18.66 C24.12 21.17, 21.37 22.87, 18.91 24.13 C16.44 25.4, 13.11 26.74, 10.42 26.25 C7.74 25.77, 4.58 23.51, 2.8 21.22 C1.03 18.93, -0.26 15.47, -0.24 12.51 C-0.22 9.55, 0.94 5.63, 2.93 3.46 C4.91 1.29, 10.29 0.11, 11.66 -0.51 C13.02 -1.13, 11.24 -0.55, 11.13 -0.27" stroke="#000000" stroke-width="1" fill="none"></path></g><g stroke-linecap="round" transform="translate(11.277579481917428 21.134665199098777) rotate(0 12.885944411733192 13.012899529090134)"><path d="M11.3 0.48 C14 0.11, 17.99 1.05, 20.35 2.46 C22.72 3.86, 24.78 6.23, 25.51 8.91 C26.24 11.59, 25.86 15.97, 24.73 18.55 C23.59 21.13, 21.23 23.16, 18.68 24.41 C16.12 25.66, 12.06 26.75, 9.39 26.04 C6.71 25.34, 4.23 22.5, 2.61 20.19 C1 17.89, -0.48 14.87, -0.3 12.22 C-0.11 9.57, 1.62 6.38, 3.73 4.29 C5.84 2.2, 10.85 0.3, 12.38 -0.32 C13.91 -0.94, 12.9 0.26, 12.91 0.58 M13.15 0.37 C15.96 0.38, 19.94 1.89, 21.99 3.67 C24.03 5.45, 24.99 8.32, 25.42 11.03 C25.86 13.74, 26.09 17.58, 24.6 19.94 C23.11 22.3, 19.1 24.37, 16.49 25.2 C13.87 26.03, 11.42 25.81, 8.91 24.95 C6.4 24.08, 2.87 22.42, 1.42 20.03 C-0.02 17.64, -0.39 13.36, 0.24 10.59 C0.86 7.83, 3.09 5.08, 5.16 3.43 C7.23 1.78, 11.27 1.11, 12.66 0.7 C14.04 0.28, 13.41 0.8, 13.46 0.92" stroke="none" stroke-width="0" fill="#ffffff"></path><path d="M16.09 0.63 C18.66 1.09, 21.9 3.15, 23.52 5.28 C25.14 7.42, 25.98 10.6, 25.8 13.46 C25.62 16.33, 24.28 20.39, 22.44 22.46 C20.6 24.53, 17.52 25.68, 14.76 25.88 C12.01 26.08, 8.23 25.1, 5.91 23.64 C3.59 22.18, 1.63 19.74, 0.84 17.13 C0.06 14.51, 0.18 10.53, 1.19 7.95 C2.21 5.37, 4.35 2.95, 6.92 1.65 C9.5 0.34, 15 0.16, 16.65 0.11 C18.3 0.07, 16.95 1.08, 16.82 1.37 M15.57 0.53 C18.27 0.72, 21.13 2.19, 22.91 4.32 C24.69 6.46, 26.22 10.6, 26.25 13.34 C26.28 16.07, 24.83 18.55, 23.09 20.72 C21.34 22.89, 18.5 25.68, 15.79 26.35 C13.09 27.03, 9.39 26.2, 6.86 24.78 C4.32 23.37, 1.71 20.65, 0.6 17.87 C-0.52 15.09, -0.84 10.87, 0.16 8.1 C1.15 5.33, 4.16 2.68, 6.58 1.25 C8.99 -0.18, 13.37 -0.29, 14.67 -0.46 C15.96 -0.63, 14.36 0.01, 14.34 0.21" stroke="#000000" stroke-width="1" fill="none"></path></g><g stroke-linecap="round"><g stroke-opacity="0.1" fill-opacity="0.1" transform="translate(68.76726355614994 45.648791327092795) rotate(0 -9.104515003028837 -11.175166261843685)" fill-rule="evenodd"><path d="M0 0 C-0.4 0.05, -1.59 0.28, -2.39 0.28 C-3.19 0.28, -3.87 0.19, -4.79 0.01 C-5.7 -0.16, -6.88 -0.38, -7.87 -0.75 C-8.87 -1.11, -9.91 -1.52, -10.77 -2.17 C-11.64 -2.83, -12.3 -3.6, -13.05 -4.65 C-13.8 -5.7, -14.94 -6.98, -15.28 -8.49 C-15.63 -10.01, -15.51 -11.97, -15.13 -13.74 C-14.74 -15.51, -14.13 -17.57, -12.97 -19.11 C-11.81 -20.65, -9.65 -22.1, -8.17 -22.99 C-6.68 -23.87, -3.55 -24.38, -4.05 -24.42 C-4.56 -24.47, -9.3 -24.07, -11.19 -23.26 C-13.08 -22.46, -14.35 -20.73, -15.38 -19.58 C-16.42 -18.44, -16.89 -17.65, -17.41 -16.41 C-17.93 -15.17, -18.27 -13.62, -18.51 -12.16 C-18.74 -10.71, -18.91 -8.96, -18.82 -7.67 C-18.74 -6.39, -18.38 -5.37, -17.99 -4.45 C-17.61 -3.54, -17.21 -2.95, -16.53 -2.2 C-15.84 -1.45, -14.98 -0.61, -13.89 0.04 C-12.79 0.69, -11.42 1.34, -9.95 1.68 C-8.49 2.02, -6.84 2.35, -5.08 2.07 C-3.32 1.8, -0.34 0.39, 0.61 0.06" stroke="none" stroke-width="0" fill="#000000" fill-rule="evenodd"></path><path d="M0 0 C-0.4 0.05, -1.59 0.28, -2.39 0.28 C-3.19 0.28, -3.87 0.19, -4.79 0.01 C-5.7 -0.16, -6.88 -0.38, -7.87 -0.75 C-8.87 -1.11, -9.91 -1.52, -10.77 -2.17 C-11.64 -2.83, -12.3 -3.6, -13.05 -4.65 C-13.8 -5.7, -14.94 -6.98, -15.28 -8.49 C-15.63 -10.01, -15.51 -11.97, -15.13 -13.74 C-14.74 -15.51, -14.13 -17.57, -12.97 -19.11 C-11.81 -20.65, -9.65 -22.1, -8.17 -22.99 C-6.68 -23.87, -3.55 -24.38, -4.05 -24.42 C-4.56 -24.47, -9.3 -24.07, -11.19 -23.26 C-13.08 -22.46, -14.35 -20.73, -15.38 -19.58 C-16.42 -18.44, -16.89 -17.65, -17.41 -16.41 C-17.93 -15.17, -18.27 -13.62, -18.51 -12.16 C-18.74 -10.71, -18.91 -8.96, -18.82 -7.67 C-18.74 -6.39, -18.38 -5.37, -17.99 -4.45 C-17.61 -3.54, -17.21 -2.95, -16.53 -2.2 C-15.84 -1.45, -14.98 -0.61, -13.89 0.04 C-12.79 0.69, -11.42 1.34, -9.95 1.68 C-8.49 2.02, -6.84 2.35, -5.08 2.07 C-3.32 1.8, -0.34 0.39, 0.61 0.06 M0 0 C-0.4 0.05, -1.59 0.28, -2.39 0.28 C-3.19 0.28, -3.87 0.19, -4.79 0.01 C-5.7 -0.16, -6.88 -0.38, -7.87 -0.75 C-8.87 -1.11, -9.91 -1.52, -10.77 -2.17 C-11.64 -2.83, -12.3 -3.6, -13.05 -4.65 C-13.8 -5.7, -14.94 -6.98, -15.28 -8.49 C-15.63 -10.01, -15.51 -11.97, -15.13 -13.74 C-14.74 -15.51, -14.13 -17.57, -12.97 -19.11 C-11.81 -20.65, -9.65 -22.1, -8.17 -22.99 C-6.68 -23.87, -3.55 -24.38, -4.05 -24.42 C-4.56 -24.47, -9.3 -24.07, -11.19 -23.26 C-13.08 -22.46, -14.35 -20.73, -15.38 -19.58 C-16.42 -18.44, -16.89 -17.65, -17.41 -16.41 C-17.93 -15.17, -18.27 -13.62, -18.51 -12.16 C-18.74 -10.71, -18.91 -8.96, -18.82 -7.67 C-18.74 -6.39, -18.38 -5.37, -17.99 -4.45 C-17.61 -3.54, -17.21 -2.95, -16.53 -2.2 C-15.84 -1.45, -14.98 -0.61, -13.89 0.04 C-12.79 0.69, -11.42 1.34, -9.95 1.68 C-8.49 2.02, -6.84 2.35, -5.08 2.07 C-3.32 1.8, -0.34 0.39, 0.61 0.06" stroke="#000000" stroke-width="1" fill="none"></path></g></g><mask></mask><g stroke-linecap="round"><g stroke-opacity="0.1" fill-opacity="0.1" transform="translate(25.56325742582476 46.81056424382723) rotate(0 -6.489731873534083 -12.707815102746451)" fill-rule="evenodd"><path d="M0 0 C-0.9 -0.53, -3.83 -1.81, -5.43 -3.18 C-7.03 -4.55, -8.75 -6.27, -9.6 -8.21 C-10.45 -10.16, -10.71 -12.86, -10.5 -14.86 C-10.3 -16.86, -9.51 -18.69, -8.35 -20.23 C-7.19 -21.77, -5.03 -23.21, -3.54 -24.1 C-2.06 -24.99, 1.08 -25.49, 0.57 -25.54 C0.07 -25.59, -4.68 -25.19, -6.57 -24.38 C-8.46 -23.57, -9.72 -21.84, -10.76 -20.7 C-11.8 -19.55, -12.32 -18.75, -12.79 -17.52 C-13.26 -16.3, -13.53 -14.84, -13.55 -13.33 C-13.57 -11.83, -13.34 -10.01, -12.92 -8.51 C-12.49 -7.01, -11.82 -5.42, -11.01 -4.32 C-10.21 -3.22, -9.38 -2.65, -8.09 -1.91 C-6.8 -1.17, -4.62 -0.19, -3.27 0.12 C-1.92 0.44, -0.54 0.02, 0 0" stroke="none" stroke-width="0" fill="#000000" fill-rule="evenodd"></path><path d="M0 0 C-0.9 -0.53, -3.83 -1.81, -5.43 -3.18 C-7.03 -4.55, -8.75 -6.27, -9.6 -8.21 C-10.45 -10.16, -10.71 -12.86, -10.5 -14.86 C-10.3 -16.86, -9.51 -18.69, -8.35 -20.23 C-7.19 -21.77, -5.03 -23.21, -3.54 -24.1 C-2.06 -24.99, 1.08 -25.49, 0.57 -25.54 C0.07 -25.59, -4.68 -25.19, -6.57 -24.38 C-8.46 -23.57, -9.72 -21.84, -10.76 -20.7 C-11.8 -19.55, -12.32 -18.75, -12.79 -17.52 C-13.26 -16.3, -13.53 -14.84, -13.55 -13.33 C-13.57 -11.83, -13.34 -10.01, -12.92 -8.51 C-12.49 -7.01, -11.82 -5.42, -11.01 -4.32 C-10.21 -3.22, -9.38 -2.65, -8.09 -1.91 C-6.8 -1.17, -4.62 -0.19, -3.27 0.12 C-1.92 0.44, -0.54 0.02, 0 0 M0 0 C-0.9 -0.53, -3.83 -1.81, -5.43 -3.18 C-7.03 -4.55, -8.75 -6.27, -9.6 -8.21 C-10.45 -10.16, -10.71 -12.86, -10.5 -14.86 C-10.3 -16.86, -9.51 -18.69, -8.35 -20.23 C-7.19 -21.77, -5.03 -23.21, -3.54 -24.1 C-2.06 -24.99, 1.08 -25.49, 0.57 -25.54 C0.07 -25.59, -4.68 -25.19, -6.57 -24.38 C-8.46 -23.57, -9.72 -21.84, -10.76 -20.7 C-11.8 -19.55, -12.32 -18.75, -12.79 -17.52 C-13.26 -16.3, -13.53 -14.84, -13.55 -13.33 C-13.57 -11.83, -13.34 -10.01, -12.92 -8.51 C-12.49 -7.01, -11.82 -5.42, -11.01 -4.32 C-10.21 -3.22, -9.38 -2.65, -8.09 -1.91 C-6.8 -1.17, -4.62 -0.19, -3.27 0.12 C-1.92 0.44, -0.54 0.02, 0 0" stroke="#000000" stroke-width="1" fill="none"></path></g></g><mask></mask><g stroke-linecap="round" transform="translate(11.377192622360894 21.035052058655197) rotate(0 12.885944411733192 13.012899529090134)"><path d="M13.02 0.47 C15.71 0.34, 19.43 1.26, 21.55 2.92 C23.67 4.59, 25.25 7.63, 25.73 10.46 C26.2 13.29, 25.78 17.41, 24.41 19.89 C23.04 22.37, 20.17 24.42, 17.49 25.36 C14.81 26.31, 10.9 26.59, 8.32 25.56 C5.74 24.54, 3.35 21.58, 1.99 19.21 C0.63 16.83, -0.23 13.98, 0.15 11.31 C0.54 8.64, 2 5.11, 4.29 3.2 C6.58 1.3, 12.2 0.27, 13.9 -0.13 C15.59 -0.53, 14.5 0.51, 14.48 0.78 M12.41 -0.47 C15.02 -0.77, 18.89 1.37, 21.1 3.19 C23.31 5.02, 25.16 7.83, 25.66 10.49 C26.17 13.14, 25.49 16.82, 24.11 19.13 C22.72 21.43, 19.81 23.37, 17.36 24.33 C14.92 25.28, 12.02 25.66, 9.43 24.85 C6.84 24.04, 3.48 21.75, 1.83 19.47 C0.19 17.2, -0.78 14, -0.43 11.21 C-0.08 8.42, 1.78 4.59, 3.94 2.76 C6.1 0.93, 11.18 0.74, 12.51 0.23 C13.84 -0.28, 12 -0.44, 11.91 -0.31" stroke="#000000" stroke-width="1" fill="none"></path></g><g stroke-linecap="round" transform="translate(50.40668477552276 20.872238684944932) rotate(0 12.885944411733192 13.012899529090134)"><path d="M10.93 0.16 C13.46 -0.61, 16.96 0.01, 19.35 1.45 C21.73 2.9, 24.28 6.18, 25.25 8.85 C26.22 11.51, 26.17 14.85, 25.17 17.45 C24.16 20.06, 21.59 23.15, 19.23 24.49 C16.88 25.82, 13.73 25.88, 11.04 25.47 C8.35 25.05, 4.98 24.01, 3.1 21.98 C1.22 19.95, -0.26 16.18, -0.24 13.29 C-0.22 10.4, 1.32 6.75, 3.22 4.64 C5.12 2.52, 9.71 1.26, 11.14 0.58 C12.57 -0.11, 11.81 0.33, 11.8 0.53 M15.66 0.78 C18.28 1.24, 21.39 3.02, 23.03 5.11 C24.68 7.19, 25.66 10.69, 25.52 13.3 C25.37 15.91, 23.85 18.79, 22.15 20.78 C20.46 22.77, 18.03 24.76, 15.36 25.24 C12.69 25.71, 8.65 24.96, 6.13 23.62 C3.6 22.27, 1.13 19.82, 0.22 17.17 C-0.7 14.53, -0.46 10.29, 0.64 7.75 C1.74 5.2, 4.43 3.26, 6.8 1.91 C9.18 0.56, 13.55 -0.08, 14.89 -0.37 C16.23 -0.67, 14.72 -0.24, 14.84 0.14" stroke="#000000" stroke-width="1" fill="none"></path></g><g stroke-linecap="round" transform="translate(20.898976589880817 31.192212275943348) rotate(0 2.602579905818004 2.4756247884610616)"><path d="M2.56 0.28 C3.09 0.27, 4.13 0.06, 4.54 0.4 C4.94 0.74, 4.93 1.71, 4.98 2.32 C5.03 2.94, 5.08 3.71, 4.82 4.1 C4.56 4.48, 3.95 4.5, 3.4 4.64 C2.86 4.78, 2.05 5.09, 1.54 4.93 C1.04 4.78, 0.61 4.27, 0.37 3.72 C0.13 3.17, 0.01 2.18, 0.11 1.64 C0.21 1.1, 0.5 0.7, 0.98 0.48 C1.47 0.26, 2.68 0.39, 3.03 0.31 C3.39 0.23, 3.14 -0.06, 3.12 -0.02 M3.16 -0.15 C3.74 -0.06, 3.91 0.73, 4.25 1.12 C4.59 1.52, 5.06 1.7, 5.19 2.2 C5.33 2.71, 5.41 3.66, 5.05 4.17 C4.7 4.69, 3.61 5.14, 3.07 5.31 C2.54 5.48, 2.31 5.46, 1.84 5.19 C1.36 4.92, 0.48 4.27, 0.21 3.67 C-0.06 3.08, 0.09 2.17, 0.21 1.63 C0.33 1.08, 0.5 0.63, 0.94 0.41 C1.38 0.18, 2.59 0.31, 2.84 0.27 C3.1 0.23, 2.47 0.11, 2.48 0.16" stroke="none" stroke-width="0" fill="#000000"></path><path d="M3.12 -0.11 C3.63 0, 4.42 0.71, 4.78 1.15 C5.14 1.59, 5.33 2.02, 5.28 2.53 C5.23 3.05, 4.8 3.88, 4.46 4.23 C4.12 4.58, 3.77 4.52, 3.24 4.65 C2.72 4.77, 1.86 5.16, 1.32 4.95 C0.79 4.75, 0.17 3.99, 0.01 3.43 C-0.15 2.87, 0.13 2.04, 0.35 1.57 C0.58 1.11, 0.88 0.88, 1.36 0.65 C1.83 0.41, 2.94 0.22, 3.22 0.17 C3.49 0.11, 3.01 0.27, 3.01 0.31 M2.47 0.28 C2.91 0.15, 3.5 0.37, 3.88 0.55 C4.26 0.73, 4.52 0.92, 4.74 1.34 C4.96 1.76, 5.39 2.58, 5.2 3.07 C5.01 3.56, 4.19 4.01, 3.59 4.28 C3 4.56, 2.16 4.88, 1.63 4.74 C1.09 4.6, 0.63 3.83, 0.39 3.45 C0.15 3.07, 0.18 2.96, 0.2 2.45 C0.22 1.94, 0.19 0.81, 0.51 0.37 C0.83 -0.07, 1.74 -0.2, 2.11 -0.21 C2.48 -0.21, 2.66 0.23, 2.74 0.34" stroke="#000000" stroke-width="1" fill="none"></path></g><g stroke-linecap="round" transform="translate(23.741532851003058 31.619806019632392) rotate(0 0.5078204694278838 0.6347755867848832)"><path d="M1.02 0.63 C1.02 0.67, 1.01 0.71, 1.01 0.75 C1 0.78, 1 0.82, 0.99 0.85 C0.97 0.89, 0.96 0.92, 0.95 0.95 C0.93 0.98, 0.92 1.01, 0.9 1.04 C0.88 1.07, 0.86 1.1, 0.83 1.12 C0.81 1.14, 0.79 1.17, 0.76 1.18 C0.74 1.2, 0.71 1.22, 0.68 1.23 C0.65 1.24, 0.62 1.25, 0.6 1.26 C0.57 1.27, 0.54 1.27, 0.51 1.27 C0.48 1.27, 0.45 1.27, 0.42 1.26 C0.39 1.25, 0.36 1.24, 0.33 1.23 C0.31 1.22, 0.28 1.2, 0.25 1.18 C0.23 1.17, 0.2 1.14, 0.18 1.12 C0.16 1.1, 0.14 1.07, 0.12 1.04 C0.1 1.01, 0.08 0.98, 0.07 0.95 C0.05 0.92, 0.04 0.89, 0.03 0.85 C0.02 0.82, 0.01 0.78, 0.01 0.75 C0 0.71, 0 0.67, 0 0.63 C0 0.6, 0 0.56, 0.01 0.52 C0.01 0.49, 0.02 0.45, 0.03 0.42 C0.04 0.38, 0.05 0.35, 0.07 0.32 C0.08 0.29, 0.1 0.25, 0.12 0.23 C0.14 0.2, 0.16 0.17, 0.18 0.15 C0.2 0.12, 0.23 0.1, 0.25 0.09 C0.28 0.07, 0.31 0.05, 0.33 0.04 C0.36 0.03, 0.39 0.02, 0.42 0.01 C0.45 0, 0.48 0, 0.51 0 C0.54 0, 0.57 0, 0.6 0.01 C0.62 0.02, 0.65 0.03, 0.68 0.04 C0.71 0.05, 0.74 0.07, 0.76 0.09 C0.79 0.1, 0.81 0.12, 0.83 0.15 C0.86 0.17, 0.88 0.2, 0.9 0.23 C0.92 0.25, 0.93 0.29, 0.95 0.32 C0.96 0.35, 0.97 0.38, 0.99 0.42 C1 0.45, 1 0.49, 1.01 0.52 C1.01 0.56, 1.01 0.62, 1.02 0.63 C1.02 0.65, 1.02 0.62, 1.02 0.63" stroke="none" stroke-width="0" fill="#ffffff"></path><path d="M1.02 0.63 C1.02 0.67, 1.01 0.71, 1.01 0.75 C1 0.78, 1 0.82, 0.99 0.85 C0.97 0.89, 0.96 0.92, 0.95 0.95 C0.93 0.98, 0.92 1.01, 0.9 1.04 C0.88 1.07, 0.86 1.1, 0.83 1.12 C0.81 1.14, 0.79 1.17, 0.76 1.18 C0.74 1.2, 0.71 1.22, 0.68 1.23 C0.65 1.24, 0.62 1.25, 0.6 1.26 C0.57 1.27, 0.54 1.27, 0.51 1.27 C0.48 1.27, 0.45 1.27, 0.42 1.26 C0.39 1.25, 0.36 1.24, 0.33 1.23 C0.31 1.22, 0.28 1.2, 0.25 1.18 C0.23 1.17, 0.2 1.14, 0.18 1.12 C0.16 1.1, 0.14 1.07, 0.12 1.04 C0.1 1.01, 0.08 0.98, 0.07 0.95 C0.05 0.92, 0.04 0.89, 0.03 0.85 C0.02 0.82, 0.01 0.78, 0.01 0.75 C0 0.71, 0 0.67, 0 0.63 C0 0.6, 0 0.56, 0.01 0.52 C0.01 0.49, 0.02 0.45, 0.03 0.42 C0.04 0.38, 0.05 0.35, 0.07 0.32 C0.08 0.29, 0.1 0.25, 0.12 0.23 C0.14 0.2, 0.16 0.17, 0.18 0.15 C0.2 0.12, 0.23 0.1, 0.25 0.09 C0.28 0.07, 0.31 0.05, 0.33 0.04 C0.36 0.03, 0.39 0.02, 0.42 0.01 C0.45 0, 0.48 0, 0.51 0 C0.54 0, 0.57 0, 0.6 0.01 C0.62 0.02, 0.65 0.03, 0.68 0.04 C0.71 0.05, 0.74 0.07, 0.76 0.09 C0.79 0.1, 0.81 0.12, 0.83 0.15 C0.86 0.17, 0.88 0.2, 0.9 0.23 C0.92 0.25, 0.93 0.29, 0.95 0.32 C0.96 0.35, 0.97 0.38, 0.99 0.42 C1 0.45, 1 0.49, 1.01 0.52 C1.01 0.56, 1.01 0.62, 1.02 0.63 C1.02 0.65, 1.02 0.62, 1.02 0.63" stroke="#ffffff" stroke-width="1" fill="none"></path></g><g stroke-linecap="round" transform="translate(61.48630760663673 31.725907588485597) rotate(0 2.602579905818004 2.4756247884610616)"><path d="M2.73 0.08 C3.26 0.21, 4.18 0.66, 4.61 1.01 C5.05 1.35, 5.32 1.61, 5.33 2.15 C5.35 2.68, 5.05 3.71, 4.71 4.2 C4.36 4.69, 3.83 5.04, 3.29 5.09 C2.74 5.13, 1.95 4.74, 1.42 4.47 C0.88 4.2, 0.26 3.86, 0.07 3.45 C-0.12 3.05, 0.06 2.55, 0.29 2.03 C0.51 1.5, 0.98 0.59, 1.43 0.3 C1.89 0.02, 2.74 0.4, 3.02 0.31 C3.3 0.23, 3.14 -0.24, 3.12 -0.2 M2.47 0.02 C3.07 -0.05, 4.05 0.45, 4.45 0.84 C4.84 1.24, 4.74 1.85, 4.86 2.39 C4.98 2.92, 5.4 3.63, 5.18 4.04 C4.96 4.45, 4.08 4.76, 3.55 4.84 C3.01 4.93, 2.51 4.74, 1.98 4.56 C1.44 4.38, 0.62 4.09, 0.31 3.74 C0 3.38, 0.07 2.93, 0.11 2.43 C0.15 1.94, 0.14 1.12, 0.56 0.77 C0.99 0.41, 2.27 0.43, 2.66 0.3 C3.05 0.17, 2.89 -0.03, 2.92 -0.01" stroke="none" stroke-width="0" fill="#000000"></path><path d="M2.5 0.11 C2.97 0.03, 3.51 0.42, 3.97 0.67 C4.44 0.92, 5.12 1.09, 5.27 1.62 C5.43 2.16, 5.22 3.35, 4.92 3.88 C4.63 4.41, 3.97 4.66, 3.5 4.81 C3.02 4.95, 2.58 4.86, 2.09 4.75 C1.6 4.65, 0.86 4.55, 0.54 4.15 C0.22 3.75, 0.15 2.88, 0.18 2.34 C0.21 1.8, 0.31 1.28, 0.73 0.9 C1.15 0.53, 2.46 0.2, 2.72 0.09 C2.99 -0.02, 2.32 0.21, 2.32 0.25 M2.46 -0.44 C3.06 -0.51, 4.23 -0.06, 4.66 0.32 C5.09 0.7, 5.08 1.27, 5.03 1.85 C4.99 2.42, 4.69 3.33, 4.38 3.76 C4.07 4.18, 3.61 4.19, 3.17 4.38 C2.72 4.56, 2.22 5.07, 1.69 4.86 C1.17 4.65, 0.33 3.67, 0.03 3.13 C-0.27 2.59, -0.37 2.02, -0.13 1.61 C0.12 1.21, 0.98 0.96, 1.52 0.73 C2.05 0.5, 2.94 0.35, 3.08 0.25 C3.21 0.15, 2.33 0.1, 2.33 0.12" stroke="#000000" stroke-width="1" fill="none"></path></g><g stroke-linecap="round" transform="translate(64.32886386775886 32.24977340306202) rotate(0 0.5078204694278838 0.6347755867848832)"><path d="M1.02 0.63 C1.02 0.67, 1.01 0.71, 1.01 0.75 C1 0.78, 1 0.82, 0.99 0.85 C0.97 0.89, 0.96 0.92, 0.95 0.95 C0.93 0.98, 0.92 1.01, 0.9 1.04 C0.88 1.07, 0.86 1.1, 0.83 1.12 C0.81 1.14, 0.79 1.17, 0.76 1.18 C0.74 1.2, 0.71 1.22, 0.68 1.23 C0.65 1.24, 0.62 1.25, 0.6 1.26 C0.57 1.27, 0.54 1.27, 0.51 1.27 C0.48 1.27, 0.45 1.27, 0.42 1.26 C0.39 1.25, 0.36 1.24, 0.33 1.23 C0.31 1.22, 0.28 1.2, 0.25 1.18 C0.23 1.17, 0.2 1.14, 0.18 1.12 C0.16 1.1, 0.14 1.07, 0.12 1.04 C0.1 1.01, 0.08 0.98, 0.07 0.95 C0.05 0.92, 0.04 0.89, 0.03 0.85 C0.02 0.82, 0.01 0.78, 0.01 0.75 C0 0.71, 0 0.67, 0 0.63 C0 0.6, 0 0.56, 0.01 0.52 C0.01 0.49, 0.02 0.45, 0.03 0.42 C0.04 0.38, 0.05 0.35, 0.07 0.32 C0.08 0.29, 0.1 0.25, 0.12 0.23 C0.14 0.2, 0.16 0.17, 0.18 0.15 C0.2 0.12, 0.23 0.1, 0.25 0.09 C0.28 0.07, 0.31 0.05, 0.33 0.04 C0.36 0.03, 0.39 0.02, 0.42 0.01 C0.45 0, 0.48 0, 0.51 0 C0.54 0, 0.57 0, 0.6 0.01 C0.62 0.02, 0.65 0.03, 0.68 0.04 C0.71 0.05, 0.74 0.07, 0.76 0.09 C0.79 0.1, 0.81 0.12, 0.83 0.15 C0.86 0.17, 0.88 0.2, 0.9 0.23 C0.92 0.25, 0.93 0.29, 0.95 0.32 C0.96 0.35, 0.97 0.38, 0.99 0.42 C1 0.45, 1 0.49, 1.01 0.52 C1.01 0.56, 1.01 0.62, 1.02 0.63 C1.02 0.65, 1.02 0.62, 1.02 0.63" stroke="none" stroke-width="0" fill="#ffffff"></path><path d="M1.02 0.63 C1.02 0.67, 1.01 0.71, 1.01 0.75 C1 0.78, 1 0.82, 0.99 0.85 C0.97 0.89, 0.96 0.92, 0.95 0.95 C0.93 0.98, 0.92 1.01, 0.9 1.04 C0.88 1.07, 0.86 1.1, 0.83 1.12 C0.81 1.14, 0.79 1.17, 0.76 1.18 C0.74 1.2, 0.71 1.22, 0.68 1.23 C0.65 1.24, 0.62 1.25, 0.6 1.26 C0.57 1.27, 0.54 1.27, 0.51 1.27 C0.48 1.27, 0.45 1.27, 0.42 1.26 C0.39 1.25, 0.36 1.24, 0.33 1.23 C0.31 1.22, 0.28 1.2, 0.25 1.18 C0.23 1.17, 0.2 1.14, 0.18 1.12 C0.16 1.1, 0.14 1.07, 0.12 1.04 C0.1 1.01, 0.08 0.98, 0.07 0.95 C0.05 0.92, 0.04 0.89, 0.03 0.85 C0.02 0.82, 0.01 0.78, 0.01 0.75 C0 0.71, 0 0.67, 0 0.63 C0 0.6, 0 0.56, 0.01 0.52 C0.01 0.49, 0.02 0.45, 0.03 0.42 C0.04 0.38, 0.05 0.35, 0.07 0.32 C0.08 0.29, 0.1 0.25, 0.12 0.23 C0.14 0.2, 0.16 0.17, 0.18 0.15 C0.2 0.12, 0.23 0.1, 0.25 0.09 C0.28 0.07, 0.31 0.05, 0.33 0.04 C0.36 0.03, 0.39 0.02, 0.42 0.01 C0.45 0, 0.48 0, 0.51 0 C0.54 0, 0.57 0, 0.6 0.01 C0.62 0.02, 0.65 0.03, 0.68 0.04 C0.71 0.05, 0.74 0.07, 0.76 0.09 C0.79 0.1, 0.81 0.12, 0.83 0.15 C0.86 0.17, 0.88 0.2, 0.9 0.23 C0.92 0.25, 0.93 0.29, 0.95 0.32 C0.96 0.35, 0.97 0.38, 0.99 0.42 C1 0.45, 1 0.49, 1.01 0.52 C1.01 0.56, 1.01 0.62, 1.02 0.63 C1.02 0.65, 1.02 0.62, 1.02 0.63" stroke="#ffffff" stroke-width="1" fill="none"></path></g><g stroke-linecap="round"><g transform="translate(37.850601692590544 49.63736350494435) rotate(0 5.051460860572945 -1.3409540416004688)" fill-rule="evenodd"><path d="M0 0 C0.03 -0.27, -0.13 -1.04, 0.18 -1.64 C0.49 -2.23, 1.09 -3.16, 1.85 -3.56 C2.62 -3.96, 3.89 -4, 4.79 -4.04 C5.69 -4.07, 6.48 -4.05, 7.26 -3.77 C8.04 -3.48, 9 -2.88, 9.47 -2.31 C9.95 -1.75, 10.16 -0.96, 10.1 -0.39 C10.05 0.19, 9.99 0.94, 9.15 1.12 C8.31 1.29, 6.22 0.63, 5.08 0.67 C3.94 0.71, 3.03 1.3, 2.3 1.35 C1.56 1.4, 1.03 1.17, 0.65 0.97 C0.27 0.76, 0.13 0.26, 0.03 0.12" stroke="none" stroke-width="0" fill="#ccbdac" fill-rule="evenodd"></path><path d="M0 0 C0.03 -0.27, -0.13 -1.04, 0.18 -1.64 C0.49 -2.23, 1.09 -3.16, 1.85 -3.56 C2.62 -3.96, 3.89 -4, 4.79 -4.04 C5.69 -4.07, 6.48 -4.05, 7.26 -3.77 C8.04 -3.48, 9 -2.88, 9.47 -2.31 C9.95 -1.75, 10.16 -0.96, 10.1 -0.39 C10.05 0.19, 9.99 0.94, 9.15 1.12 C8.31 1.29, 6.22 0.63, 5.08 0.67 C3.94 0.71, 3.03 1.3, 2.3 1.35 C1.56 1.4, 1.03 1.17, 0.65 0.97 C0.27 0.76, 0.13 0.26, 0.03 0.12 M0 0 C0.03 -0.27, -0.13 -1.04, 0.18 -1.64 C0.49 -2.23, 1.09 -3.16, 1.85 -3.56 C2.62 -3.96, 3.89 -4, 4.79 -4.04 C5.69 -4.07, 6.48 -4.05, 7.26 -3.77 C8.04 -3.48, 9 -2.88, 9.47 -2.31 C9.95 -1.75, 10.16 -0.96, 10.1 -0.39 C10.05 0.19, 9.99 0.94, 9.15 1.12 C8.31 1.29, 6.22 0.63, 5.08 0.67 C3.94 0.71, 3.03 1.3, 2.3 1.35 C1.56 1.4, 1.03 1.17, 0.65 0.97 C0.27 0.76, 0.13 0.26, 0.03 0.12" stroke="#000000" stroke-width="1" fill="none"></path></g></g><mask></mask><g stroke-linecap="round"><g transform="translate(41.90791533794436 50.49738658384035) rotate(0 -1.2585953865884107 -1.948771807521723)" fill-rule="evenodd"><path d="M0 0 C-0.07 -0.01, -0.06 0.02, -0.41 -0.08 C-0.77 -0.18, -1.8 -0.34, -2.14 -0.62 C-2.47 -0.9, -2.56 -1.44, -2.43 -1.76 C-2.29 -2.09, -1.93 -2.39, -1.32 -2.58 C-0.71 -2.77, 1.07 -2.61, 1.22 -2.91 C1.38 -3.21, 0.17 -4.18, -0.38 -4.39 C-0.93 -4.59, -1.63 -4.3, -2.08 -4.12 C-2.53 -3.94, -2.83 -3.54, -3.08 -3.28 C-3.32 -3.02, -3.45 -2.84, -3.56 -2.56 C-3.67 -2.28, -3.74 -1.94, -3.74 -1.6 C-3.75 -1.26, -3.72 -0.8, -3.59 -0.5 C-3.47 -0.2, -3.21 0.03, -2.99 0.2 C-2.77 0.36, -2.6 0.48, -2.26 0.49 C-1.91 0.5, -1.3 0.33, -0.93 0.25 C-0.55 0.17, -0.15 0.04, 0 0" stroke="none" stroke-width="0" fill="#958b7f" fill-rule="evenodd"></path><path d="M0 0 C-0.07 -0.01, -0.06 0.02, -0.41 -0.08 C-0.77 -0.18, -1.8 -0.34, -2.14 -0.62 C-2.47 -0.9, -2.56 -1.44, -2.43 -1.76 C-2.29 -2.09, -1.93 -2.39, -1.32 -2.58 C-0.71 -2.77, 1.07 -2.61, 1.22 -2.91 C1.38 -3.21, 0.17 -4.18, -0.38 -4.39 C-0.93 -4.59, -1.63 -4.3, -2.08 -4.12 C-2.53 -3.94, -2.83 -3.54, -3.08 -3.28 C-3.32 -3.02, -3.45 -2.84, -3.56 -2.56 C-3.67 -2.28, -3.74 -1.94, -3.74 -1.6 C-3.75 -1.26, -3.72 -0.8, -3.59 -0.5 C-3.47 -0.2, -3.21 0.03, -2.99 0.2 C-2.77 0.36, -2.6 0.48, -2.26 0.49 C-1.91 0.5, -1.3 0.33, -0.93 0.25 C-0.55 0.17, -0.15 0.04, 0 0 M0 0 C-0.07 -0.01, -0.06 0.02, -0.41 -0.08 C-0.77 -0.18, -1.8 -0.34, -2.14 -0.62 C-2.47 -0.9, -2.56 -1.44, -2.43 -1.76 C-2.29 -2.09, -1.93 -2.39, -1.32 -2.58 C-0.71 -2.77, 1.07 -2.61, 1.22 -2.91 C1.38 -3.21, 0.17 -4.18, -0.38 -4.39 C-0.93 -4.59, -1.63 -4.3, -2.08 -4.12 C-2.53 -3.94, -2.83 -3.54, -3.08 -3.28 C-3.32 -3.02, -3.45 -2.84, -3.56 -2.56 C-3.67 -2.28, -3.74 -1.94, -3.74 -1.6 C-3.75 -1.26, -3.72 -0.8, -3.59 -0.5 C-3.47 -0.2, -3.21 0.03, -2.99 0.2 C-2.77 0.36, -2.6 0.48, -2.26 0.49 C-1.91 0.5, -1.3 0.33, -0.93 0.25 C-0.55 0.17, -0.15 0.04, 0 0" stroke="#958b7f" stroke-width="1" fill="none"></path></g></g><mask></mask><g stroke-linecap="round"><g transform="translate(37.805117629287906 49.6359183284294) rotate(0 5.071872827949335 -1.3545620198514143)"><path d="M0 0 C0.04 -0.28, -0.1 -1.06, 0.22 -1.65 C0.53 -2.25, 1.13 -3.17, 1.9 -3.57 C2.66 -3.97, 3.93 -4.01, 4.83 -4.05 C5.73 -4.08, 6.52 -4.07, 7.3 -3.78 C8.08 -3.49, 9.04 -2.89, 9.51 -2.33 C9.99 -1.76, 10.2 -0.97, 10.14 -0.4 C10.09 0.17, 10.03 0.93, 9.19 1.11 C8.36 1.28, 6.26 0.61, 5.12 0.65 C3.98 0.69, 3.08 1.29, 2.34 1.34 C1.6 1.39, 1.08 1.18, 0.69 0.95 C0.3 0.73, 0.12 0.16, 0 0 M0 0 C0.04 -0.28, -0.1 -1.06, 0.22 -1.65 C0.53 -2.25, 1.13 -3.17, 1.9 -3.57 C2.66 -3.97, 3.93 -4.01, 4.83 -4.05 C5.73 -4.08, 6.52 -4.07, 7.3 -3.78 C8.08 -3.49, 9.04 -2.89, 9.51 -2.33 C9.99 -1.76, 10.2 -0.97, 10.14 -0.4 C10.09 0.17, 10.03 0.93, 9.19 1.11 C8.36 1.28, 6.26 0.61, 5.12 0.65 C3.98 0.69, 3.08 1.29, 2.34 1.34 C1.6 1.39, 1.08 1.18, 0.69 0.95 C0.3 0.73, 0.12 0.16, 0 0" stroke="#000000" stroke-width="1" fill="none"></path></g></g><mask></mask><g stroke-linecap="round"><g transform="translate(39.350471112323476 45.1057367597856) rotate(0 3.426642301909453 0.2637562871560135)" fill-rule="evenodd"><path d="M0 0 C0.01 -0.17, -0.13 -0.7, 0.08 -0.99 C0.3 -1.28, 0.73 -1.59, 1.29 -1.76 C1.85 -1.94, 2.78 -2.03, 3.43 -2.05 C4.09 -2.07, 4.66 -2.06, 5.23 -1.89 C5.8 -1.72, 6.62 -1.51, 6.85 -1.03 C7.08 -0.54, 7.13 0.41, 6.62 1.01 C6.11 1.61, 4.68 2.45, 3.82 2.58 C2.96 2.7, 2.02 2.04, 1.45 1.74 C0.88 1.43, 0.62 1.04, 0.38 0.75 C0.14 0.46, 0.06 0.13, 0 0" stroke="none" stroke-width="0" fill="#595755" fill-rule="evenodd"></path><path d="M0 0 C0.01 -0.17, -0.13 -0.7, 0.08 -0.99 C0.3 -1.28, 0.73 -1.59, 1.29 -1.76 C1.85 -1.94, 2.78 -2.03, 3.43 -2.05 C4.09 -2.07, 4.66 -2.06, 5.23 -1.89 C5.8 -1.72, 6.62 -1.51, 6.85 -1.03 C7.08 -0.54, 7.13 0.41, 6.62 1.01 C6.11 1.61, 4.68 2.45, 3.82 2.58 C2.96 2.7, 2.02 2.04, 1.45 1.74 C0.88 1.43, 0.62 1.04, 0.38 0.75 C0.14 0.46, 0.06 0.13, 0 0 M0 0 C0.01 -0.17, -0.13 -0.7, 0.08 -0.99 C0.3 -1.28, 0.73 -1.59, 1.29 -1.76 C1.85 -1.94, 2.78 -2.03, 3.43 -2.05 C4.09 -2.07, 4.66 -2.06, 5.23 -1.89 C5.8 -1.72, 6.62 -1.51, 6.85 -1.03 C7.08 -0.54, 7.13 0.41, 6.62 1.01 C6.11 1.61, 4.68 2.45, 3.82 2.58 C2.96 2.7, 2.02 2.04, 1.45 1.74 C0.88 1.43, 0.62 1.04, 0.38 0.75 C0.14 0.46, 0.06 0.13, 0 0" stroke="#000000" stroke-width="1" fill="none"></path></g></g><mask></mask><g stroke-linecap="round"><g transform="translate(43.72150416456407 47.41957488819173) rotate(0 -2.1448816354053406 -2.0392750476686388)" fill-rule="evenodd"><path d="M0 0 C-0.16 -0.05, -0.64 -0.13, -0.99 -0.29 C-1.34 -0.44, -1.8 -0.66, -2.12 -0.92 C-2.44 -1.18, -2.79 -1.54, -2.92 -1.87 C-3.05 -2.19, -3.04 -2.57, -2.89 -2.88 C-2.74 -3.19, -2.34 -3.49, -2.02 -3.72 C-1.69 -3.96, -0.84 -4.24, -0.93 -4.3 C-1.02 -4.37, -2.09 -4.21, -2.54 -4.11 C-2.99 -4.02, -3.36 -3.93, -3.63 -3.75 C-3.89 -3.56, -4 -3.3, -4.11 -3.02 C-4.22 -2.74, -4.34 -2.35, -4.29 -2.07 C-4.24 -1.78, -3.98 -1.54, -3.79 -1.33 C-3.61 -1.12, -3.4 -0.98, -3.19 -0.83 C-2.99 -0.67, -2.83 -0.52, -2.59 -0.38 C-2.34 -0.23, -2.03 -0.06, -1.73 0.04 C-1.43 0.14, -0.96 0.19, -0.8 0.23" stroke="none" stroke-width="0" fill="#454342" fill-rule="evenodd"></path><path d="M0 0 C-0.16 -0.05, -0.64 -0.13, -0.99 -0.29 C-1.34 -0.44, -1.8 -0.66, -2.12 -0.92 C-2.44 -1.18, -2.79 -1.54, -2.92 -1.87 C-3.05 -2.19, -3.04 -2.57, -2.89 -2.88 C-2.74 -3.19, -2.34 -3.49, -2.02 -3.72 C-1.69 -3.96, -0.84 -4.24, -0.93 -4.3 C-1.02 -4.37, -2.09 -4.21, -2.54 -4.11 C-2.99 -4.02, -3.36 -3.93, -3.63 -3.75 C-3.89 -3.56, -4 -3.3, -4.11 -3.02 C-4.22 -2.74, -4.34 -2.35, -4.29 -2.07 C-4.24 -1.78, -3.98 -1.54, -3.79 -1.33 C-3.61 -1.12, -3.4 -0.98, -3.19 -0.83 C-2.99 -0.67, -2.83 -0.52, -2.59 -0.38 C-2.34 -0.23, -2.03 -0.06, -1.73 0.04 C-1.43 0.14, -0.96 0.19, -0.8 0.23 M0 0 C-0.16 -0.05, -0.64 -0.13, -0.99 -0.29 C-1.34 -0.44, -1.8 -0.66, -2.12 -0.92 C-2.44 -1.18, -2.79 -1.54, -2.92 -1.87 C-3.05 -2.19, -3.04 -2.57, -2.89 -2.88 C-2.74 -3.19, -2.34 -3.49, -2.02 -3.72 C-1.69 -3.96, -0.84 -4.24, -0.93 -4.3 C-1.02 -4.37, -2.09 -4.21, -2.54 -4.11 C-2.99 -4.02, -3.36 -3.93, -3.63 -3.75 C-3.89 -3.56, -4 -3.3, -4.11 -3.02 C-4.22 -2.74, -4.34 -2.35, -4.29 -2.07 C-4.24 -1.78, -3.98 -1.54, -3.79 -1.33 C-3.61 -1.12, -3.4 -0.98, -3.19 -0.83 C-2.99 -0.67, -2.83 -0.52, -2.59 -0.38 C-2.34 -0.23, -2.03 -0.06, -1.73 0.04 C-1.43 0.14, -0.96 0.19, -0.8 0.23" stroke="#454342" stroke-width="1" fill="none"></path></g></g><mask></mask><g stroke-linecap="round"><g transform="translate(39.34007808610727 45.09907967465085) rotate(0 3.426642301909453 0.2637562871560135)"><path d="M0 0 C0.01 -0.17, -0.13 -0.7, 0.08 -0.99 C0.3 -1.28, 0.73 -1.59, 1.29 -1.76 C1.85 -1.94, 2.78 -2.03, 3.43 -2.05 C4.09 -2.07, 4.66 -2.06, 5.23 -1.89 C5.8 -1.72, 6.62 -1.51, 6.85 -1.03 C7.08 -0.54, 7.13 0.41, 6.62 1.01 C6.11 1.61, 4.68 2.45, 3.82 2.58 C2.96 2.7, 2.02 2.04, 1.45 1.74 C0.88 1.43, 0.62 1.04, 0.38 0.75 C0.14 0.46, 0.06 0.13, 0 0 M0 0 C0.01 -0.17, -0.13 -0.7, 0.08 -0.99 C0.3 -1.28, 0.73 -1.59, 1.29 -1.76 C1.85 -1.94, 2.78 -2.03, 3.43 -2.05 C4.09 -2.07, 4.66 -2.06, 5.23 -1.89 C5.8 -1.72, 6.62 -1.51, 6.85 -1.03 C7.08 -0.54, 7.13 0.41, 6.62 1.01 C6.11 1.61, 4.68 2.45, 3.82 2.58 C2.96 2.7, 2.02 2.04, 1.45 1.74 C0.88 1.43, 0.62 1.04, 0.38 0.75 C0.14 0.46, 0.06 0.13, 0 0" stroke="#000000" stroke-width="1" fill="none"></path></g></g><mask></mask><g stroke-linecap="round"><g transform="translate(44.74434836097521 44.01677900610355) rotate(0 0.35631786421026845 0.6102935979416202)" fill-rule="evenodd"><path d="M0 0 C0.1 0.08, 0.49 0.31, 0.61 0.51 C0.73 0.71, 0.7 1.1, 0.71 1.22" stroke="none" stroke-width="0" fill="#454342" fill-rule="evenodd"></path><path d="M0 0 C0.1 0.08, 0.49 0.31, 0.61 0.51 C0.73 0.71, 0.7 1.1, 0.71 1.22 M0 0 C0.1 0.08, 0.49 0.31, 0.61 0.51 C0.73 0.71, 0.7 1.1, 0.71 1.22" stroke="#000000" stroke-width="1" fill="none"></path></g></g><mask></mask><g stroke-linecap="round"><g transform="translate(40.99822466686339 50.83870282662144) rotate(0 0.021338980038365207 0.9389151216875007)"><path d="M0 0 C0.01 0.31, 0.04 1.56, 0.04 1.88 M0 0 C0.01 0.31, 0.04 1.56, 0.04 1.88" stroke="#000000" stroke-width="1" fill="none"></path></g></g><mask></mask><g stroke-linecap="round"><g transform="translate(40.97502311144899 52.45301500802975) rotate(0 2.3607511573030706 -0.33397337910668057)" fill-rule="evenodd"><path d="M0 0 C0.06 0.19, 0.1 0.91, 0.36 1.16 C0.62 1.41, 1.09 1.44, 1.56 1.5 C2.03 1.57, 2.73 1.6, 3.18 1.54 C3.64 1.49, 4.04 1.44, 4.29 1.16 C4.54 0.88, 4.62 0.33, 4.69 -0.14 C4.77 -0.61, 4.92 -1.37, 4.74 -1.67 C4.56 -1.98, 4.05 -1.9, 3.6 -1.99 C3.16 -2.08, 2.68 -2.28, 2.07 -2.21 C1.47 -2.14, 0.33 -1.94, -0.02 -1.57 C-0.36 -1.2, 0 -0.26, 0 0" stroke="none" stroke-width="0" fill="#ffffff" fill-rule="evenodd"></path><path d="M0 0 C0.06 0.19, 0.1 0.91, 0.36 1.16 C0.62 1.41, 1.09 1.44, 1.56 1.5 C2.03 1.57, 2.73 1.6, 3.18 1.54 C3.64 1.49, 4.04 1.44, 4.29 1.16 C4.54 0.88, 4.62 0.33, 4.69 -0.14 C4.77 -0.61, 4.92 -1.37, 4.74 -1.67 C4.56 -1.98, 4.05 -1.9, 3.6 -1.99 C3.16 -2.08, 2.68 -2.28, 2.07 -2.21 C1.47 -2.14, 0.33 -1.94, -0.02 -1.57 C-0.36 -1.2, 0 -0.26, 0 0 M0 0 C0.06 0.19, 0.1 0.91, 0.36 1.16 C0.62 1.41, 1.09 1.44, 1.56 1.5 C2.03 1.57, 2.73 1.6, 3.18 1.54 C3.64 1.49, 4.04 1.44, 4.29 1.16 C4.54 0.88, 4.62 0.33, 4.69 -0.14 C4.77 -0.61, 4.92 -1.37, 4.74 -1.67 C4.56 -1.98, 4.05 -1.9, 3.6 -1.99 C3.16 -2.08, 2.68 -2.28, 2.07 -2.21 C1.47 -2.14, 0.33 -1.94, -0.02 -1.57 C-0.36 -1.2, 0 -0.26, 0 0" stroke="#000000" stroke-width="1" fill="none"></path></g></g><mask></mask><g stroke-linecap="round"><g transform="translate(43.26015655092965 50.58263506616174) rotate(0 0.04917009496392666 1.600423502876481)" fill-rule="evenodd"><path d="M0 0 C0.02 0.24, 0.08 0.89, 0.1 1.42 C0.11 1.95, 0.09 2.9, 0.09 3.2" stroke="none" stroke-width="0" fill="#ffffff" fill-rule="evenodd"></path><path d="M0 0 C0.02 0.24, 0.08 0.89, 0.1 1.42 C0.11 1.95, 0.09 2.9, 0.09 3.2 M0 0 C0.02 0.24, 0.08 0.89, 0.1 1.42 C0.11 1.95, 0.09 2.9, 0.09 3.2" stroke="#000000" stroke-width="1" fill="none"></path></g></g><mask></mask><g stroke-linecap="round"><g transform="translate(59.99531377665437 102.23588682921786) rotate(13.687095229378706 2.1795626137659383 -0.3910768421891646)" fill-rule="evenodd"><path d="M0 0 C0.15 0.19, 0.39 0.73, 0.89 1.17 C1.38 1.61, 2.28 2.53, 2.97 2.64 C3.66 2.75, 4.65 2.28, 5.03 1.84 C5.41 1.4, 5.61 0.79, 5.26 0.01 C4.92 -0.77, 3.62 -2.28, 2.97 -2.85 C2.32 -3.42, 1.87 -3.4, 1.37 -3.42 C0.88 -3.44, 0.38 -3.24, 0 -2.97 C-0.38 -2.69, -0.9 -2.28, -0.9 -1.78 C-0.9 -1.29, -0.15 -0.3, 0 0" stroke="none" stroke-width="0" fill="#ffffff" fill-rule="evenodd"></path><path d="M0 0 C0.15 0.19, 0.39 0.73, 0.89 1.17 C1.38 1.61, 2.28 2.53, 2.97 2.64 C3.66 2.75, 4.65 2.28, 5.03 1.84 C5.41 1.4, 5.61 0.79, 5.26 0.01 C4.92 -0.77, 3.62 -2.28, 2.97 -2.85 C2.32 -3.42, 1.87 -3.4, 1.37 -3.42 C0.88 -3.44, 0.38 -3.24, 0 -2.97 C-0.38 -2.69, -0.9 -2.28, -0.9 -1.78 C-0.9 -1.29, -0.15 -0.3, 0 0 M0 0 C0.15 0.19, 0.39 0.73, 0.89 1.17 C1.38 1.61, 2.28 2.53, 2.97 2.64 C3.66 2.75, 4.65 2.28, 5.03 1.84 C5.41 1.4, 5.61 0.79, 5.26 0.01 C4.92 -0.77, 3.62 -2.28, 2.97 -2.85 C2.32 -3.42, 1.87 -3.4, 1.37 -3.42 C0.88 -3.44, 0.38 -3.24, 0 -2.97 C-0.38 -2.69, -0.9 -2.28, -0.9 -1.78 C-0.9 -1.29, -0.15 -0.3, 0 0" stroke="#000000" stroke-width="1" fill="none"></path></g></g><mask></mask><g stroke-linecap="round"><g transform="translate(17.201557258738603 101.93161757824839) rotate(72.62981121584629 2.189475983157763 -0.5371783960633536)" fill-rule="evenodd"><path d="M0 0 C0.2 0.23, 0.73 0.96, 1.22 1.4 C1.72 1.84, 2.39 2.58, 2.97 2.64 C3.56 2.7, 4.4 2.23, 4.74 1.76 C5.09 1.29, 5.33 0.58, 5.04 -0.19 C4.74 -0.96, 3.58 -2.26, 2.97 -2.85 C2.37 -3.44, 1.9 -3.7, 1.4 -3.72 C0.91 -3.74, 0.34 -3.32, 0 -2.97 C-0.35 -2.61, -0.66 -2.06, -0.66 -1.57 C-0.66 -1.07, -0.11 -0.26, 0 0" stroke="none" stroke-width="0" fill="#ffffff" fill-rule="evenodd"></path><path d="M0 0 C0.2 0.23, 0.73 0.96, 1.22 1.4 C1.72 1.84, 2.39 2.58, 2.97 2.64 C3.56 2.7, 4.4 2.23, 4.74 1.76 C5.09 1.29, 5.33 0.58, 5.04 -0.19 C4.74 -0.96, 3.58 -2.26, 2.97 -2.85 C2.37 -3.44, 1.9 -3.7, 1.4 -3.72 C0.91 -3.74, 0.34 -3.32, 0 -2.97 C-0.35 -2.61, -0.66 -2.06, -0.66 -1.57 C-0.66 -1.07, -0.11 -0.26, 0 0 M0 0 C0.2 0.23, 0.73 0.96, 1.22 1.4 C1.72 1.84, 2.39 2.58, 2.97 2.64 C3.56 2.7, 4.4 2.23, 4.74 1.76 C5.09 1.29, 5.33 0.58, 5.04 -0.19 C4.74 -0.96, 3.58 -2.26, 2.97 -2.85 C2.37 -3.44, 1.9 -3.7, 1.4 -3.72 C0.91 -3.74, 0.34 -3.32, 0 -2.97 C-0.35 -2.61, -0.66 -2.06, -0.66 -1.57 C-0.66 -1.07, -0.11 -0.26, 0 0" stroke="#000000" stroke-width="1" fill="none"></path></g></g><mask></mask><g stroke-linecap="round"><g transform="translate(11.619934402900071 59.08519638103519) rotate(155.1023009552614 1.8374046594310016 -0.0765452128986226)" fill-rule="evenodd"><path d="M0 0 C0.19 0.25, 0.67 0.99, 1.15 1.53 C1.64 2.07, 2.33 3.12, 2.9 3.22 C3.48 3.32, 4.5 2.63, 4.61 2.13 C4.73 1.62, 3.99 0.82, 3.61 0.17 C3.23 -0.49, 2.8 -1.21, 2.35 -1.8 C1.91 -2.39, 1.41 -3.19, 0.94 -3.37 C0.48 -3.55, -0.12 -3.09, -0.43 -2.88 C-0.74 -2.66, -0.89 -2.35, -0.94 -2.07 C-0.99 -1.8, -0.9 -1.59, -0.75 -1.24 C-0.59 -0.9, -0.12 -0.21, 0 0" stroke="none" stroke-width="0" fill="#ffffff" fill-rule="evenodd"></path><path d="M0 0 C0.19 0.25, 0.67 0.99, 1.15 1.53 C1.64 2.07, 2.33 3.12, 2.9 3.22 C3.48 3.32, 4.5 2.63, 4.61 2.13 C4.73 1.62, 3.99 0.82, 3.61 0.17 C3.23 -0.49, 2.8 -1.21, 2.35 -1.8 C1.91 -2.39, 1.41 -3.19, 0.94 -3.37 C0.48 -3.55, -0.12 -3.09, -0.43 -2.88 C-0.74 -2.66, -0.89 -2.35, -0.94 -2.07 C-0.99 -1.8, -0.9 -1.59, -0.75 -1.24 C-0.59 -0.9, -0.12 -0.21, 0 0 M0 0 C0.19 0.25, 0.67 0.99, 1.15 1.53 C1.64 2.07, 2.33 3.12, 2.9 3.22 C3.48 3.32, 4.5 2.63, 4.61 2.13 C4.73 1.62, 3.99 0.82, 3.61 0.17 C3.23 -0.49, 2.8 -1.21, 2.35 -1.8 C1.91 -2.39, 1.41 -3.19, 0.94 -3.37 C0.48 -3.55, -0.12 -3.09, -0.43 -2.88 C-0.74 -2.66, -0.89 -2.35, -0.94 -2.07 C-0.99 -1.8, -0.9 -1.59, -0.75 -1.24 C-0.59 -0.9, -0.12 -0.21, 0 0" stroke="#000000" stroke-width="1" fill="none"></path></g></g><mask></mask><g stroke-linecap="round"><g transform="translate(70.692614586574 59.45420866368693) rotate(271.45101079152755 1.8374046594310016 -0.0765452128986226)" fill-rule="evenodd"><path d="M0 0 C0.19 0.25, 0.67 0.99, 1.15 1.53 C1.64 2.07, 2.33 3.12, 2.9 3.22 C3.48 3.32, 4.5 2.63, 4.61 2.13 C4.73 1.62, 3.99 0.82, 3.61 0.17 C3.23 -0.49, 2.8 -1.21, 2.35 -1.8 C1.91 -2.39, 1.41 -3.19, 0.94 -3.37 C0.48 -3.55, -0.12 -3.09, -0.43 -2.88 C-0.74 -2.66, -0.89 -2.35, -0.94 -2.07 C-0.99 -1.8, -0.9 -1.59, -0.75 -1.24 C-0.59 -0.9, -0.12 -0.21, 0 0" stroke="none" stroke-width="0" fill="#ffffff" fill-rule="evenodd"></path><path d="M0 0 C0.19 0.25, 0.67 0.99, 1.15 1.53 C1.64 2.07, 2.33 3.12, 2.9 3.22 C3.48 3.32, 4.5 2.63, 4.61 2.13 C4.73 1.62, 3.99 0.82, 3.61 0.17 C3.23 -0.49, 2.8 -1.21, 2.35 -1.8 C1.91 -2.39, 1.41 -3.19, 0.94 -3.37 C0.48 -3.55, -0.12 -3.09, -0.43 -2.88 C-0.74 -2.66, -0.89 -2.35, -0.94 -2.07 C-0.99 -1.8, -0.9 -1.59, -0.75 -1.24 C-0.59 -0.9, -0.12 -0.21, 0 0 M0 0 C0.19 0.25, 0.67 0.99, 1.15 1.53 C1.64 2.07, 2.33 3.12, 2.9 3.22 C3.48 3.32, 4.5 2.63, 4.61 2.13 C4.73 1.62, 3.99 0.82, 3.61 0.17 C3.23 -0.49, 2.8 -1.21, 2.35 -1.8 C1.91 -2.39, 1.41 -3.19, 0.94 -3.37 C0.48 -3.55, -0.12 -3.09, -0.43 -2.88 C-0.74 -2.66, -0.89 -2.35, -0.94 -2.07 C-0.99 -1.8, -0.9 -1.59, -0.75 -1.24 C-0.59 -0.9, -0.12 -0.21, 0 0" stroke="#000000" stroke-width="1" fill="none"></path></g></g><mask></mask><g stroke-linecap="round" transform="translate(49.04368087443913 64.90987449454087) rotate(16.687830541157332 7.4452023257013025 7.327024511007636)"><path d="M8.92 0.33 C10.45 0.48, 12.4 1.2, 13.4 2.34 C14.41 3.48, 15.03 5.63, 14.97 7.19 C14.91 8.75, 14.05 10.48, 13.04 11.72 C12.04 12.95, 10.4 14.28, 8.93 14.58 C7.46 14.89, 5.61 14.26, 4.23 13.54 C2.85 12.82, 1.25 11.62, 0.66 10.28 C0.06 8.95, 0.19 7, 0.65 5.53 C1.11 4.07, 2.04 2.41, 3.42 1.5 C4.79 0.58, 8.01 0.16, 8.91 0.04 C9.81 -0.08, 8.83 0.65, 8.83 0.76 M8.45 -0.02 C9.92 -0.01, 11.82 1.28, 12.83 2.36 C13.85 3.44, 14.37 4.87, 14.54 6.46 C14.71 8.05, 14.88 10.5, 13.85 11.89 C12.82 13.29, 10.08 14.61, 8.35 14.83 C6.62 15.04, 4.87 14.01, 3.46 13.17 C2.06 12.32, 0.41 11.23, -0.1 9.78 C-0.6 8.33, -0.17 5.8, 0.42 4.46 C1 3.12, 2.19 2.41, 3.42 1.75 C4.66 1.09, 7.06 0.64, 7.84 0.48 C8.62 0.33, 7.95 0.77, 8.1 0.83" stroke="none" stroke-width="0" fill="#cde9e9"></path><path d="M7.83 -0.31 C9.39 -0.24, 11.58 0.92, 12.67 2.14 C13.77 3.36, 14.23 5.48, 14.38 7.02 C14.54 8.57, 14.52 10.24, 13.6 11.44 C12.67 12.64, 10.45 13.75, 8.84 14.23 C7.23 14.71, 5.26 14.93, 3.94 14.31 C2.62 13.7, 1.48 12.12, 0.92 10.54 C0.35 8.95, 0.13 6.3, 0.54 4.8 C0.94 3.29, 2.03 2.34, 3.36 1.51 C4.68 0.67, 7.72 -0.09, 8.51 -0.23 C9.3 -0.38, 8.11 0.53, 8.09 0.62 M6.69 0.39 C8.06 0.04, 9.36 0.32, 10.73 1.12 C12.11 1.92, 14.27 3.71, 14.95 5.18 C15.64 6.65, 15.57 8.58, 14.85 9.96 C14.13 11.33, 12.1 12.6, 10.65 13.43 C9.2 14.25, 7.53 15.06, 6.15 14.9 C4.76 14.74, 3.42 13.73, 2.36 12.47 C1.31 11.21, -0.2 8.94, -0.18 7.33 C-0.17 5.72, 1.48 4.03, 2.45 2.81 C3.41 1.59, 4.87 0.46, 5.61 -0.01 C6.35 -0.48, 6.78 -0.24, 6.87 0.01" stroke="#343a40" stroke-width="1" fill="none"></path></g><g stroke-linecap="round"><g transform="translate(55.19257117952441 76.80385668479028) rotate(13.170412991716741 1.1809408284304368 -4.254172335880554)" fill-rule="evenodd"><path d="M1.11 0.39 C0.44 -0.41, -4.19 -4.46, -4.79 -5.89 C-5.39 -7.32, -3.46 -7.87, -2.5 -8.18 C-1.54 -8.49, 0.57 -8.15, 0.97 -7.74 C1.36 -7.33, -0.63 -5.77, -0.13 -5.71 C0.36 -5.66, 2.79 -7.01, 3.92 -7.43 C5.04 -7.84, 6.44 -8.57, 6.61 -8.2 C6.79 -7.82, 5.84 -6.56, 4.98 -5.19 C4.11 -3.81, 1.99 -0.97, 1.41 0.05 C0.83 1.08, 1.74 0.94, 1.48 0.96" stroke="none" stroke-width="0" fill="#ffcaca" fill-rule="evenodd"></path><path d="M0.15 -0.29 C-0.4 -1.11, -3.03 -3.89, -3.55 -5.28 C-4.08 -6.67, -3.61 -8.08, -3.01 -8.64 C-2.41 -9.2, -0.6 -9.1, 0.05 -8.63 C0.71 -8.15, 0.47 -5.85, 0.94 -5.79 C1.41 -5.72, 2.09 -7.79, 2.87 -8.23 C3.66 -8.67, 5.11 -9.06, 5.65 -8.44 C6.18 -7.81, 6.79 -5.78, 6.09 -4.46 C5.39 -3.13, 2.48 -1.22, 1.44 -0.46 C0.41 0.29, 0.05 -0.02, -0.11 0.08 M-0.2 0.33 C-0.78 -0.43, -3.54 -3.54, -3.89 -4.98 C-4.24 -6.42, -2.95 -7.72, -2.29 -8.31 C-1.63 -8.89, -0.39 -8.93, 0.09 -8.48 C0.56 -8.03, 0.06 -5.77, 0.58 -5.62 C1.1 -5.48, 2.35 -7.23, 3.21 -7.6 C4.07 -7.97, 5.3 -8.36, 5.76 -7.84 C6.21 -7.31, 6.72 -5.63, 5.94 -4.45 C5.15 -3.28, 2.04 -1.52, 1.04 -0.78 C0.04 -0.04, 0 -0.24, -0.07 -0.04" stroke="#343a40" stroke-width="1" fill="none"></path></g></g><mask></mask><g stroke-linecap="round" transform="translate(57.427033630071264 66.30983339469674) rotate(16.687830541157332 0.6725856098210556 0.7337297561684863)"><path d="M0.79 0.09 C0.84 0.09, 0.88 0.04, 0.96 0.14 C1.04 0.25, 1.21 0.59, 1.29 0.73 C1.36 0.87, 1.46 0.84, 1.4 0.98 C1.34 1.12, 1.05 1.45, 0.92 1.57 C0.78 1.69, 0.73 1.75, 0.58 1.7 C0.44 1.65, 0.1 1.49, 0.02 1.29 C-0.06 1.09, 0.1 0.64, 0.12 0.49 C0.15 0.35, 0.03 0.52, 0.16 0.43 C0.3 0.34, 0.82 0, 0.95 -0.06 C1.08 -0.12, 0.93 0.07, 0.93 0.1 M0.43 -0.37 C0.63 -0.37, 1.36 0.03, 1.43 0.23 C1.5 0.43, 0.95 0.75, 0.86 0.82 C0.78 0.89, 0.97 0.59, 0.9 0.65 C0.84 0.71, 0.54 1.13, 0.48 1.19 C0.41 1.24, 0.57 0.93, 0.5 0.99 C0.44 1.04, 0.23 1.53, 0.08 1.52 C-0.07 1.5, -0.37 1.05, -0.38 0.9 C-0.39 0.75, -0.19 0.74, 0.03 0.6 C0.25 0.46, 0.84 0.12, 0.93 0.06 C1.02 0, 0.61 0.16, 0.54 0.22" stroke="none" stroke-width="0" fill="#868e96"></path><path d="M0.27 0.13 C0.43 0.09, 1 -0.06, 1.14 -0.02 C1.27 0.02, 1.05 0.16, 1.06 0.38 C1.06 0.6, 1.13 1.1, 1.14 1.3 C1.16 1.49, 1.24 1.58, 1.16 1.55 C1.09 1.52, 0.85 1.15, 0.68 1.12 C0.52 1.08, 0.27 1.45, 0.17 1.35 C0.07 1.24, 0.13 0.64, 0.08 0.5 C0.04 0.35, -0.19 0.63, -0.09 0.5 C0.02 0.36, 0.61 -0.25, 0.69 -0.32 C0.77 -0.39, 0.39 -0.02, 0.39 0.08 M1.04 0.19 C1.28 0.18, 1.43 0.19, 1.43 0.23 C1.43 0.28, 1.07 0.27, 1.04 0.46 C1.02 0.65, 1.24 1.17, 1.28 1.39 C1.33 1.61, 1.48 1.76, 1.31 1.77 C1.14 1.78, 0.41 1.55, 0.28 1.46 C0.14 1.37, 0.62 1.39, 0.5 1.23 C0.39 1.07, -0.43 0.7, -0.4 0.49 C-0.37 0.28, 0.52 0, 0.68 -0.01 C0.85 -0.02, 0.57 0.44, 0.58 0.45 C0.58 0.46, 0.65 0.04, 0.72 0.04" stroke="#343a40" stroke-width="1" fill="none"></path></g></svg>