<svg version="1.1" xmlns="http://www.w3.org/2000/svg" viewBox="0 0 86.17857359899017 116.67244566466309" width="86.17857359899017" height="116.67244566466309">
  <!-- svg-source:excalidraw -->
  
  <defs>
    <style class="style-fonts">
      
    </style>
    
  </defs>
  <rect x="0" y="0" width="86.17857359899017" height="116.67244566466309" fill="#ffffff"></rect><g stroke-linecap="round"><g transform="translate(73.15453902110062 75.62685645789031) rotate(0 -30.33244694572562 -17.34184451132458)" fill-rule="evenodd"><path d="M0 0 C-0.2 1.82, -0.21 7.34, -1.22 10.91 C-2.22 14.49, -3.64 18.59, -6.03 21.45 C-8.41 24.31, -11.62 26.5, -15.53 28.06 C-19.44 29.62, -24.69 30.5, -29.47 30.82 C-34.26 31.13, -39.87 31.1, -44.23 29.96 C-48.59 28.82, -52.8 27.49, -55.64 23.99 C-58.47 20.5, -60.36 18.41, -61.25 8.97 C-62.13 -0.47, -62.19 -22.15, -60.95 -32.66 C-59.71 -43.17, -55.28 -50.05, -53.82 -54.09 C-52.35 -58.13, -52.46 -56.39, -52.17 -56.9 C-51.87 -57.41, -51.85 -56.7, -52.07 -57.16 C-52.29 -57.63, -53.14 -58.84, -53.49 -59.67 C-53.83 -60.51, -54.16 -61.38, -54.13 -62.16 C-54.1 -62.94, -53.75 -63.79, -53.31 -64.35 C-52.87 -64.9, -52.1 -65.3, -51.48 -65.49 C-50.86 -65.68, -50.17 -65.66, -49.61 -65.5 C-49.04 -65.34, -48.61 -65.02, -48.08 -64.54 C-47.56 -64.07, -46.95 -63.17, -46.43 -62.65 C-45.91 -62.13, -45.42 -61.51, -44.97 -61.4 C-44.52 -61.3, -46.44 -61.52, -43.74 -62.04 C-41.05 -62.55, -33.44 -64.4, -28.79 -64.51 C-24.13 -64.62, -18.88 -63.31, -15.8 -62.69 C-12.73 -62.07, -11.34 -61.12, -10.32 -60.79 C-9.3 -60.46, -10.1 -60.36, -9.69 -60.72 C-9.28 -61.07, -8.41 -62.35, -7.84 -62.92 C-7.28 -63.49, -6.82 -63.86, -6.29 -64.14 C-5.76 -64.43, -5.26 -64.66, -4.65 -64.65 C-4.05 -64.63, -3.17 -64.4, -2.66 -64.04 C-2.15 -63.69, -1.75 -63.16, -1.61 -62.5 C-1.47 -61.85, -1.42 -61.14, -1.82 -60.11 C-2.22 -59.08, -3.75 -57.09, -4.04 -56.34 C-4.32 -55.59, -3.96 -56.59, -3.55 -55.59 C-3.14 -54.6, -2.27 -54.21, -1.58 -50.36 C-0.89 -46.5, 0.32 -40.85, 0.58 -32.46 C0.84 -24.06, 0.1 -5.41, 0 0" stroke="none" stroke-width="0" fill="#ffec99" fill-rule="evenodd"></path><path d="M0 0 C-0.2 1.82, -0.21 7.34, -1.22 10.91 C-2.22 14.49, -3.64 18.59, -6.03 21.45 C-8.41 24.31, -11.62 26.5, -15.53 28.06 C-19.44 29.62, -24.69 30.5, -29.47 30.82 C-34.26 31.13, -39.87 31.1, -44.23 29.96 C-48.59 28.82, -52.8 27.49, -55.64 23.99 C-58.47 20.5, -60.36 18.41, -61.25 8.97 C-62.13 -0.47, -62.19 -22.15, -60.95 -32.66 C-59.71 -43.17, -55.28 -50.05, -53.82 -54.09 C-52.35 -58.13, -52.46 -56.39, -52.17 -56.9 C-51.87 -57.41, -51.85 -56.7, -52.07 -57.16 C-52.29 -57.63, -53.14 -58.84, -53.49 -59.67 C-53.83 -60.51, -54.16 -61.38, -54.13 -62.16 C-54.1 -62.94, -53.75 -63.79, -53.31 -64.35 C-52.87 -64.9, -52.1 -65.3, -51.48 -65.49 C-50.86 -65.68, -50.17 -65.66, -49.61 -65.5 C-49.04 -65.34, -48.61 -65.02, -48.08 -64.54 C-47.56 -64.07, -46.95 -63.17, -46.43 -62.65 C-45.91 -62.13, -45.42 -61.51, -44.97 -61.4 C-44.52 -61.3, -46.44 -61.52, -43.74 -62.04 C-41.05 -62.55, -33.44 -64.4, -28.79 -64.51 C-24.13 -64.62, -18.88 -63.31, -15.8 -62.69 C-12.73 -62.07, -11.34 -61.12, -10.32 -60.79 C-9.3 -60.46, -10.1 -60.36, -9.69 -60.72 C-9.28 -61.07, -8.41 -62.35, -7.84 -62.92 C-7.28 -63.49, -6.82 -63.86, -6.29 -64.14 C-5.76 -64.43, -5.26 -64.66, -4.65 -64.65 C-4.05 -64.63, -3.17 -64.4, -2.66 -64.04 C-2.15 -63.69, -1.75 -63.16, -1.61 -62.5 C-1.47 -61.85, -1.42 -61.14, -1.82 -60.11 C-2.22 -59.08, -3.75 -57.09, -4.04 -56.34 C-4.32 -55.59, -3.96 -56.59, -3.55 -55.59 C-3.14 -54.6, -2.27 -54.21, -1.58 -50.36 C-0.89 -46.5, 0.32 -40.85, 0.58 -32.46 C0.84 -24.06, 0.1 -5.41, 0 0 M0 0 C-0.2 1.82, -0.21 7.34, -1.22 10.91 C-2.22 14.49, -3.64 18.59, -6.03 21.45 C-8.41 24.31, -11.62 26.5, -15.53 28.06 C-19.44 29.62, -24.69 30.5, -29.47 30.82 C-34.26 31.13, -39.87 31.1, -44.23 29.96 C-48.59 28.82, -52.8 27.49, -55.64 23.99 C-58.47 20.5, -60.36 18.41, -61.25 8.97 C-62.13 -0.47, -62.19 -22.15, -60.95 -32.66 C-59.71 -43.17, -55.28 -50.05, -53.82 -54.09 C-52.35 -58.13, -52.46 -56.39, -52.17 -56.9 C-51.87 -57.41, -51.85 -56.7, -52.07 -57.16 C-52.29 -57.63, -53.14 -58.84, -53.49 -59.67 C-53.83 -60.51, -54.16 -61.38, -54.13 -62.16 C-54.1 -62.94, -53.75 -63.79, -53.31 -64.35 C-52.87 -64.9, -52.1 -65.3, -51.48 -65.49 C-50.86 -65.68, -50.17 -65.66, -49.61 -65.5 C-49.04 -65.34, -48.61 -65.02, -48.08 -64.54 C-47.56 -64.07, -46.95 -63.17, -46.43 -62.65 C-45.91 -62.13, -45.42 -61.51, -44.97 -61.4 C-44.52 -61.3, -46.44 -61.52, -43.74 -62.04 C-41.05 -62.55, -33.44 -64.4, -28.79 -64.51 C-24.13 -64.62, -18.88 -63.31, -15.8 -62.69 C-12.73 -62.07, -11.34 -61.12, -10.32 -60.79 C-9.3 -60.46, -10.1 -60.36, -9.69 -60.72 C-9.28 -61.07, -8.41 -62.35, -7.84 -62.92 C-7.28 -63.49, -6.82 -63.86, -6.29 -64.14 C-5.76 -64.43, -5.26 -64.66, -4.65 -64.65 C-4.05 -64.63, -3.17 -64.4, -2.66 -64.04 C-2.15 -63.69, -1.75 -63.16, -1.61 -62.5 C-1.47 -61.85, -1.42 -61.14, -1.82 -60.11 C-2.22 -59.08, -3.75 -57.09, -4.04 -56.34 C-4.32 -55.59, -3.96 -56.59, -3.55 -55.59 C-3.14 -54.6, -2.27 -54.21, -1.58 -50.36 C-0.89 -46.5, 0.32 -40.85, 0.58 -32.46 C0.84 -24.06, 0.1 -5.41, 0 0" stroke="#000000" stroke-width="1" fill="none"></path></g></g><mask></mask><g stroke-linecap="round"><g transform="translate(73.15453902110062 75.68401642576964) rotate(0 -30.33244694572562 -16.91431974687498)" fill-rule="evenodd"><path d="M0 0 C-0.2 1.82, -0.21 7.34, -1.22 10.91 C-2.22 14.49, -3.64 18.59, -6.03 21.45 C-8.41 24.31, -11.62 26.5, -15.53 28.06 C-19.44 29.62, -24.69 30.5, -29.47 30.82 C-34.26 31.13, -39.87 31.1, -44.23 29.96 C-48.59 28.82, -52.8 27.49, -55.64 23.99 C-58.47 20.5, -60.36 18.41, -61.25 8.97 C-62.13 -0.47, -62.19 -22.15, -60.95 -32.66 C-59.71 -43.17, -56.64 -49.22, -53.82 -54.09 C-51 -58.97, -48.21 -60.17, -44.04 -61.9 C-39.87 -63.64, -33.49 -64.37, -28.79 -64.51 C-24.08 -64.64, -18.88 -63.31, -15.8 -62.69 C-12.73 -62.07, -11.34 -61.12, -10.32 -60.79 C-9.3 -60.46, -10.1 -60.36, -9.69 -60.72 C-9.28 -61.07, -8.41 -62.35, -7.84 -62.92 C-7.28 -63.49, -6.82 -63.86, -6.29 -64.14 C-5.76 -64.43, -5.26 -64.66, -4.65 -64.65 C-4.05 -64.63, -3.17 -64.4, -2.66 -64.04 C-2.15 -63.69, -1.75 -63.16, -1.61 -62.5 C-1.47 -61.85, -1.42 -61.14, -1.82 -60.11 C-2.22 -59.08, -3.75 -57.09, -4.04 -56.34 C-4.32 -55.59, -3.96 -56.59, -3.55 -55.59 C-3.14 -54.6, -2.27 -54.21, -1.58 -50.36 C-0.89 -46.5, 0.32 -40.85, 0.58 -32.46 C0.84 -24.06, 0.1 -5.41, 0 0" stroke="none" stroke-width="0" fill="#ffec99" fill-rule="evenodd"></path><path d="M0 0 C-0.2 1.82, -0.21 7.34, -1.22 10.91 C-2.22 14.49, -3.64 18.59, -6.03 21.45 C-8.41 24.31, -11.62 26.5, -15.53 28.06 C-19.44 29.62, -24.69 30.5, -29.47 30.82 C-34.26 31.13, -39.87 31.1, -44.23 29.96 C-48.59 28.82, -52.8 27.49, -55.64 23.99 C-58.47 20.5, -60.36 18.41, -61.25 8.97 C-62.13 -0.47, -62.19 -22.15, -60.95 -32.66 C-59.71 -43.17, -56.64 -49.22, -53.82 -54.09 C-51 -58.97, -48.21 -60.17, -44.04 -61.9 C-39.87 -63.64, -33.49 -64.37, -28.79 -64.51 C-24.08 -64.64, -18.88 -63.31, -15.8 -62.69 C-12.73 -62.07, -11.34 -61.12, -10.32 -60.79 C-9.3 -60.46, -10.1 -60.36, -9.69 -60.72 C-9.28 -61.07, -8.41 -62.35, -7.84 -62.92 C-7.28 -63.49, -6.82 -63.86, -6.29 -64.14 C-5.76 -64.43, -5.26 -64.66, -4.65 -64.65 C-4.05 -64.63, -3.17 -64.4, -2.66 -64.04 C-2.15 -63.69, -1.75 -63.16, -1.61 -62.5 C-1.47 -61.85, -1.42 -61.14, -1.82 -60.11 C-2.22 -59.08, -3.75 -57.09, -4.04 -56.34 C-4.32 -55.59, -3.96 -56.59, -3.55 -55.59 C-3.14 -54.6, -2.27 -54.21, -1.58 -50.36 C-0.89 -46.5, 0.32 -40.85, 0.58 -32.46 C0.84 -24.06, 0.1 -5.41, 0 0 M0 0 C-0.2 1.82, -0.21 7.34, -1.22 10.91 C-2.22 14.49, -3.64 18.59, -6.03 21.45 C-8.41 24.31, -11.62 26.5, -15.53 28.06 C-19.44 29.62, -24.69 30.5, -29.47 30.82 C-34.26 31.13, -39.87 31.1, -44.23 29.96 C-48.59 28.82, -52.8 27.49, -55.64 23.99 C-58.47 20.5, -60.36 18.41, -61.25 8.97 C-62.13 -0.47, -62.19 -22.15, -60.95 -32.66 C-59.71 -43.17, -56.64 -49.22, -53.82 -54.09 C-51 -58.97, -48.21 -60.17, -44.04 -61.9 C-39.87 -63.64, -33.49 -64.37, -28.79 -64.51 C-24.08 -64.64, -18.88 -63.31, -15.8 -62.69 C-12.73 -62.07, -11.34 -61.12, -10.32 -60.79 C-9.3 -60.46, -10.1 -60.36, -9.69 -60.72 C-9.28 -61.07, -8.41 -62.35, -7.84 -62.92 C-7.28 -63.49, -6.82 -63.86, -6.29 -64.14 C-5.76 -64.43, -5.26 -64.66, -4.65 -64.65 C-4.05 -64.63, -3.17 -64.4, -2.66 -64.04 C-2.15 -63.69, -1.75 -63.16, -1.61 -62.5 C-1.47 -61.85, -1.42 -61.14, -1.82 -60.11 C-2.22 -59.08, -3.75 -57.09, -4.04 -56.34 C-4.32 -55.59, -3.96 -56.59, -3.55 -55.59 C-3.14 -54.6, -2.27 -54.21, -1.58 -50.36 C-0.89 -46.5, 0.32 -40.85, 0.58 -32.46 C0.84 -24.06, 0.1 -5.41, 0 0" stroke="#000000" stroke-width="1" fill="none"></path></g></g><mask></mask><g stroke-linecap="round"><g transform="translate(61.142695117658945 14.230503987831128) rotate(0 4.389383555658867 3.0202180428845224)"><path d="M0 0 C0.7 0.38, 2.91 1.42, 4.23 2.26 C5.54 3.09, 7.13 4.36, 7.89 4.99 C8.65 5.62, 8.63 5.87, 8.78 6.04 M0 0 C0.7 0.38, 2.91 1.42, 4.23 2.26 C5.54 3.09, 7.13 4.36, 7.89 4.99 C8.65 5.62, 8.63 5.87, 8.78 6.04" stroke="#000000" stroke-width="1" fill="none"></path></g></g><mask></mask><g stroke-linecap="round"><g transform="translate(66.36797624068049 16.969115764794424) rotate(0 0.6743903104007245 -1.7166298810199976)" fill-rule="evenodd"><path d="M0 0 C0.12 -0.27, 0.51 -1.02, 0.74 -1.59 C0.96 -2.17, 1.25 -3.13, 1.35 -3.43" stroke="none" stroke-width="0" fill="#ffec99" fill-rule="evenodd"></path><path d="M0 0 C0.12 -0.27, 0.51 -1.02, 0.74 -1.59 C0.96 -2.17, 1.25 -3.13, 1.35 -3.43 M0 0 C0.12 -0.27, 0.51 -1.02, 0.74 -1.59 C0.96 -2.17, 1.25 -3.13, 1.35 -3.43" stroke="#000000" stroke-width="1" fill="none"></path></g></g><mask></mask><g stroke-linecap="round"><g transform="translate(69.51300726362001 15.2617035933593) rotate(0 -1.5815143561268314 0.7785916830162876)" fill-rule="evenodd"><path d="M0 0 C-0.26 0.06, -1.03 0.13, -1.56 0.39 C-2.08 0.65, -2.9 1.36, -3.16 1.56" stroke="none" stroke-width="0" fill="#ffec99" fill-rule="evenodd"></path><path d="M0 0 C-0.26 0.06, -1.03 0.13, -1.56 0.39 C-2.08 0.65, -2.9 1.36, -3.16 1.56 M0 0 C-0.26 0.06, -1.03 0.13, -1.56 0.39 C-2.08 0.65, -2.9 1.36, -3.16 1.56" stroke="#000000" stroke-width="1" fill="none"></path></g></g><mask></mask><g stroke-opacity="0.5" fill-opacity="0.5" stroke-linecap="round" transform="translate(19.948322578424268 68.09145552279534) rotate(0 21.587545572086754 17.550258458822356)"><path d="M20.75 -0.81 C25.2 -1.5, 30.93 0.25, 34.57 2.66 C38.2 5.08, 41.51 10.01, 42.54 13.68 C43.56 17.34, 42.84 21.37, 40.71 24.66 C38.58 27.95, 33.86 31.81, 29.74 33.41 C25.63 35.01, 20.52 35.44, 16.02 34.25 C11.53 33.05, 5.39 29.3, 2.77 26.24 C0.16 23.18, -0.38 19.59, 0.35 15.88 C1.07 12.16, 3.37 6.68, 7.13 3.96 C10.88 1.23, 19.77 0.02, 22.9 -0.45 C26.03 -0.92, 25.94 0.89, 25.9 1.13 M20.19 -0.96 C25.03 -1.44, 32.38 1.32, 35.92 3.58 C39.45 5.84, 40.61 9.02, 41.4 12.62 C42.19 16.22, 42.32 21.46, 40.66 25.18 C39 28.91, 35.79 33.3, 31.43 34.97 C27.07 36.64, 19.06 36.76, 14.51 35.21 C9.97 33.65, 6.31 29.02, 4.16 25.65 C2 22.29, 0.92 18.7, 1.58 15.04 C2.25 11.38, 5.18 5.99, 8.14 3.69 C11.11 1.4, 17.55 1.97, 19.36 1.27 C21.18 0.57, 19.03 -0.52, 19.03 -0.52" stroke="none" stroke-width="0" fill="#ffec99"></path><path d="M28.74 0.25 C32.95 1.18, 37.37 5.57, 39.75 8.84 C42.13 12.11, 43.74 16.1, 43.01 19.86 C42.27 23.62, 38.8 28.99, 35.34 31.4 C31.89 33.8, 26.82 34.37, 22.28 34.29 C17.74 34.22, 11.75 33.19, 8.07 30.94 C4.4 28.69, 1.25 24.26, 0.21 20.79 C-0.83 17.31, -0.38 13.2, 1.83 10.1 C4.03 7, 8.31 3.44, 13.46 2.2 C18.6 0.96, 29.2 2.41, 32.7 2.67 C36.21 2.93, 34.71 3.72, 34.51 3.76 M29.48 1.57 C33.78 2.83, 37.9 6.5, 39.89 9.6 C41.87 12.7, 42.15 16.39, 41.37 20.19 C40.58 23.98, 38.36 29.84, 35.19 32.38 C32.03 34.93, 26.78 35.62, 22.39 35.45 C17.99 35.28, 12.57 33.95, 8.85 31.37 C5.13 28.79, 1.24 23.66, 0.07 19.99 C-1.1 16.33, -0.38 12.58, 1.85 9.38 C4.07 6.17, 8.93 2.29, 13.42 0.77 C17.91 -0.76, 26.27 -0.11, 28.79 0.24 C31.3 0.59, 28.43 2.55, 28.52 2.87" stroke="#000000" stroke-width="1" fill="none"></path></g><g stroke-linecap="round"><g transform="translate(22.18574902200669 16.680967353710855) rotate(294.1768782491122 0.367849260218577 -1.7302804248918449)" fill-rule="evenodd"><path d="M0 0 C0.12 -0.27, 0.62 -1.02, 0.74 -1.59 C0.85 -2.17, 0.7 -3.15, 0.69 -3.46" stroke="none" stroke-width="0" fill="#ffec99" fill-rule="evenodd"></path><path d="M0 0 C0.12 -0.27, 0.62 -1.02, 0.74 -1.59 C0.85 -2.17, 0.7 -3.15, 0.69 -3.46 M0 0 C0.12 -0.27, 0.62 -1.02, 0.74 -1.59 C0.85 -2.17, 0.7 -3.15, 0.69 -3.46" stroke="#000000" stroke-width="1" fill="none"></path></g></g><mask></mask><g stroke-linecap="round"><g transform="translate(24.57112274466442 13.303821998844) rotate(294.1768782491122 -1.223307003437867 1.0995487725948294)" fill-rule="evenodd"><path d="M0 0 C-0.14 0.17, -0.43 0.66, -0.84 1.03 C-1.25 1.4, -2.18 2, -2.45 2.2" stroke="none" stroke-width="0" fill="#ffec99" fill-rule="evenodd"></path><path d="M0 0 C-0.14 0.17, -0.43 0.66, -0.84 1.03 C-1.25 1.4, -2.18 2, -2.45 2.2 M0 0 C-0.14 0.17, -0.43 0.66, -0.84 1.03 C-1.25 1.4, -2.18 2, -2.45 2.2" stroke="#000000" stroke-width="1" fill="none"></path></g></g><mask></mask><g stroke-linecap="round" transform="translate(50.25280051050902 21.03505205865531) rotate(0 12.885944411733192 13.012899529090163)"><path d="M9.94 -0.12 C12.45 -0.91, 16.09 -0.08, 18.62 1.25 C21.16 2.59, 24.11 5.36, 25.15 7.88 C26.2 10.41, 25.74 13.68, 24.88 16.4 C24.02 19.12, 22.24 22.66, 20 24.19 C17.76 25.71, 14.2 26, 11.43 25.57 C8.66 25.15, 5.24 23.59, 3.36 21.65 C1.49 19.71, 0.33 16.75, 0.18 13.95 C0.03 11.14, 0.77 7.17, 2.45 4.8 C4.13 2.44, 8.87 0.51, 10.27 -0.23 C11.67 -0.97, 10.86 -0.01, 10.85 0.36 M12.91 -0.16 C15.75 -0.12, 19.9 1.84, 21.95 3.75 C24 5.66, 24.81 8.77, 25.21 11.3 C25.61 13.82, 25.54 16.58, 24.33 18.88 C23.11 21.18, 20.45 24.12, 17.9 25.09 C15.35 26.05, 11.82 25.53, 9.02 24.69 C6.22 23.85, 2.72 22.46, 1.13 20.05 C-0.46 17.63, -1 13.09, -0.5 10.2 C-0.01 7.31, 1.9 4.51, 4.1 2.71 C6.31 0.91, 11.32 -0.21, 12.71 -0.59 C14.11 -0.97, 12.29 0.02, 12.46 0.45" stroke="none" stroke-width="0" fill="#ffffff"></path><path d="M14.9 0.71 C17.48 0.98, 20.96 2.39, 22.74 4.43 C24.52 6.47, 25.61 10.15, 25.56 12.95 C25.51 15.75, 24.28 19.04, 22.46 21.24 C20.63 23.44, 17.3 25.61, 14.62 26.17 C11.93 26.73, 8.59 26.03, 6.35 24.59 C4.11 23.16, 2.12 20.29, 1.18 17.55 C0.23 14.81, -0.3 10.86, 0.67 8.15 C1.64 5.44, 4.43 2.63, 7 1.28 C9.57 -0.08, 14.62 0.09, 16.09 0.01 C17.57 -0.06, 15.94 0.59, 15.86 0.82 M14.45 0.79 C17.27 1.04, 20.83 2.42, 22.81 4.39 C24.79 6.37, 26.32 9.93, 26.35 12.64 C26.38 15.35, 24.86 18.42, 22.99 20.65 C21.12 22.88, 17.89 25.41, 15.14 26.04 C12.4 26.67, 8.9 25.83, 6.52 24.42 C4.14 23.01, 1.88 20.01, 0.86 17.58 C-0.15 15.15, -0.52 12.48, 0.42 9.84 C1.35 7.2, 4.02 3.43, 6.49 1.75 C8.97 0.07, 13.94 0.06, 15.26 -0.23 C16.59 -0.52, 14.5 -0.3, 14.46 0" stroke="#000000" stroke-width="1" fill="none"></path></g><g stroke-linecap="round" transform="translate(11.277579481917314 21.13466519909781) rotate(0 12.885944411733192 13.012899529090163)"><path d="M12.81 -0.16 C15.51 -0.25, 19.53 1.27, 21.6 3.03 C23.68 4.79, 24.83 7.58, 25.25 10.38 C25.67 13.17, 25.43 17.39, 24.12 19.81 C22.8 22.23, 19.99 24.03, 17.37 24.89 C14.74 25.76, 10.93 25.84, 8.34 24.98 C5.76 24.12, 3.25 22.17, 1.87 19.73 C0.49 17.29, -0.39 13.2, 0.06 10.34 C0.51 7.47, 2.35 4.27, 4.57 2.53 C6.8 0.79, 11.95 0.22, 13.4 -0.08 C14.84 -0.38, 13.28 0.56, 13.25 0.73 M11.49 0.81 C14 0.31, 16.75 1.06, 19.07 2.25 C21.38 3.45, 24.28 5.44, 25.38 7.97 C26.48 10.5, 26.58 14.76, 25.66 17.41 C24.73 20.06, 22.46 22.34, 19.85 23.84 C17.23 25.34, 12.9 26.93, 9.96 26.43 C7.02 25.92, 3.96 23.12, 2.2 20.82 C0.45 18.51, -0.69 15.41, -0.58 12.6 C-0.48 9.79, 1.02 5.99, 2.83 3.95 C4.64 1.91, 8.8 0.83, 10.26 0.36 C11.72 -0.11, 11.49 0.83, 11.58 1.13" stroke="none" stroke-width="0" fill="#ffffff"></path><path d="M12.95 -0.39 C15.61 -0.64, 19.04 1.06, 21.13 2.9 C23.21 4.75, 25.04 7.81, 25.46 10.67 C25.87 13.52, 25.02 17.5, 23.64 20.01 C22.26 22.53, 19.66 24.83, 17.18 25.74 C14.7 26.65, 11.37 26.57, 8.75 25.46 C6.12 24.36, 2.79 21.67, 1.44 19.12 C0.08 16.57, -0.02 12.93, 0.6 10.18 C1.21 7.42, 2.97 4.26, 5.12 2.59 C7.28 0.93, 11.96 0.58, 13.53 0.18 C15.09 -0.22, 14.45 0.09, 14.51 0.2 M12.33 0.21 C15.05 -0.24, 18.83 1.09, 20.98 2.64 C23.13 4.18, 24.74 6.78, 25.24 9.5 C25.74 12.22, 25.21 16.42, 23.97 18.96 C22.73 21.5, 20.23 23.7, 17.79 24.73 C15.34 25.75, 11.92 25.73, 9.3 25.13 C6.68 24.52, 3.52 23.38, 2.07 21.1 C0.62 18.82, 0.18 14.4, 0.6 11.45 C1.01 8.5, 2.7 5.34, 4.57 3.38 C6.44 1.41, 10.5 0.15, 11.83 -0.33 C13.15 -0.82, 12.62 0.19, 12.54 0.46" stroke="#000000" stroke-width="1" fill="none"></path></g><g stroke-linecap="round"><g stroke-opacity="0.1" fill-opacity="0.1" transform="translate(68.7672635561504 45.648791327091885) rotate(0 -9.104515003028837 -11.175166261843657)" fill-rule="evenodd"><path d="M0 0 C-0.4 0.05, -1.59 0.28, -2.39 0.28 C-3.19 0.28, -3.87 0.19, -4.79 0.01 C-5.7 -0.16, -6.88 -0.38, -7.87 -0.75 C-8.87 -1.11, -9.91 -1.52, -10.77 -2.17 C-11.64 -2.83, -12.3 -3.6, -13.05 -4.65 C-13.8 -5.7, -14.94 -6.98, -15.28 -8.49 C-15.63 -10.01, -15.51 -11.97, -15.13 -13.74 C-14.74 -15.51, -14.13 -17.57, -12.97 -19.11 C-11.81 -20.65, -9.65 -22.1, -8.17 -22.99 C-6.68 -23.87, -3.55 -24.38, -4.05 -24.42 C-4.56 -24.47, -9.3 -24.07, -11.19 -23.26 C-13.08 -22.46, -14.35 -20.73, -15.38 -19.58 C-16.42 -18.44, -16.89 -17.65, -17.41 -16.41 C-17.93 -15.17, -18.27 -13.62, -18.51 -12.16 C-18.74 -10.71, -18.91 -8.96, -18.82 -7.67 C-18.74 -6.39, -18.38 -5.37, -17.99 -4.45 C-17.61 -3.54, -17.21 -2.95, -16.53 -2.2 C-15.84 -1.45, -14.98 -0.61, -13.89 0.04 C-12.79 0.69, -11.42 1.34, -9.95 1.68 C-8.49 2.02, -6.84 2.35, -5.08 2.07 C-3.32 1.8, -0.34 0.39, 0.61 0.06" stroke="none" stroke-width="0" fill="#000000" fill-rule="evenodd"></path><path d="M0 0 C-0.4 0.05, -1.59 0.28, -2.39 0.28 C-3.19 0.28, -3.87 0.19, -4.79 0.01 C-5.7 -0.16, -6.88 -0.38, -7.87 -0.75 C-8.87 -1.11, -9.91 -1.52, -10.77 -2.17 C-11.64 -2.83, -12.3 -3.6, -13.05 -4.65 C-13.8 -5.7, -14.94 -6.98, -15.28 -8.49 C-15.63 -10.01, -15.51 -11.97, -15.13 -13.74 C-14.74 -15.51, -14.13 -17.57, -12.97 -19.11 C-11.81 -20.65, -9.65 -22.1, -8.17 -22.99 C-6.68 -23.87, -3.55 -24.38, -4.05 -24.42 C-4.56 -24.47, -9.3 -24.07, -11.19 -23.26 C-13.08 -22.46, -14.35 -20.73, -15.38 -19.58 C-16.42 -18.44, -16.89 -17.65, -17.41 -16.41 C-17.93 -15.17, -18.27 -13.62, -18.51 -12.16 C-18.74 -10.71, -18.91 -8.96, -18.82 -7.67 C-18.74 -6.39, -18.38 -5.37, -17.99 -4.45 C-17.61 -3.54, -17.21 -2.95, -16.53 -2.2 C-15.84 -1.45, -14.98 -0.61, -13.89 0.04 C-12.79 0.69, -11.42 1.34, -9.95 1.68 C-8.49 2.02, -6.84 2.35, -5.08 2.07 C-3.32 1.8, -0.34 0.39, 0.61 0.06 M0 0 C-0.4 0.05, -1.59 0.28, -2.39 0.28 C-3.19 0.28, -3.87 0.19, -4.79 0.01 C-5.7 -0.16, -6.88 -0.38, -7.87 -0.75 C-8.87 -1.11, -9.91 -1.52, -10.77 -2.17 C-11.64 -2.83, -12.3 -3.6, -13.05 -4.65 C-13.8 -5.7, -14.94 -6.98, -15.28 -8.49 C-15.63 -10.01, -15.51 -11.97, -15.13 -13.74 C-14.74 -15.51, -14.13 -17.57, -12.97 -19.11 C-11.81 -20.65, -9.65 -22.1, -8.17 -22.99 C-6.68 -23.87, -3.55 -24.38, -4.05 -24.42 C-4.56 -24.47, -9.3 -24.07, -11.19 -23.26 C-13.08 -22.46, -14.35 -20.73, -15.38 -19.58 C-16.42 -18.44, -16.89 -17.65, -17.41 -16.41 C-17.93 -15.17, -18.27 -13.62, -18.51 -12.16 C-18.74 -10.71, -18.91 -8.96, -18.82 -7.67 C-18.74 -6.39, -18.38 -5.37, -17.99 -4.45 C-17.61 -3.54, -17.21 -2.95, -16.53 -2.2 C-15.84 -1.45, -14.98 -0.61, -13.89 0.04 C-12.79 0.69, -11.42 1.34, -9.95 1.68 C-8.49 2.02, -6.84 2.35, -5.08 2.07 C-3.32 1.8, -0.34 0.39, 0.61 0.06" stroke="#000000" stroke-width="1" fill="none"></path></g></g><mask></mask><g stroke-linecap="round"><g stroke-opacity="0.1" fill-opacity="0.1" transform="translate(25.563257425825668 46.81056424382729) rotate(0 -6.489731873534083 -12.70781510274648)" fill-rule="evenodd"><path d="M0 0 C-0.9 -0.53, -3.83 -1.81, -5.43 -3.18 C-7.03 -4.55, -8.75 -6.27, -9.6 -8.21 C-10.45 -10.16, -10.71 -12.86, -10.5 -14.86 C-10.3 -16.86, -9.51 -18.69, -8.35 -20.23 C-7.19 -21.77, -5.03 -23.21, -3.54 -24.1 C-2.06 -24.99, 1.08 -25.49, 0.57 -25.54 C0.07 -25.59, -4.68 -25.19, -6.57 -24.38 C-8.46 -23.57, -9.72 -21.84, -10.76 -20.7 C-11.8 -19.55, -12.32 -18.75, -12.79 -17.52 C-13.26 -16.3, -13.53 -14.84, -13.55 -13.33 C-13.57 -11.83, -13.34 -10.01, -12.92 -8.51 C-12.49 -7.01, -11.82 -5.42, -11.01 -4.32 C-10.21 -3.22, -9.38 -2.65, -8.09 -1.91 C-6.8 -1.17, -4.62 -0.19, -3.27 0.12 C-1.92 0.44, -0.54 0.02, 0 0" stroke="none" stroke-width="0" fill="#000000" fill-rule="evenodd"></path><path d="M0 0 C-0.9 -0.53, -3.83 -1.81, -5.43 -3.18 C-7.03 -4.55, -8.75 -6.27, -9.6 -8.21 C-10.45 -10.16, -10.71 -12.86, -10.5 -14.86 C-10.3 -16.86, -9.51 -18.69, -8.35 -20.23 C-7.19 -21.77, -5.03 -23.21, -3.54 -24.1 C-2.06 -24.99, 1.08 -25.49, 0.57 -25.54 C0.07 -25.59, -4.68 -25.19, -6.57 -24.38 C-8.46 -23.57, -9.72 -21.84, -10.76 -20.7 C-11.8 -19.55, -12.32 -18.75, -12.79 -17.52 C-13.26 -16.3, -13.53 -14.84, -13.55 -13.33 C-13.57 -11.83, -13.34 -10.01, -12.92 -8.51 C-12.49 -7.01, -11.82 -5.42, -11.01 -4.32 C-10.21 -3.22, -9.38 -2.65, -8.09 -1.91 C-6.8 -1.17, -4.62 -0.19, -3.27 0.12 C-1.92 0.44, -0.54 0.02, 0 0 M0 0 C-0.9 -0.53, -3.83 -1.81, -5.43 -3.18 C-7.03 -4.55, -8.75 -6.27, -9.6 -8.21 C-10.45 -10.16, -10.71 -12.86, -10.5 -14.86 C-10.3 -16.86, -9.51 -18.69, -8.35 -20.23 C-7.19 -21.77, -5.03 -23.21, -3.54 -24.1 C-2.06 -24.99, 1.08 -25.49, 0.57 -25.54 C0.07 -25.59, -4.68 -25.19, -6.57 -24.38 C-8.46 -23.57, -9.72 -21.84, -10.76 -20.7 C-11.8 -19.55, -12.32 -18.75, -12.79 -17.52 C-13.26 -16.3, -13.53 -14.84, -13.55 -13.33 C-13.57 -11.83, -13.34 -10.01, -12.92 -8.51 C-12.49 -7.01, -11.82 -5.42, -11.01 -4.32 C-10.21 -3.22, -9.38 -2.65, -8.09 -1.91 C-6.8 -1.17, -4.62 -0.19, -3.27 0.12 C-1.92 0.44, -0.54 0.02, 0 0" stroke="#000000" stroke-width="1" fill="none"></path></g></g><mask></mask><g stroke-linecap="round" transform="translate(11.377192622361918 21.03505205865531) rotate(0 12.885944411733192 13.012899529090163)"><path d="M10.77 0.43 C13.38 0.02, 17.31 0.91, 19.78 2.38 C22.25 3.85, 24.79 6.71, 25.6 9.26 C26.42 11.8, 25.71 15.17, 24.66 17.65 C23.62 20.13, 21.68 22.83, 19.33 24.13 C16.98 25.43, 13.39 25.93, 10.59 25.44 C7.79 24.95, 4.27 23.37, 2.54 21.2 C0.8 19.04, 0 15.35, 0.17 12.45 C0.34 9.56, 1.71 5.91, 3.55 3.84 C5.39 1.77, 9.78 0.56, 11.21 0.02 C12.65 -0.52, 12.08 0.31, 12.15 0.6 M13.22 0.35 C15.8 0.39, 19.34 1.69, 21.4 3.49 C23.46 5.3, 25.24 8.29, 25.58 11.21 C25.91 14.12, 24.84 18.66, 23.41 21 C21.98 23.34, 19.5 24.63, 17 25.22 C14.49 25.82, 11 25.72, 8.37 24.57 C5.74 23.43, 2.47 20.79, 1.24 18.37 C0.02 15.95, 0.43 12.7, 1 10.05 C1.57 7.4, 2.65 4.12, 4.67 2.44 C6.68 0.76, 11.56 0.32, 13.07 -0.05 C14.59 -0.41, 13.76 0.03, 13.75 0.23" stroke="#000000" stroke-width="1" fill="none"></path></g><g stroke-linecap="round" transform="translate(50.406684775523786 20.872238684943966) rotate(0 12.885944411733192 13.012899529090163)"><path d="M11.01 0.58 C13.71 0.01, 17.72 0.84, 20.04 2.18 C22.35 3.52, 24.03 6.09, 24.9 8.62 C25.77 11.15, 26.17 14.79, 25.26 17.37 C24.35 19.95, 21.96 22.68, 19.44 24.11 C16.92 25.54, 12.9 26.44, 10.16 25.93 C7.42 25.41, 4.65 23.3, 3 21.02 C1.36 18.74, 0.26 15.02, 0.26 12.25 C0.27 9.47, 1.13 6.34, 3.04 4.36 C4.95 2.39, 10.27 1, 11.72 0.39 C13.17 -0.22, 11.78 0.56, 11.76 0.72 M11.27 -0.08 C13.94 -0.62, 17.79 0.16, 20.1 1.89 C22.41 3.62, 24.3 7.6, 25.13 10.31 C25.97 13.02, 26.13 15.8, 25.13 18.16 C24.12 20.51, 21.69 23.26, 19.1 24.44 C16.5 25.62, 12.23 25.85, 9.55 25.23 C6.86 24.6, 4.68 22.92, 3 20.69 C1.31 18.47, -0.59 14.71, -0.58 11.89 C-0.57 9.07, 0.99 5.77, 3.04 3.79 C5.09 1.8, 10.37 0.6, 11.7 0 C13.03 -0.6, 11.05 -0.17, 11.02 0.16" stroke="#000000" stroke-width="1" fill="none"></path></g><g stroke-linecap="round" transform="translate(20.898976589880704 31.19221227594244) rotate(0 2.602579905818004 2.4756247884610616)"><path d="M2.76 -0.16 C3.3 -0.08, 4.16 0.53, 4.55 0.89 C4.94 1.25, 5.08 1.56, 5.1 2.01 C5.13 2.45, 4.99 3.1, 4.7 3.57 C4.41 4.04, 3.94 4.57, 3.37 4.81 C2.8 5.05, 1.8 5.28, 1.28 5.02 C0.76 4.76, 0.49 3.78, 0.25 3.25 C0.02 2.71, -0.26 2.21, -0.13 1.79 C0 1.38, 0.49 1.08, 1.04 0.76 C1.59 0.43, 2.81 -0.07, 3.16 -0.16 C3.5 -0.25, 3.21 0.09, 3.1 0.22 M2.13 0.42 C2.51 0.37, 3.27 -0.01, 3.71 0.21 C4.15 0.44, 4.59 1.26, 4.76 1.77 C4.92 2.27, 4.98 2.71, 4.72 3.23 C4.47 3.75, 3.64 4.54, 3.24 4.89 C2.84 5.24, 2.81 5.41, 2.32 5.31 C1.82 5.2, 0.72 4.89, 0.28 4.28 C-0.16 3.67, -0.48 2.23, -0.34 1.66 C-0.2 1.08, 0.63 1.07, 1.13 0.81 C1.63 0.54, 2.48 0.26, 2.67 0.06 C2.85 -0.14, 2.31 -0.34, 2.27 -0.38" stroke="none" stroke-width="0" fill="#000000"></path><path d="M3.18 0.21 C3.68 0.16, 3.97 0.31, 4.35 0.61 C4.72 0.92, 5.34 1.54, 5.44 2.06 C5.54 2.57, 5.34 3.23, 4.95 3.72 C4.56 4.2, 3.66 4.83, 3.1 4.98 C2.54 5.12, 2.03 4.91, 1.58 4.61 C1.13 4.31, 0.67 3.64, 0.4 3.16 C0.14 2.69, -0.18 2.18, 0 1.75 C0.17 1.33, 0.94 0.86, 1.44 0.62 C1.94 0.37, 2.71 0.38, 2.98 0.28 C3.24 0.18, 3.06 0.06, 3.02 0.01 M2.71 -0.27 C3.27 -0.17, 3.82 0.8, 4.29 1.19 C4.77 1.57, 5.39 1.62, 5.55 2.03 C5.7 2.44, 5.6 3.21, 5.22 3.64 C4.84 4.07, 3.81 4.41, 3.27 4.61 C2.72 4.81, 2.53 5.02, 1.96 4.84 C1.39 4.66, 0.23 4.02, -0.16 3.52 C-0.54 3.01, -0.58 2.34, -0.38 1.82 C-0.17 1.31, 0.63 0.75, 1.08 0.43 C1.53 0.11, 2.07 -0.1, 2.33 -0.1 C2.59 -0.09, 2.56 0.46, 2.63 0.47" stroke="#000000" stroke-width="1" fill="none"></path></g><g stroke-linecap="round" transform="translate(23.741532851002944 31.61980601963245) rotate(0 0.5078204694278838 0.6347755867848832)"><path d="M1.02 0.63 C1.02 0.67, 1.01 0.71, 1.01 0.75 C1 0.78, 1 0.82, 0.99 0.85 C0.97 0.89, 0.96 0.92, 0.95 0.95 C0.93 0.98, 0.92 1.01, 0.9 1.04 C0.88 1.07, 0.86 1.1, 0.83 1.12 C0.81 1.14, 0.79 1.17, 0.76 1.18 C0.74 1.2, 0.71 1.22, 0.68 1.23 C0.65 1.24, 0.62 1.25, 0.6 1.26 C0.57 1.27, 0.54 1.27, 0.51 1.27 C0.48 1.27, 0.45 1.27, 0.42 1.26 C0.39 1.25, 0.36 1.24, 0.33 1.23 C0.31 1.22, 0.28 1.2, 0.25 1.18 C0.23 1.17, 0.2 1.14, 0.18 1.12 C0.16 1.1, 0.14 1.07, 0.12 1.04 C0.1 1.01, 0.08 0.98, 0.07 0.95 C0.05 0.92, 0.04 0.89, 0.03 0.85 C0.02 0.82, 0.01 0.78, 0.01 0.75 C0 0.71, 0 0.67, 0 0.63 C0 0.6, 0 0.56, 0.01 0.52 C0.01 0.49, 0.02 0.45, 0.03 0.42 C0.04 0.38, 0.05 0.35, 0.07 0.32 C0.08 0.29, 0.1 0.25, 0.12 0.23 C0.14 0.2, 0.16 0.17, 0.18 0.15 C0.2 0.12, 0.23 0.1, 0.25 0.09 C0.28 0.07, 0.31 0.05, 0.33 0.04 C0.36 0.03, 0.39 0.02, 0.42 0.01 C0.45 0, 0.48 0, 0.51 0 C0.54 0, 0.57 0, 0.6 0.01 C0.62 0.02, 0.65 0.03, 0.68 0.04 C0.71 0.05, 0.74 0.07, 0.76 0.09 C0.79 0.1, 0.81 0.12, 0.83 0.15 C0.86 0.17, 0.88 0.2, 0.9 0.23 C0.92 0.25, 0.93 0.29, 0.95 0.32 C0.96 0.35, 0.97 0.38, 0.99 0.42 C1 0.45, 1 0.49, 1.01 0.52 C1.01 0.56, 1.01 0.62, 1.02 0.63 C1.02 0.65, 1.02 0.62, 1.02 0.63" stroke="none" stroke-width="0" fill="#ffffff"></path><path d="M1.02 0.63 C1.02 0.67, 1.01 0.71, 1.01 0.75 C1 0.78, 1 0.82, 0.99 0.85 C0.97 0.89, 0.96 0.92, 0.95 0.95 C0.93 0.98, 0.92 1.01, 0.9 1.04 C0.88 1.07, 0.86 1.1, 0.83 1.12 C0.81 1.14, 0.79 1.17, 0.76 1.18 C0.74 1.2, 0.71 1.22, 0.68 1.23 C0.65 1.24, 0.62 1.25, 0.6 1.26 C0.57 1.27, 0.54 1.27, 0.51 1.27 C0.48 1.27, 0.45 1.27, 0.42 1.26 C0.39 1.25, 0.36 1.24, 0.33 1.23 C0.31 1.22, 0.28 1.2, 0.25 1.18 C0.23 1.17, 0.2 1.14, 0.18 1.12 C0.16 1.1, 0.14 1.07, 0.12 1.04 C0.1 1.01, 0.08 0.98, 0.07 0.95 C0.05 0.92, 0.04 0.89, 0.03 0.85 C0.02 0.82, 0.01 0.78, 0.01 0.75 C0 0.71, 0 0.67, 0 0.63 C0 0.6, 0 0.56, 0.01 0.52 C0.01 0.49, 0.02 0.45, 0.03 0.42 C0.04 0.38, 0.05 0.35, 0.07 0.32 C0.08 0.29, 0.1 0.25, 0.12 0.23 C0.14 0.2, 0.16 0.17, 0.18 0.15 C0.2 0.12, 0.23 0.1, 0.25 0.09 C0.28 0.07, 0.31 0.05, 0.33 0.04 C0.36 0.03, 0.39 0.02, 0.42 0.01 C0.45 0, 0.48 0, 0.51 0 C0.54 0, 0.57 0, 0.6 0.01 C0.62 0.02, 0.65 0.03, 0.68 0.04 C0.71 0.05, 0.74 0.07, 0.76 0.09 C0.79 0.1, 0.81 0.12, 0.83 0.15 C0.86 0.17, 0.88 0.2, 0.9 0.23 C0.92 0.25, 0.93 0.29, 0.95 0.32 C0.96 0.35, 0.97 0.38, 0.99 0.42 C1 0.45, 1 0.49, 1.01 0.52 C1.01 0.56, 1.01 0.62, 1.02 0.63 C1.02 0.65, 1.02 0.62, 1.02 0.63" stroke="#ffffff" stroke-width="1" fill="none"></path></g><g stroke-linecap="round" transform="translate(61.486307606636615 31.72590758848463) rotate(0 2.602579905818004 2.4756247884610616)"><path d="M2.29 -0.25 C2.8 -0.4, 3.58 -0.22, 4.07 0.12 C4.56 0.46, 5.1 1.17, 5.21 1.79 C5.33 2.41, 4.99 3.39, 4.74 3.83 C4.48 4.28, 4.21 4.29, 3.7 4.45 C3.2 4.62, 2.25 4.87, 1.7 4.83 C1.15 4.78, 0.63 4.66, 0.39 4.2 C0.16 3.74, 0.2 2.63, 0.29 2.08 C0.39 1.52, 0.66 1.16, 0.96 0.87 C1.27 0.57, 1.86 0.41, 2.1 0.32 C2.34 0.23, 2.36 0.39, 2.38 0.34 M2.57 -0.15 C3.15 -0.13, 3.97 -0.02, 4.35 0.42 C4.73 0.87, 4.72 1.84, 4.85 2.51 C4.98 3.19, 5.46 3.99, 5.15 4.47 C4.85 4.94, 3.71 5.43, 3.02 5.38 C2.33 5.33, 1.45 4.47, 1.02 4.17 C0.6 3.87, 0.6 3.96, 0.48 3.56 C0.36 3.16, 0.21 2.37, 0.3 1.77 C0.39 1.17, 0.56 0.31, 0.99 -0.05 C1.42 -0.41, 2.54 -0.45, 2.88 -0.39 C3.22 -0.33, 3.09 0.26, 3.03 0.32" stroke="none" stroke-width="0" fill="#000000"></path><path d="M3.1 -0.23 C3.69 -0.22, 4.38 0.1, 4.7 0.54 C5.03 0.98, 5.03 1.84, 5.05 2.39 C5.07 2.94, 5.1 3.47, 4.83 3.83 C4.55 4.19, 3.99 4.41, 3.42 4.55 C2.84 4.69, 1.85 4.8, 1.37 4.66 C0.89 4.51, 0.73 4.12, 0.53 3.68 C0.33 3.25, 0.06 2.62, 0.17 2.07 C0.29 1.52, 0.78 0.76, 1.23 0.37 C1.67 -0.01, 2.51 -0.14, 2.83 -0.22 C3.16 -0.3, 3.18 -0.17, 3.18 -0.1 M2.72 -0.18 C3.34 -0.38, 4.16 -0.08, 4.55 0.21 C4.94 0.51, 4.92 1.01, 5.06 1.57 C5.2 2.14, 5.68 3.1, 5.38 3.61 C5.09 4.13, 3.95 4.47, 3.3 4.67 C2.65 4.87, 1.96 4.95, 1.49 4.82 C1.02 4.69, 0.81 4.31, 0.48 3.87 C0.16 3.43, -0.47 2.63, -0.45 2.17 C-0.43 1.72, 0.13 1.56, 0.59 1.15 C1.06 0.73, 2.1 -0.16, 2.33 -0.32 C2.56 -0.49, 1.91 0.03, 1.96 0.15" stroke="#000000" stroke-width="1" fill="none"></path></g><g stroke-linecap="round" transform="translate(64.32886386775988 32.24977340306009) rotate(0 0.5078204694278838 0.6347755867848832)"><path d="M1.02 0.63 C1.02 0.67, 1.01 0.71, 1.01 0.75 C1 0.78, 1 0.82, 0.99 0.85 C0.97 0.89, 0.96 0.92, 0.95 0.95 C0.93 0.98, 0.92 1.01, 0.9 1.04 C0.88 1.07, 0.86 1.1, 0.83 1.12 C0.81 1.14, 0.79 1.17, 0.76 1.18 C0.74 1.2, 0.71 1.22, 0.68 1.23 C0.65 1.24, 0.62 1.25, 0.6 1.26 C0.57 1.27, 0.54 1.27, 0.51 1.27 C0.48 1.27, 0.45 1.27, 0.42 1.26 C0.39 1.25, 0.36 1.24, 0.33 1.23 C0.31 1.22, 0.28 1.2, 0.25 1.18 C0.23 1.17, 0.2 1.14, 0.18 1.12 C0.16 1.1, 0.14 1.07, 0.12 1.04 C0.1 1.01, 0.08 0.98, 0.07 0.95 C0.05 0.92, 0.04 0.89, 0.03 0.85 C0.02 0.82, 0.01 0.78, 0.01 0.75 C0 0.71, 0 0.67, 0 0.63 C0 0.6, 0 0.56, 0.01 0.52 C0.01 0.49, 0.02 0.45, 0.03 0.42 C0.04 0.38, 0.05 0.35, 0.07 0.32 C0.08 0.29, 0.1 0.25, 0.12 0.23 C0.14 0.2, 0.16 0.17, 0.18 0.15 C0.2 0.12, 0.23 0.1, 0.25 0.09 C0.28 0.07, 0.31 0.05, 0.33 0.04 C0.36 0.03, 0.39 0.02, 0.42 0.01 C0.45 0, 0.48 0, 0.51 0 C0.54 0, 0.57 0, 0.6 0.01 C0.62 0.02, 0.65 0.03, 0.68 0.04 C0.71 0.05, 0.74 0.07, 0.76 0.09 C0.79 0.1, 0.81 0.12, 0.83 0.15 C0.86 0.17, 0.88 0.2, 0.9 0.23 C0.92 0.25, 0.93 0.29, 0.95 0.32 C0.96 0.35, 0.97 0.38, 0.99 0.42 C1 0.45, 1 0.49, 1.01 0.52 C1.01 0.56, 1.01 0.62, 1.02 0.63 C1.02 0.65, 1.02 0.62, 1.02 0.63" stroke="none" stroke-width="0" fill="#ffffff"></path><path d="M1.02 0.63 C1.02 0.67, 1.01 0.71, 1.01 0.75 C1 0.78, 1 0.82, 0.99 0.85 C0.97 0.89, 0.96 0.92, 0.95 0.95 C0.93 0.98, 0.92 1.01, 0.9 1.04 C0.88 1.07, 0.86 1.1, 0.83 1.12 C0.81 1.14, 0.79 1.17, 0.76 1.18 C0.74 1.2, 0.71 1.22, 0.68 1.23 C0.65 1.24, 0.62 1.25, 0.6 1.26 C0.57 1.27, 0.54 1.27, 0.51 1.27 C0.48 1.27, 0.45 1.27, 0.42 1.26 C0.39 1.25, 0.36 1.24, 0.33 1.23 C0.31 1.22, 0.28 1.2, 0.25 1.18 C0.23 1.17, 0.2 1.14, 0.18 1.12 C0.16 1.1, 0.14 1.07, 0.12 1.04 C0.1 1.01, 0.08 0.98, 0.07 0.95 C0.05 0.92, 0.04 0.89, 0.03 0.85 C0.02 0.82, 0.01 0.78, 0.01 0.75 C0 0.71, 0 0.67, 0 0.63 C0 0.6, 0 0.56, 0.01 0.52 C0.01 0.49, 0.02 0.45, 0.03 0.42 C0.04 0.38, 0.05 0.35, 0.07 0.32 C0.08 0.29, 0.1 0.25, 0.12 0.23 C0.14 0.2, 0.16 0.17, 0.18 0.15 C0.2 0.12, 0.23 0.1, 0.25 0.09 C0.28 0.07, 0.31 0.05, 0.33 0.04 C0.36 0.03, 0.39 0.02, 0.42 0.01 C0.45 0, 0.48 0, 0.51 0 C0.54 0, 0.57 0, 0.6 0.01 C0.62 0.02, 0.65 0.03, 0.68 0.04 C0.71 0.05, 0.74 0.07, 0.76 0.09 C0.79 0.1, 0.81 0.12, 0.83 0.15 C0.86 0.17, 0.88 0.2, 0.9 0.23 C0.92 0.25, 0.93 0.29, 0.95 0.32 C0.96 0.35, 0.97 0.38, 0.99 0.42 C1 0.45, 1 0.49, 1.01 0.52 C1.01 0.56, 1.01 0.62, 1.02 0.63 C1.02 0.65, 1.02 0.62, 1.02 0.63" stroke="#ffffff" stroke-width="1" fill="none"></path></g><g stroke-linecap="round"><g transform="translate(37.85060169259043 49.63736350494344) rotate(0 5.051460860572945 -1.3409540416004688)" fill-rule="evenodd"><path d="M0 0 C0.03 -0.27, -0.13 -1.04, 0.18 -1.64 C0.49 -2.23, 1.09 -3.16, 1.85 -3.56 C2.62 -3.96, 3.89 -4, 4.79 -4.04 C5.69 -4.07, 6.48 -4.05, 7.26 -3.77 C8.04 -3.48, 9 -2.88, 9.47 -2.31 C9.95 -1.75, 10.16 -0.96, 10.1 -0.39 C10.05 0.19, 9.99 0.94, 9.15 1.12 C8.31 1.29, 6.22 0.63, 5.08 0.67 C3.94 0.71, 3.03 1.3, 2.3 1.35 C1.56 1.4, 1.03 1.17, 0.65 0.97 C0.27 0.76, 0.13 0.26, 0.03 0.12" stroke="none" stroke-width="0" fill="#ccbdac" fill-rule="evenodd"></path><path d="M0 0 C0.03 -0.27, -0.13 -1.04, 0.18 -1.64 C0.49 -2.23, 1.09 -3.16, 1.85 -3.56 C2.62 -3.96, 3.89 -4, 4.79 -4.04 C5.69 -4.07, 6.48 -4.05, 7.26 -3.77 C8.04 -3.48, 9 -2.88, 9.47 -2.31 C9.95 -1.75, 10.16 -0.96, 10.1 -0.39 C10.05 0.19, 9.99 0.94, 9.15 1.12 C8.31 1.29, 6.22 0.63, 5.08 0.67 C3.94 0.71, 3.03 1.3, 2.3 1.35 C1.56 1.4, 1.03 1.17, 0.65 0.97 C0.27 0.76, 0.13 0.26, 0.03 0.12 M0 0 C0.03 -0.27, -0.13 -1.04, 0.18 -1.64 C0.49 -2.23, 1.09 -3.16, 1.85 -3.56 C2.62 -3.96, 3.89 -4, 4.79 -4.04 C5.69 -4.07, 6.48 -4.05, 7.26 -3.77 C8.04 -3.48, 9 -2.88, 9.47 -2.31 C9.95 -1.75, 10.16 -0.96, 10.1 -0.39 C10.05 0.19, 9.99 0.94, 9.15 1.12 C8.31 1.29, 6.22 0.63, 5.08 0.67 C3.94 0.71, 3.03 1.3, 2.3 1.35 C1.56 1.4, 1.03 1.17, 0.65 0.97 C0.27 0.76, 0.13 0.26, 0.03 0.12" stroke="#000000" stroke-width="1" fill="none"></path></g></g><mask></mask><g stroke-linecap="round"><g transform="translate(41.907915337944814 50.497386583839386) rotate(0 -1.2585953865884107 -1.948771807521723)" fill-rule="evenodd"><path d="M0 0 C-0.07 -0.01, -0.06 0.02, -0.41 -0.08 C-0.77 -0.18, -1.8 -0.34, -2.14 -0.62 C-2.47 -0.9, -2.56 -1.44, -2.43 -1.76 C-2.29 -2.09, -1.93 -2.39, -1.32 -2.58 C-0.71 -2.77, 1.07 -2.61, 1.22 -2.91 C1.38 -3.21, 0.17 -4.18, -0.38 -4.39 C-0.93 -4.59, -1.63 -4.3, -2.08 -4.12 C-2.53 -3.94, -2.83 -3.54, -3.08 -3.28 C-3.32 -3.02, -3.45 -2.84, -3.56 -2.56 C-3.67 -2.28, -3.74 -1.94, -3.74 -1.6 C-3.75 -1.26, -3.72 -0.8, -3.59 -0.5 C-3.47 -0.2, -3.21 0.03, -2.99 0.2 C-2.77 0.36, -2.6 0.48, -2.26 0.49 C-1.91 0.5, -1.3 0.33, -0.93 0.25 C-0.55 0.17, -0.15 0.04, 0 0" stroke="none" stroke-width="0" fill="#958b7f" fill-rule="evenodd"></path><path d="M0 0 C-0.07 -0.01, -0.06 0.02, -0.41 -0.08 C-0.77 -0.18, -1.8 -0.34, -2.14 -0.62 C-2.47 -0.9, -2.56 -1.44, -2.43 -1.76 C-2.29 -2.09, -1.93 -2.39, -1.32 -2.58 C-0.71 -2.77, 1.07 -2.61, 1.22 -2.91 C1.38 -3.21, 0.17 -4.18, -0.38 -4.39 C-0.93 -4.59, -1.63 -4.3, -2.08 -4.12 C-2.53 -3.94, -2.83 -3.54, -3.08 -3.28 C-3.32 -3.02, -3.45 -2.84, -3.56 -2.56 C-3.67 -2.28, -3.74 -1.94, -3.74 -1.6 C-3.75 -1.26, -3.72 -0.8, -3.59 -0.5 C-3.47 -0.2, -3.21 0.03, -2.99 0.2 C-2.77 0.36, -2.6 0.48, -2.26 0.49 C-1.91 0.5, -1.3 0.33, -0.93 0.25 C-0.55 0.17, -0.15 0.04, 0 0 M0 0 C-0.07 -0.01, -0.06 0.02, -0.41 -0.08 C-0.77 -0.18, -1.8 -0.34, -2.14 -0.62 C-2.47 -0.9, -2.56 -1.44, -2.43 -1.76 C-2.29 -2.09, -1.93 -2.39, -1.32 -2.58 C-0.71 -2.77, 1.07 -2.61, 1.22 -2.91 C1.38 -3.21, 0.17 -4.18, -0.38 -4.39 C-0.93 -4.59, -1.63 -4.3, -2.08 -4.12 C-2.53 -3.94, -2.83 -3.54, -3.08 -3.28 C-3.32 -3.02, -3.45 -2.84, -3.56 -2.56 C-3.67 -2.28, -3.74 -1.94, -3.74 -1.6 C-3.75 -1.26, -3.72 -0.8, -3.59 -0.5 C-3.47 -0.2, -3.21 0.03, -2.99 0.2 C-2.77 0.36, -2.6 0.48, -2.26 0.49 C-1.91 0.5, -1.3 0.33, -0.93 0.25 C-0.55 0.17, -0.15 0.04, 0 0" stroke="#958b7f" stroke-width="1" fill="none"></path></g></g><mask></mask><g stroke-linecap="round"><g transform="translate(37.80511762928779 49.63591832842849) rotate(0 5.071872827949335 -1.3545620198514143)"><path d="M0 0 C0.04 -0.28, -0.1 -1.06, 0.22 -1.65 C0.53 -2.25, 1.13 -3.17, 1.9 -3.57 C2.66 -3.97, 3.93 -4.01, 4.83 -4.05 C5.73 -4.08, 6.52 -4.07, 7.3 -3.78 C8.08 -3.49, 9.04 -2.89, 9.51 -2.33 C9.99 -1.76, 10.2 -0.97, 10.14 -0.4 C10.09 0.17, 10.03 0.93, 9.19 1.11 C8.36 1.28, 6.26 0.61, 5.12 0.65 C3.98 0.69, 3.08 1.29, 2.34 1.34 C1.6 1.39, 1.08 1.18, 0.69 0.95 C0.3 0.73, 0.12 0.16, 0 0 M0 0 C0.04 -0.28, -0.1 -1.06, 0.22 -1.65 C0.53 -2.25, 1.13 -3.17, 1.9 -3.57 C2.66 -3.97, 3.93 -4.01, 4.83 -4.05 C5.73 -4.08, 6.52 -4.07, 7.3 -3.78 C8.08 -3.49, 9.04 -2.89, 9.51 -2.33 C9.99 -1.76, 10.2 -0.97, 10.14 -0.4 C10.09 0.17, 10.03 0.93, 9.19 1.11 C8.36 1.28, 6.26 0.61, 5.12 0.65 C3.98 0.69, 3.08 1.29, 2.34 1.34 C1.6 1.39, 1.08 1.18, 0.69 0.95 C0.3 0.73, 0.12 0.16, 0 0" stroke="#000000" stroke-width="1" fill="none"></path></g></g><mask></mask><g stroke-linecap="round"><g transform="translate(39.350471112323476 45.10573675978469) rotate(0 3.426642301909453 0.2637562871560135)" fill-rule="evenodd"><path d="M0 0 C0.01 -0.17, -0.13 -0.7, 0.08 -0.99 C0.3 -1.28, 0.73 -1.59, 1.29 -1.76 C1.85 -1.94, 2.78 -2.03, 3.43 -2.05 C4.09 -2.07, 4.66 -2.06, 5.23 -1.89 C5.8 -1.72, 6.62 -1.51, 6.85 -1.03 C7.08 -0.54, 7.13 0.41, 6.62 1.01 C6.11 1.61, 4.68 2.45, 3.82 2.58 C2.96 2.7, 2.02 2.04, 1.45 1.74 C0.88 1.43, 0.62 1.04, 0.38 0.75 C0.14 0.46, 0.06 0.13, 0 0" stroke="none" stroke-width="0" fill="#595755" fill-rule="evenodd"></path><path d="M0 0 C0.01 -0.17, -0.13 -0.7, 0.08 -0.99 C0.3 -1.28, 0.73 -1.59, 1.29 -1.76 C1.85 -1.94, 2.78 -2.03, 3.43 -2.05 C4.09 -2.07, 4.66 -2.06, 5.23 -1.89 C5.8 -1.72, 6.62 -1.51, 6.85 -1.03 C7.08 -0.54, 7.13 0.41, 6.62 1.01 C6.11 1.61, 4.68 2.45, 3.82 2.58 C2.96 2.7, 2.02 2.04, 1.45 1.74 C0.88 1.43, 0.62 1.04, 0.38 0.75 C0.14 0.46, 0.06 0.13, 0 0 M0 0 C0.01 -0.17, -0.13 -0.7, 0.08 -0.99 C0.3 -1.28, 0.73 -1.59, 1.29 -1.76 C1.85 -1.94, 2.78 -2.03, 3.43 -2.05 C4.09 -2.07, 4.66 -2.06, 5.23 -1.89 C5.8 -1.72, 6.62 -1.51, 6.85 -1.03 C7.08 -0.54, 7.13 0.41, 6.62 1.01 C6.11 1.61, 4.68 2.45, 3.82 2.58 C2.96 2.7, 2.02 2.04, 1.45 1.74 C0.88 1.43, 0.62 1.04, 0.38 0.75 C0.14 0.46, 0.06 0.13, 0 0" stroke="#000000" stroke-width="1" fill="none"></path></g></g><mask></mask><g stroke-linecap="round"><g transform="translate(43.72150416456395 47.41957488819179) rotate(0 -2.1448816354053406 -2.0392750476686103)" fill-rule="evenodd"><path d="M0 0 C-0.16 -0.05, -0.64 -0.13, -0.99 -0.29 C-1.34 -0.44, -1.8 -0.66, -2.12 -0.92 C-2.44 -1.18, -2.79 -1.54, -2.92 -1.87 C-3.05 -2.19, -3.04 -2.57, -2.89 -2.88 C-2.74 -3.19, -2.34 -3.49, -2.02 -3.72 C-1.69 -3.96, -0.84 -4.24, -0.93 -4.3 C-1.02 -4.37, -2.09 -4.21, -2.54 -4.11 C-2.99 -4.02, -3.36 -3.93, -3.63 -3.75 C-3.89 -3.56, -4 -3.3, -4.11 -3.02 C-4.22 -2.74, -4.34 -2.35, -4.29 -2.07 C-4.24 -1.78, -3.98 -1.54, -3.79 -1.33 C-3.61 -1.12, -3.4 -0.98, -3.19 -0.83 C-2.99 -0.67, -2.83 -0.52, -2.59 -0.38 C-2.34 -0.23, -2.03 -0.06, -1.73 0.04 C-1.43 0.14, -0.96 0.19, -0.8 0.23" stroke="none" stroke-width="0" fill="#454342" fill-rule="evenodd"></path><path d="M0 0 C-0.16 -0.05, -0.64 -0.13, -0.99 -0.29 C-1.34 -0.44, -1.8 -0.66, -2.12 -0.92 C-2.44 -1.18, -2.79 -1.54, -2.92 -1.87 C-3.05 -2.19, -3.04 -2.57, -2.89 -2.88 C-2.74 -3.19, -2.34 -3.49, -2.02 -3.72 C-1.69 -3.96, -0.84 -4.24, -0.93 -4.3 C-1.02 -4.37, -2.09 -4.21, -2.54 -4.11 C-2.99 -4.02, -3.36 -3.93, -3.63 -3.75 C-3.89 -3.56, -4 -3.3, -4.11 -3.02 C-4.22 -2.74, -4.34 -2.35, -4.29 -2.07 C-4.24 -1.78, -3.98 -1.54, -3.79 -1.33 C-3.61 -1.12, -3.4 -0.98, -3.19 -0.83 C-2.99 -0.67, -2.83 -0.52, -2.59 -0.38 C-2.34 -0.23, -2.03 -0.06, -1.73 0.04 C-1.43 0.14, -0.96 0.19, -0.8 0.23 M0 0 C-0.16 -0.05, -0.64 -0.13, -0.99 -0.29 C-1.34 -0.44, -1.8 -0.66, -2.12 -0.92 C-2.44 -1.18, -2.79 -1.54, -2.92 -1.87 C-3.05 -2.19, -3.04 -2.57, -2.89 -2.88 C-2.74 -3.19, -2.34 -3.49, -2.02 -3.72 C-1.69 -3.96, -0.84 -4.24, -0.93 -4.3 C-1.02 -4.37, -2.09 -4.21, -2.54 -4.11 C-2.99 -4.02, -3.36 -3.93, -3.63 -3.75 C-3.89 -3.56, -4 -3.3, -4.11 -3.02 C-4.22 -2.74, -4.34 -2.35, -4.29 -2.07 C-4.24 -1.78, -3.98 -1.54, -3.79 -1.33 C-3.61 -1.12, -3.4 -0.98, -3.19 -0.83 C-2.99 -0.67, -2.83 -0.52, -2.59 -0.38 C-2.34 -0.23, -2.03 -0.06, -1.73 0.04 C-1.43 0.14, -0.96 0.19, -0.8 0.23" stroke="#454342" stroke-width="1" fill="none"></path></g></g><mask></mask><g stroke-linecap="round"><g transform="translate(39.34007808610761 45.09907967464994) rotate(0 3.426642301909453 0.2637562871560135)"><path d="M0 0 C0.01 -0.17, -0.13 -0.7, 0.08 -0.99 C0.3 -1.28, 0.73 -1.59, 1.29 -1.76 C1.85 -1.94, 2.78 -2.03, 3.43 -2.05 C4.09 -2.07, 4.66 -2.06, 5.23 -1.89 C5.8 -1.72, 6.62 -1.51, 6.85 -1.03 C7.08 -0.54, 7.13 0.41, 6.62 1.01 C6.11 1.61, 4.68 2.45, 3.82 2.58 C2.96 2.7, 2.02 2.04, 1.45 1.74 C0.88 1.43, 0.62 1.04, 0.38 0.75 C0.14 0.46, 0.06 0.13, 0 0 M0 0 C0.01 -0.17, -0.13 -0.7, 0.08 -0.99 C0.3 -1.28, 0.73 -1.59, 1.29 -1.76 C1.85 -1.94, 2.78 -2.03, 3.43 -2.05 C4.09 -2.07, 4.66 -2.06, 5.23 -1.89 C5.8 -1.72, 6.62 -1.51, 6.85 -1.03 C7.08 -0.54, 7.13 0.41, 6.62 1.01 C6.11 1.61, 4.68 2.45, 3.82 2.58 C2.96 2.7, 2.02 2.04, 1.45 1.74 C0.88 1.43, 0.62 1.04, 0.38 0.75 C0.14 0.46, 0.06 0.13, 0 0" stroke="#000000" stroke-width="1" fill="none"></path></g></g><mask></mask><g stroke-linecap="round"><g transform="translate(44.744348360975096 44.01677900610264) rotate(0 0.35631786421026845 0.6102935979416486)" fill-rule="evenodd"><path d="M0 0 C0.1 0.08, 0.49 0.31, 0.61 0.51 C0.73 0.71, 0.7 1.1, 0.71 1.22" stroke="none" stroke-width="0" fill="#454342" fill-rule="evenodd"></path><path d="M0 0 C0.1 0.08, 0.49 0.31, 0.61 0.51 C0.73 0.71, 0.7 1.1, 0.71 1.22 M0 0 C0.1 0.08, 0.49 0.31, 0.61 0.51 C0.73 0.71, 0.7 1.1, 0.71 1.22" stroke="#000000" stroke-width="1" fill="none"></path></g></g><mask></mask><g stroke-linecap="round"><g transform="translate(40.9982246668643 50.8387028266215) rotate(0 0.021338980038365207 0.9389151216875291)"><path d="M0 0 C0.01 0.31, 0.04 1.56, 0.04 1.88 M0 0 C0.01 0.31, 0.04 1.56, 0.04 1.88" stroke="#000000" stroke-width="1" fill="none"></path></g></g><mask></mask><g stroke-linecap="round"><g transform="translate(40.97502311144888 52.453015008028785) rotate(0 2.3607511573030706 -0.333973379106709)" fill-rule="evenodd"><path d="M0 0 C0.06 0.19, 0.1 0.91, 0.36 1.16 C0.62 1.41, 1.09 1.44, 1.56 1.5 C2.03 1.57, 2.73 1.6, 3.18 1.54 C3.64 1.49, 4.04 1.44, 4.29 1.16 C4.54 0.88, 4.62 0.33, 4.69 -0.14 C4.77 -0.61, 4.92 -1.37, 4.74 -1.67 C4.56 -1.98, 4.05 -1.9, 3.6 -1.99 C3.16 -2.08, 2.68 -2.28, 2.07 -2.21 C1.47 -2.14, 0.33 -1.94, -0.02 -1.57 C-0.36 -1.2, 0 -0.26, 0 0" stroke="none" stroke-width="0" fill="#ffffff" fill-rule="evenodd"></path><path d="M0 0 C0.06 0.19, 0.1 0.91, 0.36 1.16 C0.62 1.41, 1.09 1.44, 1.56 1.5 C2.03 1.57, 2.73 1.6, 3.18 1.54 C3.64 1.49, 4.04 1.44, 4.29 1.16 C4.54 0.88, 4.62 0.33, 4.69 -0.14 C4.77 -0.61, 4.92 -1.37, 4.74 -1.67 C4.56 -1.98, 4.05 -1.9, 3.6 -1.99 C3.16 -2.08, 2.68 -2.28, 2.07 -2.21 C1.47 -2.14, 0.33 -1.94, -0.02 -1.57 C-0.36 -1.2, 0 -0.26, 0 0 M0 0 C0.06 0.19, 0.1 0.91, 0.36 1.16 C0.62 1.41, 1.09 1.44, 1.56 1.5 C2.03 1.57, 2.73 1.6, 3.18 1.54 C3.64 1.49, 4.04 1.44, 4.29 1.16 C4.54 0.88, 4.62 0.33, 4.69 -0.14 C4.77 -0.61, 4.92 -1.37, 4.74 -1.67 C4.56 -1.98, 4.05 -1.9, 3.6 -1.99 C3.16 -2.08, 2.68 -2.28, 2.07 -2.21 C1.47 -2.14, 0.33 -1.94, -0.02 -1.57 C-0.36 -1.2, 0 -0.26, 0 0" stroke="#000000" stroke-width="1" fill="none"></path></g></g><mask></mask><g stroke-linecap="round"><g transform="translate(43.26015655092954 50.58263506616083) rotate(0 0.04917009496392666 1.6004235028764526)" fill-rule="evenodd"><path d="M0 0 C0.02 0.24, 0.08 0.89, 0.1 1.42 C0.11 1.95, 0.09 2.9, 0.09 3.2" stroke="none" stroke-width="0" fill="#ffffff" fill-rule="evenodd"></path><path d="M0 0 C0.02 0.24, 0.08 0.89, 0.1 1.42 C0.11 1.95, 0.09 2.9, 0.09 3.2 M0 0 C0.02 0.24, 0.08 0.89, 0.1 1.42 C0.11 1.95, 0.09 2.9, 0.09 3.2" stroke="#000000" stroke-width="1" fill="none"></path></g></g><mask></mask><g stroke-linecap="round"><g transform="translate(59.99531377665437 102.23588682921797) rotate(13.687095229378706 2.1795626137659383 -0.3910768421891646)" fill-rule="evenodd"><path d="M0 0 C0.15 0.19, 0.39 0.73, 0.89 1.17 C1.38 1.61, 2.28 2.53, 2.97 2.64 C3.66 2.75, 4.65 2.28, 5.03 1.84 C5.41 1.4, 5.61 0.79, 5.26 0.01 C4.92 -0.77, 3.62 -2.28, 2.97 -2.85 C2.32 -3.42, 1.87 -3.4, 1.37 -3.42 C0.88 -3.44, 0.38 -3.24, 0 -2.97 C-0.38 -2.69, -0.9 -2.28, -0.9 -1.78 C-0.9 -1.29, -0.15 -0.3, 0 0" stroke="none" stroke-width="0" fill="#ffffff" fill-rule="evenodd"></path><path d="M0 0 C0.15 0.19, 0.39 0.73, 0.89 1.17 C1.38 1.61, 2.28 2.53, 2.97 2.64 C3.66 2.75, 4.65 2.28, 5.03 1.84 C5.41 1.4, 5.61 0.79, 5.26 0.01 C4.92 -0.77, 3.62 -2.28, 2.97 -2.85 C2.32 -3.42, 1.87 -3.4, 1.37 -3.42 C0.88 -3.44, 0.38 -3.24, 0 -2.97 C-0.38 -2.69, -0.9 -2.28, -0.9 -1.78 C-0.9 -1.29, -0.15 -0.3, 0 0 M0 0 C0.15 0.19, 0.39 0.73, 0.89 1.17 C1.38 1.61, 2.28 2.53, 2.97 2.64 C3.66 2.75, 4.65 2.28, 5.03 1.84 C5.41 1.4, 5.61 0.79, 5.26 0.01 C4.92 -0.77, 3.62 -2.28, 2.97 -2.85 C2.32 -3.42, 1.87 -3.4, 1.37 -3.42 C0.88 -3.44, 0.38 -3.24, 0 -2.97 C-0.38 -2.69, -0.9 -2.28, -0.9 -1.78 C-0.9 -1.29, -0.15 -0.3, 0 0" stroke="#000000" stroke-width="1" fill="none"></path></g></g><mask></mask><g stroke-linecap="round"><g transform="translate(17.201557258739058 101.93161757824743) rotate(72.62981121584629 2.189475983157763 -0.5371783960633536)" fill-rule="evenodd"><path d="M0 0 C0.2 0.23, 0.73 0.96, 1.22 1.4 C1.72 1.84, 2.39 2.58, 2.97 2.64 C3.56 2.7, 4.4 2.23, 4.74 1.76 C5.09 1.29, 5.33 0.58, 5.04 -0.19 C4.74 -0.96, 3.58 -2.26, 2.97 -2.85 C2.37 -3.44, 1.9 -3.7, 1.4 -3.72 C0.91 -3.74, 0.34 -3.32, 0 -2.97 C-0.35 -2.61, -0.66 -2.06, -0.66 -1.57 C-0.66 -1.07, -0.11 -0.26, 0 0" stroke="none" stroke-width="0" fill="#ffffff" fill-rule="evenodd"></path><path d="M0 0 C0.2 0.23, 0.73 0.96, 1.22 1.4 C1.72 1.84, 2.39 2.58, 2.97 2.64 C3.56 2.7, 4.4 2.23, 4.74 1.76 C5.09 1.29, 5.33 0.58, 5.04 -0.19 C4.74 -0.96, 3.58 -2.26, 2.97 -2.85 C2.37 -3.44, 1.9 -3.7, 1.4 -3.72 C0.91 -3.74, 0.34 -3.32, 0 -2.97 C-0.35 -2.61, -0.66 -2.06, -0.66 -1.57 C-0.66 -1.07, -0.11 -0.26, 0 0 M0 0 C0.2 0.23, 0.73 0.96, 1.22 1.4 C1.72 1.84, 2.39 2.58, 2.97 2.64 C3.56 2.7, 4.4 2.23, 4.74 1.76 C5.09 1.29, 5.33 0.58, 5.04 -0.19 C4.74 -0.96, 3.58 -2.26, 2.97 -2.85 C2.37 -3.44, 1.9 -3.7, 1.4 -3.72 C0.91 -3.74, 0.34 -3.32, 0 -2.97 C-0.35 -2.61, -0.66 -2.06, -0.66 -1.57 C-0.66 -1.07, -0.11 -0.26, 0 0" stroke="#000000" stroke-width="1" fill="none"></path></g></g><mask></mask><g stroke-linecap="round"><g transform="translate(11.619934402900071 59.08519638103428) rotate(155.1023009552614 1.8374046594310016 -0.07654521289865102)" fill-rule="evenodd"><path d="M0 0 C0.19 0.25, 0.67 0.99, 1.15 1.53 C1.64 2.07, 2.33 3.12, 2.9 3.22 C3.48 3.32, 4.5 2.63, 4.61 2.13 C4.73 1.62, 3.99 0.82, 3.61 0.17 C3.23 -0.49, 2.8 -1.21, 2.35 -1.8 C1.91 -2.39, 1.41 -3.19, 0.94 -3.37 C0.48 -3.55, -0.12 -3.09, -0.43 -2.88 C-0.74 -2.66, -0.89 -2.35, -0.94 -2.07 C-0.99 -1.8, -0.9 -1.59, -0.75 -1.24 C-0.59 -0.9, -0.12 -0.21, 0 0" stroke="none" stroke-width="0" fill="#ffffff" fill-rule="evenodd"></path><path d="M0 0 C0.19 0.25, 0.67 0.99, 1.15 1.53 C1.64 2.07, 2.33 3.12, 2.9 3.22 C3.48 3.32, 4.5 2.63, 4.61 2.13 C4.73 1.62, 3.99 0.82, 3.61 0.17 C3.23 -0.49, 2.8 -1.21, 2.35 -1.8 C1.91 -2.39, 1.41 -3.19, 0.94 -3.37 C0.48 -3.55, -0.12 -3.09, -0.43 -2.88 C-0.74 -2.66, -0.89 -2.35, -0.94 -2.07 C-0.99 -1.8, -0.9 -1.59, -0.75 -1.24 C-0.59 -0.9, -0.12 -0.21, 0 0 M0 0 C0.19 0.25, 0.67 0.99, 1.15 1.53 C1.64 2.07, 2.33 3.12, 2.9 3.22 C3.48 3.32, 4.5 2.63, 4.61 2.13 C4.73 1.62, 3.99 0.82, 3.61 0.17 C3.23 -0.49, 2.8 -1.21, 2.35 -1.8 C1.91 -2.39, 1.41 -3.19, 0.94 -3.37 C0.48 -3.55, -0.12 -3.09, -0.43 -2.88 C-0.74 -2.66, -0.89 -2.35, -0.94 -2.07 C-0.99 -1.8, -0.9 -1.59, -0.75 -1.24 C-0.59 -0.9, -0.12 -0.21, 0 0" stroke="#000000" stroke-width="1" fill="none"></path></g></g><mask></mask><g stroke-linecap="round"><g transform="translate(70.692614586574 59.45420866368704) rotate(271.45101079152755 1.8374046594310016 -0.07654521289865102)" fill-rule="evenodd"><path d="M0 0 C0.19 0.25, 0.67 0.99, 1.15 1.53 C1.64 2.07, 2.33 3.12, 2.9 3.22 C3.48 3.32, 4.5 2.63, 4.61 2.13 C4.73 1.62, 3.99 0.82, 3.61 0.17 C3.23 -0.49, 2.8 -1.21, 2.35 -1.8 C1.91 -2.39, 1.41 -3.19, 0.94 -3.37 C0.48 -3.55, -0.12 -3.09, -0.43 -2.88 C-0.74 -2.66, -0.89 -2.35, -0.94 -2.07 C-0.99 -1.8, -0.9 -1.59, -0.75 -1.24 C-0.59 -0.9, -0.12 -0.21, 0 0" stroke="none" stroke-width="0" fill="#ffffff" fill-rule="evenodd"></path><path d="M0 0 C0.19 0.25, 0.67 0.99, 1.15 1.53 C1.64 2.07, 2.33 3.12, 2.9 3.22 C3.48 3.32, 4.5 2.63, 4.61 2.13 C4.73 1.62, 3.99 0.82, 3.61 0.17 C3.23 -0.49, 2.8 -1.21, 2.35 -1.8 C1.91 -2.39, 1.41 -3.19, 0.94 -3.37 C0.48 -3.55, -0.12 -3.09, -0.43 -2.88 C-0.74 -2.66, -0.89 -2.35, -0.94 -2.07 C-0.99 -1.8, -0.9 -1.59, -0.75 -1.24 C-0.59 -0.9, -0.12 -0.21, 0 0 M0 0 C0.19 0.25, 0.67 0.99, 1.15 1.53 C1.64 2.07, 2.33 3.12, 2.9 3.22 C3.48 3.32, 4.5 2.63, 4.61 2.13 C4.73 1.62, 3.99 0.82, 3.61 0.17 C3.23 -0.49, 2.8 -1.21, 2.35 -1.8 C1.91 -2.39, 1.41 -3.19, 0.94 -3.37 C0.48 -3.55, -0.12 -3.09, -0.43 -2.88 C-0.74 -2.66, -0.89 -2.35, -0.94 -2.07 C-0.99 -1.8, -0.9 -1.59, -0.75 -1.24 C-0.59 -0.9, -0.12 -0.21, 0 0" stroke="#000000" stroke-width="1" fill="none"></path></g></g><mask></mask><g stroke-linecap="round" transform="translate(49.04368087443959 64.90987449453996) rotate(16.687830541157332 7.4452023257013025 7.327024511007636)"><path d="M6.88 0.53 C8.52 0.34, 10.78 0.42, 12.15 1.17 C13.52 1.92, 14.84 3.44, 15.1 5.03 C15.37 6.61, 14.44 9.16, 13.72 10.67 C13 12.19, 12.14 13.54, 10.79 14.12 C9.44 14.71, 7.26 14.63, 5.62 14.19 C3.97 13.75, 1.94 12.71, 0.94 11.48 C-0.06 10.25, -0.63 8.43, -0.39 6.8 C-0.15 5.18, 1.23 2.9, 2.4 1.74 C3.57 0.58, 5.87 0.16, 6.63 -0.16 C7.39 -0.48, 6.89 -0.25, 6.97 -0.18 M7.22 0.02 C8.79 0.18, 11.12 1.41, 12.43 2.37 C13.73 3.33, 14.98 4.26, 15.07 5.78 C15.15 7.29, 13.77 10.07, 12.96 11.45 C12.16 12.84, 11.75 13.58, 10.25 14.08 C8.74 14.58, 5.4 15, 3.94 14.47 C2.48 13.93, 2.07 12.28, 1.49 10.87 C0.9 9.45, 0.17 7.57, 0.44 6 C0.71 4.43, 1.89 2.33, 3.11 1.45 C4.33 0.56, 6.95 0.93, 7.75 0.68 C8.54 0.42, 7.98 -0.22, 7.88 -0.1" stroke="none" stroke-width="0" fill="#cde9e9"></path><path d="M8.92 0.61 C10.47 0.81, 12.54 1.42, 13.52 2.54 C14.51 3.65, 14.96 5.66, 14.84 7.3 C14.72 8.94, 13.9 11.22, 12.81 12.36 C11.71 13.5, 9.86 13.99, 8.27 14.14 C6.67 14.3, 4.51 14.08, 3.25 13.29 C1.99 12.5, 1.22 10.94, 0.72 9.39 C0.23 7.85, -0.3 5.41, 0.28 4.02 C0.86 2.62, 2.65 1.73, 4.19 1.04 C5.74 0.36, 8.64 0.04, 9.53 -0.09 C10.42 -0.23, 9.56 0.02, 9.54 0.23 M6.18 0.23 C7.76 -0.04, 10.16 0.01, 11.69 0.9 C13.22 1.8, 15.04 4.06, 15.34 5.58 C15.65 7.1, 14.35 8.67, 13.53 10.05 C12.7 11.43, 11.63 13.03, 10.39 13.86 C9.15 14.68, 7.68 15.34, 6.09 15.01 C4.51 14.67, 1.84 13.39, 0.89 11.86 C-0.07 10.33, 0.03 7.5, 0.38 5.83 C0.73 4.16, 1.79 2.92, 2.98 1.87 C4.18 0.81, 7 -0.32, 7.57 -0.5 C8.14 -0.67, 6.61 0.66, 6.39 0.79" stroke="#343a40" stroke-width="1" fill="none"></path></g><g stroke-linecap="round"><g transform="translate(55.19257117952486 76.80385668479033) rotate(13.170412991716741 1.1809408284304368 -4.254172335880526)" fill-rule="evenodd"><path d="M-0.69 0.45 C-0.99 -0.39, -2.25 -3.85, -2.78 -5.37 C-3.3 -6.9, -4.09 -8.27, -3.84 -8.69 C-3.58 -9.11, -1.98 -8.2, -1.24 -7.88 C-0.51 -7.57, -0.35 -6.8, 0.57 -6.8 C1.48 -6.81, 3.59 -7.51, 4.27 -7.9 C4.95 -8.3, 4.44 -9.68, 4.67 -9.19 C4.9 -8.7, 5.99 -6.58, 5.64 -4.96 C5.29 -3.34, 3.58 -0.42, 2.56 0.54 C1.54 1.51, -0.19 1.15, -0.48 0.84" stroke="none" stroke-width="0" fill="#ffcaca" fill-rule="evenodd"></path><path d="M0.33 -0.16 C-0.29 -1, -3.01 -3.78, -3.47 -5.16 C-3.94 -6.55, -3.01 -7.94, -2.46 -8.47 C-1.91 -8.99, -0.65 -8.73, -0.16 -8.31 C0.33 -7.88, -0.05 -5.98, 0.48 -5.92 C1.02 -5.87, 2.19 -7.57, 3.03 -7.98 C3.86 -8.38, 5.03 -8.95, 5.47 -8.35 C5.92 -7.75, 6.39 -5.61, 5.69 -4.36 C4.98 -3.12, 2.2 -1.62, 1.24 -0.87 C0.29 -0.13, 0.08 -0.07, -0.05 0.1 M0.07 0.52 C-0.62 -0.26, -3.33 -3.37, -3.77 -4.8 C-4.2 -6.23, -3.12 -7.51, -2.54 -8.04 C-1.95 -8.58, -0.82 -8.37, -0.24 -8 C0.34 -7.63, 0.35 -5.78, 0.96 -5.83 C1.57 -5.88, 2.69 -7.8, 3.44 -8.3 C4.2 -8.79, 5.18 -9.45, 5.49 -8.78 C5.81 -8.12, 6.12 -5.72, 5.33 -4.31 C4.54 -2.9, 1.62 -1.04, 0.74 -0.32 C-0.14 0.39, 0.05 -0.13, 0.03 0" stroke="#343a40" stroke-width="1" fill="none"></path></g></g><mask></mask><g stroke-linecap="round" transform="translate(57.42703363007229 66.3098333946948) rotate(16.687830541157332 0.6725856098210556 0.7337297561684863)"><path d="M1.1 -0.23 C1.13 -0.17, 0.8 0.27, 0.85 0.45 C0.91 0.63, 1.39 0.74, 1.45 0.84 C1.51 0.94, 1.39 0.95, 1.23 1.05 C1.07 1.14, 0.7 1.34, 0.51 1.4 C0.32 1.46, 0.12 1.54, 0.07 1.42 C0.02 1.3, 0.24 0.87, 0.21 0.7 C0.17 0.52, -0.17 0.51, -0.17 0.37 C-0.16 0.23, 0.05 -0.01, 0.22 -0.12 C0.39 -0.23, 0.74 -0.3, 0.85 -0.31 C0.96 -0.32, 0.94 -0.2, 0.88 -0.19 M0.82 -0.48 C0.9 -0.52, 0.48 0.08, 0.64 0.23 C0.81 0.38, 1.75 0.23, 1.79 0.43 C1.83 0.62, 0.97 1.19, 0.9 1.38 C0.83 1.58, 1.42 1.55, 1.37 1.6 C1.32 1.65, 0.8 1.76, 0.6 1.68 C0.4 1.59, 0.27 1.21, 0.15 1.1 C0.04 1, -0.1 1.23, -0.09 1.05 C-0.08 0.86, 0.18 0.1, 0.24 0 C0.29 -0.1, 0.17 0.38, 0.23 0.44 C0.28 0.49, 0.54 0.38, 0.56 0.32" stroke="none" stroke-width="0" fill="#868e96"></path><path d="M0.74 -0.3 C0.86 -0.24, 1.04 0.13, 1.14 0.25 C1.23 0.36, 1.32 0.26, 1.32 0.4 C1.32 0.54, 1.17 0.91, 1.13 1.08 C1.1 1.25, 1.25 1.42, 1.09 1.43 C0.92 1.43, 0.3 1.15, 0.14 1.11 C-0.03 1.07, 0.11 1.33, 0.11 1.19 C0.1 1.05, 0.08 0.48, 0.1 0.27 C0.12 0.06, 0.11 -0.04, 0.24 -0.05 C0.38 -0.07, 0.81 0.2, 0.88 0.17 C0.96 0.14, 0.72 -0.16, 0.69 -0.23 M1.15 0.02 C1.24 0.02, 0.7 -0.22, 0.72 -0.13 C0.74 -0.05, 1.12 0.25, 1.28 0.53 C1.45 0.81, 1.82 1.35, 1.71 1.55 C1.59 1.75, 0.79 1.83, 0.62 1.72 C0.44 1.62, 0.65 1.05, 0.64 0.92 C0.63 0.79, 0.58 1.06, 0.55 0.94 C0.52 0.83, 0.55 0.29, 0.44 0.23 C0.34 0.17, -0.06 0.65, -0.1 0.57 C-0.13 0.48, 0.16 -0.18, 0.22 -0.3 C0.29 -0.42, 0.27 -0.16, 0.32 -0.16" stroke="#343a40" stroke-width="1" fill="none"></path></g></svg>