<svg version="1.1" xmlns="http://www.w3.org/2000/svg" viewBox="0 0 86.17857359899142 116.67244566466283" width="86.17857359899142" height="116.67244566466283">
  <!-- svg-source:excalidraw -->
  
  <defs>
    <style class="style-fonts">
      
    </style>
    
  </defs>
  <rect x="0" y="0" width="86.17857359899142" height="116.67244566466283" fill="#ffffff"></rect><g stroke-linecap="round"><g transform="translate(73.15453902110187 75.6268564578902) rotate(0 -30.630179280986084 -17.31921360949839)" fill-rule="evenodd"><path d="M0 0 C-0.2 1.82, -0.21 7.34, -1.22 10.91 C-2.22 14.49, -3.64 18.59, -6.03 21.45 C-8.41 24.31, -11.62 26.5, -15.53 28.06 C-19.44 29.62, -24.69 30.5, -29.47 30.82 C-34.26 31.13, -39.87 31.1, -44.23 29.96 C-48.59 28.82, -52.8 27.49, -55.64 23.99 C-58.47 20.5, -60.36 18.41, -61.25 8.97 C-62.13 -0.47, -62.19 -22.15, -60.95 -32.66 C-59.71 -43.17, -55.28 -50.05, -53.82 -54.09 C-52.35 -58.13, -52.46 -56.39, -52.17 -56.9 C-51.87 -57.41, -51.85 -56.7, -52.07 -57.16 C-52.29 -57.63, -53.14 -58.84, -53.49 -59.67 C-53.83 -60.51, -54.16 -61.38, -54.13 -62.16 C-54.1 -62.94, -53.75 -63.79, -53.31 -64.35 C-52.87 -64.9, -52.1 -65.3, -51.48 -65.49 C-50.86 -65.68, -50.17 -65.66, -49.61 -65.5 C-49.04 -65.34, -48.61 -65.02, -48.08 -64.54 C-47.56 -64.07, -46.95 -63.17, -46.43 -62.65 C-45.91 -62.13, -45.42 -61.51, -44.97 -61.4 C-44.52 -61.3, -46.44 -61.52, -43.74 -62.04 C-41.05 -62.55, -33.44 -64.4, -28.79 -64.51 C-24.13 -64.62, -18.88 -63.31, -15.8 -62.69 C-12.73 -62.07, -11.34 -61.12, -10.32 -60.79 C-9.3 -60.46, -10.1 -60.36, -9.69 -60.72 C-9.28 -61.07, -8.41 -62.35, -7.84 -62.92 C-7.28 -63.49, -6.82 -63.86, -6.29 -64.14 C-5.76 -64.43, -5.26 -64.66, -4.65 -64.65 C-4.05 -64.63, -3.17 -64.4, -2.66 -64.04 C-2.15 -63.69, -1.75 -63.16, -1.61 -62.5 C-1.47 -61.85, -1.42 -61.14, -1.82 -60.11 C-2.22 -59.08, -3.75 -57.09, -4.04 -56.34 C-4.32 -55.59, -3.96 -56.59, -3.55 -55.59 C-3.14 -54.6, -2.27 -54.21, -1.58 -50.36 C-0.89 -46.5, 0.32 -40.85, 0.58 -32.46 C0.84 -24.06, 0.1 -5.41, 0 0" stroke="none" stroke-width="0" fill="#d0bfff" fill-rule="evenodd"></path><path d="M0 0 C-0.2 1.82, -0.21 7.34, -1.22 10.91 C-2.22 14.49, -3.64 18.59, -6.03 21.45 C-8.41 24.31, -11.62 26.5, -15.53 28.06 C-19.44 29.62, -24.69 30.5, -29.47 30.82 C-34.26 31.13, -39.87 31.1, -44.23 29.96 C-48.59 28.82, -52.8 27.49, -55.64 23.99 C-58.47 20.5, -60.36 18.41, -61.25 8.97 C-62.13 -0.47, -62.19 -22.15, -60.95 -32.66 C-59.71 -43.17, -55.28 -50.05, -53.82 -54.09 C-52.35 -58.13, -52.46 -56.39, -52.17 -56.9 C-51.87 -57.41, -51.85 -56.7, -52.07 -57.16 C-52.29 -57.63, -53.14 -58.84, -53.49 -59.67 C-53.83 -60.51, -54.16 -61.38, -54.13 -62.16 C-54.1 -62.94, -53.75 -63.79, -53.31 -64.35 C-52.87 -64.9, -52.1 -65.3, -51.48 -65.49 C-50.86 -65.68, -50.17 -65.66, -49.61 -65.5 C-49.04 -65.34, -48.61 -65.02, -48.08 -64.54 C-47.56 -64.07, -46.95 -63.17, -46.43 -62.65 C-45.91 -62.13, -45.42 -61.51, -44.97 -61.4 C-44.52 -61.3, -46.44 -61.52, -43.74 -62.04 C-41.05 -62.55, -33.44 -64.4, -28.79 -64.51 C-24.13 -64.62, -18.88 -63.31, -15.8 -62.69 C-12.73 -62.07, -11.34 -61.12, -10.32 -60.79 C-9.3 -60.46, -10.1 -60.36, -9.69 -60.72 C-9.28 -61.07, -8.41 -62.35, -7.84 -62.92 C-7.28 -63.49, -6.82 -63.86, -6.29 -64.14 C-5.76 -64.43, -5.26 -64.66, -4.65 -64.65 C-4.05 -64.63, -3.17 -64.4, -2.66 -64.04 C-2.15 -63.69, -1.75 -63.16, -1.61 -62.5 C-1.47 -61.85, -1.42 -61.14, -1.82 -60.11 C-2.22 -59.08, -3.75 -57.09, -4.04 -56.34 C-4.32 -55.59, -3.96 -56.59, -3.55 -55.59 C-3.14 -54.6, -2.27 -54.21, -1.58 -50.36 C-0.89 -46.5, 0.32 -40.85, 0.58 -32.46 C0.84 -24.06, 0.1 -5.41, 0 0 M0 0 C-0.2 1.82, -0.21 7.34, -1.22 10.91 C-2.22 14.49, -3.64 18.59, -6.03 21.45 C-8.41 24.31, -11.62 26.5, -15.53 28.06 C-19.44 29.62, -24.69 30.5, -29.47 30.82 C-34.26 31.13, -39.87 31.1, -44.23 29.96 C-48.59 28.82, -52.8 27.49, -55.64 23.99 C-58.47 20.5, -60.36 18.41, -61.25 8.97 C-62.13 -0.47, -62.19 -22.15, -60.95 -32.66 C-59.71 -43.17, -55.28 -50.05, -53.82 -54.09 C-52.35 -58.13, -52.46 -56.39, -52.17 -56.9 C-51.87 -57.41, -51.85 -56.7, -52.07 -57.16 C-52.29 -57.63, -53.14 -58.84, -53.49 -59.67 C-53.83 -60.51, -54.16 -61.38, -54.13 -62.16 C-54.1 -62.94, -53.75 -63.79, -53.31 -64.35 C-52.87 -64.9, -52.1 -65.3, -51.48 -65.49 C-50.86 -65.68, -50.17 -65.66, -49.61 -65.5 C-49.04 -65.34, -48.61 -65.02, -48.08 -64.54 C-47.56 -64.07, -46.95 -63.17, -46.43 -62.65 C-45.91 -62.13, -45.42 -61.51, -44.97 -61.4 C-44.52 -61.3, -46.44 -61.52, -43.74 -62.04 C-41.05 -62.55, -33.44 -64.4, -28.79 -64.51 C-24.13 -64.62, -18.88 -63.31, -15.8 -62.69 C-12.73 -62.07, -11.34 -61.12, -10.32 -60.79 C-9.3 -60.46, -10.1 -60.36, -9.69 -60.72 C-9.28 -61.07, -8.41 -62.35, -7.84 -62.92 C-7.28 -63.49, -6.82 -63.86, -6.29 -64.14 C-5.76 -64.43, -5.26 -64.66, -4.65 -64.65 C-4.05 -64.63, -3.17 -64.4, -2.66 -64.04 C-2.15 -63.69, -1.75 -63.16, -1.61 -62.5 C-1.47 -61.85, -1.42 -61.14, -1.82 -60.11 C-2.22 -59.08, -3.75 -57.09, -4.04 -56.34 C-4.32 -55.59, -3.96 -56.59, -3.55 -55.59 C-3.14 -54.6, -2.27 -54.21, -1.58 -50.36 C-0.89 -46.5, 0.32 -40.85, 0.58 -32.46 C0.84 -24.06, 0.1 -5.41, 0 0" stroke="#000000" stroke-width="1" fill="none"></path></g></g><mask></mask><g stroke-linecap="round"><g transform="translate(73.15453902110187 75.68401642576941) rotate(0 -30.630179280986084 -16.829228741926265)" fill-rule="evenodd"><path d="M0 0 C-0.2 1.82, -0.21 7.34, -1.22 10.91 C-2.22 14.49, -3.64 18.59, -6.03 21.45 C-8.41 24.31, -11.62 26.5, -15.53 28.06 C-19.44 29.62, -24.69 30.5, -29.47 30.82 C-34.26 31.13, -39.87 31.1, -44.23 29.96 C-48.59 28.82, -52.8 27.49, -55.64 23.99 C-58.47 20.5, -60.36 18.41, -61.25 8.97 C-62.13 -0.47, -62.19 -22.15, -60.95 -32.66 C-59.71 -43.17, -56.64 -49.22, -53.82 -54.09 C-51 -58.97, -48.21 -60.17, -44.04 -61.9 C-39.87 -63.64, -33.49 -64.37, -28.79 -64.51 C-24.08 -64.64, -18.88 -63.31, -15.8 -62.69 C-12.73 -62.07, -11.34 -61.12, -10.32 -60.79 C-9.3 -60.46, -10.1 -60.36, -9.69 -60.72 C-9.28 -61.07, -8.41 -62.35, -7.84 -62.92 C-7.28 -63.49, -6.82 -63.86, -6.29 -64.14 C-5.76 -64.43, -5.26 -64.66, -4.65 -64.65 C-4.05 -64.63, -3.17 -64.4, -2.66 -64.04 C-2.15 -63.69, -1.75 -63.16, -1.61 -62.5 C-1.47 -61.85, -1.42 -61.14, -1.82 -60.11 C-2.22 -59.08, -3.75 -57.09, -4.04 -56.34 C-4.32 -55.59, -3.96 -56.59, -3.55 -55.59 C-3.14 -54.6, -2.27 -54.21, -1.58 -50.36 C-0.89 -46.5, 0.32 -40.85, 0.58 -32.46 C0.84 -24.06, 0.1 -5.41, 0 0" stroke="none" stroke-width="0" fill="#d0bfff" fill-rule="evenodd"></path><path d="M0 0 C-0.2 1.82, -0.21 7.34, -1.22 10.91 C-2.22 14.49, -3.64 18.59, -6.03 21.45 C-8.41 24.31, -11.62 26.5, -15.53 28.06 C-19.44 29.62, -24.69 30.5, -29.47 30.82 C-34.26 31.13, -39.87 31.1, -44.23 29.96 C-48.59 28.82, -52.8 27.49, -55.64 23.99 C-58.47 20.5, -60.36 18.41, -61.25 8.97 C-62.13 -0.47, -62.19 -22.15, -60.95 -32.66 C-59.71 -43.17, -56.64 -49.22, -53.82 -54.09 C-51 -58.97, -48.21 -60.17, -44.04 -61.9 C-39.87 -63.64, -33.49 -64.37, -28.79 -64.51 C-24.08 -64.64, -18.88 -63.31, -15.8 -62.69 C-12.73 -62.07, -11.34 -61.12, -10.32 -60.79 C-9.3 -60.46, -10.1 -60.36, -9.69 -60.72 C-9.28 -61.07, -8.41 -62.35, -7.84 -62.92 C-7.28 -63.49, -6.82 -63.86, -6.29 -64.14 C-5.76 -64.43, -5.26 -64.66, -4.65 -64.65 C-4.05 -64.63, -3.17 -64.4, -2.66 -64.04 C-2.15 -63.69, -1.75 -63.16, -1.61 -62.5 C-1.47 -61.85, -1.42 -61.14, -1.82 -60.11 C-2.22 -59.08, -3.75 -57.09, -4.04 -56.34 C-4.32 -55.59, -3.96 -56.59, -3.55 -55.59 C-3.14 -54.6, -2.27 -54.21, -1.58 -50.36 C-0.89 -46.5, 0.32 -40.85, 0.58 -32.46 C0.84 -24.06, 0.1 -5.41, 0 0 M0 0 C-0.2 1.82, -0.21 7.34, -1.22 10.91 C-2.22 14.49, -3.64 18.59, -6.03 21.45 C-8.41 24.31, -11.62 26.5, -15.53 28.06 C-19.44 29.62, -24.69 30.5, -29.47 30.82 C-34.26 31.13, -39.87 31.1, -44.23 29.96 C-48.59 28.82, -52.8 27.49, -55.64 23.99 C-58.47 20.5, -60.36 18.41, -61.25 8.97 C-62.13 -0.47, -62.19 -22.15, -60.95 -32.66 C-59.71 -43.17, -56.64 -49.22, -53.82 -54.09 C-51 -58.97, -48.21 -60.17, -44.04 -61.9 C-39.87 -63.64, -33.49 -64.37, -28.79 -64.51 C-24.08 -64.64, -18.88 -63.31, -15.8 -62.69 C-12.73 -62.07, -11.34 -61.12, -10.32 -60.79 C-9.3 -60.46, -10.1 -60.36, -9.69 -60.72 C-9.28 -61.07, -8.41 -62.35, -7.84 -62.92 C-7.28 -63.49, -6.82 -63.86, -6.29 -64.14 C-5.76 -64.43, -5.26 -64.66, -4.65 -64.65 C-4.05 -64.63, -3.17 -64.4, -2.66 -64.04 C-2.15 -63.69, -1.75 -63.16, -1.61 -62.5 C-1.47 -61.85, -1.42 -61.14, -1.82 -60.11 C-2.22 -59.08, -3.75 -57.09, -4.04 -56.34 C-4.32 -55.59, -3.96 -56.59, -3.55 -55.59 C-3.14 -54.6, -2.27 -54.21, -1.58 -50.36 C-0.89 -46.5, 0.32 -40.85, 0.58 -32.46 C0.84 -24.06, 0.1 -5.41, 0 0" stroke="#000000" stroke-width="1" fill="none"></path></g></g><mask></mask><g stroke-linecap="round"><g transform="translate(61.142695117660196 14.23050398783198) rotate(0 4.3893835556588385 3.0202180428845296)"><path d="M0 0 C0.7 0.38, 2.91 1.42, 4.23 2.26 C5.54 3.09, 7.13 4.36, 7.89 4.99 C8.65 5.62, 8.63 5.87, 8.78 6.04 M0 0 C0.7 0.38, 2.91 1.42, 4.23 2.26 C5.54 3.09, 7.13 4.36, 7.89 4.99 C8.65 5.62, 8.63 5.87, 8.78 6.04" stroke="#000000" stroke-width="1" fill="none"></path></g></g><mask></mask><g stroke-linecap="round"><g transform="translate(66.36797624068174 16.969115764794253) rotate(0 0.6743903104007245 -1.7166298810199976)" fill-rule="evenodd"><path d="M0 0 C0.12 -0.27, 0.51 -1.02, 0.74 -1.59 C0.96 -2.17, 1.25 -3.13, 1.35 -3.43" stroke="none" stroke-width="0" fill="#d0bfff" fill-rule="evenodd"></path><path d="M0 0 C0.12 -0.27, 0.51 -1.02, 0.74 -1.59 C0.96 -2.17, 1.25 -3.13, 1.35 -3.43 M0 0 C0.12 -0.27, 0.51 -1.02, 0.74 -1.59 C0.96 -2.17, 1.25 -3.13, 1.35 -3.43" stroke="#000000" stroke-width="1" fill="none"></path></g></g><mask></mask><g stroke-linecap="round"><g transform="translate(69.51300726362228 15.261703593360153) rotate(0 -1.5815143561268599 0.7785916830163018)" fill-rule="evenodd"><path d="M0 0 C-0.26 0.06, -1.03 0.13, -1.56 0.39 C-2.08 0.65, -2.9 1.36, -3.16 1.56" stroke="none" stroke-width="0" fill="#d0bfff" fill-rule="evenodd"></path><path d="M0 0 C-0.26 0.06, -1.03 0.13, -1.56 0.39 C-2.08 0.65, -2.9 1.36, -3.16 1.56 M0 0 C-0.26 0.06, -1.03 0.13, -1.56 0.39 C-2.08 0.65, -2.9 1.36, -3.16 1.56" stroke="#000000" stroke-width="1" fill="none"></path></g></g><mask></mask><g stroke-opacity="0.5" fill-opacity="0.5" stroke-linecap="round" transform="translate(19.948322578424495 68.0914555227962) rotate(0 21.587545572086782 17.55025845882234)"><path d="M31.31 1.61 C35.34 2.99, 38.97 7.85, 40.91 11.27 C42.86 14.7, 44.08 18.65, 42.96 22.15 C41.85 25.66, 38.05 30.15, 34.23 32.3 C30.41 34.45, 24.77 35.49, 20.07 35.05 C15.36 34.6, 9.32 32.41, 5.98 29.63 C2.64 26.85, 0.46 21.97, 0.02 18.35 C-0.42 14.74, 0.61 11.06, 3.35 7.94 C6.09 4.81, 11.06 0.38, 16.45 -0.4 C21.84 -1.19, 32.18 2.13, 35.69 3.24 C39.2 4.34, 37.89 5.85, 37.51 6.21 M11.25 2.5 C15.01 0.79, 21.71 0.98, 26.51 1.84 C31.31 2.69, 37.35 4.66, 40.05 7.63 C42.76 10.6, 43.35 15.76, 42.74 19.66 C42.14 23.56, 39.63 28.32, 36.42 31.03 C33.21 33.75, 28.01 35.9, 23.49 35.95 C18.97 36, 13.22 33.46, 9.31 31.34 C5.39 29.22, 1.03 26.74, 0 23.24 C-1.04 19.74, 1.19 13.87, 3.09 10.36 C4.99 6.85, 9.65 3.58, 11.39 2.18 C13.13 0.79, 13.16 2.01, 13.53 2" stroke="none" stroke-width="0" fill="#d0bfff"></path><path d="M11.61 1.51 C15.2 -0.34, 20.63 0.46, 25.17 1.16 C29.7 1.86, 35.92 2.85, 38.81 5.7 C41.7 8.55, 42.66 14.24, 42.51 18.26 C42.37 22.29, 40.86 27.17, 37.96 29.83 C35.05 32.49, 29.68 33.69, 25.08 34.24 C20.48 34.79, 14.3 34.89, 10.36 33.12 C6.42 31.35, 2.93 27.42, 1.46 23.64 C0 19.86, -0.76 14.28, 1.59 10.46 C3.94 6.64, 12.27 2.25, 15.56 0.71 C18.85 -0.82, 21.06 1.03, 21.33 1.26 M21.6 -0.18 C25.99 -0.36, 34.13 1.49, 37.64 4.33 C41.14 7.17, 42.28 13.05, 42.61 16.87 C42.95 20.69, 41.97 24.17, 39.63 27.26 C37.3 30.34, 33.17 34.09, 28.59 35.39 C24.02 36.69, 16.44 36.49, 12.19 35.05 C7.94 33.61, 5.04 30.29, 3.08 26.74 C1.11 23.19, -0.62 17.77, 0.38 13.75 C1.39 9.73, 5.42 4.95, 9.11 2.62 C12.81 0.29, 20.2 0.02, 22.54 -0.22 C24.87 -0.47, 23.2 0.78, 23.1 1.17" stroke="#000000" stroke-width="1" fill="none"></path></g><g stroke-linecap="round"><g transform="translate(22.185749022006917 16.680967353711708) rotate(294.1768782491122 0.3896562245602979 -1.7302804248918449)" fill-rule="evenodd"><path d="M0 0 C0.12 -0.27, 0.62 -1.02, 0.74 -1.59 C0.85 -2.17, 0.7 -3.15, 0.69 -3.46" stroke="none" stroke-width="0" fill="#d0bfff" fill-rule="evenodd"></path><path d="M0 0 C0.12 -0.27, 0.62 -1.02, 0.74 -1.59 C0.85 -2.17, 0.7 -3.15, 0.69 -3.46 M0 0 C0.12 -0.27, 0.62 -1.02, 0.74 -1.59 C0.85 -2.17, 0.7 -3.15, 0.69 -3.46" stroke="#000000" stroke-width="1" fill="none"></path></g></g><mask></mask><g stroke-linecap="round"><g transform="translate(24.571122744664592 13.303821998845933) rotate(294.1768782491122 -1.2233070034378954 1.0995487725948223)" fill-rule="evenodd"><path d="M0 0 C-0.14 0.17, -0.43 0.66, -0.84 1.03 C-1.25 1.4, -2.18 2, -2.45 2.2" stroke="none" stroke-width="0" fill="#d0bfff" fill-rule="evenodd"></path><path d="M0 0 C-0.14 0.17, -0.43 0.66, -0.84 1.03 C-1.25 1.4, -2.18 2, -2.45 2.2 M0 0 C-0.14 0.17, -0.43 0.66, -0.84 1.03 C-1.25 1.4, -2.18 2, -2.45 2.2" stroke="#000000" stroke-width="1" fill="none"></path></g></g><mask></mask><g stroke-linecap="round" transform="translate(50.252800510510326 21.03505205865514) rotate(0 12.885944411733163 13.012899529090156)"><path d="M16.02 0.44 C18.62 0.89, 21.89 2.98, 23.5 5.18 C25.11 7.37, 25.9 10.85, 25.7 13.59 C25.5 16.33, 24.24 19.52, 22.31 21.63 C20.38 23.74, 16.84 25.95, 14.12 26.26 C11.39 26.57, 8.18 25.1, 5.96 23.48 C3.74 21.85, 1.7 19.15, 0.8 16.49 C-0.1 13.83, -0.42 10.02, 0.57 7.52 C1.57 5.02, 4.26 2.67, 6.78 1.48 C9.3 0.29, 14.01 0.58, 15.69 0.4 C17.37 0.22, 16.77 0.2, 16.83 0.38 M15.38 0.59 C17.87 1.06, 21.07 3.32, 22.8 5.54 C24.53 7.77, 25.8 11.27, 25.75 13.92 C25.7 16.56, 24.41 19.32, 22.5 21.41 C20.59 23.5, 16.96 25.99, 14.31 26.45 C11.67 26.91, 8.97 25.67, 6.61 24.15 C4.24 22.62, 0.99 19.97, 0.12 17.31 C-0.75 14.64, 0.26 10.88, 1.4 8.16 C2.54 5.44, 4.57 2.38, 6.97 0.97 C9.38 -0.45, 14.32 -0.19, 15.82 -0.32 C17.32 -0.46, 16.03 -0.13, 15.98 0.16" stroke="none" stroke-width="0" fill="#ffffff"></path><path d="M15.11 0.35 C17.71 0.84, 21.28 3.09, 23.09 5.2 C24.9 7.3, 26.04 10.2, 25.96 13 C25.88 15.79, 24.44 19.75, 22.61 21.94 C20.79 24.14, 17.73 25.86, 15 26.17 C12.26 26.49, 8.62 25.32, 6.2 23.82 C3.78 22.33, 1.32 19.73, 0.48 17.21 C-0.36 14.69, 0.04 11.34, 1.14 8.71 C2.23 6.09, 4.62 2.79, 7.05 1.46 C9.49 0.14, 14.25 0.95, 15.75 0.74 C17.25 0.54, 16.12 0, 16.05 0.21 M11.91 0.07 C14.62 -0.33, 18.63 1.21, 20.81 2.95 C22.98 4.68, 24.27 7.76, 24.95 10.48 C25.63 13.21, 26.04 16.89, 24.89 19.31 C23.75 21.72, 20.65 24.03, 18.1 25 C15.55 25.97, 12.29 25.91, 9.62 25.12 C6.95 24.33, 3.66 22.39, 2.09 20.23 C0.52 18.06, -0.03 14.86, 0.2 12.13 C0.43 9.4, 1.48 5.81, 3.48 3.87 C5.48 1.93, 10.67 1.09, 12.19 0.48 C13.71 -0.13, 12.54 0.02, 12.6 0.2" stroke="#000000" stroke-width="1" fill="none"></path></g><g stroke-linecap="round" transform="translate(11.277579481918565 21.134665199099743) rotate(0 12.885944411733163 13.012899529090156)"><path d="M12.61 0.03 C15.17 -0.29, 18.49 0.94, 20.63 2.58 C22.77 4.23, 24.88 7.12, 25.44 9.91 C25.99 12.7, 25.22 16.86, 23.97 19.3 C22.72 21.74, 20.38 23.58, 17.94 24.55 C15.49 25.51, 12.02 25.91, 9.29 25.08 C6.57 24.26, 3.18 21.89, 1.61 19.61 C0.04 17.34, -0.48 14.11, -0.13 11.42 C0.22 8.72, 1.41 5.41, 3.7 3.44 C5.99 1.47, 11.82 0.17, 13.59 -0.39 C15.37 -0.94, 14.36 -0.21, 14.36 0.11 M13.04 0.56 C15.69 0.5, 19.34 2.05, 21.45 3.76 C23.55 5.47, 25.33 8.06, 25.67 10.83 C26 13.61, 24.84 17.97, 23.47 20.41 C22.1 22.85, 20.12 24.64, 17.47 25.46 C14.83 26.29, 10.19 26.41, 7.61 25.36 C5.03 24.32, 3.2 21.78, 2 19.19 C0.8 16.6, -0.11 12.64, 0.42 9.81 C0.94 6.97, 2.95 3.89, 5.17 2.19 C7.39 0.5, 12.36 -0.03, 13.75 -0.37 C15.14 -0.71, 13.47 -0.05, 13.5 0.15" stroke="none" stroke-width="0" fill="#ffffff"></path><path d="M9.91 0.68 C12.5 -0.19, 16.27 -0.25, 18.74 0.98 C21.21 2.21, 23.6 5.4, 24.72 8.05 C25.84 10.7, 26.23 14.32, 25.46 16.9 C24.69 19.48, 22.47 21.99, 20.11 23.51 C17.76 25.03, 14.05 26.17, 11.34 26 C8.63 25.84, 5.69 24.53, 3.86 22.49 C2.03 20.46, 0.59 16.57, 0.36 13.79 C0.14 11, 0.8 8.12, 2.52 5.79 C4.24 3.46, 9.24 0.64, 10.69 -0.19 C12.14 -1.03, 11.24 0.51, 11.22 0.77 M16.18 0.84 C18.7 1.38, 21.08 3.61, 22.75 5.86 C24.41 8.11, 26.23 11.65, 26.15 14.34 C26.06 17.03, 24.13 20.14, 22.22 22 C20.31 23.86, 17.43 25.2, 14.68 25.5 C11.93 25.8, 8.06 25.19, 5.73 23.81 C3.4 22.43, 1.56 19.85, 0.71 17.23 C-0.14 14.61, -0.48 10.66, 0.62 8.1 C1.72 5.54, 4.67 3.18, 7.31 1.87 C9.94 0.56, 14.95 0.41, 16.44 0.23 C17.94 0.06, 16.45 0.63, 16.27 0.81" stroke="#000000" stroke-width="1" fill="none"></path></g><g stroke-linecap="round"><g stroke-opacity="0.1" fill-opacity="0.1" transform="translate(68.76726355615165 45.64879132709177) rotate(0 -9.116116230834479 -11.126422645091473)" fill-rule="evenodd"><path d="M0 0 C-0.4 0.05, -1.59 0.28, -2.39 0.28 C-3.19 0.28, -3.87 0.19, -4.79 0.01 C-5.7 -0.16, -6.88 -0.38, -7.87 -0.75 C-8.87 -1.11, -9.91 -1.52, -10.77 -2.17 C-11.64 -2.83, -12.3 -3.6, -13.05 -4.65 C-13.8 -5.7, -14.94 -6.98, -15.28 -8.49 C-15.63 -10.01, -15.51 -11.97, -15.13 -13.74 C-14.74 -15.51, -14.13 -17.57, -12.97 -19.11 C-11.81 -20.65, -9.65 -22.1, -8.17 -22.99 C-6.68 -23.87, -3.55 -24.38, -4.05 -24.42 C-4.56 -24.47, -9.3 -24.07, -11.19 -23.26 C-13.08 -22.46, -14.35 -20.73, -15.38 -19.58 C-16.42 -18.44, -16.89 -17.65, -17.41 -16.41 C-17.93 -15.17, -18.27 -13.62, -18.51 -12.16 C-18.74 -10.71, -18.91 -8.96, -18.82 -7.67 C-18.74 -6.39, -18.38 -5.37, -17.99 -4.45 C-17.61 -3.54, -17.21 -2.95, -16.53 -2.2 C-15.84 -1.45, -14.98 -0.61, -13.89 0.04 C-12.79 0.69, -11.42 1.34, -9.95 1.68 C-8.49 2.02, -6.84 2.35, -5.08 2.07 C-3.32 1.8, -0.34 0.39, 0.61 0.06" stroke="none" stroke-width="0" fill="#000000" fill-rule="evenodd"></path><path d="M0 0 C-0.4 0.05, -1.59 0.28, -2.39 0.28 C-3.19 0.28, -3.87 0.19, -4.79 0.01 C-5.7 -0.16, -6.88 -0.38, -7.87 -0.75 C-8.87 -1.11, -9.91 -1.52, -10.77 -2.17 C-11.64 -2.83, -12.3 -3.6, -13.05 -4.65 C-13.8 -5.7, -14.94 -6.98, -15.28 -8.49 C-15.63 -10.01, -15.51 -11.97, -15.13 -13.74 C-14.74 -15.51, -14.13 -17.57, -12.97 -19.11 C-11.81 -20.65, -9.65 -22.1, -8.17 -22.99 C-6.68 -23.87, -3.55 -24.38, -4.05 -24.42 C-4.56 -24.47, -9.3 -24.07, -11.19 -23.26 C-13.08 -22.46, -14.35 -20.73, -15.38 -19.58 C-16.42 -18.44, -16.89 -17.65, -17.41 -16.41 C-17.93 -15.17, -18.27 -13.62, -18.51 -12.16 C-18.74 -10.71, -18.91 -8.96, -18.82 -7.67 C-18.74 -6.39, -18.38 -5.37, -17.99 -4.45 C-17.61 -3.54, -17.21 -2.95, -16.53 -2.2 C-15.84 -1.45, -14.98 -0.61, -13.89 0.04 C-12.79 0.69, -11.42 1.34, -9.95 1.68 C-8.49 2.02, -6.84 2.35, -5.08 2.07 C-3.32 1.8, -0.34 0.39, 0.61 0.06 M0 0 C-0.4 0.05, -1.59 0.28, -2.39 0.28 C-3.19 0.28, -3.87 0.19, -4.79 0.01 C-5.7 -0.16, -6.88 -0.38, -7.87 -0.75 C-8.87 -1.11, -9.91 -1.52, -10.77 -2.17 C-11.64 -2.83, -12.3 -3.6, -13.05 -4.65 C-13.8 -5.7, -14.94 -6.98, -15.28 -8.49 C-15.63 -10.01, -15.51 -11.97, -15.13 -13.74 C-14.74 -15.51, -14.13 -17.57, -12.97 -19.11 C-11.81 -20.65, -9.65 -22.1, -8.17 -22.99 C-6.68 -23.87, -3.55 -24.38, -4.05 -24.42 C-4.56 -24.47, -9.3 -24.07, -11.19 -23.26 C-13.08 -22.46, -14.35 -20.73, -15.38 -19.58 C-16.42 -18.44, -16.89 -17.65, -17.41 -16.41 C-17.93 -15.17, -18.27 -13.62, -18.51 -12.16 C-18.74 -10.71, -18.91 -8.96, -18.82 -7.67 C-18.74 -6.39, -18.38 -5.37, -17.99 -4.45 C-17.61 -3.54, -17.21 -2.95, -16.53 -2.2 C-15.84 -1.45, -14.98 -0.61, -13.89 0.04 C-12.79 0.69, -11.42 1.34, -9.95 1.68 C-8.49 2.02, -6.84 2.35, -5.08 2.07 C-3.32 1.8, -0.34 0.39, 0.61 0.06" stroke="#000000" stroke-width="1" fill="none"></path></g></g><mask></mask><g stroke-linecap="round"><g stroke-opacity="0.1" fill-opacity="0.1" transform="translate(25.563257425825896 46.810564243827116) rotate(0 -6.463189277257044 -12.650413900376485)" fill-rule="evenodd"><path d="M0 0 C-0.9 -0.53, -3.83 -1.81, -5.43 -3.18 C-7.03 -4.55, -8.75 -6.27, -9.6 -8.21 C-10.45 -10.16, -10.71 -12.86, -10.5 -14.86 C-10.3 -16.86, -9.51 -18.69, -8.35 -20.23 C-7.19 -21.77, -5.03 -23.21, -3.54 -24.1 C-2.06 -24.99, 1.08 -25.49, 0.57 -25.54 C0.07 -25.59, -4.68 -25.19, -6.57 -24.38 C-8.46 -23.57, -9.72 -21.84, -10.76 -20.7 C-11.8 -19.55, -12.32 -18.75, -12.79 -17.52 C-13.26 -16.3, -13.53 -14.84, -13.55 -13.33 C-13.57 -11.83, -13.34 -10.01, -12.92 -8.51 C-12.49 -7.01, -11.82 -5.42, -11.01 -4.32 C-10.21 -3.22, -9.38 -2.65, -8.09 -1.91 C-6.8 -1.17, -4.62 -0.19, -3.27 0.12 C-1.92 0.44, -0.54 0.02, 0 0" stroke="none" stroke-width="0" fill="#000000" fill-rule="evenodd"></path><path d="M0 0 C-0.9 -0.53, -3.83 -1.81, -5.43 -3.18 C-7.03 -4.55, -8.75 -6.27, -9.6 -8.21 C-10.45 -10.16, -10.71 -12.86, -10.5 -14.86 C-10.3 -16.86, -9.51 -18.69, -8.35 -20.23 C-7.19 -21.77, -5.03 -23.21, -3.54 -24.1 C-2.06 -24.99, 1.08 -25.49, 0.57 -25.54 C0.07 -25.59, -4.68 -25.19, -6.57 -24.38 C-8.46 -23.57, -9.72 -21.84, -10.76 -20.7 C-11.8 -19.55, -12.32 -18.75, -12.79 -17.52 C-13.26 -16.3, -13.53 -14.84, -13.55 -13.33 C-13.57 -11.83, -13.34 -10.01, -12.92 -8.51 C-12.49 -7.01, -11.82 -5.42, -11.01 -4.32 C-10.21 -3.22, -9.38 -2.65, -8.09 -1.91 C-6.8 -1.17, -4.62 -0.19, -3.27 0.12 C-1.92 0.44, -0.54 0.02, 0 0 M0 0 C-0.9 -0.53, -3.83 -1.81, -5.43 -3.18 C-7.03 -4.55, -8.75 -6.27, -9.6 -8.21 C-10.45 -10.16, -10.71 -12.86, -10.5 -14.86 C-10.3 -16.86, -9.51 -18.69, -8.35 -20.23 C-7.19 -21.77, -5.03 -23.21, -3.54 -24.1 C-2.06 -24.99, 1.08 -25.49, 0.57 -25.54 C0.07 -25.59, -4.68 -25.19, -6.57 -24.38 C-8.46 -23.57, -9.72 -21.84, -10.76 -20.7 C-11.8 -19.55, -12.32 -18.75, -12.79 -17.52 C-13.26 -16.3, -13.53 -14.84, -13.55 -13.33 C-13.57 -11.83, -13.34 -10.01, -12.92 -8.51 C-12.49 -7.01, -11.82 -5.42, -11.01 -4.32 C-10.21 -3.22, -9.38 -2.65, -8.09 -1.91 C-6.8 -1.17, -4.62 -0.19, -3.27 0.12 C-1.92 0.44, -0.54 0.02, 0 0" stroke="#000000" stroke-width="1" fill="none"></path></g></g><mask></mask><g stroke-linecap="round" transform="translate(11.377192622362145 21.03505205865514) rotate(0 12.885944411733163 13.012899529090156)"><path d="M10.9 0.48 C13.45 -0.23, 17.1 0.11, 19.42 1.48 C21.74 2.85, 23.86 5.93, 24.83 8.68 C25.79 11.43, 26.09 15.39, 25.22 17.98 C24.35 20.56, 22.03 22.81, 19.61 24.19 C17.18 25.57, 13.38 26.8, 10.64 26.25 C7.9 25.7, 4.93 23.06, 3.14 20.91 C1.36 18.76, -0.03 16.1, -0.07 13.35 C-0.11 10.61, 0.91 6.67, 2.91 4.46 C4.9 2.25, 10.36 0.73, 11.91 0.08 C13.47 -0.57, 12.24 0.38, 12.25 0.55 M15.74 0.48 C18.3 0.74, 21.78 2.62, 23.42 4.81 C25.06 7, 25.76 10.71, 25.59 13.63 C25.42 16.55, 24.34 20.25, 22.41 22.33 C20.47 24.41, 16.71 25.76, 14 26.09 C11.28 26.43, 8.23 25.91, 6.1 24.33 C3.97 22.76, 1.97 19.37, 1.22 16.66 C0.47 13.96, 0.65 10.69, 1.61 8.1 C2.57 5.51, 4.49 2.33, 6.98 1.11 C9.46 -0.11, 15.07 0.82, 16.52 0.8 C17.96 0.78, 15.78 0.78, 15.64 1" stroke="#000000" stroke-width="1" fill="none"></path></g><g stroke-linecap="round" transform="translate(50.40668477552504 20.87223868494482) rotate(0 12.885944411733163 13.012899529090156)"><path d="M14.98 -0.13 C17.53 0.09, 20.61 2.33, 22.45 4.56 C24.29 6.8, 25.89 10.52, 26.02 13.28 C26.14 16.04, 24.98 18.96, 23.2 21.12 C21.43 23.27, 18.1 25.76, 15.36 26.23 C12.62 26.7, 9.2 25.32, 6.77 23.95 C4.34 22.59, 1.8 20.6, 0.77 18.04 C-0.27 15.48, -0.43 11.29, 0.57 8.59 C1.56 5.89, 4.27 3.18, 6.74 1.84 C9.21 0.49, 13.82 0.77, 15.37 0.51 C16.92 0.26, 16.01 0.09, 16.04 0.3 M15.91 -0.11 C18.5 0.27, 21.31 2.64, 22.97 4.99 C24.63 7.34, 26.06 11.17, 25.9 14.01 C25.73 16.84, 23.81 19.93, 21.97 21.99 C20.12 24.04, 17.38 26.04, 14.82 26.36 C12.27 26.67, 8.89 25.42, 6.61 23.88 C4.33 22.34, 2.1 19.82, 1.14 17.13 C0.19 14.43, -0.2 10.26, 0.88 7.73 C1.96 5.19, 5.19 3.08, 7.64 1.91 C10.08 0.74, 14.2 0.85, 15.56 0.71 C16.92 0.57, 15.84 0.95, 15.82 1.08" stroke="#000000" stroke-width="1" fill="none"></path></g><g stroke-linecap="round" transform="translate(20.89897658988201 31.19221227594329) rotate(0 2.6025799058180326 2.4756247884610545)"><path d="M3.04 -0.22 C3.52 -0.2, 3.86 0.05, 4.19 0.47 C4.53 0.9, 5.01 1.77, 5.05 2.35 C5.08 2.93, 4.67 3.55, 4.41 3.93 C4.15 4.31, 3.95 4.52, 3.49 4.62 C3.02 4.73, 2.13 4.72, 1.63 4.56 C1.14 4.4, 0.74 4.13, 0.5 3.65 C0.25 3.17, 0.01 2.26, 0.15 1.7 C0.28 1.14, 0.8 0.59, 1.3 0.31 C1.8 0.03, 2.86 0.05, 3.17 0.01 C3.48 -0.02, 3.22 0.07, 3.16 0.09 M2.58 0.19 C3.1 0.21, 4.36 0.5, 4.82 0.8 C5.27 1.09, 5.29 1.51, 5.3 1.97 C5.31 2.43, 5.16 3.12, 4.86 3.56 C4.56 4.01, 4.05 4.47, 3.5 4.64 C2.96 4.81, 2.05 4.85, 1.57 4.6 C1.1 4.36, 0.84 3.59, 0.65 3.15 C0.46 2.71, 0.25 2.45, 0.42 1.95 C0.59 1.46, 1.32 0.53, 1.67 0.17 C2.02 -0.19, 2.24 -0.24, 2.5 -0.2 C2.76 -0.16, 3.19 0.32, 3.22 0.42" stroke="none" stroke-width="0" fill="#000000"></path><path d="M2.73 0.05 C3.28 0.15, 4.18 0.68, 4.63 1.04 C5.08 1.4, 5.4 1.68, 5.42 2.2 C5.44 2.73, 5.1 3.81, 4.76 4.2 C4.42 4.6, 3.92 4.47, 3.36 4.6 C2.81 4.72, 1.97 5.18, 1.43 4.98 C0.89 4.78, 0.3 3.93, 0.13 3.41 C-0.04 2.88, 0.23 2.28, 0.4 1.81 C0.57 1.35, 0.68 0.95, 1.14 0.62 C1.6 0.29, 2.8 -0.11, 3.15 -0.17 C3.51 -0.23, 3.29 0.19, 3.3 0.25 M2.57 -0.08 C3.1 -0.01, 4.03 0.5, 4.42 0.89 C4.81 1.27, 4.81 1.69, 4.91 2.22 C5.01 2.75, 5.18 3.64, 5.01 4.07 C4.84 4.49, 4.37 4.62, 3.87 4.76 C3.37 4.91, 2.62 5.14, 2.01 4.93 C1.41 4.71, 0.49 3.91, 0.24 3.47 C-0.02 3.02, 0.39 2.72, 0.5 2.28 C0.61 1.84, 0.51 1.12, 0.89 0.8 C1.27 0.48, 2.49 0.48, 2.79 0.34 C3.09 0.21, 2.73 0.01, 2.69 -0.01" stroke="#000000" stroke-width="1" fill="none"></path></g><g stroke-linecap="round" transform="translate(23.741532851004195 31.61980601963228) rotate(0 0.5078204694279123 0.6347755867848832)"><path d="M1.02 0.63 C1.02 0.67, 1.01 0.71, 1.01 0.75 C1 0.78, 1 0.82, 0.99 0.85 C0.97 0.89, 0.96 0.92, 0.95 0.95 C0.93 0.98, 0.92 1.01, 0.9 1.04 C0.88 1.07, 0.86 1.1, 0.83 1.12 C0.81 1.14, 0.79 1.17, 0.76 1.18 C0.74 1.2, 0.71 1.22, 0.68 1.23 C0.65 1.24, 0.62 1.25, 0.6 1.26 C0.57 1.27, 0.54 1.27, 0.51 1.27 C0.48 1.27, 0.45 1.27, 0.42 1.26 C0.39 1.25, 0.36 1.24, 0.33 1.23 C0.31 1.22, 0.28 1.2, 0.25 1.18 C0.23 1.17, 0.2 1.14, 0.18 1.12 C0.16 1.1, 0.14 1.07, 0.12 1.04 C0.1 1.01, 0.08 0.98, 0.07 0.95 C0.05 0.92, 0.04 0.89, 0.03 0.85 C0.02 0.82, 0.01 0.78, 0.01 0.75 C0 0.71, 0 0.67, 0 0.63 C0 0.6, 0 0.56, 0.01 0.52 C0.01 0.49, 0.02 0.45, 0.03 0.42 C0.04 0.38, 0.05 0.35, 0.07 0.32 C0.08 0.29, 0.1 0.25, 0.12 0.23 C0.14 0.2, 0.16 0.17, 0.18 0.15 C0.2 0.12, 0.23 0.1, 0.25 0.09 C0.28 0.07, 0.31 0.05, 0.33 0.04 C0.36 0.03, 0.39 0.02, 0.42 0.01 C0.45 0, 0.48 0, 0.51 0 C0.54 0, 0.57 0, 0.6 0.01 C0.62 0.02, 0.65 0.03, 0.68 0.04 C0.71 0.05, 0.74 0.07, 0.76 0.09 C0.79 0.1, 0.81 0.12, 0.83 0.15 C0.86 0.17, 0.88 0.2, 0.9 0.23 C0.92 0.25, 0.93 0.29, 0.95 0.32 C0.96 0.35, 0.97 0.38, 0.99 0.42 C1 0.45, 1 0.49, 1.01 0.52 C1.01 0.56, 1.01 0.62, 1.02 0.63 C1.02 0.65, 1.02 0.62, 1.02 0.63" stroke="none" stroke-width="0" fill="#ffffff"></path><path d="M1.02 0.63 C1.02 0.67, 1.01 0.71, 1.01 0.75 C1 0.78, 1 0.82, 0.99 0.85 C0.97 0.89, 0.96 0.92, 0.95 0.95 C0.93 0.98, 0.92 1.01, 0.9 1.04 C0.88 1.07, 0.86 1.1, 0.83 1.12 C0.81 1.14, 0.79 1.17, 0.76 1.18 C0.74 1.2, 0.71 1.22, 0.68 1.23 C0.65 1.24, 0.62 1.25, 0.6 1.26 C0.57 1.27, 0.54 1.27, 0.51 1.27 C0.48 1.27, 0.45 1.27, 0.42 1.26 C0.39 1.25, 0.36 1.24, 0.33 1.23 C0.31 1.22, 0.28 1.2, 0.25 1.18 C0.23 1.17, 0.2 1.14, 0.18 1.12 C0.16 1.1, 0.14 1.07, 0.12 1.04 C0.1 1.01, 0.08 0.98, 0.07 0.95 C0.05 0.92, 0.04 0.89, 0.03 0.85 C0.02 0.82, 0.01 0.78, 0.01 0.75 C0 0.71, 0 0.67, 0 0.63 C0 0.6, 0 0.56, 0.01 0.52 C0.01 0.49, 0.02 0.45, 0.03 0.42 C0.04 0.38, 0.05 0.35, 0.07 0.32 C0.08 0.29, 0.1 0.25, 0.12 0.23 C0.14 0.2, 0.16 0.17, 0.18 0.15 C0.2 0.12, 0.23 0.1, 0.25 0.09 C0.28 0.07, 0.31 0.05, 0.33 0.04 C0.36 0.03, 0.39 0.02, 0.42 0.01 C0.45 0, 0.48 0, 0.51 0 C0.54 0, 0.57 0, 0.6 0.01 C0.62 0.02, 0.65 0.03, 0.68 0.04 C0.71 0.05, 0.74 0.07, 0.76 0.09 C0.79 0.1, 0.81 0.12, 0.83 0.15 C0.86 0.17, 0.88 0.2, 0.9 0.23 C0.92 0.25, 0.93 0.29, 0.95 0.32 C0.96 0.35, 0.97 0.38, 0.99 0.42 C1 0.45, 1 0.49, 1.01 0.52 C1.01 0.56, 1.01 0.62, 1.02 0.63 C1.02 0.65, 1.02 0.62, 1.02 0.63" stroke="#ffffff" stroke-width="1" fill="none"></path></g><g stroke-linecap="round" transform="translate(61.486307606637865 31.72590758848554) rotate(0 2.6025799058180326 2.4756247884610545)"><path d="M2.14 0.05 C2.66 0, 3.2 0.15, 3.73 0.39 C4.27 0.63, 5.12 1.01, 5.36 1.5 C5.61 1.99, 5.4 2.75, 5.18 3.31 C4.96 3.88, 4.58 4.62, 4.05 4.87 C3.53 5.11, 2.62 4.98, 2.05 4.81 C1.48 4.64, 0.96 4.27, 0.66 3.86 C0.36 3.44, 0.21 2.84, 0.25 2.33 C0.29 1.82, 0.58 1.21, 0.91 0.79 C1.23 0.38, 1.91 -0.07, 2.2 -0.15 C2.48 -0.24, 2.59 0.27, 2.62 0.3 M2.85 -0.37 C3.36 -0.44, 4.12 -0.11, 4.57 0.27 C5.01 0.66, 5.44 1.36, 5.51 1.94 C5.57 2.52, 5.22 3.32, 4.93 3.76 C4.65 4.2, 4.3 4.36, 3.8 4.55 C3.29 4.75, 2.39 5.15, 1.88 4.95 C1.37 4.76, 1.13 3.91, 0.76 3.36 C0.39 2.82, -0.45 2.11, -0.36 1.69 C-0.26 1.27, 0.87 1.1, 1.35 0.84 C1.83 0.58, 2.34 0.26, 2.52 0.13 C2.7 -0.01, 2.45 0.04, 2.42 0.03" stroke="none" stroke-width="0" fill="#000000"></path><path d="M2.87 -0.08 C3.38 -0.11, 3.95 0.58, 4.35 0.9 C4.75 1.21, 5.21 1.29, 5.29 1.81 C5.36 2.33, 5.11 3.54, 4.79 4.02 C4.46 4.51, 3.82 4.6, 3.35 4.72 C2.88 4.85, 2.47 4.93, 1.97 4.79 C1.47 4.65, 0.62 4.35, 0.34 3.86 C0.06 3.36, 0.12 2.34, 0.27 1.82 C0.43 1.3, 0.82 1.04, 1.27 0.73 C1.72 0.42, 2.73 0.05, 2.98 -0.04 C3.23 -0.14, 2.86 0.11, 2.78 0.14 M2.26 0.11 C2.81 0.07, 3.85 0.53, 4.41 0.83 C4.97 1.13, 5.46 1.42, 5.6 1.91 C5.75 2.41, 5.62 3.36, 5.26 3.8 C4.91 4.25, 3.99 4.37, 3.49 4.59 C2.98 4.81, 2.76 5.22, 2.23 5.13 C1.7 5.04, 0.64 4.48, 0.29 4.04 C-0.06 3.59, 0.04 3.03, 0.14 2.46 C0.24 1.88, 0.51 0.98, 0.89 0.57 C1.28 0.16, 2.22 0.13, 2.46 -0.02 C2.69 -0.16, 2.23 -0.37, 2.3 -0.32" stroke="#000000" stroke-width="1" fill="none"></path></g><g stroke-linecap="round" transform="translate(64.32886386776005 32.249773403061965) rotate(0 0.5078204694279123 0.6347755867848832)"><path d="M1.02 0.63 C1.02 0.67, 1.01 0.71, 1.01 0.75 C1 0.78, 1 0.82, 0.99 0.85 C0.97 0.89, 0.96 0.92, 0.95 0.95 C0.93 0.98, 0.92 1.01, 0.9 1.04 C0.88 1.07, 0.86 1.1, 0.83 1.12 C0.81 1.14, 0.79 1.17, 0.76 1.18 C0.74 1.2, 0.71 1.22, 0.68 1.23 C0.65 1.24, 0.62 1.25, 0.6 1.26 C0.57 1.27, 0.54 1.27, 0.51 1.27 C0.48 1.27, 0.45 1.27, 0.42 1.26 C0.39 1.25, 0.36 1.24, 0.33 1.23 C0.31 1.22, 0.28 1.2, 0.25 1.18 C0.23 1.17, 0.2 1.14, 0.18 1.12 C0.16 1.1, 0.14 1.07, 0.12 1.04 C0.1 1.01, 0.08 0.98, 0.07 0.95 C0.05 0.92, 0.04 0.89, 0.03 0.85 C0.02 0.82, 0.01 0.78, 0.01 0.75 C0 0.71, 0 0.67, 0 0.63 C0 0.6, 0 0.56, 0.01 0.52 C0.01 0.49, 0.02 0.45, 0.03 0.42 C0.04 0.38, 0.05 0.35, 0.07 0.32 C0.08 0.29, 0.1 0.25, 0.12 0.23 C0.14 0.2, 0.16 0.17, 0.18 0.15 C0.2 0.12, 0.23 0.1, 0.25 0.09 C0.28 0.07, 0.31 0.05, 0.33 0.04 C0.36 0.03, 0.39 0.02, 0.42 0.01 C0.45 0, 0.48 0, 0.51 0 C0.54 0, 0.57 0, 0.6 0.01 C0.62 0.02, 0.65 0.03, 0.68 0.04 C0.71 0.05, 0.74 0.07, 0.76 0.09 C0.79 0.1, 0.81 0.12, 0.83 0.15 C0.86 0.17, 0.88 0.2, 0.9 0.23 C0.92 0.25, 0.93 0.29, 0.95 0.32 C0.96 0.35, 0.97 0.38, 0.99 0.42 C1 0.45, 1 0.49, 1.01 0.52 C1.01 0.56, 1.01 0.62, 1.02 0.63 C1.02 0.65, 1.02 0.62, 1.02 0.63" stroke="none" stroke-width="0" fill="#ffffff"></path><path d="M1.02 0.63 C1.02 0.67, 1.01 0.71, 1.01 0.75 C1 0.78, 1 0.82, 0.99 0.85 C0.97 0.89, 0.96 0.92, 0.95 0.95 C0.93 0.98, 0.92 1.01, 0.9 1.04 C0.88 1.07, 0.86 1.1, 0.83 1.12 C0.81 1.14, 0.79 1.17, 0.76 1.18 C0.74 1.2, 0.71 1.22, 0.68 1.23 C0.65 1.24, 0.62 1.25, 0.6 1.26 C0.57 1.27, 0.54 1.27, 0.51 1.27 C0.48 1.27, 0.45 1.27, 0.42 1.26 C0.39 1.25, 0.36 1.24, 0.33 1.23 C0.31 1.22, 0.28 1.2, 0.25 1.18 C0.23 1.17, 0.2 1.14, 0.18 1.12 C0.16 1.1, 0.14 1.07, 0.12 1.04 C0.1 1.01, 0.08 0.98, 0.07 0.95 C0.05 0.92, 0.04 0.89, 0.03 0.85 C0.02 0.82, 0.01 0.78, 0.01 0.75 C0 0.71, 0 0.67, 0 0.63 C0 0.6, 0 0.56, 0.01 0.52 C0.01 0.49, 0.02 0.45, 0.03 0.42 C0.04 0.38, 0.05 0.35, 0.07 0.32 C0.08 0.29, 0.1 0.25, 0.12 0.23 C0.14 0.2, 0.16 0.17, 0.18 0.15 C0.2 0.12, 0.23 0.1, 0.25 0.09 C0.28 0.07, 0.31 0.05, 0.33 0.04 C0.36 0.03, 0.39 0.02, 0.42 0.01 C0.45 0, 0.48 0, 0.51 0 C0.54 0, 0.57 0, 0.6 0.01 C0.62 0.02, 0.65 0.03, 0.68 0.04 C0.71 0.05, 0.74 0.07, 0.76 0.09 C0.79 0.1, 0.81 0.12, 0.83 0.15 C0.86 0.17, 0.88 0.2, 0.9 0.23 C0.92 0.25, 0.93 0.29, 0.95 0.32 C0.96 0.35, 0.97 0.38, 0.99 0.42 C1 0.45, 1 0.49, 1.01 0.52 C1.01 0.56, 1.01 0.62, 1.02 0.63 C1.02 0.65, 1.02 0.62, 1.02 0.63" stroke="#ffffff" stroke-width="1" fill="none"></path></g><g stroke-linecap="round"><g transform="translate(37.85060169259168 49.63736350494435) rotate(0 5.04753940999845 -1.3441382443149124)" fill-rule="evenodd"><path d="M0 0 C0.03 -0.27, -0.13 -1.04, 0.18 -1.64 C0.49 -2.23, 1.09 -3.16, 1.85 -3.56 C2.62 -3.96, 3.89 -4, 4.79 -4.04 C5.69 -4.07, 6.48 -4.05, 7.26 -3.77 C8.04 -3.48, 9 -2.88, 9.47 -2.31 C9.95 -1.75, 10.16 -0.96, 10.1 -0.39 C10.05 0.19, 9.99 0.94, 9.15 1.12 C8.31 1.29, 6.22 0.63, 5.08 0.67 C3.94 0.71, 3.03 1.3, 2.3 1.35 C1.56 1.4, 1.03 1.17, 0.65 0.97 C0.27 0.76, 0.13 0.26, 0.03 0.12" stroke="none" stroke-width="0" fill="#ccbdac" fill-rule="evenodd"></path><path d="M0 0 C0.03 -0.27, -0.13 -1.04, 0.18 -1.64 C0.49 -2.23, 1.09 -3.16, 1.85 -3.56 C2.62 -3.96, 3.89 -4, 4.79 -4.04 C5.69 -4.07, 6.48 -4.05, 7.26 -3.77 C8.04 -3.48, 9 -2.88, 9.47 -2.31 C9.95 -1.75, 10.16 -0.96, 10.1 -0.39 C10.05 0.19, 9.99 0.94, 9.15 1.12 C8.31 1.29, 6.22 0.63, 5.08 0.67 C3.94 0.71, 3.03 1.3, 2.3 1.35 C1.56 1.4, 1.03 1.17, 0.65 0.97 C0.27 0.76, 0.13 0.26, 0.03 0.12 M0 0 C0.03 -0.27, -0.13 -1.04, 0.18 -1.64 C0.49 -2.23, 1.09 -3.16, 1.85 -3.56 C2.62 -3.96, 3.89 -4, 4.79 -4.04 C5.69 -4.07, 6.48 -4.05, 7.26 -3.77 C8.04 -3.48, 9 -2.88, 9.47 -2.31 C9.95 -1.75, 10.16 -0.96, 10.1 -0.39 C10.05 0.19, 9.99 0.94, 9.15 1.12 C8.31 1.29, 6.22 0.63, 5.08 0.67 C3.94 0.71, 3.03 1.3, 2.3 1.35 C1.56 1.4, 1.03 1.17, 0.65 0.97 C0.27 0.76, 0.13 0.26, 0.03 0.12" stroke="#000000" stroke-width="1" fill="none"></path></g></g><mask></mask><g stroke-linecap="round"><g transform="translate(41.907915337946065 50.49738658384024) rotate(0 -1.251899194506052 -1.9833483468728588)" fill-rule="evenodd"><path d="M0 0 C-0.07 -0.01, -0.06 0.02, -0.41 -0.08 C-0.77 -0.18, -1.8 -0.34, -2.14 -0.62 C-2.47 -0.9, -2.56 -1.44, -2.43 -1.76 C-2.29 -2.09, -1.93 -2.39, -1.32 -2.58 C-0.71 -2.77, 1.07 -2.61, 1.22 -2.91 C1.38 -3.21, 0.17 -4.18, -0.38 -4.39 C-0.93 -4.59, -1.63 -4.3, -2.08 -4.12 C-2.53 -3.94, -2.83 -3.54, -3.08 -3.28 C-3.32 -3.02, -3.45 -2.84, -3.56 -2.56 C-3.67 -2.28, -3.74 -1.94, -3.74 -1.6 C-3.75 -1.26, -3.72 -0.8, -3.59 -0.5 C-3.47 -0.2, -3.21 0.03, -2.99 0.2 C-2.77 0.36, -2.6 0.48, -2.26 0.49 C-1.91 0.5, -1.3 0.33, -0.93 0.25 C-0.55 0.17, -0.15 0.04, 0 0" stroke="none" stroke-width="0" fill="#958b7f" fill-rule="evenodd"></path><path d="M0 0 C-0.07 -0.01, -0.06 0.02, -0.41 -0.08 C-0.77 -0.18, -1.8 -0.34, -2.14 -0.62 C-2.47 -0.9, -2.56 -1.44, -2.43 -1.76 C-2.29 -2.09, -1.93 -2.39, -1.32 -2.58 C-0.71 -2.77, 1.07 -2.61, 1.22 -2.91 C1.38 -3.21, 0.17 -4.18, -0.38 -4.39 C-0.93 -4.59, -1.63 -4.3, -2.08 -4.12 C-2.53 -3.94, -2.83 -3.54, -3.08 -3.28 C-3.32 -3.02, -3.45 -2.84, -3.56 -2.56 C-3.67 -2.28, -3.74 -1.94, -3.74 -1.6 C-3.75 -1.26, -3.72 -0.8, -3.59 -0.5 C-3.47 -0.2, -3.21 0.03, -2.99 0.2 C-2.77 0.36, -2.6 0.48, -2.26 0.49 C-1.91 0.5, -1.3 0.33, -0.93 0.25 C-0.55 0.17, -0.15 0.04, 0 0 M0 0 C-0.07 -0.01, -0.06 0.02, -0.41 -0.08 C-0.77 -0.18, -1.8 -0.34, -2.14 -0.62 C-2.47 -0.9, -2.56 -1.44, -2.43 -1.76 C-2.29 -2.09, -1.93 -2.39, -1.32 -2.58 C-0.71 -2.77, 1.07 -2.61, 1.22 -2.91 C1.38 -3.21, 0.17 -4.18, -0.38 -4.39 C-0.93 -4.59, -1.63 -4.3, -2.08 -4.12 C-2.53 -3.94, -2.83 -3.54, -3.08 -3.28 C-3.32 -3.02, -3.45 -2.84, -3.56 -2.56 C-3.67 -2.28, -3.74 -1.94, -3.74 -1.6 C-3.75 -1.26, -3.72 -0.8, -3.59 -0.5 C-3.47 -0.2, -3.21 0.03, -2.99 0.2 C-2.77 0.36, -2.6 0.48, -2.26 0.49 C-1.91 0.5, -1.3 0.33, -0.93 0.25 C-0.55 0.17, -0.15 0.04, 0 0" stroke="#958b7f" stroke-width="1" fill="none"></path></g></g><mask></mask><g stroke-linecap="round"><g transform="translate(37.805117629290066 49.63591832843042) rotate(0 5.075898370998971 -1.357512770723723)"><path d="M0 0 C0.04 -0.28, -0.1 -1.06, 0.22 -1.65 C0.53 -2.25, 1.13 -3.17, 1.9 -3.57 C2.66 -3.97, 3.93 -4.01, 4.83 -4.05 C5.73 -4.08, 6.52 -4.07, 7.3 -3.78 C8.08 -3.49, 9.04 -2.89, 9.51 -2.33 C9.99 -1.76, 10.2 -0.97, 10.14 -0.4 C10.09 0.17, 10.03 0.93, 9.19 1.11 C8.36 1.28, 6.26 0.61, 5.12 0.65 C3.98 0.69, 3.08 1.29, 2.34 1.34 C1.6 1.39, 1.08 1.18, 0.69 0.95 C0.3 0.73, 0.12 0.16, 0 0 M0 0 C0.04 -0.28, -0.1 -1.06, 0.22 -1.65 C0.53 -2.25, 1.13 -3.17, 1.9 -3.57 C2.66 -3.97, 3.93 -4.01, 4.83 -4.05 C5.73 -4.08, 6.52 -4.07, 7.3 -3.78 C8.08 -3.49, 9.04 -2.89, 9.51 -2.33 C9.99 -1.76, 10.2 -0.97, 10.14 -0.4 C10.09 0.17, 10.03 0.93, 9.19 1.11 C8.36 1.28, 6.26 0.61, 5.12 0.65 C3.98 0.69, 3.08 1.29, 2.34 1.34 C1.6 1.39, 1.08 1.18, 0.69 0.95 C0.3 0.73, 0.12 0.16, 0 0" stroke="#000000" stroke-width="1" fill="none"></path></g></g><mask></mask><g stroke-linecap="round"><g transform="translate(39.350471112324726 45.1057367597856) rotate(0 3.490278738892272 0.26712796724685006)" fill-rule="evenodd"><path d="M0 0 C0.01 -0.17, -0.13 -0.7, 0.08 -0.99 C0.3 -1.28, 0.73 -1.59, 1.29 -1.76 C1.85 -1.94, 2.78 -2.03, 3.43 -2.05 C4.09 -2.07, 4.66 -2.06, 5.23 -1.89 C5.8 -1.72, 6.62 -1.51, 6.85 -1.03 C7.08 -0.54, 7.13 0.41, 6.62 1.01 C6.11 1.61, 4.68 2.45, 3.82 2.58 C2.96 2.7, 2.02 2.04, 1.45 1.74 C0.88 1.43, 0.62 1.04, 0.38 0.75 C0.14 0.46, 0.06 0.13, 0 0" stroke="none" stroke-width="0" fill="#595755" fill-rule="evenodd"></path><path d="M0 0 C0.01 -0.17, -0.13 -0.7, 0.08 -0.99 C0.3 -1.28, 0.73 -1.59, 1.29 -1.76 C1.85 -1.94, 2.78 -2.03, 3.43 -2.05 C4.09 -2.07, 4.66 -2.06, 5.23 -1.89 C5.8 -1.72, 6.62 -1.51, 6.85 -1.03 C7.08 -0.54, 7.13 0.41, 6.62 1.01 C6.11 1.61, 4.68 2.45, 3.82 2.58 C2.96 2.7, 2.02 2.04, 1.45 1.74 C0.88 1.43, 0.62 1.04, 0.38 0.75 C0.14 0.46, 0.06 0.13, 0 0 M0 0 C0.01 -0.17, -0.13 -0.7, 0.08 -0.99 C0.3 -1.28, 0.73 -1.59, 1.29 -1.76 C1.85 -1.94, 2.78 -2.03, 3.43 -2.05 C4.09 -2.07, 4.66 -2.06, 5.23 -1.89 C5.8 -1.72, 6.62 -1.51, 6.85 -1.03 C7.08 -0.54, 7.13 0.41, 6.62 1.01 C6.11 1.61, 4.68 2.45, 3.82 2.58 C2.96 2.7, 2.02 2.04, 1.45 1.74 C0.88 1.43, 0.62 1.04, 0.38 0.75 C0.14 0.46, 0.06 0.13, 0 0" stroke="#000000" stroke-width="1" fill="none"></path></g></g><mask></mask><g stroke-linecap="round"><g transform="translate(43.721504164565204 47.41957488819162) rotate(0 -2.1511422537176372 -2.046684736402888)" fill-rule="evenodd"><path d="M0 0 C-0.16 -0.05, -0.64 -0.13, -0.99 -0.29 C-1.34 -0.44, -1.8 -0.66, -2.12 -0.92 C-2.44 -1.18, -2.79 -1.54, -2.92 -1.87 C-3.05 -2.19, -3.04 -2.57, -2.89 -2.88 C-2.74 -3.19, -2.34 -3.49, -2.02 -3.72 C-1.69 -3.96, -0.84 -4.24, -0.93 -4.3 C-1.02 -4.37, -2.09 -4.21, -2.54 -4.11 C-2.99 -4.02, -3.36 -3.93, -3.63 -3.75 C-3.89 -3.56, -4 -3.3, -4.11 -3.02 C-4.22 -2.74, -4.34 -2.35, -4.29 -2.07 C-4.24 -1.78, -3.98 -1.54, -3.79 -1.33 C-3.61 -1.12, -3.4 -0.98, -3.19 -0.83 C-2.99 -0.67, -2.83 -0.52, -2.59 -0.38 C-2.34 -0.23, -2.03 -0.06, -1.73 0.04 C-1.43 0.14, -0.96 0.19, -0.8 0.23" stroke="none" stroke-width="0" fill="#454342" fill-rule="evenodd"></path><path d="M0 0 C-0.16 -0.05, -0.64 -0.13, -0.99 -0.29 C-1.34 -0.44, -1.8 -0.66, -2.12 -0.92 C-2.44 -1.18, -2.79 -1.54, -2.92 -1.87 C-3.05 -2.19, -3.04 -2.57, -2.89 -2.88 C-2.74 -3.19, -2.34 -3.49, -2.02 -3.72 C-1.69 -3.96, -0.84 -4.24, -0.93 -4.3 C-1.02 -4.37, -2.09 -4.21, -2.54 -4.11 C-2.99 -4.02, -3.36 -3.93, -3.63 -3.75 C-3.89 -3.56, -4 -3.3, -4.11 -3.02 C-4.22 -2.74, -4.34 -2.35, -4.29 -2.07 C-4.24 -1.78, -3.98 -1.54, -3.79 -1.33 C-3.61 -1.12, -3.4 -0.98, -3.19 -0.83 C-2.99 -0.67, -2.83 -0.52, -2.59 -0.38 C-2.34 -0.23, -2.03 -0.06, -1.73 0.04 C-1.43 0.14, -0.96 0.19, -0.8 0.23 M0 0 C-0.16 -0.05, -0.64 -0.13, -0.99 -0.29 C-1.34 -0.44, -1.8 -0.66, -2.12 -0.92 C-2.44 -1.18, -2.79 -1.54, -2.92 -1.87 C-3.05 -2.19, -3.04 -2.57, -2.89 -2.88 C-2.74 -3.19, -2.34 -3.49, -2.02 -3.72 C-1.69 -3.96, -0.84 -4.24, -0.93 -4.3 C-1.02 -4.37, -2.09 -4.21, -2.54 -4.11 C-2.99 -4.02, -3.36 -3.93, -3.63 -3.75 C-3.89 -3.56, -4 -3.3, -4.11 -3.02 C-4.22 -2.74, -4.34 -2.35, -4.29 -2.07 C-4.24 -1.78, -3.98 -1.54, -3.79 -1.33 C-3.61 -1.12, -3.4 -0.98, -3.19 -0.83 C-2.99 -0.67, -2.83 -0.52, -2.59 -0.38 C-2.34 -0.23, -2.03 -0.06, -1.73 0.04 C-1.43 0.14, -0.96 0.19, -0.8 0.23" stroke="#454342" stroke-width="1" fill="none"></path></g></g><mask></mask><g stroke-linecap="round"><g transform="translate(39.34007808610784 45.09907967465085) rotate(0 3.490278738892272 0.26712796724685006)"><path d="M0 0 C0.01 -0.17, -0.13 -0.7, 0.08 -0.99 C0.3 -1.28, 0.73 -1.59, 1.29 -1.76 C1.85 -1.94, 2.78 -2.03, 3.43 -2.05 C4.09 -2.07, 4.66 -2.06, 5.23 -1.89 C5.8 -1.72, 6.62 -1.51, 6.85 -1.03 C7.08 -0.54, 7.13 0.41, 6.62 1.01 C6.11 1.61, 4.68 2.45, 3.82 2.58 C2.96 2.7, 2.02 2.04, 1.45 1.74 C0.88 1.43, 0.62 1.04, 0.38 0.75 C0.14 0.46, 0.06 0.13, 0 0 M0 0 C0.01 -0.17, -0.13 -0.7, 0.08 -0.99 C0.3 -1.28, 0.73 -1.59, 1.29 -1.76 C1.85 -1.94, 2.78 -2.03, 3.43 -2.05 C4.09 -2.07, 4.66 -2.06, 5.23 -1.89 C5.8 -1.72, 6.62 -1.51, 6.85 -1.03 C7.08 -0.54, 7.13 0.41, 6.62 1.01 C6.11 1.61, 4.68 2.45, 3.82 2.58 C2.96 2.7, 2.02 2.04, 1.45 1.74 C0.88 1.43, 0.62 1.04, 0.38 0.75 C0.14 0.46, 0.06 0.13, 0 0" stroke="#000000" stroke-width="1" fill="none"></path></g></g><mask></mask><g stroke-linecap="round"><g transform="translate(44.744348360976346 44.01677900610355) rotate(0 0.35631786421026845 0.6102935979416415)" fill-rule="evenodd"><path d="M0 0 C0.1 0.08, 0.49 0.31, 0.61 0.51 C0.73 0.71, 0.7 1.1, 0.71 1.22" stroke="none" stroke-width="0" fill="#454342" fill-rule="evenodd"></path><path d="M0 0 C0.1 0.08, 0.49 0.31, 0.61 0.51 C0.73 0.71, 0.7 1.1, 0.71 1.22 M0 0 C0.1 0.08, 0.49 0.31, 0.61 0.51 C0.73 0.71, 0.7 1.1, 0.71 1.22" stroke="#000000" stroke-width="1" fill="none"></path></g></g><mask></mask><g stroke-linecap="round"><g transform="translate(40.99822466686561 50.838702826620306) rotate(0 0.021338980038365207 0.938915121687522)"><path d="M0 0 C0.01 0.31, 0.04 1.56, 0.04 1.88 M0 0 C0.01 0.31, 0.04 1.56, 0.04 1.88" stroke="#000000" stroke-width="1" fill="none"></path></g></g><mask></mask><g stroke-linecap="round"><g transform="translate(40.97502311145013 52.45301500802964) rotate(0 2.3284773189465398 -0.3266625809406847)" fill-rule="evenodd"><path d="M0 0 C0.06 0.19, 0.1 0.91, 0.36 1.16 C0.62 1.41, 1.09 1.44, 1.56 1.5 C2.03 1.57, 2.73 1.6, 3.18 1.54 C3.64 1.49, 4.04 1.44, 4.29 1.16 C4.54 0.88, 4.62 0.33, 4.69 -0.14 C4.77 -0.61, 4.92 -1.37, 4.74 -1.67 C4.56 -1.98, 4.05 -1.9, 3.6 -1.99 C3.16 -2.08, 2.68 -2.28, 2.07 -2.21 C1.47 -2.14, 0.33 -1.94, -0.02 -1.57 C-0.36 -1.2, 0 -0.26, 0 0" stroke="none" stroke-width="0" fill="#ffffff" fill-rule="evenodd"></path><path d="M0 0 C0.06 0.19, 0.1 0.91, 0.36 1.16 C0.62 1.41, 1.09 1.44, 1.56 1.5 C2.03 1.57, 2.73 1.6, 3.18 1.54 C3.64 1.49, 4.04 1.44, 4.29 1.16 C4.54 0.88, 4.62 0.33, 4.69 -0.14 C4.77 -0.61, 4.92 -1.37, 4.74 -1.67 C4.56 -1.98, 4.05 -1.9, 3.6 -1.99 C3.16 -2.08, 2.68 -2.28, 2.07 -2.21 C1.47 -2.14, 0.33 -1.94, -0.02 -1.57 C-0.36 -1.2, 0 -0.26, 0 0 M0 0 C0.06 0.19, 0.1 0.91, 0.36 1.16 C0.62 1.41, 1.09 1.44, 1.56 1.5 C2.03 1.57, 2.73 1.6, 3.18 1.54 C3.64 1.49, 4.04 1.44, 4.29 1.16 C4.54 0.88, 4.62 0.33, 4.69 -0.14 C4.77 -0.61, 4.92 -1.37, 4.74 -1.67 C4.56 -1.98, 4.05 -1.9, 3.6 -1.99 C3.16 -2.08, 2.68 -2.28, 2.07 -2.21 C1.47 -2.14, 0.33 -1.94, -0.02 -1.57 C-0.36 -1.2, 0 -0.26, 0 0" stroke="#000000" stroke-width="1" fill="none"></path></g></g><mask></mask><g stroke-linecap="round"><g transform="translate(43.26015655093079 50.58263506616072) rotate(0 0.05134444913971947 1.6004235028764526)" fill-rule="evenodd"><path d="M0 0 C0.02 0.24, 0.08 0.89, 0.1 1.42 C0.11 1.95, 0.09 2.9, 0.09 3.2" stroke="none" stroke-width="0" fill="#ffffff" fill-rule="evenodd"></path><path d="M0 0 C0.02 0.24, 0.08 0.89, 0.1 1.42 C0.11 1.95, 0.09 2.9, 0.09 3.2 M0 0 C0.02 0.24, 0.08 0.89, 0.1 1.42 C0.11 1.95, 0.09 2.9, 0.09 3.2" stroke="#000000" stroke-width="1" fill="none"></path></g></g><mask></mask><g stroke-linecap="round"><g transform="translate(59.99531377665562 102.23588682921775) rotate(13.687095229378706 2.269159347250479 -0.3833946197350748)" fill-rule="evenodd"><path d="M0 0 C0.15 0.19, 0.39 0.73, 0.89 1.17 C1.38 1.61, 2.28 2.53, 2.97 2.64 C3.66 2.75, 4.65 2.28, 5.03 1.84 C5.41 1.4, 5.61 0.79, 5.26 0.01 C4.92 -0.77, 3.62 -2.28, 2.97 -2.85 C2.32 -3.42, 1.87 -3.4, 1.37 -3.42 C0.88 -3.44, 0.38 -3.24, 0 -2.97 C-0.38 -2.69, -0.9 -2.28, -0.9 -1.78 C-0.9 -1.29, -0.15 -0.3, 0 0" stroke="none" stroke-width="0" fill="#ffffff" fill-rule="evenodd"></path><path d="M0 0 C0.15 0.19, 0.39 0.73, 0.89 1.17 C1.38 1.61, 2.28 2.53, 2.97 2.64 C3.66 2.75, 4.65 2.28, 5.03 1.84 C5.41 1.4, 5.61 0.79, 5.26 0.01 C4.92 -0.77, 3.62 -2.28, 2.97 -2.85 C2.32 -3.42, 1.87 -3.4, 1.37 -3.42 C0.88 -3.44, 0.38 -3.24, 0 -2.97 C-0.38 -2.69, -0.9 -2.28, -0.9 -1.78 C-0.9 -1.29, -0.15 -0.3, 0 0 M0 0 C0.15 0.19, 0.39 0.73, 0.89 1.17 C1.38 1.61, 2.28 2.53, 2.97 2.64 C3.66 2.75, 4.65 2.28, 5.03 1.84 C5.41 1.4, 5.61 0.79, 5.26 0.01 C4.92 -0.77, 3.62 -2.28, 2.97 -2.85 C2.32 -3.42, 1.87 -3.4, 1.37 -3.42 C0.88 -3.44, 0.38 -3.24, 0 -2.97 C-0.38 -2.69, -0.9 -2.28, -0.9 -1.78 C-0.9 -1.29, -0.15 -0.3, 0 0" stroke="#000000" stroke-width="1" fill="none"></path></g></g><mask></mask><g stroke-linecap="round"><g transform="translate(17.20155725874031 101.93161757824726) rotate(72.62981121584629 2.2553667309800005 -0.5349727504348465)" fill-rule="evenodd"><path d="M0 0 C0.2 0.23, 0.73 0.96, 1.22 1.4 C1.72 1.84, 2.39 2.58, 2.97 2.64 C3.56 2.7, 4.4 2.23, 4.74 1.76 C5.09 1.29, 5.33 0.58, 5.04 -0.19 C4.74 -0.96, 3.58 -2.26, 2.97 -2.85 C2.37 -3.44, 1.9 -3.7, 1.4 -3.72 C0.91 -3.74, 0.34 -3.32, 0 -2.97 C-0.35 -2.61, -0.66 -2.06, -0.66 -1.57 C-0.66 -1.07, -0.11 -0.26, 0 0" stroke="none" stroke-width="0" fill="#ffffff" fill-rule="evenodd"></path><path d="M0 0 C0.2 0.23, 0.73 0.96, 1.22 1.4 C1.72 1.84, 2.39 2.58, 2.97 2.64 C3.56 2.7, 4.4 2.23, 4.74 1.76 C5.09 1.29, 5.33 0.58, 5.04 -0.19 C4.74 -0.96, 3.58 -2.26, 2.97 -2.85 C2.37 -3.44, 1.9 -3.7, 1.4 -3.72 C0.91 -3.74, 0.34 -3.32, 0 -2.97 C-0.35 -2.61, -0.66 -2.06, -0.66 -1.57 C-0.66 -1.07, -0.11 -0.26, 0 0 M0 0 C0.2 0.23, 0.73 0.96, 1.22 1.4 C1.72 1.84, 2.39 2.58, 2.97 2.64 C3.56 2.7, 4.4 2.23, 4.74 1.76 C5.09 1.29, 5.33 0.58, 5.04 -0.19 C4.74 -0.96, 3.58 -2.26, 2.97 -2.85 C2.37 -3.44, 1.9 -3.7, 1.4 -3.72 C0.91 -3.74, 0.34 -3.32, 0 -2.97 C-0.35 -2.61, -0.66 -2.06, -0.66 -1.57 C-0.66 -1.07, -0.11 -0.26, 0 0" stroke="#000000" stroke-width="1" fill="none"></path></g></g><mask></mask><g stroke-linecap="round"><g transform="translate(11.619934402900242 59.08519638103519) rotate(155.1023009552614 1.8359543503729014 -0.09213103053004801)" fill-rule="evenodd"><path d="M0 0 C0.19 0.25, 0.67 0.99, 1.15 1.53 C1.64 2.07, 2.33 3.12, 2.9 3.22 C3.48 3.32, 4.5 2.63, 4.61 2.13 C4.73 1.62, 3.99 0.82, 3.61 0.17 C3.23 -0.49, 2.8 -1.21, 2.35 -1.8 C1.91 -2.39, 1.41 -3.19, 0.94 -3.37 C0.48 -3.55, -0.12 -3.09, -0.43 -2.88 C-0.74 -2.66, -0.89 -2.35, -0.94 -2.07 C-0.99 -1.8, -0.9 -1.59, -0.75 -1.24 C-0.59 -0.9, -0.12 -0.21, 0 0" stroke="none" stroke-width="0" fill="#ffffff" fill-rule="evenodd"></path><path d="M0 0 C0.19 0.25, 0.67 0.99, 1.15 1.53 C1.64 2.07, 2.33 3.12, 2.9 3.22 C3.48 3.32, 4.5 2.63, 4.61 2.13 C4.73 1.62, 3.99 0.82, 3.61 0.17 C3.23 -0.49, 2.8 -1.21, 2.35 -1.8 C1.91 -2.39, 1.41 -3.19, 0.94 -3.37 C0.48 -3.55, -0.12 -3.09, -0.43 -2.88 C-0.74 -2.66, -0.89 -2.35, -0.94 -2.07 C-0.99 -1.8, -0.9 -1.59, -0.75 -1.24 C-0.59 -0.9, -0.12 -0.21, 0 0 M0 0 C0.19 0.25, 0.67 0.99, 1.15 1.53 C1.64 2.07, 2.33 3.12, 2.9 3.22 C3.48 3.32, 4.5 2.63, 4.61 2.13 C4.73 1.62, 3.99 0.82, 3.61 0.17 C3.23 -0.49, 2.8 -1.21, 2.35 -1.8 C1.91 -2.39, 1.41 -3.19, 0.94 -3.37 C0.48 -3.55, -0.12 -3.09, -0.43 -2.88 C-0.74 -2.66, -0.89 -2.35, -0.94 -2.07 C-0.99 -1.8, -0.9 -1.59, -0.75 -1.24 C-0.59 -0.9, -0.12 -0.21, 0 0" stroke="#000000" stroke-width="1" fill="none"></path></g></g><mask></mask><g stroke-linecap="round"><g transform="translate(70.69261458657525 59.45420866368681) rotate(271.45101079152755 1.8359543503729014 -0.09213103053004801)" fill-rule="evenodd"><path d="M0 0 C0.19 0.25, 0.67 0.99, 1.15 1.53 C1.64 2.07, 2.33 3.12, 2.9 3.22 C3.48 3.32, 4.5 2.63, 4.61 2.13 C4.73 1.62, 3.99 0.82, 3.61 0.17 C3.23 -0.49, 2.8 -1.21, 2.35 -1.8 C1.91 -2.39, 1.41 -3.19, 0.94 -3.37 C0.48 -3.55, -0.12 -3.09, -0.43 -2.88 C-0.74 -2.66, -0.89 -2.35, -0.94 -2.07 C-0.99 -1.8, -0.9 -1.59, -0.75 -1.24 C-0.59 -0.9, -0.12 -0.21, 0 0" stroke="none" stroke-width="0" fill="#ffffff" fill-rule="evenodd"></path><path d="M0 0 C0.19 0.25, 0.67 0.99, 1.15 1.53 C1.64 2.07, 2.33 3.12, 2.9 3.22 C3.48 3.32, 4.5 2.63, 4.61 2.13 C4.73 1.62, 3.99 0.82, 3.61 0.17 C3.23 -0.49, 2.8 -1.21, 2.35 -1.8 C1.91 -2.39, 1.41 -3.19, 0.94 -3.37 C0.48 -3.55, -0.12 -3.09, -0.43 -2.88 C-0.74 -2.66, -0.89 -2.35, -0.94 -2.07 C-0.99 -1.8, -0.9 -1.59, -0.75 -1.24 C-0.59 -0.9, -0.12 -0.21, 0 0 M0 0 C0.19 0.25, 0.67 0.99, 1.15 1.53 C1.64 2.07, 2.33 3.12, 2.9 3.22 C3.48 3.32, 4.5 2.63, 4.61 2.13 C4.73 1.62, 3.99 0.82, 3.61 0.17 C3.23 -0.49, 2.8 -1.21, 2.35 -1.8 C1.91 -2.39, 1.41 -3.19, 0.94 -3.37 C0.48 -3.55, -0.12 -3.09, -0.43 -2.88 C-0.74 -2.66, -0.89 -2.35, -0.94 -2.07 C-0.99 -1.8, -0.9 -1.59, -0.75 -1.24 C-0.59 -0.9, -0.12 -0.21, 0 0" stroke="#000000" stroke-width="1" fill="none"></path></g></g><mask></mask><g stroke-linecap="round" transform="translate(49.04368087444084 64.90987449454087) rotate(16.687830541157332 7.445202325701331 7.32702451100765)"><path d="M7.86 0.18 C9.43 0.25, 11.52 1.46, 12.64 2.6 C13.76 3.74, 14.39 5.44, 14.57 7.01 C14.75 8.58, 14.65 10.86, 13.74 12.02 C12.84 13.18, 10.75 13.61, 9.13 13.98 C7.52 14.36, 5.42 14.9, 4.07 14.27 C2.72 13.64, 1.66 11.71, 1.05 10.18 C0.43 8.65, 0.03 6.63, 0.38 5.09 C0.73 3.54, 1.88 1.71, 3.16 0.9 C4.45 0.09, 7.17 0.43, 8.1 0.24 C9.03 0.06, 8.78 -0.37, 8.73 -0.21 M7.24 0.42 C8.65 0.28, 10.8 0.71, 12.11 1.67 C13.41 2.63, 14.71 4.49, 15.08 6.18 C15.45 7.87, 15.21 10.45, 14.34 11.81 C13.47 13.17, 11.41 13.94, 9.85 14.34 C8.29 14.74, 6.63 14.8, 5 14.19 C3.38 13.58, 0.83 12.03, 0.1 10.7 C-0.64 9.37, 0.08 7.67, 0.61 6.2 C1.13 4.73, 1.98 3.02, 3.23 1.88 C4.48 0.74, 7.38 -0.43, 8.13 -0.64 C8.87 -0.86, 7.81 0.23, 7.7 0.57" stroke="none" stroke-width="0" fill="#cde9e9"></path><path d="M8.09 0.4 C9.59 0.37, 11.81 0.98, 12.9 2.11 C14 3.24, 14.53 5.64, 14.68 7.2 C14.83 8.76, 14.66 10.26, 13.81 11.48 C12.96 12.7, 11.12 14.12, 9.58 14.53 C8.04 14.95, 6.08 14.67, 4.59 13.96 C3.09 13.25, 1.34 11.77, 0.62 10.3 C-0.11 8.83, -0.12 6.59, 0.25 5.14 C0.62 3.7, 1.48 2.55, 2.85 1.62 C4.23 0.7, 7.48 -0.12, 8.48 -0.41 C9.49 -0.69, 8.98 -0.24, 8.88 -0.11 M6.56 0.66 C7.95 0.57, 9.67 0.76, 10.96 1.63 C12.24 2.5, 13.65 4.41, 14.27 5.86 C14.9 7.31, 15.3 8.94, 14.68 10.33 C14.07 11.72, 12.13 13.41, 10.6 14.19 C9.07 14.97, 7.01 15.35, 5.49 15.01 C3.96 14.67, 2.36 13.56, 1.45 12.16 C0.55 10.75, 0.01 8.14, 0.04 6.59 C0.08 5.04, 0.48 3.92, 1.66 2.85 C2.84 1.77, 6.39 0.54, 7.13 0.14 C7.87 -0.26, 6.09 0.35, 6.1 0.45" stroke="#343a40" stroke-width="1" fill="none"></path></g><g stroke-linecap="round"><g transform="translate(55.19257117952617 76.80385668478914) rotate(13.170412991716741 1.4719072283114372 -4.525564155230835)" fill-rule="evenodd"><path d="M-0.99 -1.22 C-1.55 -2.26, -4.39 -4.2, -4.66 -5.63 C-4.93 -7.05, -3.42 -9.51, -2.63 -9.76 C-1.84 -10.02, -0.31 -7.93, 0.08 -7.15 C0.47 -6.38, -0.67 -5.17, -0.28 -5.11 C0.12 -5.05, 1.32 -6.29, 2.46 -6.79 C3.59 -7.29, 6.05 -8.56, 6.55 -8.11 C7.06 -7.66, 6.42 -5.49, 5.47 -4.08 C4.52 -2.66, 1.71 -0.44, 0.83 0.39 C-0.04 1.22, 0.3 1.04, 0.21 0.89" stroke="none" stroke-width="0" fill="#ffcaca" fill-rule="evenodd"></path><path d="M0.14 0.21 C-0.35 -0.64, -2.68 -3.59, -3.12 -5.03 C-3.56 -6.47, -3.03 -7.87, -2.49 -8.43 C-1.96 -9, -0.52 -8.87, 0.08 -8.41 C0.68 -7.95, 0.65 -5.78, 1.13 -5.67 C1.61 -5.56, 2.16 -7.37, 2.95 -7.76 C3.75 -8.16, 5.4 -8.55, 5.88 -8.04 C6.36 -7.53, 6.59 -5.93, 5.81 -4.7 C5.03 -3.46, 2.17 -1.39, 1.21 -0.65 C0.26 0.1, 0.2 -0.35, 0.07 -0.23 M-0.22 0.01 C-0.71 -0.79, -2.84 -3.09, -3.23 -4.6 C-3.62 -6.11, -3.14 -8.47, -2.58 -9.07 C-2.02 -9.66, -0.45 -8.76, 0.12 -8.16 C0.7 -7.55, 0.32 -5.48, 0.86 -5.45 C1.39 -5.42, 2.46 -7.49, 3.33 -7.97 C4.21 -8.45, 5.75 -8.83, 6.11 -8.31 C6.47 -7.78, 6.24 -6.02, 5.52 -4.82 C4.8 -3.61, 2.66 -1.78, 1.77 -1.06 C0.89 -0.34, 0.39 -0.74, 0.21 -0.5" stroke="#343a40" stroke-width="1" fill="none"></path></g></g><mask></mask><g stroke-linecap="round" transform="translate(57.42703363007354 66.30983339469572) rotate(16.687830541157332 0.6725856098210841 0.7337297561684863)"><path d="M0.51 0.21 C0.68 0.21, 1.15 0.49, 1.27 0.52 C1.38 0.54, 1.22 0.22, 1.19 0.36 C1.16 0.5, 1.11 1.18, 1.09 1.34 C1.08 1.49, 1.21 1.31, 1.11 1.28 C1.01 1.26, 0.67 1.27, 0.49 1.19 C0.32 1.11, 0.16 0.87, 0.06 0.79 C-0.04 0.71, -0.17 0.85, -0.11 0.7 C-0.04 0.55, 0.37 -0.06, 0.47 -0.14 C0.56 -0.21, 0.39 0.22, 0.44 0.26 C0.5 0.31, 0.72 0.22, 0.79 0.14 M0.9 -0.14 C1.15 -0.04, 1.47 0.43, 1.57 0.57 C1.66 0.7, 1.48 0.57, 1.47 0.68 C1.46 0.79, 1.69 1.1, 1.51 1.23 C1.32 1.35, 0.5 1.37, 0.36 1.45 C0.22 1.53, 0.68 1.74, 0.67 1.72 C0.65 1.69, 0.33 1.56, 0.26 1.29 C0.19 1.03, 0.25 0.26, 0.25 0.11 C0.24 -0.04, 0.18 0.36, 0.23 0.41 C0.27 0.45, 0.38 0.51, 0.53 0.4 C0.67 0.29, 1.13 -0.12, 1.09 -0.26" stroke="none" stroke-width="0" fill="#868e96"></path><path d="M0.63 0.31 C0.79 0.31, 1.22 0.09, 1.37 0.17 C1.52 0.25, 1.51 0.6, 1.52 0.77 C1.53 0.94, 1.56 1.08, 1.44 1.19 C1.31 1.29, 0.97 1.39, 0.78 1.4 C0.6 1.41, 0.52 1.26, 0.35 1.23 C0.19 1.21, -0.15 1.41, -0.19 1.24 C-0.24 1.07, -0.03 0.43, 0.07 0.21 C0.18 -0.02, 0.39 -0.04, 0.46 -0.12 C0.53 -0.2, 0.45 -0.31, 0.48 -0.28 C0.51 -0.26, 0.63 0, 0.63 0.06 M0.56 0.42 C0.81 0.4, 1.33 0.22, 1.44 0.3 C1.55 0.38, 1.29 0.7, 1.23 0.91 C1.16 1.12, 1.12 1.41, 1.05 1.55 C0.98 1.69, 0.92 1.82, 0.81 1.76 C0.69 1.7, 0.55 1.24, 0.38 1.18 C0.21 1.12, -0.2 1.48, -0.2 1.38 C-0.2 1.28, 0.36 0.75, 0.39 0.57 C0.42 0.39, -0.14 0.38, -0.03 0.29 C0.09 0.19, 0.93 0.12, 1.07 0.01 C1.22 -0.09, 0.88 -0.3, 0.86 -0.35" stroke="#343a40" stroke-width="1" fill="none"></path></g></svg>