<svg version="1.1" xmlns="http://www.w3.org/2000/svg" viewBox="0 0 86.17857359898994 116.67244566466195" width="86.17857359898994" height="116.67244566466195">
  <!-- svg-source:excalidraw -->
  
  <defs>
    <style class="style-fonts">
      
    </style>
    
  </defs>
  <rect x="0" y="0" width="86.17857359898994" height="116.67244566466195" fill="#ffffff"></rect><g stroke-linecap="round"><g transform="translate(73.15453902110062 75.62685645789026) rotate(0 -30.33244694572562 -17.34184451132458)" fill-rule="evenodd"><path d="M0 0 C-0.2 1.82, -0.21 7.34, -1.22 10.91 C-2.22 14.49, -3.64 18.59, -6.03 21.45 C-8.41 24.31, -11.62 26.5, -15.53 28.06 C-19.44 29.62, -24.69 30.5, -29.47 30.82 C-34.26 31.13, -39.87 31.1, -44.23 29.96 C-48.59 28.82, -52.8 27.49, -55.64 23.99 C-58.47 20.5, -60.36 18.41, -61.25 8.97 C-62.13 -0.47, -62.19 -22.15, -60.95 -32.66 C-59.71 -43.17, -55.28 -50.05, -53.82 -54.09 C-52.35 -58.13, -52.46 -56.39, -52.17 -56.9 C-51.87 -57.41, -51.85 -56.7, -52.07 -57.16 C-52.29 -57.63, -53.14 -58.84, -53.49 -59.67 C-53.83 -60.51, -54.16 -61.38, -54.13 -62.16 C-54.1 -62.94, -53.75 -63.79, -53.31 -64.35 C-52.87 -64.9, -52.1 -65.3, -51.48 -65.49 C-50.86 -65.68, -50.17 -65.66, -49.61 -65.5 C-49.04 -65.34, -48.61 -65.02, -48.08 -64.54 C-47.56 -64.07, -46.95 -63.17, -46.43 -62.65 C-45.91 -62.13, -45.42 -61.51, -44.97 -61.4 C-44.52 -61.3, -46.44 -61.52, -43.74 -62.04 C-41.05 -62.55, -33.44 -64.4, -28.79 -64.51 C-24.13 -64.62, -18.88 -63.31, -15.8 -62.69 C-12.73 -62.07, -11.34 -61.12, -10.32 -60.79 C-9.3 -60.46, -10.1 -60.36, -9.69 -60.72 C-9.28 -61.07, -8.41 -62.35, -7.84 -62.92 C-7.28 -63.49, -6.82 -63.86, -6.29 -64.14 C-5.76 -64.43, -5.26 -64.66, -4.65 -64.65 C-4.05 -64.63, -3.17 -64.4, -2.66 -64.04 C-2.15 -63.69, -1.75 -63.16, -1.61 -62.5 C-1.47 -61.85, -1.42 -61.14, -1.82 -60.11 C-2.22 -59.08, -3.75 -57.09, -4.04 -56.34 C-4.32 -55.59, -3.96 -56.59, -3.55 -55.59 C-3.14 -54.6, -2.27 -54.21, -1.58 -50.36 C-0.89 -46.5, 0.32 -40.85, 0.58 -32.46 C0.84 -24.06, 0.1 -5.41, 0 0" stroke="none" stroke-width="0" fill="#d0bea7" fill-rule="evenodd"></path><path d="M0 0 C-0.2 1.82, -0.21 7.34, -1.22 10.91 C-2.22 14.49, -3.64 18.59, -6.03 21.45 C-8.41 24.31, -11.62 26.5, -15.53 28.06 C-19.44 29.62, -24.69 30.5, -29.47 30.82 C-34.26 31.13, -39.87 31.1, -44.23 29.96 C-48.59 28.82, -52.8 27.49, -55.64 23.99 C-58.47 20.5, -60.36 18.41, -61.25 8.97 C-62.13 -0.47, -62.19 -22.15, -60.95 -32.66 C-59.71 -43.17, -55.28 -50.05, -53.82 -54.09 C-52.35 -58.13, -52.46 -56.39, -52.17 -56.9 C-51.87 -57.41, -51.85 -56.7, -52.07 -57.16 C-52.29 -57.63, -53.14 -58.84, -53.49 -59.67 C-53.83 -60.51, -54.16 -61.38, -54.13 -62.16 C-54.1 -62.94, -53.75 -63.79, -53.31 -64.35 C-52.87 -64.9, -52.1 -65.3, -51.48 -65.49 C-50.86 -65.68, -50.17 -65.66, -49.61 -65.5 C-49.04 -65.34, -48.61 -65.02, -48.08 -64.54 C-47.56 -64.07, -46.95 -63.17, -46.43 -62.65 C-45.91 -62.13, -45.42 -61.51, -44.97 -61.4 C-44.52 -61.3, -46.44 -61.52, -43.74 -62.04 C-41.05 -62.55, -33.44 -64.4, -28.79 -64.51 C-24.13 -64.62, -18.88 -63.31, -15.8 -62.69 C-12.73 -62.07, -11.34 -61.12, -10.32 -60.79 C-9.3 -60.46, -10.1 -60.36, -9.69 -60.72 C-9.28 -61.07, -8.41 -62.35, -7.84 -62.92 C-7.28 -63.49, -6.82 -63.86, -6.29 -64.14 C-5.76 -64.43, -5.26 -64.66, -4.65 -64.65 C-4.05 -64.63, -3.17 -64.4, -2.66 -64.04 C-2.15 -63.69, -1.75 -63.16, -1.61 -62.5 C-1.47 -61.85, -1.42 -61.14, -1.82 -60.11 C-2.22 -59.08, -3.75 -57.09, -4.04 -56.34 C-4.32 -55.59, -3.96 -56.59, -3.55 -55.59 C-3.14 -54.6, -2.27 -54.21, -1.58 -50.36 C-0.89 -46.5, 0.32 -40.85, 0.58 -32.46 C0.84 -24.06, 0.1 -5.41, 0 0 M0 0 C-0.2 1.82, -0.21 7.34, -1.22 10.91 C-2.22 14.49, -3.64 18.59, -6.03 21.45 C-8.41 24.31, -11.62 26.5, -15.53 28.06 C-19.44 29.62, -24.69 30.5, -29.47 30.82 C-34.26 31.13, -39.87 31.1, -44.23 29.96 C-48.59 28.82, -52.8 27.49, -55.64 23.99 C-58.47 20.5, -60.36 18.41, -61.25 8.97 C-62.13 -0.47, -62.19 -22.15, -60.95 -32.66 C-59.71 -43.17, -55.28 -50.05, -53.82 -54.09 C-52.35 -58.13, -52.46 -56.39, -52.17 -56.9 C-51.87 -57.41, -51.85 -56.7, -52.07 -57.16 C-52.29 -57.63, -53.14 -58.84, -53.49 -59.67 C-53.83 -60.51, -54.16 -61.38, -54.13 -62.16 C-54.1 -62.94, -53.75 -63.79, -53.31 -64.35 C-52.87 -64.9, -52.1 -65.3, -51.48 -65.49 C-50.86 -65.68, -50.17 -65.66, -49.61 -65.5 C-49.04 -65.34, -48.61 -65.02, -48.08 -64.54 C-47.56 -64.07, -46.95 -63.17, -46.43 -62.65 C-45.91 -62.13, -45.42 -61.51, -44.97 -61.4 C-44.52 -61.3, -46.44 -61.52, -43.74 -62.04 C-41.05 -62.55, -33.44 -64.4, -28.79 -64.51 C-24.13 -64.62, -18.88 -63.31, -15.8 -62.69 C-12.73 -62.07, -11.34 -61.12, -10.32 -60.79 C-9.3 -60.46, -10.1 -60.36, -9.69 -60.72 C-9.28 -61.07, -8.41 -62.35, -7.84 -62.92 C-7.28 -63.49, -6.82 -63.86, -6.29 -64.14 C-5.76 -64.43, -5.26 -64.66, -4.65 -64.65 C-4.05 -64.63, -3.17 -64.4, -2.66 -64.04 C-2.15 -63.69, -1.75 -63.16, -1.61 -62.5 C-1.47 -61.85, -1.42 -61.14, -1.82 -60.11 C-2.22 -59.08, -3.75 -57.09, -4.04 -56.34 C-4.32 -55.59, -3.96 -56.59, -3.55 -55.59 C-3.14 -54.6, -2.27 -54.21, -1.58 -50.36 C-0.89 -46.5, 0.32 -40.85, 0.58 -32.46 C0.84 -24.06, 0.1 -5.41, 0 0" stroke="#000000" stroke-width="1" fill="none"></path></g></g><mask></mask><g stroke-linecap="round"><g transform="translate(73.15453902110062 75.6840164257685) rotate(0 -30.33244694572562 -16.91431974687501)"><path d="M0 0 C-0.2 1.82, -0.21 7.34, -1.22 10.91 C-2.22 14.49, -3.64 18.59, -6.03 21.45 C-8.41 24.31, -11.62 26.5, -15.53 28.06 C-19.44 29.62, -24.69 30.5, -29.47 30.82 C-34.26 31.13, -39.87 31.1, -44.23 29.96 C-48.59 28.82, -52.8 27.49, -55.64 23.99 C-58.47 20.5, -60.36 18.41, -61.25 8.97 C-62.13 -0.47, -62.19 -22.15, -60.95 -32.66 C-59.71 -43.17, -56.64 -49.22, -53.82 -54.09 C-51 -58.97, -48.21 -60.17, -44.04 -61.9 C-39.87 -63.64, -33.49 -64.37, -28.79 -64.51 C-24.08 -64.64, -18.88 -63.31, -15.8 -62.69 C-12.73 -62.07, -11.34 -61.12, -10.32 -60.79 C-9.3 -60.46, -10.1 -60.36, -9.69 -60.72 C-9.28 -61.07, -8.41 -62.35, -7.84 -62.92 C-7.28 -63.49, -6.82 -63.86, -6.29 -64.14 C-5.76 -64.43, -5.26 -64.66, -4.65 -64.65 C-4.05 -64.63, -3.17 -64.4, -2.66 -64.04 C-2.15 -63.69, -1.75 -63.16, -1.61 -62.5 C-1.47 -61.85, -1.42 -61.14, -1.82 -60.11 C-2.22 -59.08, -3.75 -57.09, -4.04 -56.34 C-4.32 -55.59, -3.96 -56.59, -3.55 -55.59 C-3.14 -54.6, -2.27 -54.21, -1.58 -50.36 C-0.89 -46.5, 0.32 -40.85, 0.58 -32.46 C0.84 -24.06, 0.1 -5.41, 0 0 M0 0 C-0.2 1.82, -0.21 7.34, -1.22 10.91 C-2.22 14.49, -3.64 18.59, -6.03 21.45 C-8.41 24.31, -11.62 26.5, -15.53 28.06 C-19.44 29.62, -24.69 30.5, -29.47 30.82 C-34.26 31.13, -39.87 31.1, -44.23 29.96 C-48.59 28.82, -52.8 27.49, -55.64 23.99 C-58.47 20.5, -60.36 18.41, -61.25 8.97 C-62.13 -0.47, -62.19 -22.15, -60.95 -32.66 C-59.71 -43.17, -56.64 -49.22, -53.82 -54.09 C-51 -58.97, -48.21 -60.17, -44.04 -61.9 C-39.87 -63.64, -33.49 -64.37, -28.79 -64.51 C-24.08 -64.64, -18.88 -63.31, -15.8 -62.69 C-12.73 -62.07, -11.34 -61.12, -10.32 -60.79 C-9.3 -60.46, -10.1 -60.36, -9.69 -60.72 C-9.28 -61.07, -8.41 -62.35, -7.84 -62.92 C-7.28 -63.49, -6.82 -63.86, -6.29 -64.14 C-5.76 -64.43, -5.26 -64.66, -4.65 -64.65 C-4.05 -64.63, -3.17 -64.4, -2.66 -64.04 C-2.15 -63.69, -1.75 -63.16, -1.61 -62.5 C-1.47 -61.85, -1.42 -61.14, -1.82 -60.11 C-2.22 -59.08, -3.75 -57.09, -4.04 -56.34 C-4.32 -55.59, -3.96 -56.59, -3.55 -55.59 C-3.14 -54.6, -2.27 -54.21, -1.58 -50.36 C-0.89 -46.5, 0.32 -40.85, 0.58 -32.46 C0.84 -24.06, 0.1 -5.41, 0 0" stroke="#000000" stroke-width="1" fill="none"></path></g></g><mask></mask><g stroke-linecap="round"><g transform="translate(61.142695117658945 14.230503987832037) rotate(0 4.389383555658867 3.0202180428845224)"><path d="M0 0 C0.7 0.38, 2.91 1.42, 4.23 2.26 C5.54 3.09, 7.13 4.36, 7.89 4.99 C8.65 5.62, 8.63 5.87, 8.78 6.04 M0 0 C0.7 0.38, 2.91 1.42, 4.23 2.26 C5.54 3.09, 7.13 4.36, 7.89 4.99 C8.65 5.62, 8.63 5.87, 8.78 6.04" stroke="#000000" stroke-width="1" fill="none"></path></g></g><mask></mask><g stroke-linecap="round"><g transform="translate(66.36797624068049 16.969115764794367) rotate(0 0.6743903104007245 -1.7166298810199976)" fill-rule="evenodd"><path d="M0 0 C0.12 -0.27, 0.51 -1.02, 0.74 -1.59 C0.96 -2.17, 1.25 -3.13, 1.35 -3.43" stroke="none" stroke-width="0" fill="#ffffff" fill-rule="evenodd"></path><path d="M0 0 C0.12 -0.27, 0.51 -1.02, 0.74 -1.59 C0.96 -2.17, 1.25 -3.13, 1.35 -3.43 M0 0 C0.12 -0.27, 0.51 -1.02, 0.74 -1.59 C0.96 -2.17, 1.25 -3.13, 1.35 -3.43" stroke="#000000" stroke-width="1" fill="none"></path></g></g><mask></mask><g stroke-linecap="round"><g transform="translate(69.51300726362092 15.26170359336021) rotate(0 -1.5815143561268314 0.7785916830162876)" fill-rule="evenodd"><path d="M0 0 C-0.26 0.06, -1.03 0.13, -1.56 0.39 C-2.08 0.65, -2.9 1.36, -3.16 1.56" stroke="none" stroke-width="0" fill="#ffffff" fill-rule="evenodd"></path><path d="M0 0 C-0.26 0.06, -1.03 0.13, -1.56 0.39 C-2.08 0.65, -2.9 1.36, -3.16 1.56 M0 0 C-0.26 0.06, -1.03 0.13, -1.56 0.39 C-2.08 0.65, -2.9 1.36, -3.16 1.56" stroke="#000000" stroke-width="1" fill="none"></path></g></g><mask></mask><g stroke-opacity="0.5" fill-opacity="0.5" stroke-linecap="round" transform="translate(19.948322578424268 68.09145552279631) rotate(0 21.587545572086754 17.550258458822356)"><path d="M11.91 1.09 C15.87 -0.46, 22.88 0.35, 27.37 1.4 C31.85 2.45, 36.24 4.36, 38.82 7.39 C41.39 10.41, 42.98 15.71, 42.81 19.55 C42.63 23.4, 40.83 27.76, 37.74 30.43 C34.66 33.11, 29 35.24, 24.28 35.6 C19.56 35.96, 13.28 34.77, 9.42 32.58 C5.56 30.38, 2.25 26.26, 1.13 22.44 C0.01 18.62, 0.47 13.1, 2.7 9.65 C4.93 6.2, 12.15 3.2, 14.51 1.73 C16.87 0.27, 16.88 0.55, 16.86 0.86 M17.36 -0.26 C21.7 -1.08, 27.53 -0.43, 31.79 1.63 C36.05 3.69, 41.04 8.18, 42.91 12.12 C44.78 16.06, 44.67 21.89, 43.01 25.26 C41.35 28.63, 37.31 30.59, 32.95 32.35 C28.59 34.12, 21.73 36.32, 16.86 35.87 C11.99 35.42, 6.71 32.86, 3.74 29.65 C0.78 26.44, -1.26 20.45, -0.93 16.59 C-0.59 12.74, 2.63 9.13, 5.75 6.53 C8.87 3.93, 15.94 2.07, 17.78 1 C19.63 -0.07, 16.72 -0.28, 16.81 0.1" stroke="none" stroke-width="0" fill="#ffffff"></path><path d="M29.57 0.88 C33.52 2.13, 37.97 6.19, 40.14 9.56 C42.32 12.93, 43.5 17.34, 42.61 21.08 C41.71 24.83, 38.36 29.55, 34.76 32.04 C31.17 34.54, 25.79 36.31, 21.06 36.04 C16.32 35.78, 9.8 33.18, 6.36 30.46 C2.92 27.74, 1.09 23.32, 0.42 19.72 C-0.25 16.13, -0.02 11.88, 2.33 8.88 C4.69 5.89, 9.9 3.02, 14.54 1.75 C19.19 0.48, 27.24 1.32, 30.21 1.28 C33.18 1.24, 32.38 1.32, 32.35 1.52 M10.67 1.31 C14.05 -0.4, 19.61 -0.03, 24.4 1 C29.18 2.03, 36.12 4.8, 39.4 7.47 C42.68 10.14, 44.38 13.59, 44.08 17.04 C43.79 20.48, 40.67 25.3, 37.63 28.15 C34.59 31, 30.17 33.17, 25.82 34.12 C21.48 35.07, 15.57 35.65, 11.57 33.84 C7.58 32.03, 3.4 26.88, 1.85 23.26 C0.3 19.64, 0.94 15.48, 2.27 12.14 C3.6 8.8, 8.31 4.75, 9.81 3.23 C11.31 1.7, 11.08 3.12, 11.26 3" stroke="#000000" stroke-width="1" fill="none"></path></g><g stroke-linecap="round"><g transform="translate(22.185749022005666 16.68096735371182) rotate(294.1768782491122 0.367849260218577 -1.7302804248918449)" fill-rule="evenodd"><path d="M0 0 C0.12 -0.27, 0.62 -1.02, 0.74 -1.59 C0.85 -2.17, 0.7 -3.15, 0.69 -3.46" stroke="none" stroke-width="0" fill="#ffffff" fill-rule="evenodd"></path><path d="M0 0 C0.12 -0.27, 0.62 -1.02, 0.74 -1.59 C0.85 -2.17, 0.7 -3.15, 0.69 -3.46 M0 0 C0.12 -0.27, 0.62 -1.02, 0.74 -1.59 C0.85 -2.17, 0.7 -3.15, 0.69 -3.46" stroke="#000000" stroke-width="1" fill="none"></path></g></g><mask></mask><g stroke-linecap="round"><g transform="translate(24.571122744663285 13.303821998844967) rotate(294.1768782491122 -1.223307003437867 1.0995487725948294)" fill-rule="evenodd"><path d="M0 0 C-0.14 0.17, -0.43 0.66, -0.84 1.03 C-1.25 1.4, -2.18 2, -2.45 2.2" stroke="none" stroke-width="0" fill="#ffffff" fill-rule="evenodd"></path><path d="M0 0 C-0.14 0.17, -0.43 0.66, -0.84 1.03 C-1.25 1.4, -2.18 2, -2.45 2.2 M0 0 C-0.14 0.17, -0.43 0.66, -0.84 1.03 C-1.25 1.4, -2.18 2, -2.45 2.2" stroke="#000000" stroke-width="1" fill="none"></path></g></g><mask></mask><g stroke-linecap="round" transform="translate(50.25280051050902 21.035052058654173) rotate(0 12.885944411733192 13.012899529090163)"><path d="M15.37 0.55 C18.07 0.98, 21.63 3.04, 23.42 5.23 C25.22 7.42, 26.27 10.91, 26.12 13.71 C25.98 16.5, 24.43 19.93, 22.56 21.99 C20.69 24.04, 17.6 25.73, 14.91 26.03 C12.23 26.33, 8.84 25.23, 6.46 23.8 C4.08 22.37, 1.56 20.06, 0.64 17.46 C-0.28 14.87, -0.03 10.79, 0.93 8.22 C1.88 5.64, 3.87 3.39, 6.36 2.02 C8.84 0.65, 14.18 0.24, 15.81 -0.02 C17.44 -0.28, 16.18 0.24, 16.13 0.46 M11.65 0.85 C14.22 0.23, 17.9 0.23, 20.09 1.66 C22.29 3.1, 24.1 6.68, 24.81 9.46 C25.52 12.24, 25.37 15.89, 24.33 18.34 C23.29 20.79, 20.85 22.86, 18.54 24.14 C16.24 25.42, 13.18 26.45, 10.51 26 C7.85 25.56, 4.44 23.75, 2.57 21.48 C0.69 19.22, -0.83 15.15, -0.73 12.41 C-0.63 9.67, 1.11 7.06, 3.14 5.05 C5.17 3.03, 10.02 1.05, 11.44 0.31 C12.86 -0.43, 11.7 0.46, 11.64 0.6" stroke="none" stroke-width="0" fill="#ffffff"></path><path d="M13.75 0.38 C16.4 0.5, 20.03 2.29, 21.95 4.16 C23.88 6.04, 25.01 8.95, 25.29 11.62 C25.57 14.29, 25.2 17.8, 23.64 20.17 C22.08 22.54, 18.63 24.97, 15.93 25.83 C13.23 26.69, 9.94 26.54, 7.44 25.32 C4.95 24.09, 2.1 21.13, 0.97 18.47 C-0.15 15.81, -0.07 12.07, 0.67 9.33 C1.41 6.6, 3.25 3.58, 5.41 2.07 C7.58 0.56, 12.19 0.59, 13.67 0.27 C15.15 -0.04, 14.27 0.06, 14.29 0.16 M14.74 -0.4 C17.28 -0.43, 20.2 1.48, 22.12 3.51 C24.04 5.53, 25.96 8.79, 26.25 11.77 C26.55 14.74, 25.56 19.04, 23.9 21.36 C22.24 23.69, 19.04 25.07, 16.32 25.71 C13.6 26.35, 10.24 26.33, 7.58 25.18 C4.92 24.03, 1.56 21.39, 0.37 18.8 C-0.83 16.21, -0.37 12.52, 0.41 9.65 C1.19 6.79, 2.78 3.22, 5.03 1.62 C7.28 0.01, 12.47 0.28, 13.9 0.03 C15.33 -0.23, 13.59 -0.1, 13.6 0.07" stroke="#000000" stroke-width="1" fill="none"></path></g><g stroke-linecap="round" transform="translate(11.2775794819172 21.134665199098777) rotate(0 12.885944411733192 13.012899529090163)"><path d="M13.19 0.26 C15.89 0.08, 19.37 1.48, 21.44 3.26 C23.51 5.04, 25.15 8.23, 25.62 10.94 C26.1 13.66, 25.6 17.23, 24.29 19.56 C22.98 21.89, 20.38 23.91, 17.76 24.93 C15.14 25.94, 11.24 26.54, 8.58 25.66 C5.92 24.78, 3.26 22.04, 1.79 19.65 C0.31 17.26, -0.69 14.16, -0.26 11.34 C0.17 8.51, 2.14 4.66, 4.36 2.72 C6.58 0.79, 11.51 0.18, 13.04 -0.28 C14.57 -0.74, 13.57 -0.33, 13.55 -0.02 M13.95 -0.26 C16.42 -0.33, 19.46 1.97, 21.32 4 C23.19 6.02, 24.81 9.27, 25.13 11.89 C25.46 14.51, 24.63 17.42, 23.26 19.72 C21.9 22.02, 19.53 24.74, 16.94 25.69 C14.34 26.63, 10.4 26.56, 7.69 25.41 C4.99 24.25, 1.95 21.18, 0.7 18.74 C-0.55 16.31, -0.6 13.48, 0.2 10.82 C1.01 8.17, 3.2 4.6, 5.51 2.83 C7.83 1.06, 12.78 0.69, 14.09 0.22 C15.4 -0.25, 13.56 -0.24, 13.36 0" stroke="none" stroke-width="0" fill="#ffffff"></path><path d="M12.76 0.48 C15.32 0.2, 18.45 1.17, 20.59 2.83 C22.74 4.48, 25.12 7.59, 25.64 10.39 C26.15 13.19, 25.07 17.09, 23.69 19.63 C22.31 22.17, 19.89 24.69, 17.33 25.6 C14.78 26.52, 10.9 26.17, 8.37 25.11 C5.83 24.04, 3.47 21.64, 2.11 19.22 C0.76 16.8, -0.08 13.21, 0.22 10.57 C0.53 7.93, 1.81 5.18, 3.94 3.39 C6.08 1.59, 11.43 0.41, 13.01 -0.19 C14.59 -0.79, 13.36 -0.5, 13.42 -0.2 M14.66 -0.37 C17.29 -0.14, 21.05 1.68, 23.01 3.96 C24.96 6.23, 26.33 10.41, 26.39 13.27 C26.45 16.13, 25.12 18.96, 23.37 21.13 C21.62 23.29, 18.78 25.6, 15.9 26.25 C13.02 26.9, 8.58 26.38, 6.06 25.02 C3.55 23.66, 1.83 20.89, 0.81 18.11 C-0.2 15.34, -0.86 11.06, -0.04 8.36 C0.77 5.66, 3.36 3.31, 5.72 1.9 C8.07 0.48, 12.61 0.18, 14.07 -0.13 C15.54 -0.44, 14.51 -0.25, 14.52 0.04" stroke="#000000" stroke-width="1" fill="none"></path></g><g stroke-linecap="round"><g stroke-opacity="0.1" fill-opacity="0.1" transform="translate(68.7672635561504 45.64879132709285) rotate(0 -9.104515003028837 -11.175166261843657)" fill-rule="evenodd"><path d="M0 0 C-0.4 0.05, -1.59 0.28, -2.39 0.28 C-3.19 0.28, -3.87 0.19, -4.79 0.01 C-5.7 -0.16, -6.88 -0.38, -7.87 -0.75 C-8.87 -1.11, -9.91 -1.52, -10.77 -2.17 C-11.64 -2.83, -12.3 -3.6, -13.05 -4.65 C-13.8 -5.7, -14.94 -6.98, -15.28 -8.49 C-15.63 -10.01, -15.51 -11.97, -15.13 -13.74 C-14.74 -15.51, -14.13 -17.57, -12.97 -19.11 C-11.81 -20.65, -9.65 -22.1, -8.17 -22.99 C-6.68 -23.87, -3.55 -24.38, -4.05 -24.42 C-4.56 -24.47, -9.3 -24.07, -11.19 -23.26 C-13.08 -22.46, -14.35 -20.73, -15.38 -19.58 C-16.42 -18.44, -16.89 -17.65, -17.41 -16.41 C-17.93 -15.17, -18.27 -13.62, -18.51 -12.16 C-18.74 -10.71, -18.91 -8.96, -18.82 -7.67 C-18.74 -6.39, -18.38 -5.37, -17.99 -4.45 C-17.61 -3.54, -17.21 -2.95, -16.53 -2.2 C-15.84 -1.45, -14.98 -0.61, -13.89 0.04 C-12.79 0.69, -11.42 1.34, -9.95 1.68 C-8.49 2.02, -6.84 2.35, -5.08 2.07 C-3.32 1.8, -0.34 0.39, 0.61 0.06" stroke="none" stroke-width="0" fill="#000000" fill-rule="evenodd"></path><path d="M0 0 C-0.4 0.05, -1.59 0.28, -2.39 0.28 C-3.19 0.28, -3.87 0.19, -4.79 0.01 C-5.7 -0.16, -6.88 -0.38, -7.87 -0.75 C-8.87 -1.11, -9.91 -1.52, -10.77 -2.17 C-11.64 -2.83, -12.3 -3.6, -13.05 -4.65 C-13.8 -5.7, -14.94 -6.98, -15.28 -8.49 C-15.63 -10.01, -15.51 -11.97, -15.13 -13.74 C-14.74 -15.51, -14.13 -17.57, -12.97 -19.11 C-11.81 -20.65, -9.65 -22.1, -8.17 -22.99 C-6.68 -23.87, -3.55 -24.38, -4.05 -24.42 C-4.56 -24.47, -9.3 -24.07, -11.19 -23.26 C-13.08 -22.46, -14.35 -20.73, -15.38 -19.58 C-16.42 -18.44, -16.89 -17.65, -17.41 -16.41 C-17.93 -15.17, -18.27 -13.62, -18.51 -12.16 C-18.74 -10.71, -18.91 -8.96, -18.82 -7.67 C-18.74 -6.39, -18.38 -5.37, -17.99 -4.45 C-17.61 -3.54, -17.21 -2.95, -16.53 -2.2 C-15.84 -1.45, -14.98 -0.61, -13.89 0.04 C-12.79 0.69, -11.42 1.34, -9.95 1.68 C-8.49 2.02, -6.84 2.35, -5.08 2.07 C-3.32 1.8, -0.34 0.39, 0.61 0.06 M0 0 C-0.4 0.05, -1.59 0.28, -2.39 0.28 C-3.19 0.28, -3.87 0.19, -4.79 0.01 C-5.7 -0.16, -6.88 -0.38, -7.87 -0.75 C-8.87 -1.11, -9.91 -1.52, -10.77 -2.17 C-11.64 -2.83, -12.3 -3.6, -13.05 -4.65 C-13.8 -5.7, -14.94 -6.98, -15.28 -8.49 C-15.63 -10.01, -15.51 -11.97, -15.13 -13.74 C-14.74 -15.51, -14.13 -17.57, -12.97 -19.11 C-11.81 -20.65, -9.65 -22.1, -8.17 -22.99 C-6.68 -23.87, -3.55 -24.38, -4.05 -24.42 C-4.56 -24.47, -9.3 -24.07, -11.19 -23.26 C-13.08 -22.46, -14.35 -20.73, -15.38 -19.58 C-16.42 -18.44, -16.89 -17.65, -17.41 -16.41 C-17.93 -15.17, -18.27 -13.62, -18.51 -12.16 C-18.74 -10.71, -18.91 -8.96, -18.82 -7.67 C-18.74 -6.39, -18.38 -5.37, -17.99 -4.45 C-17.61 -3.54, -17.21 -2.95, -16.53 -2.2 C-15.84 -1.45, -14.98 -0.61, -13.89 0.04 C-12.79 0.69, -11.42 1.34, -9.95 1.68 C-8.49 2.02, -6.84 2.35, -5.08 2.07 C-3.32 1.8, -0.34 0.39, 0.61 0.06" stroke="#000000" stroke-width="1" fill="none"></path></g></g><mask></mask><g stroke-linecap="round"><g stroke-opacity="0.1" fill-opacity="0.1" transform="translate(25.563257425824645 46.81056424382621) rotate(0 -6.489731873534197 -12.70781510274648)" fill-rule="evenodd"><path d="M0 0 C-0.9 -0.53, -3.83 -1.81, -5.43 -3.18 C-7.03 -4.55, -8.75 -6.27, -9.6 -8.21 C-10.45 -10.16, -10.71 -12.86, -10.5 -14.86 C-10.3 -16.86, -9.51 -18.69, -8.35 -20.23 C-7.19 -21.77, -5.03 -23.21, -3.54 -24.1 C-2.06 -24.99, 1.08 -25.49, 0.57 -25.54 C0.07 -25.59, -4.68 -25.19, -6.57 -24.38 C-8.46 -23.57, -9.72 -21.84, -10.76 -20.7 C-11.8 -19.55, -12.32 -18.75, -12.79 -17.52 C-13.26 -16.3, -13.53 -14.84, -13.55 -13.33 C-13.57 -11.83, -13.34 -10.01, -12.92 -8.51 C-12.49 -7.01, -11.82 -5.42, -11.01 -4.32 C-10.21 -3.22, -9.38 -2.65, -8.09 -1.91 C-6.8 -1.17, -4.62 -0.19, -3.27 0.12 C-1.92 0.44, -0.54 0.02, 0 0" stroke="none" stroke-width="0" fill="#000000" fill-rule="evenodd"></path><path d="M0 0 C-0.9 -0.53, -3.83 -1.81, -5.43 -3.18 C-7.03 -4.55, -8.75 -6.27, -9.6 -8.21 C-10.45 -10.16, -10.71 -12.86, -10.5 -14.86 C-10.3 -16.86, -9.51 -18.69, -8.35 -20.23 C-7.19 -21.77, -5.03 -23.21, -3.54 -24.1 C-2.06 -24.99, 1.08 -25.49, 0.57 -25.54 C0.07 -25.59, -4.68 -25.19, -6.57 -24.38 C-8.46 -23.57, -9.72 -21.84, -10.76 -20.7 C-11.8 -19.55, -12.32 -18.75, -12.79 -17.52 C-13.26 -16.3, -13.53 -14.84, -13.55 -13.33 C-13.57 -11.83, -13.34 -10.01, -12.92 -8.51 C-12.49 -7.01, -11.82 -5.42, -11.01 -4.32 C-10.21 -3.22, -9.38 -2.65, -8.09 -1.91 C-6.8 -1.17, -4.62 -0.19, -3.27 0.12 C-1.92 0.44, -0.54 0.02, 0 0 M0 0 C-0.9 -0.53, -3.83 -1.81, -5.43 -3.18 C-7.03 -4.55, -8.75 -6.27, -9.6 -8.21 C-10.45 -10.16, -10.71 -12.86, -10.5 -14.86 C-10.3 -16.86, -9.51 -18.69, -8.35 -20.23 C-7.19 -21.77, -5.03 -23.21, -3.54 -24.1 C-2.06 -24.99, 1.08 -25.49, 0.57 -25.54 C0.07 -25.59, -4.68 -25.19, -6.57 -24.38 C-8.46 -23.57, -9.72 -21.84, -10.76 -20.7 C-11.8 -19.55, -12.32 -18.75, -12.79 -17.52 C-13.26 -16.3, -13.53 -14.84, -13.55 -13.33 C-13.57 -11.83, -13.34 -10.01, -12.92 -8.51 C-12.49 -7.01, -11.82 -5.42, -11.01 -4.32 C-10.21 -3.22, -9.38 -2.65, -8.09 -1.91 C-6.8 -1.17, -4.62 -0.19, -3.27 0.12 C-1.92 0.44, -0.54 0.02, 0 0" stroke="#000000" stroke-width="1" fill="none"></path></g></g><mask></mask><g stroke-linecap="round" transform="translate(11.377192622361918 21.035052058654173) rotate(0 12.885944411733192 13.012899529090163)"><path d="M11.89 0.31 C14.46 0.13, 18.38 1.52, 20.59 3.14 C22.8 4.76, 24.5 7.44, 25.16 10.01 C25.83 12.58, 25.8 16.12, 24.59 18.56 C23.37 21, 20.54 23.48, 17.86 24.65 C15.18 25.83, 11.17 26.44, 8.49 25.62 C5.82 24.81, 3.26 22.26, 1.82 19.79 C0.38 17.32, -0.6 13.48, -0.16 10.8 C0.27 8.13, 2.23 5.47, 4.41 3.72 C6.6 1.97, 11.56 0.89, 12.93 0.31 C14.3 -0.28, 12.73 -0.01, 12.63 0.21 M11.58 0.17 C14.12 -0.37, 18.06 0.96, 20.21 2.54 C22.35 4.12, 23.71 7.03, 24.45 9.65 C25.2 12.27, 25.74 15.89, 24.68 18.28 C23.63 20.67, 20.63 22.75, 18.14 23.98 C15.64 25.21, 12.39 26.22, 9.7 25.67 C7.01 25.11, 3.64 22.92, 2 20.66 C0.35 18.4, -0.33 14.79, -0.17 12.09 C-0.01 9.38, 0.95 6.47, 2.95 4.43 C4.95 2.38, 10.45 0.53, 11.83 -0.19 C13.21 -0.9, 11.23 -0.22, 11.22 0.15" stroke="#000000" stroke-width="1" fill="none"></path></g><g stroke-linecap="round" transform="translate(50.40668477552367 20.872238684944932) rotate(0 12.885944411733192 13.012899529090163)"><path d="M11.71 0.48 C14.33 0.02, 17.73 0.74, 20.05 2.21 C22.37 3.67, 24.88 6.59, 25.64 9.26 C26.39 11.93, 25.9 15.58, 24.59 18.21 C23.27 20.85, 20.3 23.87, 17.74 25.06 C15.19 26.25, 11.89 26.22, 9.27 25.36 C6.64 24.5, 3.5 22.12, 2 19.91 C0.5 17.69, -0.08 14.73, 0.28 12.09 C0.63 9.45, 2.17 6.07, 4.13 4.05 C6.1 2.02, 10.66 0.54, 12.07 -0.04 C13.48 -0.61, 12.56 0.31, 12.58 0.6 M16.08 0.81 C18.49 1.3, 20.79 3.47, 22.39 5.64 C23.99 7.82, 25.77 11.27, 25.66 13.87 C25.54 16.47, 23.6 19.23, 21.69 21.23 C19.77 23.23, 16.9 25.45, 14.17 25.87 C11.44 26.28, 7.58 25.27, 5.29 23.72 C3 22.16, 1.2 19.14, 0.41 16.56 C-0.38 13.98, -0.65 10.8, 0.55 8.24 C1.74 5.67, 5.04 2.52, 7.56 1.17 C10.08 -0.19, 14.25 0.09, 15.66 0.09 C17.07 0.09, 16.02 0.85, 16.04 1.18" stroke="#000000" stroke-width="1" fill="none"></path></g><g stroke-linecap="round" transform="translate(20.898976589880704 31.192212275943405) rotate(0 2.602579905818004 2.4756247884610616)"><path d="M2.72 0.26 C3.21 0.28, 4 0.31, 4.37 0.68 C4.73 1.04, 4.84 1.99, 4.89 2.47 C4.94 2.95, 4.97 3.18, 4.69 3.55 C4.42 3.91, 3.77 4.48, 3.24 4.65 C2.71 4.82, 2.02 4.7, 1.5 4.56 C0.97 4.42, 0.33 4.21, 0.1 3.82 C-0.13 3.43, -0.08 2.74, 0.13 2.22 C0.33 1.7, 0.91 1.1, 1.34 0.71 C1.76 0.32, 2.37 0.02, 2.67 -0.13 C2.96 -0.28, 3.04 -0.21, 3.1 -0.18 M2.27 0.27 C2.69 0.15, 3.17 -0.03, 3.64 0.32 C4.1 0.66, 4.79 1.76, 5.05 2.32 C5.32 2.88, 5.4 3.25, 5.23 3.67 C5.07 4.1, 4.63 4.7, 4.06 4.87 C3.49 5.04, 2.47 4.8, 1.81 4.67 C1.15 4.54, 0.44 4.5, 0.09 4.08 C-0.26 3.66, -0.37 2.74, -0.27 2.13 C-0.16 1.52, 0.28 0.69, 0.71 0.42 C1.14 0.15, 1.95 0.59, 2.29 0.5 C2.64 0.4, 2.67 -0.06, 2.77 -0.14" stroke="none" stroke-width="0" fill="#000000"></path><path d="M2.65 -0.12 C3.23 -0.21, 4.22 0.06, 4.65 0.42 C5.08 0.78, 5.28 1.42, 5.24 2.03 C5.2 2.63, 4.74 3.6, 4.39 4.06 C4.03 4.51, 3.64 4.69, 3.12 4.74 C2.61 4.8, 1.75 4.55, 1.29 4.38 C0.83 4.21, 0.54 4.1, 0.38 3.71 C0.21 3.31, 0.2 2.56, 0.29 2.01 C0.38 1.46, 0.53 0.7, 0.92 0.4 C1.32 0.11, 2.36 0.25, 2.66 0.24 C2.97 0.23, 2.66 0.31, 2.74 0.34 M2.15 0.36 C2.63 0.31, 3.81 0.56, 4.23 0.79 C4.66 1.01, 4.65 1.2, 4.71 1.69 C4.77 2.18, 4.86 3.22, 4.58 3.71 C4.3 4.2, 3.52 4.49, 3.02 4.64 C2.52 4.78, 2.06 4.69, 1.56 4.56 C1.06 4.42, 0.22 4.28, 0.04 3.83 C-0.15 3.37, 0.31 2.38, 0.46 1.81 C0.61 1.25, 0.53 0.64, 0.94 0.41 C1.35 0.18, 2.59 0.41, 2.91 0.41 C3.24 0.41, 2.9 0.42, 2.9 0.41" stroke="#000000" stroke-width="1" fill="none"></path></g><g stroke-linecap="round" transform="translate(23.74153285100283 31.61980601963137) rotate(0 0.5078204694278838 0.6347755867848832)"><path d="M1.02 0.63 C1.02 0.67, 1.01 0.71, 1.01 0.75 C1 0.78, 1 0.82, 0.99 0.85 C0.97 0.89, 0.96 0.92, 0.95 0.95 C0.93 0.98, 0.92 1.01, 0.9 1.04 C0.88 1.07, 0.86 1.1, 0.83 1.12 C0.81 1.14, 0.79 1.17, 0.76 1.18 C0.74 1.2, 0.71 1.22, 0.68 1.23 C0.65 1.24, 0.62 1.25, 0.6 1.26 C0.57 1.27, 0.54 1.27, 0.51 1.27 C0.48 1.27, 0.45 1.27, 0.42 1.26 C0.39 1.25, 0.36 1.24, 0.33 1.23 C0.31 1.22, 0.28 1.2, 0.25 1.18 C0.23 1.17, 0.2 1.14, 0.18 1.12 C0.16 1.1, 0.14 1.07, 0.12 1.04 C0.1 1.01, 0.08 0.98, 0.07 0.95 C0.05 0.92, 0.04 0.89, 0.03 0.85 C0.02 0.82, 0.01 0.78, 0.01 0.75 C0 0.71, 0 0.67, 0 0.63 C0 0.6, 0 0.56, 0.01 0.52 C0.01 0.49, 0.02 0.45, 0.03 0.42 C0.04 0.38, 0.05 0.35, 0.07 0.32 C0.08 0.29, 0.1 0.25, 0.12 0.23 C0.14 0.2, 0.16 0.17, 0.18 0.15 C0.2 0.12, 0.23 0.1, 0.25 0.09 C0.28 0.07, 0.31 0.05, 0.33 0.04 C0.36 0.03, 0.39 0.02, 0.42 0.01 C0.45 0, 0.48 0, 0.51 0 C0.54 0, 0.57 0, 0.6 0.01 C0.62 0.02, 0.65 0.03, 0.68 0.04 C0.71 0.05, 0.74 0.07, 0.76 0.09 C0.79 0.1, 0.81 0.12, 0.83 0.15 C0.86 0.17, 0.88 0.2, 0.9 0.23 C0.92 0.25, 0.93 0.29, 0.95 0.32 C0.96 0.35, 0.97 0.38, 0.99 0.42 C1 0.45, 1 0.49, 1.01 0.52 C1.01 0.56, 1.01 0.62, 1.02 0.63 C1.02 0.65, 1.02 0.62, 1.02 0.63" stroke="none" stroke-width="0" fill="#ffffff"></path><path d="M1.02 0.63 C1.02 0.67, 1.01 0.71, 1.01 0.75 C1 0.78, 1 0.82, 0.99 0.85 C0.97 0.89, 0.96 0.92, 0.95 0.95 C0.93 0.98, 0.92 1.01, 0.9 1.04 C0.88 1.07, 0.86 1.1, 0.83 1.12 C0.81 1.14, 0.79 1.17, 0.76 1.18 C0.74 1.2, 0.71 1.22, 0.68 1.23 C0.65 1.24, 0.62 1.25, 0.6 1.26 C0.57 1.27, 0.54 1.27, 0.51 1.27 C0.48 1.27, 0.45 1.27, 0.42 1.26 C0.39 1.25, 0.36 1.24, 0.33 1.23 C0.31 1.22, 0.28 1.2, 0.25 1.18 C0.23 1.17, 0.2 1.14, 0.18 1.12 C0.16 1.1, 0.14 1.07, 0.12 1.04 C0.1 1.01, 0.08 0.98, 0.07 0.95 C0.05 0.92, 0.04 0.89, 0.03 0.85 C0.02 0.82, 0.01 0.78, 0.01 0.75 C0 0.71, 0 0.67, 0 0.63 C0 0.6, 0 0.56, 0.01 0.52 C0.01 0.49, 0.02 0.45, 0.03 0.42 C0.04 0.38, 0.05 0.35, 0.07 0.32 C0.08 0.29, 0.1 0.25, 0.12 0.23 C0.14 0.2, 0.16 0.17, 0.18 0.15 C0.2 0.12, 0.23 0.1, 0.25 0.09 C0.28 0.07, 0.31 0.05, 0.33 0.04 C0.36 0.03, 0.39 0.02, 0.42 0.01 C0.45 0, 0.48 0, 0.51 0 C0.54 0, 0.57 0, 0.6 0.01 C0.62 0.02, 0.65 0.03, 0.68 0.04 C0.71 0.05, 0.74 0.07, 0.76 0.09 C0.79 0.1, 0.81 0.12, 0.83 0.15 C0.86 0.17, 0.88 0.2, 0.9 0.23 C0.92 0.25, 0.93 0.29, 0.95 0.32 C0.96 0.35, 0.97 0.38, 0.99 0.42 C1 0.45, 1 0.49, 1.01 0.52 C1.01 0.56, 1.01 0.62, 1.02 0.63 C1.02 0.65, 1.02 0.62, 1.02 0.63" stroke="#ffffff" stroke-width="1" fill="none"></path></g><g stroke-linecap="round" transform="translate(61.486307606636615 31.725907588485597) rotate(0 2.602579905818004 2.4756247884610616)"><path d="M2.64 0.33 C3.15 0.32, 4.01 0.23, 4.41 0.53 C4.81 0.84, 5.04 1.63, 5.06 2.17 C5.09 2.71, 4.91 3.28, 4.57 3.77 C4.22 4.26, 3.5 4.9, 2.98 5.09 C2.46 5.29, 1.88 5.2, 1.47 4.96 C1.06 4.71, 0.76 4.19, 0.52 3.63 C0.27 3.07, -0.16 2.18, 0 1.6 C0.15 1.02, 0.9 0.45, 1.44 0.15 C1.98 -0.14, 2.97 -0.19, 3.21 -0.18 C3.45 -0.18, 2.89 0.12, 2.86 0.18 M2.75 0.46 C3.41 0.52, 4.26 0.52, 4.73 0.84 C5.2 1.16, 5.6 1.92, 5.59 2.39 C5.58 2.87, 5.1 3.26, 4.65 3.71 C4.21 4.16, 3.49 4.93, 2.92 5.08 C2.35 5.23, 1.68 4.93, 1.22 4.63 C0.76 4.32, 0.37 3.63, 0.16 3.24 C-0.05 2.86, -0.25 2.82, -0.03 2.32 C0.19 1.83, 0.91 0.68, 1.46 0.25 C2.02 -0.17, 3.08 -0.14, 3.3 -0.22 C3.51 -0.29, 2.79 -0.29, 2.78 -0.19" stroke="none" stroke-width="0" fill="#000000"></path><path d="M2.47 -0.25 C2.91 -0.24, 3.38 0.28, 3.8 0.61 C4.23 0.95, 4.85 1.31, 5 1.75 C5.16 2.19, 4.96 2.71, 4.76 3.24 C4.55 3.77, 4.25 4.64, 3.8 4.95 C3.35 5.25, 2.67 5.24, 2.07 5.06 C1.48 4.87, 0.61 4.26, 0.23 3.82 C-0.15 3.39, -0.28 2.91, -0.21 2.44 C-0.14 1.96, 0.13 1.35, 0.62 0.97 C1.12 0.59, 2.44 0.29, 2.76 0.16 C3.08 0.04, 2.55 0.26, 2.54 0.22 M2.45 -0.37 C2.95 -0.38, 3.86 0.33, 4.24 0.75 C4.63 1.17, 4.71 1.67, 4.76 2.17 C4.81 2.66, 4.87 3.25, 4.56 3.73 C4.25 4.21, 3.35 4.9, 2.9 5.03 C2.44 5.15, 2.29 4.77, 1.84 4.48 C1.38 4.2, 0.43 3.68, 0.19 3.3 C-0.05 2.91, 0.18 2.59, 0.39 2.17 C0.6 1.74, 0.98 1.11, 1.45 0.76 C1.92 0.41, 2.91 0.17, 3.2 0.09 C3.5 0, 3.24 0.16, 3.21 0.25" stroke="#000000" stroke-width="1" fill="none"></path></g><g stroke-linecap="round" transform="translate(64.32886386775886 32.249773403061056) rotate(0 0.5078204694278838 0.6347755867848832)"><path d="M1.02 0.63 C1.02 0.67, 1.01 0.71, 1.01 0.75 C1 0.78, 1 0.82, 0.99 0.85 C0.97 0.89, 0.96 0.92, 0.95 0.95 C0.93 0.98, 0.92 1.01, 0.9 1.04 C0.88 1.07, 0.86 1.1, 0.83 1.12 C0.81 1.14, 0.79 1.17, 0.76 1.18 C0.74 1.2, 0.71 1.22, 0.68 1.23 C0.65 1.24, 0.62 1.25, 0.6 1.26 C0.57 1.27, 0.54 1.27, 0.51 1.27 C0.48 1.27, 0.45 1.27, 0.42 1.26 C0.39 1.25, 0.36 1.24, 0.33 1.23 C0.31 1.22, 0.28 1.2, 0.25 1.18 C0.23 1.17, 0.2 1.14, 0.18 1.12 C0.16 1.1, 0.14 1.07, 0.12 1.04 C0.1 1.01, 0.08 0.98, 0.07 0.95 C0.05 0.92, 0.04 0.89, 0.03 0.85 C0.02 0.82, 0.01 0.78, 0.01 0.75 C0 0.71, 0 0.67, 0 0.63 C0 0.6, 0 0.56, 0.01 0.52 C0.01 0.49, 0.02 0.45, 0.03 0.42 C0.04 0.38, 0.05 0.35, 0.07 0.32 C0.08 0.29, 0.1 0.25, 0.12 0.23 C0.14 0.2, 0.16 0.17, 0.18 0.15 C0.2 0.12, 0.23 0.1, 0.25 0.09 C0.28 0.07, 0.31 0.05, 0.33 0.04 C0.36 0.03, 0.39 0.02, 0.42 0.01 C0.45 0, 0.48 0, 0.51 0 C0.54 0, 0.57 0, 0.6 0.01 C0.62 0.02, 0.65 0.03, 0.68 0.04 C0.71 0.05, 0.74 0.07, 0.76 0.09 C0.79 0.1, 0.81 0.12, 0.83 0.15 C0.86 0.17, 0.88 0.2, 0.9 0.23 C0.92 0.25, 0.93 0.29, 0.95 0.32 C0.96 0.35, 0.97 0.38, 0.99 0.42 C1 0.45, 1 0.49, 1.01 0.52 C1.01 0.56, 1.01 0.62, 1.02 0.63 C1.02 0.65, 1.02 0.62, 1.02 0.63" stroke="none" stroke-width="0" fill="#ffffff"></path><path d="M1.02 0.63 C1.02 0.67, 1.01 0.71, 1.01 0.75 C1 0.78, 1 0.82, 0.99 0.85 C0.97 0.89, 0.96 0.92, 0.95 0.95 C0.93 0.98, 0.92 1.01, 0.9 1.04 C0.88 1.07, 0.86 1.1, 0.83 1.12 C0.81 1.14, 0.79 1.17, 0.76 1.18 C0.74 1.2, 0.71 1.22, 0.68 1.23 C0.65 1.24, 0.62 1.25, 0.6 1.26 C0.57 1.27, 0.54 1.27, 0.51 1.27 C0.48 1.27, 0.45 1.27, 0.42 1.26 C0.39 1.25, 0.36 1.24, 0.33 1.23 C0.31 1.22, 0.28 1.2, 0.25 1.18 C0.23 1.17, 0.2 1.14, 0.18 1.12 C0.16 1.1, 0.14 1.07, 0.12 1.04 C0.1 1.01, 0.08 0.98, 0.07 0.95 C0.05 0.92, 0.04 0.89, 0.03 0.85 C0.02 0.82, 0.01 0.78, 0.01 0.75 C0 0.71, 0 0.67, 0 0.63 C0 0.6, 0 0.56, 0.01 0.52 C0.01 0.49, 0.02 0.45, 0.03 0.42 C0.04 0.38, 0.05 0.35, 0.07 0.32 C0.08 0.29, 0.1 0.25, 0.12 0.23 C0.14 0.2, 0.16 0.17, 0.18 0.15 C0.2 0.12, 0.23 0.1, 0.25 0.09 C0.28 0.07, 0.31 0.05, 0.33 0.04 C0.36 0.03, 0.39 0.02, 0.42 0.01 C0.45 0, 0.48 0, 0.51 0 C0.54 0, 0.57 0, 0.6 0.01 C0.62 0.02, 0.65 0.03, 0.68 0.04 C0.71 0.05, 0.74 0.07, 0.76 0.09 C0.79 0.1, 0.81 0.12, 0.83 0.15 C0.86 0.17, 0.88 0.2, 0.9 0.23 C0.92 0.25, 0.93 0.29, 0.95 0.32 C0.96 0.35, 0.97 0.38, 0.99 0.42 C1 0.45, 1 0.49, 1.01 0.52 C1.01 0.56, 1.01 0.62, 1.02 0.63 C1.02 0.65, 1.02 0.62, 1.02 0.63" stroke="#ffffff" stroke-width="1" fill="none"></path></g><g stroke-linecap="round"><g transform="translate(37.85060169259032 49.63736350494338) rotate(0 5.051460860572945 -1.3409540416004688)" fill-rule="evenodd"><path d="M0 0 C0.03 -0.27, -0.13 -1.04, 0.18 -1.64 C0.49 -2.23, 1.09 -3.16, 1.85 -3.56 C2.62 -3.96, 3.89 -4, 4.79 -4.04 C5.69 -4.07, 6.48 -4.05, 7.26 -3.77 C8.04 -3.48, 9 -2.88, 9.47 -2.31 C9.95 -1.75, 10.16 -0.96, 10.1 -0.39 C10.05 0.19, 9.99 0.94, 9.15 1.12 C8.31 1.29, 6.22 0.63, 5.08 0.67 C3.94 0.71, 3.03 1.3, 2.3 1.35 C1.56 1.4, 1.03 1.17, 0.65 0.97 C0.27 0.76, 0.13 0.26, 0.03 0.12" stroke="none" stroke-width="0" fill="#ccbdac" fill-rule="evenodd"></path><path d="M0 0 C0.03 -0.27, -0.13 -1.04, 0.18 -1.64 C0.49 -2.23, 1.09 -3.16, 1.85 -3.56 C2.62 -3.96, 3.89 -4, 4.79 -4.04 C5.69 -4.07, 6.48 -4.05, 7.26 -3.77 C8.04 -3.48, 9 -2.88, 9.47 -2.31 C9.95 -1.75, 10.16 -0.96, 10.1 -0.39 C10.05 0.19, 9.99 0.94, 9.15 1.12 C8.31 1.29, 6.22 0.63, 5.08 0.67 C3.94 0.71, 3.03 1.3, 2.3 1.35 C1.56 1.4, 1.03 1.17, 0.65 0.97 C0.27 0.76, 0.13 0.26, 0.03 0.12 M0 0 C0.03 -0.27, -0.13 -1.04, 0.18 -1.64 C0.49 -2.23, 1.09 -3.16, 1.85 -3.56 C2.62 -3.96, 3.89 -4, 4.79 -4.04 C5.69 -4.07, 6.48 -4.05, 7.26 -3.77 C8.04 -3.48, 9 -2.88, 9.47 -2.31 C9.95 -1.75, 10.16 -0.96, 10.1 -0.39 C10.05 0.19, 9.99 0.94, 9.15 1.12 C8.31 1.29, 6.22 0.63, 5.08 0.67 C3.94 0.71, 3.03 1.3, 2.3 1.35 C1.56 1.4, 1.03 1.17, 0.65 0.97 C0.27 0.76, 0.13 0.26, 0.03 0.12" stroke="#000000" stroke-width="1" fill="none"></path></g></g><mask></mask><g stroke-linecap="round"><g transform="translate(41.907915337944814 50.49738658383933) rotate(0 -1.2585953865884107 -1.948771807521723)" fill-rule="evenodd"><path d="M0 0 C-0.07 -0.01, -0.06 0.02, -0.41 -0.08 C-0.77 -0.18, -1.8 -0.34, -2.14 -0.62 C-2.47 -0.9, -2.56 -1.44, -2.43 -1.76 C-2.29 -2.09, -1.93 -2.39, -1.32 -2.58 C-0.71 -2.77, 1.07 -2.61, 1.22 -2.91 C1.38 -3.21, 0.17 -4.18, -0.38 -4.39 C-0.93 -4.59, -1.63 -4.3, -2.08 -4.12 C-2.53 -3.94, -2.83 -3.54, -3.08 -3.28 C-3.32 -3.02, -3.45 -2.84, -3.56 -2.56 C-3.67 -2.28, -3.74 -1.94, -3.74 -1.6 C-3.75 -1.26, -3.72 -0.8, -3.59 -0.5 C-3.47 -0.2, -3.21 0.03, -2.99 0.2 C-2.77 0.36, -2.6 0.48, -2.26 0.49 C-1.91 0.5, -1.3 0.33, -0.93 0.25 C-0.55 0.17, -0.15 0.04, 0 0" stroke="none" stroke-width="0" fill="#958b7f" fill-rule="evenodd"></path><path d="M0 0 C-0.07 -0.01, -0.06 0.02, -0.41 -0.08 C-0.77 -0.18, -1.8 -0.34, -2.14 -0.62 C-2.47 -0.9, -2.56 -1.44, -2.43 -1.76 C-2.29 -2.09, -1.93 -2.39, -1.32 -2.58 C-0.71 -2.77, 1.07 -2.61, 1.22 -2.91 C1.38 -3.21, 0.17 -4.18, -0.38 -4.39 C-0.93 -4.59, -1.63 -4.3, -2.08 -4.12 C-2.53 -3.94, -2.83 -3.54, -3.08 -3.28 C-3.32 -3.02, -3.45 -2.84, -3.56 -2.56 C-3.67 -2.28, -3.74 -1.94, -3.74 -1.6 C-3.75 -1.26, -3.72 -0.8, -3.59 -0.5 C-3.47 -0.2, -3.21 0.03, -2.99 0.2 C-2.77 0.36, -2.6 0.48, -2.26 0.49 C-1.91 0.5, -1.3 0.33, -0.93 0.25 C-0.55 0.17, -0.15 0.04, 0 0 M0 0 C-0.07 -0.01, -0.06 0.02, -0.41 -0.08 C-0.77 -0.18, -1.8 -0.34, -2.14 -0.62 C-2.47 -0.9, -2.56 -1.44, -2.43 -1.76 C-2.29 -2.09, -1.93 -2.39, -1.32 -2.58 C-0.71 -2.77, 1.07 -2.61, 1.22 -2.91 C1.38 -3.21, 0.17 -4.18, -0.38 -4.39 C-0.93 -4.59, -1.63 -4.3, -2.08 -4.12 C-2.53 -3.94, -2.83 -3.54, -3.08 -3.28 C-3.32 -3.02, -3.45 -2.84, -3.56 -2.56 C-3.67 -2.28, -3.74 -1.94, -3.74 -1.6 C-3.75 -1.26, -3.72 -0.8, -3.59 -0.5 C-3.47 -0.2, -3.21 0.03, -2.99 0.2 C-2.77 0.36, -2.6 0.48, -2.26 0.49 C-1.91 0.5, -1.3 0.33, -0.93 0.25 C-0.55 0.17, -0.15 0.04, 0 0" stroke="#958b7f" stroke-width="1" fill="none"></path></g></g><mask></mask><g stroke-linecap="round"><g transform="translate(37.805117629288816 49.635918328429455) rotate(0 5.071872827949335 -1.3545620198514143)"><path d="M0 0 C0.04 -0.28, -0.1 -1.06, 0.22 -1.65 C0.53 -2.25, 1.13 -3.17, 1.9 -3.57 C2.66 -3.97, 3.93 -4.01, 4.83 -4.05 C5.73 -4.08, 6.52 -4.07, 7.3 -3.78 C8.08 -3.49, 9.04 -2.89, 9.51 -2.33 C9.99 -1.76, 10.2 -0.97, 10.14 -0.4 C10.09 0.17, 10.03 0.93, 9.19 1.11 C8.36 1.28, 6.26 0.61, 5.12 0.65 C3.98 0.69, 3.08 1.29, 2.34 1.34 C1.6 1.39, 1.08 1.18, 0.69 0.95 C0.3 0.73, 0.12 0.16, 0 0 M0 0 C0.04 -0.28, -0.1 -1.06, 0.22 -1.65 C0.53 -2.25, 1.13 -3.17, 1.9 -3.57 C2.66 -3.97, 3.93 -4.01, 4.83 -4.05 C5.73 -4.08, 6.52 -4.07, 7.3 -3.78 C8.08 -3.49, 9.04 -2.89, 9.51 -2.33 C9.99 -1.76, 10.2 -0.97, 10.14 -0.4 C10.09 0.17, 10.03 0.93, 9.19 1.11 C8.36 1.28, 6.26 0.61, 5.12 0.65 C3.98 0.69, 3.08 1.29, 2.34 1.34 C1.6 1.39, 1.08 1.18, 0.69 0.95 C0.3 0.73, 0.12 0.16, 0 0" stroke="#000000" stroke-width="1" fill="none"></path></g></g><mask></mask><g stroke-linecap="round"><g transform="translate(39.350471112323476 45.10573675978566) rotate(0 3.426642301909453 0.2637562871560135)" fill-rule="evenodd"><path d="M0 0 C0.01 -0.17, -0.13 -0.7, 0.08 -0.99 C0.3 -1.28, 0.73 -1.59, 1.29 -1.76 C1.85 -1.94, 2.78 -2.03, 3.43 -2.05 C4.09 -2.07, 4.66 -2.06, 5.23 -1.89 C5.8 -1.72, 6.62 -1.51, 6.85 -1.03 C7.08 -0.54, 7.13 0.41, 6.62 1.01 C6.11 1.61, 4.68 2.45, 3.82 2.58 C2.96 2.7, 2.02 2.04, 1.45 1.74 C0.88 1.43, 0.62 1.04, 0.38 0.75 C0.14 0.46, 0.06 0.13, 0 0" stroke="none" stroke-width="0" fill="#595755" fill-rule="evenodd"></path><path d="M0 0 C0.01 -0.17, -0.13 -0.7, 0.08 -0.99 C0.3 -1.28, 0.73 -1.59, 1.29 -1.76 C1.85 -1.94, 2.78 -2.03, 3.43 -2.05 C4.09 -2.07, 4.66 -2.06, 5.23 -1.89 C5.8 -1.72, 6.62 -1.51, 6.85 -1.03 C7.08 -0.54, 7.13 0.41, 6.62 1.01 C6.11 1.61, 4.68 2.45, 3.82 2.58 C2.96 2.7, 2.02 2.04, 1.45 1.74 C0.88 1.43, 0.62 1.04, 0.38 0.75 C0.14 0.46, 0.06 0.13, 0 0 M0 0 C0.01 -0.17, -0.13 -0.7, 0.08 -0.99 C0.3 -1.28, 0.73 -1.59, 1.29 -1.76 C1.85 -1.94, 2.78 -2.03, 3.43 -2.05 C4.09 -2.07, 4.66 -2.06, 5.23 -1.89 C5.8 -1.72, 6.62 -1.51, 6.85 -1.03 C7.08 -0.54, 7.13 0.41, 6.62 1.01 C6.11 1.61, 4.68 2.45, 3.82 2.58 C2.96 2.7, 2.02 2.04, 1.45 1.74 C0.88 1.43, 0.62 1.04, 0.38 0.75 C0.14 0.46, 0.06 0.13, 0 0" stroke="#000000" stroke-width="1" fill="none"></path></g></g><mask></mask><g stroke-linecap="round"><g transform="translate(43.72150416456384 47.41957488819071) rotate(0 -2.1448816354053406 -2.0392750476686103)" fill-rule="evenodd"><path d="M0 0 C-0.16 -0.05, -0.64 -0.13, -0.99 -0.29 C-1.34 -0.44, -1.8 -0.66, -2.12 -0.92 C-2.44 -1.18, -2.79 -1.54, -2.92 -1.87 C-3.05 -2.19, -3.04 -2.57, -2.89 -2.88 C-2.74 -3.19, -2.34 -3.49, -2.02 -3.72 C-1.69 -3.96, -0.84 -4.24, -0.93 -4.3 C-1.02 -4.37, -2.09 -4.21, -2.54 -4.11 C-2.99 -4.02, -3.36 -3.93, -3.63 -3.75 C-3.89 -3.56, -4 -3.3, -4.11 -3.02 C-4.22 -2.74, -4.34 -2.35, -4.29 -2.07 C-4.24 -1.78, -3.98 -1.54, -3.79 -1.33 C-3.61 -1.12, -3.4 -0.98, -3.19 -0.83 C-2.99 -0.67, -2.83 -0.52, -2.59 -0.38 C-2.34 -0.23, -2.03 -0.06, -1.73 0.04 C-1.43 0.14, -0.96 0.19, -0.8 0.23" stroke="none" stroke-width="0" fill="#454342" fill-rule="evenodd"></path><path d="M0 0 C-0.16 -0.05, -0.64 -0.13, -0.99 -0.29 C-1.34 -0.44, -1.8 -0.66, -2.12 -0.92 C-2.44 -1.18, -2.79 -1.54, -2.92 -1.87 C-3.05 -2.19, -3.04 -2.57, -2.89 -2.88 C-2.74 -3.19, -2.34 -3.49, -2.02 -3.72 C-1.69 -3.96, -0.84 -4.24, -0.93 -4.3 C-1.02 -4.37, -2.09 -4.21, -2.54 -4.11 C-2.99 -4.02, -3.36 -3.93, -3.63 -3.75 C-3.89 -3.56, -4 -3.3, -4.11 -3.02 C-4.22 -2.74, -4.34 -2.35, -4.29 -2.07 C-4.24 -1.78, -3.98 -1.54, -3.79 -1.33 C-3.61 -1.12, -3.4 -0.98, -3.19 -0.83 C-2.99 -0.67, -2.83 -0.52, -2.59 -0.38 C-2.34 -0.23, -2.03 -0.06, -1.73 0.04 C-1.43 0.14, -0.96 0.19, -0.8 0.23 M0 0 C-0.16 -0.05, -0.64 -0.13, -0.99 -0.29 C-1.34 -0.44, -1.8 -0.66, -2.12 -0.92 C-2.44 -1.18, -2.79 -1.54, -2.92 -1.87 C-3.05 -2.19, -3.04 -2.57, -2.89 -2.88 C-2.74 -3.19, -2.34 -3.49, -2.02 -3.72 C-1.69 -3.96, -0.84 -4.24, -0.93 -4.3 C-1.02 -4.37, -2.09 -4.21, -2.54 -4.11 C-2.99 -4.02, -3.36 -3.93, -3.63 -3.75 C-3.89 -3.56, -4 -3.3, -4.11 -3.02 C-4.22 -2.74, -4.34 -2.35, -4.29 -2.07 C-4.24 -1.78, -3.98 -1.54, -3.79 -1.33 C-3.61 -1.12, -3.4 -0.98, -3.19 -0.83 C-2.99 -0.67, -2.83 -0.52, -2.59 -0.38 C-2.34 -0.23, -2.03 -0.06, -1.73 0.04 C-1.43 0.14, -0.96 0.19, -0.8 0.23" stroke="#454342" stroke-width="1" fill="none"></path></g></g><mask></mask><g stroke-linecap="round"><g transform="translate(39.34007808610761 45.09907967465091) rotate(0 3.426642301909453 0.2637562871560135)"><path d="M0 0 C0.01 -0.17, -0.13 -0.7, 0.08 -0.99 C0.3 -1.28, 0.73 -1.59, 1.29 -1.76 C1.85 -1.94, 2.78 -2.03, 3.43 -2.05 C4.09 -2.07, 4.66 -2.06, 5.23 -1.89 C5.8 -1.72, 6.62 -1.51, 6.85 -1.03 C7.08 -0.54, 7.13 0.41, 6.62 1.01 C6.11 1.61, 4.68 2.45, 3.82 2.58 C2.96 2.7, 2.02 2.04, 1.45 1.74 C0.88 1.43, 0.62 1.04, 0.38 0.75 C0.14 0.46, 0.06 0.13, 0 0 M0 0 C0.01 -0.17, -0.13 -0.7, 0.08 -0.99 C0.3 -1.28, 0.73 -1.59, 1.29 -1.76 C1.85 -1.94, 2.78 -2.03, 3.43 -2.05 C4.09 -2.07, 4.66 -2.06, 5.23 -1.89 C5.8 -1.72, 6.62 -1.51, 6.85 -1.03 C7.08 -0.54, 7.13 0.41, 6.62 1.01 C6.11 1.61, 4.68 2.45, 3.82 2.58 C2.96 2.7, 2.02 2.04, 1.45 1.74 C0.88 1.43, 0.62 1.04, 0.38 0.75 C0.14 0.46, 0.06 0.13, 0 0" stroke="#000000" stroke-width="1" fill="none"></path></g></g><mask></mask><g stroke-linecap="round"><g transform="translate(44.74434836097612 44.01677900610258) rotate(0 0.35631786421026845 0.6102935979416486)" fill-rule="evenodd"><path d="M0 0 C0.1 0.08, 0.49 0.31, 0.61 0.51 C0.73 0.71, 0.7 1.1, 0.71 1.22" stroke="none" stroke-width="0" fill="#454342" fill-rule="evenodd"></path><path d="M0 0 C0.1 0.08, 0.49 0.31, 0.61 0.51 C0.73 0.71, 0.7 1.1, 0.71 1.22 M0 0 C0.1 0.08, 0.49 0.31, 0.61 0.51 C0.73 0.71, 0.7 1.1, 0.71 1.22" stroke="#000000" stroke-width="1" fill="none"></path></g></g><mask></mask><g stroke-linecap="round"><g transform="translate(40.9982246668643 50.83870282662042) rotate(0 0.021338980038365207 0.9389151216875291)"><path d="M0 0 C0.01 0.31, 0.04 1.56, 0.04 1.88 M0 0 C0.01 0.31, 0.04 1.56, 0.04 1.88" stroke="#000000" stroke-width="1" fill="none"></path></g></g><mask></mask><g stroke-linecap="round"><g transform="translate(40.97502311144888 52.453015008027705) rotate(0 2.3607511573030706 -0.333973379106709)" fill-rule="evenodd"><path d="M0 0 C0.06 0.19, 0.1 0.91, 0.36 1.16 C0.62 1.41, 1.09 1.44, 1.56 1.5 C2.03 1.57, 2.73 1.6, 3.18 1.54 C3.64 1.49, 4.04 1.44, 4.29 1.16 C4.54 0.88, 4.62 0.33, 4.69 -0.14 C4.77 -0.61, 4.92 -1.37, 4.74 -1.67 C4.56 -1.98, 4.05 -1.9, 3.6 -1.99 C3.16 -2.08, 2.68 -2.28, 2.07 -2.21 C1.47 -2.14, 0.33 -1.94, -0.02 -1.57 C-0.36 -1.2, 0 -0.26, 0 0" stroke="none" stroke-width="0" fill="#ffffff" fill-rule="evenodd"></path><path d="M0 0 C0.06 0.19, 0.1 0.91, 0.36 1.16 C0.62 1.41, 1.09 1.44, 1.56 1.5 C2.03 1.57, 2.73 1.6, 3.18 1.54 C3.64 1.49, 4.04 1.44, 4.29 1.16 C4.54 0.88, 4.62 0.33, 4.69 -0.14 C4.77 -0.61, 4.92 -1.37, 4.74 -1.67 C4.56 -1.98, 4.05 -1.9, 3.6 -1.99 C3.16 -2.08, 2.68 -2.28, 2.07 -2.21 C1.47 -2.14, 0.33 -1.94, -0.02 -1.57 C-0.36 -1.2, 0 -0.26, 0 0 M0 0 C0.06 0.19, 0.1 0.91, 0.36 1.16 C0.62 1.41, 1.09 1.44, 1.56 1.5 C2.03 1.57, 2.73 1.6, 3.18 1.54 C3.64 1.49, 4.04 1.44, 4.29 1.16 C4.54 0.88, 4.62 0.33, 4.69 -0.14 C4.77 -0.61, 4.92 -1.37, 4.74 -1.67 C4.56 -1.98, 4.05 -1.9, 3.6 -1.99 C3.16 -2.08, 2.68 -2.28, 2.07 -2.21 C1.47 -2.14, 0.33 -1.94, -0.02 -1.57 C-0.36 -1.2, 0 -0.26, 0 0" stroke="#000000" stroke-width="1" fill="none"></path></g></g><mask></mask><g stroke-linecap="round"><g transform="translate(43.26015655092954 50.582635066159696) rotate(0 0.04917009496392666 1.6004235028764526)" fill-rule="evenodd"><path d="M0 0 C0.02 0.24, 0.08 0.89, 0.1 1.42 C0.11 1.95, 0.09 2.9, 0.09 3.2" stroke="none" stroke-width="0" fill="#ffffff" fill-rule="evenodd"></path><path d="M0 0 C0.02 0.24, 0.08 0.89, 0.1 1.42 C0.11 1.95, 0.09 2.9, 0.09 3.2 M0 0 C0.02 0.24, 0.08 0.89, 0.1 1.42 C0.11 1.95, 0.09 2.9, 0.09 3.2" stroke="#000000" stroke-width="1" fill="none"></path></g></g><mask></mask><g stroke-linecap="round"><g transform="translate(59.99531377665426 102.23588682921786) rotate(13.687095229378706 2.1795626137659383 -0.3910768421891646)" fill-rule="evenodd"><path d="M0 0 C0.15 0.19, 0.39 0.73, 0.89 1.17 C1.38 1.61, 2.28 2.53, 2.97 2.64 C3.66 2.75, 4.65 2.28, 5.03 1.84 C5.41 1.4, 5.61 0.79, 5.26 0.01 C4.92 -0.77, 3.62 -2.28, 2.97 -2.85 C2.32 -3.42, 1.87 -3.4, 1.37 -3.42 C0.88 -3.44, 0.38 -3.24, 0 -2.97 C-0.38 -2.69, -0.9 -2.28, -0.9 -1.78 C-0.9 -1.29, -0.15 -0.3, 0 0" stroke="none" stroke-width="0" fill="#ffffff" fill-rule="evenodd"></path><path d="M0 0 C0.15 0.19, 0.39 0.73, 0.89 1.17 C1.38 1.61, 2.28 2.53, 2.97 2.64 C3.66 2.75, 4.65 2.28, 5.03 1.84 C5.41 1.4, 5.61 0.79, 5.26 0.01 C4.92 -0.77, 3.62 -2.28, 2.97 -2.85 C2.32 -3.42, 1.87 -3.4, 1.37 -3.42 C0.88 -3.44, 0.38 -3.24, 0 -2.97 C-0.38 -2.69, -0.9 -2.28, -0.9 -1.78 C-0.9 -1.29, -0.15 -0.3, 0 0 M0 0 C0.15 0.19, 0.39 0.73, 0.89 1.17 C1.38 1.61, 2.28 2.53, 2.97 2.64 C3.66 2.75, 4.65 2.28, 5.03 1.84 C5.41 1.4, 5.61 0.79, 5.26 0.01 C4.92 -0.77, 3.62 -2.28, 2.97 -2.85 C2.32 -3.42, 1.87 -3.4, 1.37 -3.42 C0.88 -3.44, 0.38 -3.24, 0 -2.97 C-0.38 -2.69, -0.9 -2.28, -0.9 -1.78 C-0.9 -1.29, -0.15 -0.3, 0 0" stroke="#000000" stroke-width="1" fill="none"></path></g></g><mask></mask><g stroke-linecap="round"><g transform="translate(17.201557258739058 101.93161757824635) rotate(72.62981121584629 2.189475983157763 -0.5371783960633536)" fill-rule="evenodd"><path d="M0 0 C0.2 0.23, 0.73 0.96, 1.22 1.4 C1.72 1.84, 2.39 2.58, 2.97 2.64 C3.56 2.7, 4.4 2.23, 4.74 1.76 C5.09 1.29, 5.33 0.58, 5.04 -0.19 C4.74 -0.96, 3.58 -2.26, 2.97 -2.85 C2.37 -3.44, 1.9 -3.7, 1.4 -3.72 C0.91 -3.74, 0.34 -3.32, 0 -2.97 C-0.35 -2.61, -0.66 -2.06, -0.66 -1.57 C-0.66 -1.07, -0.11 -0.26, 0 0" stroke="none" stroke-width="0" fill="#ffffff" fill-rule="evenodd"></path><path d="M0 0 C0.2 0.23, 0.73 0.96, 1.22 1.4 C1.72 1.84, 2.39 2.58, 2.97 2.64 C3.56 2.7, 4.4 2.23, 4.74 1.76 C5.09 1.29, 5.33 0.58, 5.04 -0.19 C4.74 -0.96, 3.58 -2.26, 2.97 -2.85 C2.37 -3.44, 1.9 -3.7, 1.4 -3.72 C0.91 -3.74, 0.34 -3.32, 0 -2.97 C-0.35 -2.61, -0.66 -2.06, -0.66 -1.57 C-0.66 -1.07, -0.11 -0.26, 0 0 M0 0 C0.2 0.23, 0.73 0.96, 1.22 1.4 C1.72 1.84, 2.39 2.58, 2.97 2.64 C3.56 2.7, 4.4 2.23, 4.74 1.76 C5.09 1.29, 5.33 0.58, 5.04 -0.19 C4.74 -0.96, 3.58 -2.26, 2.97 -2.85 C2.37 -3.44, 1.9 -3.7, 1.4 -3.72 C0.91 -3.74, 0.34 -3.32, 0 -2.97 C-0.35 -2.61, -0.66 -2.06, -0.66 -1.57 C-0.66 -1.07, -0.11 -0.26, 0 0" stroke="#000000" stroke-width="1" fill="none"></path></g></g><mask></mask><g stroke-linecap="round"><g transform="translate(11.619934402900071 59.08519638103422) rotate(155.1023009552614 1.8374046594310016 -0.07654521289865102)" fill-rule="evenodd"><path d="M0 0 C0.19 0.25, 0.67 0.99, 1.15 1.53 C1.64 2.07, 2.33 3.12, 2.9 3.22 C3.48 3.32, 4.5 2.63, 4.61 2.13 C4.73 1.62, 3.99 0.82, 3.61 0.17 C3.23 -0.49, 2.8 -1.21, 2.35 -1.8 C1.91 -2.39, 1.41 -3.19, 0.94 -3.37 C0.48 -3.55, -0.12 -3.09, -0.43 -2.88 C-0.74 -2.66, -0.89 -2.35, -0.94 -2.07 C-0.99 -1.8, -0.9 -1.59, -0.75 -1.24 C-0.59 -0.9, -0.12 -0.21, 0 0" stroke="none" stroke-width="0" fill="#ffffff" fill-rule="evenodd"></path><path d="M0 0 C0.19 0.25, 0.67 0.99, 1.15 1.53 C1.64 2.07, 2.33 3.12, 2.9 3.22 C3.48 3.32, 4.5 2.63, 4.61 2.13 C4.73 1.62, 3.99 0.82, 3.61 0.17 C3.23 -0.49, 2.8 -1.21, 2.35 -1.8 C1.91 -2.39, 1.41 -3.19, 0.94 -3.37 C0.48 -3.55, -0.12 -3.09, -0.43 -2.88 C-0.74 -2.66, -0.89 -2.35, -0.94 -2.07 C-0.99 -1.8, -0.9 -1.59, -0.75 -1.24 C-0.59 -0.9, -0.12 -0.21, 0 0 M0 0 C0.19 0.25, 0.67 0.99, 1.15 1.53 C1.64 2.07, 2.33 3.12, 2.9 3.22 C3.48 3.32, 4.5 2.63, 4.61 2.13 C4.73 1.62, 3.99 0.82, 3.61 0.17 C3.23 -0.49, 2.8 -1.21, 2.35 -1.8 C1.91 -2.39, 1.41 -3.19, 0.94 -3.37 C0.48 -3.55, -0.12 -3.09, -0.43 -2.88 C-0.74 -2.66, -0.89 -2.35, -0.94 -2.07 C-0.99 -1.8, -0.9 -1.59, -0.75 -1.24 C-0.59 -0.9, -0.12 -0.21, 0 0" stroke="#000000" stroke-width="1" fill="none"></path></g></g><mask></mask><g stroke-linecap="round"><g transform="translate(70.69261458657388 59.45420866368801) rotate(271.45101079152755 1.8374046594310016 -0.07654521289865102)" fill-rule="evenodd"><path d="M0 0 C0.19 0.25, 0.67 0.99, 1.15 1.53 C1.64 2.07, 2.33 3.12, 2.9 3.22 C3.48 3.32, 4.5 2.63, 4.61 2.13 C4.73 1.62, 3.99 0.82, 3.61 0.17 C3.23 -0.49, 2.8 -1.21, 2.35 -1.8 C1.91 -2.39, 1.41 -3.19, 0.94 -3.37 C0.48 -3.55, -0.12 -3.09, -0.43 -2.88 C-0.74 -2.66, -0.89 -2.35, -0.94 -2.07 C-0.99 -1.8, -0.9 -1.59, -0.75 -1.24 C-0.59 -0.9, -0.12 -0.21, 0 0" stroke="none" stroke-width="0" fill="#ffffff" fill-rule="evenodd"></path><path d="M0 0 C0.19 0.25, 0.67 0.99, 1.15 1.53 C1.64 2.07, 2.33 3.12, 2.9 3.22 C3.48 3.32, 4.5 2.63, 4.61 2.13 C4.73 1.62, 3.99 0.82, 3.61 0.17 C3.23 -0.49, 2.8 -1.21, 2.35 -1.8 C1.91 -2.39, 1.41 -3.19, 0.94 -3.37 C0.48 -3.55, -0.12 -3.09, -0.43 -2.88 C-0.74 -2.66, -0.89 -2.35, -0.94 -2.07 C-0.99 -1.8, -0.9 -1.59, -0.75 -1.24 C-0.59 -0.9, -0.12 -0.21, 0 0 M0 0 C0.19 0.25, 0.67 0.99, 1.15 1.53 C1.64 2.07, 2.33 3.12, 2.9 3.22 C3.48 3.32, 4.5 2.63, 4.61 2.13 C4.73 1.62, 3.99 0.82, 3.61 0.17 C3.23 -0.49, 2.8 -1.21, 2.35 -1.8 C1.91 -2.39, 1.41 -3.19, 0.94 -3.37 C0.48 -3.55, -0.12 -3.09, -0.43 -2.88 C-0.74 -2.66, -0.89 -2.35, -0.94 -2.07 C-0.99 -1.8, -0.9 -1.59, -0.75 -1.24 C-0.59 -0.9, -0.12 -0.21, 0 0" stroke="#000000" stroke-width="1" fill="none"></path></g></g><mask></mask><g stroke-linecap="round" transform="translate(49.04368087443959 64.90987449454093) rotate(16.687830541157332 7.4452023257013025 7.327024511007636)"><path d="M8.64 -0.01 C10.1 -0.01, 11.73 0.95, 12.81 2.08 C13.88 3.22, 15.04 5.2, 15.1 6.81 C15.17 8.43, 14.27 10.51, 13.21 11.78 C12.14 13.04, 10.16 13.98, 8.69 14.38 C7.23 14.77, 5.81 14.78, 4.42 14.14 C3.03 13.5, 1.05 12.04, 0.34 10.52 C-0.37 8.99, -0.34 6.49, 0.15 4.99 C0.63 3.49, 1.79 2.39, 3.27 1.52 C4.75 0.64, 8.02 -0.01, 9.02 -0.27 C10.01 -0.54, 9.28 -0.27, 9.23 -0.08 M7.07 0.62 C8.69 0.44, 10.89 0.22, 12.07 1.13 C13.25 2.03, 13.76 4.4, 14.14 6.05 C14.53 7.7, 15.12 9.69, 14.36 11.02 C13.6 12.35, 11.2 13.42, 9.59 14 C7.97 14.58, 6.02 15.02, 4.66 14.5 C3.3 13.99, 2.28 12.3, 1.43 10.9 C0.57 9.5, -0.56 7.59, -0.49 6.11 C-0.43 4.63, 0.53 3.12, 1.81 2.02 C3.09 0.92, 6.15 -0.19, 7.17 -0.49 C8.2 -0.8, 8.06 0.05, 7.98 0.17" stroke="none" stroke-width="0" fill="#cde9e9"></path><path d="M6.31 -0.06 C7.76 -0.32, 9.82 -0.07, 11.22 0.86 C12.62 1.79, 14.21 4, 14.69 5.55 C15.17 7.09, 14.78 8.7, 14.12 10.12 C13.46 11.55, 12.04 13.34, 10.73 14.11 C9.41 14.88, 7.71 15.08, 6.24 14.74 C4.76 14.4, 2.92 13.31, 1.89 12.07 C0.86 10.83, 0.03 8.89, 0.08 7.3 C0.12 5.71, 1 3.76, 2.15 2.5 C3.3 1.25, 6.22 0.09, 6.99 -0.23 C7.76 -0.55, 6.83 0.39, 6.78 0.56 M5.23 -0.14 C6.5 -0.56, 9.01 -0.12, 10.45 0.59 C11.88 1.29, 13.1 2.56, 13.86 4.07 C14.62 5.59, 15.3 7.97, 15 9.66 C14.71 11.35, 13.43 13.43, 12.09 14.21 C10.74 14.99, 8.67 14.55, 6.93 14.32 C5.2 14.09, 2.9 13.85, 1.66 12.83 C0.41 11.81, -0.43 9.9, -0.53 8.19 C-0.63 6.47, -0.03 3.84, 1.07 2.55 C2.16 1.26, 5.29 0.73, 6.05 0.42 C6.81 0.12, 5.77 0.67, 5.64 0.71" stroke="#343a40" stroke-width="1" fill="none"></path></g><g stroke-linecap="round"><g transform="translate(55.19257117952486 76.80385668478925) rotate(13.170412991716741 1.1809408284304368 -4.254172335880526)" fill-rule="evenodd"><path d="M1.07 0.01 C0.64 -1.02, -2.92 -4.71, -3.34 -6.21 C-3.76 -7.7, -1.84 -8.54, -1.45 -8.98 C-1.05 -9.42, -1.21 -9.31, -0.96 -8.87 C-0.72 -8.42, -0.51 -6.34, 0.02 -6.33 C0.54 -6.31, 1.07 -8.48, 2.17 -8.76 C3.28 -9.04, 5.84 -8.92, 6.64 -8.01 C7.44 -7.11, 7.73 -4.48, 6.98 -3.34 C6.22 -2.19, 3.32 -1.87, 2.1 -1.14 C0.88 -0.41, 0.14 0.69, -0.33 1.04" stroke="none" stroke-width="0" fill="#ffcaca" fill-rule="evenodd"></path><path d="M-0.18 -0.02 C-0.75 -0.83, -3.31 -3.66, -3.75 -5.11 C-4.19 -6.56, -3.46 -8.2, -2.84 -8.71 C-2.23 -9.22, -0.73 -8.62, -0.08 -8.18 C0.58 -7.73, 0.59 -6.05, 1.1 -6.03 C1.61 -6.01, 2.19 -7.73, 3.01 -8.05 C3.83 -8.38, 5.5 -8.59, 6 -7.99 C6.49 -7.38, 6.74 -5.63, 5.99 -4.4 C5.23 -3.17, 2.39 -1.35, 1.47 -0.59 C0.55 0.17, 0.64 0.02, 0.45 0.17 M0.37 -0.34 C-0.07 -1.08, -2.54 -3.38, -3.12 -4.72 C-3.7 -6.07, -3.61 -7.89, -3.11 -8.41 C-2.61 -8.92, -0.76 -8.21, -0.11 -7.8 C0.55 -7.4, 0.23 -5.89, 0.82 -5.99 C1.41 -6.09, 2.51 -8.04, 3.42 -8.41 C4.33 -8.79, 5.89 -8.9, 6.28 -8.23 C6.68 -7.56, 6.65 -5.58, 5.78 -4.37 C4.92 -3.16, 2.1 -1.71, 1.08 -0.97 C0.07 -0.22, -0.19 0, -0.29 0.1" stroke="#343a40" stroke-width="1" fill="none"></path></g></g><mask></mask><g stroke-linecap="round" transform="translate(57.427033630072174 66.30983339469577) rotate(16.687830541157332 0.6725856098210556 0.7337297561684863)"><path d="M0.8 -0.19 C0.94 -0.17, 0.97 -0.01, 1.03 0.11 C1.09 0.22, 1.05 0.3, 1.15 0.51 C1.24 0.71, 1.65 1.12, 1.59 1.32 C1.53 1.52, 1 1.71, 0.79 1.73 C0.58 1.74, 0.45 1.45, 0.31 1.4 C0.17 1.34, -0.03 1.57, -0.07 1.4 C-0.1 1.22, 0.03 0.6, 0.08 0.35 C0.12 0.1, 0.11 -0.06, 0.2 -0.12 C0.29 -0.18, 0.56 0.03, 0.64 0 C0.72 -0.03, 0.67 -0.29, 0.67 -0.29 M0.36 0.09 C0.55 0.18, 1.33 0.26, 1.44 0.34 C1.54 0.43, 1.07 0.43, 0.99 0.6 C0.91 0.77, 0.94 1.23, 0.96 1.35 C0.97 1.47, 1.22 1.31, 1.05 1.31 C0.89 1.31, 0.22 1.36, -0.03 1.33 C-0.28 1.3, -0.44 1.34, -0.45 1.15 C-0.45 0.96, -0.26 0.35, -0.05 0.18 C0.15 0.01, 0.69 0.21, 0.76 0.13 C0.83 0.05, 0.37 -0.28, 0.36 -0.32 C0.35 -0.36, 0.56 -0.23, 0.71 -0.09" stroke="none" stroke-width="0" fill="#868e96"></path><path d="M0.74 0.27 C0.88 0.29, 0.87 0.06, 0.95 0.14 C1.03 0.22, 1.13 0.58, 1.23 0.76 C1.33 0.95, 1.55 1.11, 1.54 1.25 C1.53 1.39, 1.34 1.54, 1.17 1.6 C0.99 1.67, 0.67 1.7, 0.51 1.63 C0.36 1.57, 0.27 1.41, 0.23 1.22 C0.18 1.02, 0.25 0.58, 0.25 0.45 C0.24 0.32, 0.15 0.52, 0.22 0.45 C0.29 0.37, 0.63 0.04, 0.66 0.02 C0.68 0, 0.39 0.36, 0.37 0.33 M0.32 -0.29 C0.55 -0.27, 1.13 0.02, 1.37 0.24 C1.61 0.46, 1.71 0.92, 1.75 1.03 C1.78 1.14, 1.74 0.75, 1.58 0.87 C1.41 1, 0.98 1.61, 0.74 1.77 C0.5 1.92, 0.29 1.93, 0.13 1.79 C-0.02 1.65, -0.2 1.09, -0.19 0.93 C-0.19 0.77, 0.11 0.9, 0.15 0.82 C0.2 0.74, 0.07 0.63, 0.06 0.47 C0.06 0.31, 0.05 -0.15, 0.14 -0.15 C0.22 -0.15, 0.42 0.41, 0.55 0.47" stroke="#343a40" stroke-width="1" fill="none"></path></g></svg>